<?xml version="1.0" encoding="utf-8"?>
<!-- Generator: Adobe Illustrator 18.1.1, SVG Export Plug-In . SVG Version: 6.00 Build 0)  -->
<svg version="1.1" id="Capa_1" xmlns="http://www.w3.org/2000/svg" xmlns:xlink="http://www.w3.org/1999/xlink" x="0px" y="0px"
	 viewBox="0 0 595.3 841.9" enable-background="new 0 0 595.3 841.9" xml:space="preserve">
<g>
	<path fill="#71935C" d="M297.4,23.3c-141.2,0-256.3,115.1-256.3,256.3c0,56.9,36.4,149.7,111.2,283.7
		c52.8,94.8,104.8,173.8,107.1,177.1l38.2,57.7l38.2-57.7c2.3-3.3,54.1-82.3,107.1-177.1c74.8-134,111.2-226.8,111.2-283.7
		C553.7,138.4,438.6,23.3,297.4,23.3z M297.4,410.8c-73.3,0-132.8-59.5-132.8-132.8s59.5-132.8,132.8-132.8s132.8,59.5,132.8,132.8
		S370.7,410.8,297.4,410.8z"/>
</g>
</svg>
