<?xml version="1.0" encoding="utf-8"?>
<!-- Generator: Adobe Illustrator 18.1.1, SVG Export Plug-In . SVG Version: 6.00 Build 0)  -->
<svg version="1.1" id="Capa_1" xmlns="http://www.w3.org/2000/svg" xmlns:xlink="http://www.w3.org/1999/xlink" x="0px" y="0px"
	 viewBox="-112 199.8 438 434" enable-background="new -112 199.8 438 434" xml:space="preserve">
<g>
	<path fill="none" d="M107.7,336.1c7.2,0.4,12.8,6.5,12.4,13.8l-6.3,83.7l118.6,16.3c7.2,0.4,12.8,6.5,12.4,13.8
		c-0.4,7.2-6.5,12.8-13.8,12.4L99.4,459c0,0,0,0,0,0c-3.6-0.2-6.8-1.8-9.1-4.3c-2.2-2.5-3.5-5.8-3.4-9.5l7-96.8
		C94.3,341.2,100.4,335.7,107.7,336.1z"/>
	<path d="M276.8,420.9c0,95.8-78,173.8-173.8,173.8s-173.8-78-173.8-173.8c0-95.8,77.9-173.8,173.8-173.8c18.9,0,37.1,3.1,54.2,8.7
		v-27.4c-17.2-4.9-35.4-7.5-54.2-7.5c-110.3,0-200,89.7-200,200s89.7,200,200,200s200-89.7,200-200c0-30.3-6.8-59.1-18.9-84.9h-29.5
		C268.7,361.1,276.8,390.1,276.8,420.9z"/>
	<path fill="#F10CCA" d="M157.2,228.4v27.4c41.6,13.7,76.3,42.7,97.4,80.2h29.5C259.6,284,213.4,244.2,157.2,228.4z"/>
</g>
<path fill="#F10CCA" d="M146.4,339.3c-16.4,0-32.8,7.7-43.4,20.3c-10.6-12.5-27-20.3-43.4-20.3c-29.9,0-53.1,23.2-53.1,53.1
	c0,36.7,32.8,66.6,83,111l13.5,13.5l13.5-13.5c50.2-44.4,83-74.3,83-111C199.5,362.4,176.3,339.3,146.4,339.3z"/>
</svg>
