<?xml version="1.0" encoding="UTF-8" standalone="no"?>
<!-- Generator: Adobe Illustrator 18.1.1, SVG Export Plug-In . SVG Version: 6.00 Build 0)  -->

<svg
   xmlns:dc="http://purl.org/dc/elements/1.1/"
   xmlns:cc="http://creativecommons.org/ns#"
   xmlns:rdf="http://www.w3.org/1999/02/22-rdf-syntax-ns#"
   xmlns:svg="http://www.w3.org/2000/svg"
   xmlns="http://www.w3.org/2000/svg"
   xmlns:sodipodi="http://sodipodi.sourceforge.net/DTD/sodipodi-0.dtd"
   xmlns:inkscape="http://www.inkscape.org/namespaces/inkscape"
   version="1.1"
   id="Capa_1"
   x="0px"
   y="0px"
   viewBox="0 13.9 595.3 597"
   enable-background="new 0 13.9 595.3 597"
   xml:space="preserve"
   sodipodi:docname="cercle_montre (copy).svg"><metadata
   id="metadata17"><rdf:RDF><cc:Work
       rdf:about=""><dc:format>image/svg+xml</dc:format><dc:type
         rdf:resource="http://purl.org/dc/dcmitype/StillImage" /></cc:Work></rdf:RDF></metadata><defs
   id="defs15" /><sodipodi:namedview
   pagecolor="#ffffff"
   bordercolor="#666666"
   borderopacity="1"
   objecttolerance="10"
   gridtolerance="10"
   guidetolerance="10"
   inkscape:pageopacity="0"
   inkscape:pageshadow="2"
   inkscape:window-width="640"
   inkscape:window-height="480"
   id="namedview13"
   showgrid="false" />
<g
   id="g10"
   style="fill:#000000">
	<path
   fill="none"
   d="M308.6,202.1c9.8,0.5,17.4,8.8,16.9,18.8l-8.6,113.8l161.2,22.2c9.8,0.5,17.4,8.8,16.9,18.8   c-0.5,9.8-8.8,17.4-18.8,16.9l-178.9-23.2l0,0c-4.9-0.3-9.2-2.4-12.4-5.8c-3-3.4-4.8-7.9-4.6-12.9l9.5-131.6   C290.4,209,298.7,201.5,308.6,202.1z"
   id="path2"
   style="fill:#000000" />
	<path
   d="M538.4,317.3c0,130.2-106,236.2-236.2,236.2S66,447.5,66,317.3S171.9,81.1,302.2,81.1c25.7,0,50.4,4.2,73.7,11.8V55.7   c-23.4-6.7-48.1-10.2-73.7-10.2c-149.9,0-271.8,121.9-271.8,271.8s121.9,271.8,271.8,271.8S574,467.2,574,317.3   c0-41.2-9.2-80.3-25.7-115.4h-40.1C527.4,236,538.4,275.5,538.4,317.3z"
   id="path4"
   style="fill:#000000" />
	<path
   fill="#3498C0"
   d="M375.9,55.7v37.2c56.5,18.6,103.7,58,132.4,109h40.1C515,131.3,452.2,77.2,375.9,55.7z"
   id="path8"
   style="fill:#000000" />
</g>
</svg>
