<?xml version="1.0" encoding="windows-1252"?>
<!-- Generator: Adobe Illustrator 17.1.0, SVG Export Plug-In . SVG Version: 6.00 Build 0)  -->
<!DOCTYPE svg PUBLIC "-//W3C//DTD SVG 1.1//EN" "http://www.w3.org/Graphics/SVG/1.1/DTD/svg11.dtd">
<svg version="1.1" id="Capa_1" xmlns="http://www.w3.org/2000/svg" xmlns:xlink="http://www.w3.org/1999/xlink" x="0px" y="0px" viewBox="0 0 195.732 195.732" style="enable-background:new 0 0 195.732 195.732;" xml:space="preserve">
<path fill="#FFFFFF" d="M169.421,152.547H38.766C17.391,152.547,0,135.157,0,113.781s17.391-38.767,38.766-38.767c5.094,0,10.02,0.967,14.674,2.876  c8.177-20.847,28.363-34.705,50.902-34.705c30.151,0,54.681,24.529,54.681,54.681c0,1.419-0.056,2.847-0.167,4.273  c3.314-1.457,6.906-2.215,10.566-2.215c14.508,0,26.311,11.804,26.311,26.312S183.929,152.547,169.421,152.547z M38.766,79.014  C19.596,79.014,4,94.611,4,113.781s15.596,34.767,34.766,34.767h130.655c12.302,0,22.311-10.009,22.311-22.312  s-10.009-22.312-22.311-22.312c-4.227,0-8.345,1.192-11.909,3.448c-0.661,0.419-1.506,0.413-2.161-0.014  c-0.656-0.427-1.002-1.196-0.887-1.97c0.371-2.494,0.559-5.025,0.559-7.523c0-27.945-22.735-50.681-50.681-50.681  c-21.563,0-40.802,13.685-47.875,34.053c-0.187,0.537-0.593,0.97-1.118,1.189c-0.525,0.218-1.119,0.204-1.632-0.041  C49.025,80.149,43.995,79.014,38.766,79.014z M138.366,136.069h-7.174c-0.809,0-1.538-0.487-1.848-1.234  c-0.31-0.748-0.139-1.608,0.434-2.18l5.651-5.65c0.604-0.604,0.938-1.409,0.938-2.265v-2.33c0-0.735-0.598-1.333-1.333-1.333h-0.167  c-0.735,0-1.333,0.598-1.333,1.333c0,1.104-0.896,2-2,2s-2-0.896-2-2c0-2.94,2.393-5.333,5.333-5.333h0.167  c2.941,0,5.333,2.393,5.333,5.333v2.33c0,1.924-0.749,3.732-2.109,5.093l-2.236,2.236h2.346c1.104,0,2,0.896,2,2  S139.471,136.069,138.366,136.069z M107.272,130.33c-10.859,0-19.693-8.834-19.693-19.692c0-10.859,8.834-19.693,19.693-19.693  s19.693,8.834,19.693,19.693C126.966,121.496,118.131,130.33,107.272,130.33z M107.272,94.944c-8.653,0-15.693,7.04-15.693,15.693  c0,8.652,7.04,15.692,15.693,15.692c8.653,0,15.693-7.04,15.693-15.692C122.966,101.984,115.926,94.944,107.272,94.944z   M78.629,129.887h-6.527c-10.614,0-19.25-8.636-19.25-19.25s8.636-19.25,19.25-19.25h6.527c1.104,0,2,0.896,2,2s-0.896,2-2,2h-6.527  c-8.409,0-15.25,6.841-15.25,15.25s6.841,15.25,15.25,15.25h6.527c1.104,0,2,0.896,2,2S79.734,129.887,78.629,129.887z"/>
<g>
</g>
<g>
</g>
<g>
</g>
<g>
</g>
<g>
</g>
<g>
</g>
<g>
</g>
<g>
</g>
<g>
</g>
<g>
</g>
<g>
</g>
<g>
</g>
<g>
</g>
<g>
</g>
<g>
</g>
</svg>
