<?xml version="1.0" encoding="utf-8"?>
<!-- Generator: Adobe Illustrator 18.1.1, SVG Export Plug-In . SVG Version: 6.00 Build 0)  -->
<svg version="1.1" id="Capa_1" xmlns="http://www.w3.org/2000/svg" xmlns:xlink="http://www.w3.org/1999/xlink" x="0px" y="0px"
	 viewBox="-41 -209.1 224 216" enable-background="new -41 -209.1 224 216" xml:space="preserve">
<g>
	<path d="M90.7-64.1c-4.9-0.8-5-14.4-5-14.4s14.5-14.4,17.7-33.7c8.5,0,13.8-20.5,5.3-27.7c0.4-7.6,10.9-59.7-42.6-59.7
		c-53.5,0-43,52.1-42.6,59.7c-8.5,7.2-3.3,27.7,5.3,27.7c3.2,19.3,17.7,33.7,17.7,33.7s-0.1,13.6-5,14.4C25.4-61.5-34-35.4-34-6.7
		H66h100C166-35.4,106.6-61.5,90.7-64.1z"/>
</g>
</svg>
