<?xml version="1.0" encoding="utf-8"?>
<!-- Generator: Adobe Illustrator 18.1.1, SVG Export Plug-In . SVG Version: 6.00 Build 0)  -->
<svg version="1.1" id="Layer_1" xmlns="http://www.w3.org/2000/svg" xmlns:xlink="http://www.w3.org/1999/xlink" x="0px" y="0px"
	 viewBox="0 0 595.3 841.9" enable-background="new 0 0 595.3 841.9" xml:space="preserve">
<path fill="#71935C" d="M527.6,469.2c2.9-2.9,4.6-7.3,4.1-11.9l-13.1-181.6c-0.5-7.5-6.6-13.4-13.9-13.9h-1
	c10-30.4,28.5-100.6,2.9-137.8c-7.5-10.7-22.2-23.9-49.4-23.9c-20.7,0-33.8,7.5-42.4,16.1c-2.4,2.4-4.4,4.9-6.1,7.3
	c-23.4,33.4-12.2,94.5-2.2,131.2l-83.5-6.1c-4.9-0.2-9.7,1.2-12.9,4.6c-0.2,0.2-0.7-0.2-1,0L48.7,513.9c-5.8,5.8-4.6,15.8,1.2,21.7
	l194.5,194.5c5.8,5.8,16.1,7.3,21.9,1.5l260.8-260.8c0.2-0.2-0.2-1,0-1S527.4,469.4,527.6,469.2z M206.9,468.4
	c-11.2-11.2-17-23.1-17.3-35.8c-0.2-12.7,4.6-23.9,14.9-34.1c10.7-10.7,22.9-15.8,36.3-15.3c13.4,0.5,25.8,6.3,36.8,17.5
	c7.5,7.5,12.2,14.4,14.4,20.5l-15.3,9c-2.4-5.8-5.8-11.2-10.7-16.1c-6.8-6.8-14.1-10.2-21.9-10.2c-8,0-15.3,3.2-22.2,10.2
	c-6.8,6.8-10,14.1-10,21.9s3.4,15.3,10.5,22.2c5.1,5.1,10.2,8.8,15.6,11.2l-9.5,14.4C221.3,480.8,214.3,475.7,206.9,468.4z
	 M277.8,537.3l27.8-27.8l-26.3-26.3L251.5,511l-15.3-15.3l67-67l15.3,15.3l-25.8,25.8l26.3,26.3l25.8-25.8l15.3,15.3l-67,67
	L277.8,537.3z M403.2,553.9l-26.8-26.8l-15.1,15.1l25.1,25.1L374,579.7l-25.1-25.1l-26.8,26.8l-15.3-15.3l67-67l42.4,42.4
	L403.2,553.9z M482.6,340.8c-11.4,11.4-29.9,11.4-41.4,0c-11.4-11.4-11.4-29.9,0-41.4c2.9-2.9,6.6-2.4,10.2-3.9
	c-4.4-11.2-8.8-33.1-12.7-33.1h-0.2c-11.7-48.7-20.7-96.7-5.1-118.8c3.2-4.4,9-11.9,23.6-11.9c15.3,0,21.4,5.4,24.6,10
	c16.1,23.4,3.7,82.5-9,118.1l-12.2-1c4.1,12.2,8.5,24.1,12.9,34.6c3.4,1.5,6.6,3.4,9.3,6.1C494,310.9,494,329.4,482.6,340.8z"/>
</svg>
