<?xml version="1.0" encoding="utf-8"?>
<!-- Generator: Adobe Illustrator 18.1.1, SVG Export Plug-In . SVG Version: 6.00 Build 0)  -->
<svg version="1.1" id="Layer_1" xmlns="http://www.w3.org/2000/svg" xmlns:xlink="http://www.w3.org/1999/xlink" x="0px" y="0px"
	 viewBox="0 0 283.5 283.5" enable-background="new 0 0 283.5 283.5" xml:space="preserve">
<polygon fill="#FFFFFF" stroke="#FFFFFF" stroke-width="20.3008" stroke-linejoin="round" stroke-miterlimit="10" points="
	167.8,268.1 224.9,230.7 224.9,19.5 167.8,57 "/>
<path fill="#FFFFFF" d="M224.9,10.5H54c-5.4,0-9.5,3.6-9.5,9v77.7c0-0.1,1.1-0.5,1.8-0.5h17.3v-67H215v190.6H63.7v-67H46.3
	c-0.7,0-1.8,0-1.8-0.1v77.3c0,5.4,4.1,9,9.5,9h170.7c5.4,0,10.2-3.6,10.2-9V19.5C235.1,14.2,230.2,10.5,224.9,10.5z"/>
<path fill="#FFFFFF" stroke="#FFFFFF" stroke-width="20" stroke-linejoin="round" stroke-miterlimit="10" d="M135.5,125.1L91.5,85.1
	v31.7H48.6c-2.9,0-5.3,4.1-5.3,8.6s2.4,8.6,5.3,8.6h42.9v30.8L135.5,125.1z"/>
</svg>
