<?xml version="1.0" encoding="utf-8"?>
<!-- Generator: Adobe Illustrator 18.1.1, SVG Export Plug-In . SVG Version: 6.00 Build 0)  -->
<svg version="1.1" id="Layer_1" xmlns="http://www.w3.org/2000/svg" xmlns:xlink="http://www.w3.org/1999/xlink" x="0px" y="0px"
	 viewBox="0 0 239 296" enable-background="new 0 0 239 296" xml:space="preserve">
<polygon stroke="#000000" stroke-width="20.3008" stroke-linejoin="round" stroke-miterlimit="10" points="146.7,280 206.3,240.9 
	206.3,20.4 146.7,59.5 "/>
<path d="M206.3,11H27.9c-5.6,0-9.9,3.8-9.9,9.4v81.1c0-0.1,1.2-0.5,1.9-0.5H38V31h158v199H38v-70H19.9c-0.7,0-1.9,0-1.9-0.1v80.7
	c0,5.6,4.3,9.4,9.9,9.4h178.3c5.6,0,10.7-3.8,10.7-9.4V20.4C217,14.8,211.9,11,206.3,11z"/>
<path stroke="#000000" stroke-width="20" stroke-linejoin="round" stroke-miterlimit="10" d="M113,130.6L67,88.9V122H22.2
	c-3,0-5.5,4.3-5.5,9s2.5,9,5.5,9H67v32.2L113,130.6z"/>
</svg>
