<svg xmlns="http://www.w3.org/2000/svg" width="76.544" height="52.248" viewBox="0 0 76.544 52.248">
  <path id="Icon_ionic-ios-cloud-outline" data-name="Icon ionic-ios-cloud-outline" d="M43.048,11.322a17.378,17.378,0,0,1,12.227,5.143,20.519,20.519,0,0,1,5.9,12.621l.179,1.812a2.066,2.066,0,0,0,1.6,1.878L64.6,33.1a9.228,9.228,0,0,1,5.486,3.608,11.528,11.528,0,0,1,2.272,6.874,11.849,11.849,0,0,1-2.825,7.641,8.836,8.836,0,0,1-6.592,3.2H13.587a8.693,8.693,0,0,1-6.562-3.216A11.816,11.816,0,0,1,4.2,43.568,12.392,12.392,0,0,1,6.158,36.89a9.8,9.8,0,0,1,5.037-4.1l1.54-.539a2.124,2.124,0,0,0,1.36-1.992l.03-1.763a8.344,8.344,0,0,1,2.018-5.29,5.944,5.944,0,0,1,4.469-2.188,6.016,6.016,0,0,1,2.436.522l1.659.735a1.859,1.859,0,0,0,2.347-.767l1.016-1.6a17.8,17.8,0,0,1,14.977-8.588m0-4.572A21.92,21.92,0,0,0,24.6,17.314a9.822,9.822,0,0,0-4.021-.865C14.738,16.448,10,22.065,9.91,28.433,3.946,30.506,0,36.874,0,43.568,0,51.765,6.083,59,13.587,59h49.37c7.5,0,13.587-7.233,13.587-15.429,0-7.3-4.828-13.731-11.2-14.972C64.123,16.318,54.617,6.75,43.048,6.75Z" transform="translate(0 -6.75)" fill="red"/>
</svg>
