<?xml version="1.0" encoding="utf-8"?>
<!-- Generator: Adobe Illustrator 18.1.1, SVG Export Plug-In . SVG Version: 6.00 Build 0)  -->
<svg version="1.1" id="Calque_1" xmlns="http://www.w3.org/2000/svg" xmlns:xlink="http://www.w3.org/1999/xlink" x="0px" y="0px"
	 viewBox="0 0 595.3 841.9" enable-background="new 0 0 595.3 841.9" xml:space="preserve">
<g>
	<path fill="#000000" d="M165.4,17.3c39.3,7.3,58.4,36.4,72.8,69.3c16.1,36.4,24.6,75,26.7,114.9c0.9,18.4-0.7,37.1-8.5,53.7
		c-13.5,28.6-16.8,58.9-16.6,89.9c0,3.3,0,6.9,0,10.6c-14.9,3.5-29.6,7.1-44.2,10.9c-19.6,5-39.5,10.2-59.1,14.9
		c-2.4,0.7-6.4-0.2-8-1.9c-11.8-11.4-18.2-26.2-24.1-41.1c-15.6-40-24.8-81.6-31.5-123.9c-4.7-30.5-4.5-60.3-0.9-90.8
		c3.8-33.3,12.5-78,44.7-95.8c9-5,19.6-7.1,29.6-10.6C152.7,17.3,159.1,17.3,165.4,17.3z"/>
	<path fill="#000000" d="M543.6,449.6c-3.5,59.6-21.8,120.6-44,168.1c-4.7,9.9-11.8,18.4-18.2,27.4c-0.9,1.4-4,2.4-5.7,1.9
		c-34.8-8.5-69.3-17.5-103.8-26.2c-0.2,0-0.5-0.2-2.4-0.2c0-13.2,0.2-26.5,0-39.7c-0.5-17-3.8-33.8-11.1-49.4
		c-13.7-28.9-15.4-59.1-10.6-90.3c4.7-30.5,11.6-60.3,24.1-88.7c9.5-21.8,21.8-41.4,40.9-56.5c28.4-22.7,83.2-18.4,105.7,21.8
		C539.8,355.7,546.4,402.3,543.6,449.6z"/>
	<path fill="#000000" d="M378.8,826c-43.5-10.4-53.2-52.7-49.9-84.2c3.1-28.1,14.4-53.4,29.6-77.1c0.9-1.7,4.5-3.1,6.4-2.6
		c17.5,5.2,34.8,11.1,52.3,16.6c17.3,5.4,34.5,10.6,53.2,16.1c-1.9,12.3-3.3,24.8-5.7,37.1c-4,20.6-10.6,40.2-22,57.9
		c-11.6,18.2-27.2,31-48.7,36.2C388.7,826,383.7,826,378.8,826z"/>
	<path fill="#000000" d="M140.8,430.2c35.7-11.4,70.5-22.2,105.5-33.1c1.4-0.5,4.5,0.7,5.4,1.9c17.5,27.7,30.5,57,30.5,90.6
		c0,15.6-3.3,30.5-11.6,44c-19.2,31-56.3,36.4-84,12.5c-13.2-11.4-22.2-25.5-28.9-41.4C147.5,481,143,456.2,140.8,430.2z"/>
</g>
</svg>
