<?xml version="1.0" encoding="utf-8"?>
<!-- Generator: Adobe Illustrator 18.1.1, SVG Export Plug-In . SVG Version: 6.00 Build 0)  -->
<svg version="1.1" id="Calque_1" xmlns="http://www.w3.org/2000/svg" xmlns:xlink="http://www.w3.org/1999/xlink" x="0px" y="0px"
	 viewBox="0 0 595.3 841.9" enable-background="new 0 0 595.3 841.9" xml:space="preserve">
<g id="Calque_1__x2B__blu_qr_code_xA0_Image_1_">
	<g>
		<path fill="#71935C" d="M567.6,415.4c0,71,0.3,142.3,0,213.2c-0.3,45.8-24.3,69.9-70.1,70.1c-139.5,0.3-278.9,0.3-418.4,0
			c-36.1,0-69.9-33-69.9-68.5c-0.3-140.9-0.3-281.7,0-422.6c0-33.3,33.8-67.4,66.8-67.4c142.3-0.3,284.5-0.6,426.5,0
			c41.1,0.3,64.8,25.7,65.1,65.7C567.6,275.9,567.6,345.8,567.6,415.4z M509.8,416.2c0-60.1-1.1-120.5,0.6-180.5
			c0.8-28.2-8.7-38.6-37.7-38.3c-123,1.1-246.2,1.1-369.2,0c-29.6-0.3-37.4,11.2-37.2,38.8c1.1,123,0.8,246.2,0,369.2
			c-0.3,26.3,8.7,36.3,35.5,36.1c124.4-0.8,249-0.8,373.4,0c27.4,0.3,35.5-10.6,34.9-36.6C508.9,542.2,509.8,479.1,509.8,416.2z"/>
	</g>
</g>
<g id="Calque_2">
	<g>
		<path fill="#71935C" d="M95.6,227.5v186.1h186.1V227.5H95.6z M234.2,366.2h-91.4v-91.1h91.1v91.1H234.2z"/>
		<rect x="152" y="284.3" fill="#71935C" width="72.9" height="72.9"/>
	</g>
	<g>
		<path fill="#71935C" d="M299.6,227.5v186.1h186.1V227.5H299.6z M438.5,366.2h-91.1v-91.1h91.1V366.2z"/>
		<rect x="356.3" y="284.3" fill="#71935C" width="72.9" height="72.9"/>
	</g>
	<g>
		<path fill="#71935C" d="M95.6,431.6v186.1h186.1V431.6H95.6L95.6,431.6z M234.2,570.5h-91.4v-91.1h91.1v91.1H234.2z"/>
		<rect x="152" y="488.3" fill="#71935C" width="72.9" height="72.9"/>
	</g>
</g>
</svg>
