<?xml version="1.0" encoding="utf-8"?>
<!-- Generator: Adobe Illustrator 18.1.1, SVG Export Plug-In . SVG Version: 6.00 Build 0)  -->
<svg version="1.1" xmlns="http://www.w3.org/2000/svg" xmlns:xlink="http://www.w3.org/1999/xlink" x="0px" y="0px"
	 viewBox="0 0 225 222.5" enable-background="new 0 0 225 222.5" xml:space="preserve">
<g id="Calque_2">
</g>
<g id="Calque_1">
	<path fill="#72935B" d="M111,210.7c49.2,0,90.1-35.5,98.4-82.3h-10.2c-8.2,41.2-44.6,72.3-88.3,72.3s-80-31.1-88.3-72.3H12.6
		C20.9,175.2,61.8,210.7,111,210.7z"/>
	<g>
		
			<image overflow="visible" opacity="0.4" width="896" height="553" xlink:href="762D3F2B.png"  transform="matrix(0.24 0 0 0.24 3.5 4)">
		</image>
		<g>
			<g>
				<path fill="#777779" d="M21,111c0-49.7,40.3-90,90-90c49.7,0,90,40.3,90,90c0,6.1-0.6,12-1.7,17.7h10.2c1-5.7,1.6-11.7,1.6-17.7
					c0-55.2-44.8-100-100-100S11,55.8,11,111c0,6,0.5,11.9,1.6,17.7h10.2C21.6,123,21,117.1,21,111z"/>
				<path fill="#FFFFFF" d="M111,21c-49.7,0-90,40.3-90,90c0,6.1,0.6,12,1.7,17.7h176.5c1.1-5.7,1.7-11.6,1.7-17.7
					C201,61.3,160.7,21,111,21z"/>
			</g>
		</g>
	</g>
</g>
</svg>
