<svg xmlns="http://www.w3.org/2000/svg" width="9.682" height="10.85" viewBox="0 0 9.682 10.85">
  <g id="Group_574" data-name="Group 574" transform="translate(0)">
    <path id="Path_40" data-name="Path 40" d="M6303.654,452.431l-.552-.63-.8,5.094h1.35Z" transform="translate(-6302.305 -446.873)" fill="#d3d3d3"/>
    <path id="Path_41" data-name="Path 41" d="M6339.752,356.257c-.023,1.142,0,4.226,0,4.226a4.93,4.93,0,0,1,1.288.2,7.265,7.265,0,0,0,2.47.756,9.047,9.047,0,0,0,2.743-.2.781.781,0,0,0,.224-.756.481.481,0,0,1,.184-.573.72.72,0,0,0,.14-.752.632.632,0,0,1,.306-.752c.338-.14.121-.834.083-.911a.436.436,0,0,1,.137-.529c.236-.14.447-1.016.065-1.3a3.708,3.708,0,0,0-1.943-.631c-.637.038-1.217.089-1.344.108s-.217-.045-.159-.363a2.042,2.042,0,0,1,.509-.914,1.946,1.946,0,0,0,.515-1.672c-.077-1.026-.344-1.586-1.478-1.6a5.1,5.1,0,0,1-.79,2.367C6342.044,353.7,6339.774,355.114,6339.752,356.257Z" transform="translate(-6337.919 -350.6)" fill="#d3d3d3"/>
  </g>
</svg>
