<svg xmlns="http://www.w3.org/2000/svg" width="9.689" height="10.874" viewBox="0 0 9.689 10.874">
  <g id="Group_574" data-name="Group 574" transform="translate(0.007 0.006)">
    <path id="Path_40" data-name="Path 40" d="M6303.65,452.431l-.552-.63-.8,5.094h1.35Z" transform="translate(-6302.305 -446.873)" fill="#437bff"/>
    <path id="Path_41" data-name="Path 41" d="M6339.75,356.257c-.023,1.142,0,4.226,0,4.226a4.929,4.929,0,0,1,1.288.2,7.269,7.269,0,0,0,2.471.756,9.047,9.047,0,0,0,2.742-.2.78.78,0,0,0,.225-.756.482.482,0,0,1,.185-.573.72.72,0,0,0,.14-.752.632.632,0,0,1,.306-.752c.338-.14.121-.834.083-.911a.437.437,0,0,1,.138-.529c.235-.14.446-1.016.064-1.3a3.709,3.709,0,0,0-1.943-.631c-.637.038-1.217.089-1.344.108s-.217-.045-.159-.363a2.037,2.037,0,0,1,.509-.914,1.947,1.947,0,0,0,.515-1.672c-.077-1.026-.344-1.586-1.478-1.6a5.088,5.088,0,0,1-.79,2.367C6342.04,353.7,6339.77,355.114,6339.75,356.257Z" transform="translate(-6337.919 -350.6)" fill="#437bff"/>
  </g>
</svg>
