<?xml version="1.0" encoding="utf-8"?>
<!-- Generator: Adobe Illustrator 18.1.1, SVG Export Plug-In . SVG Version: 6.00 Build 0)  -->
<svg version="1.1" id="Capa_1" xmlns="http://www.w3.org/2000/svg" xmlns:xlink="http://www.w3.org/1999/xlink" x="0px" y="0px"
	 viewBox="-56 180.1 131 90.9" enable-background="new -56 180.1 131 90.9" xml:space="preserve">
<g>
	<g id="_x31_9_65_">
		<path d="M46.3,217.5c-2,0-4.1,0.4-6.1,1l-0.4,0.1l-6.7-12.1v-5.3h8c1.5,0,2.8-1.2,2.8-2.8s-1.2-2.8-2.8-2.8H30.5
			c-1.5,0-2.8,1.2-2.8,2.8c0,0.2,0,0.5,0.1,0.7l0,0.1v5.3H3.5l-2-4.5h5.8c1.5,0,2.6-1.2,2.6-2.6c0-1.5-1.2-2.6-2.6-2.6h-19.7
			c-1.5,0-2.6,1.2-2.6,2.6c0,1.5,1.2,2.6,2.6,2.6h8.2l1.8,4l-7.9,14.5l-0.4-0.1c-2-0.7-4-1-6.1-1c-10.2,0-18.4,8.3-18.4,18.4
			c0,10.2,8.3,18.4,18.4,18.4c9,0,16.6-6.5,18.1-15.4l0.1-0.4h7.8l0.2,0.1c1.2,1.1,2.8,1.8,4.4,1.8c3.5,0,6.4-2.9,6.4-6.4
			c0-0.6-0.1-1.2-0.3-1.8l-0.1-0.2l10.6-19.3l4.7,8.5l-0.3,0.3c-4.4,3.5-7,8.8-7,14.4c0,10.2,8.3,18.4,18.4,18.4s18.4-8.3,18.4-18.4
			C64.7,225.7,56.4,217.5,46.3,217.5z M-8.4,225.9l0.5,0.5c1.8,1.7,3.1,3.9,3.7,6.3l0.2,0.6h-8.4L-8.4,225.9z M-4.2,239.2
			c-1.5,5.8-6.7,9.9-12.7,9.9c-7.3,0-13.1-5.9-13.1-13.1s5.9-13.1,13.1-13.1c1.1,0,2.2,0.1,3.3,0.4l0.6,0.2l-6.2,11.3
			c0,0,0,0.1-0.1,0.1c0,0.1-0.1,0.2-0.1,0.2c0,0.1-0.1,0.2-0.1,0.2c0,0.1,0,0.2,0,0.2c0,0.1,0,0.2,0,0.3l0,0c0,0,0,0.1,0,0.1l0,0
			l0,0c0,0,0,0.1,0,0.1c0,0.1,0,0.2,0,0.3c0,0.1,0,0.2,0,0.2c0,0.1,0,0.2,0.1,0.2c0,0.1,0.1,0.2,0.1,0.2c0,0.1,0.1,0.1,0.1,0.2l0,0
			c0,0.1,0.1,0.1,0.1,0.2c0,0.1,0.1,0.1,0.2,0.2c0.1,0.1,0.1,0.1,0.2,0.2c0.1,0.1,0.1,0.1,0.2,0.2c0.1,0,0.1,0.1,0.2,0.1l0,0
			c0,0,0,0,0.1,0l0,0c0,0,0.1,0,0.1,0.1c0.1,0,0.2,0.1,0.2,0.1c0.1,0,0.2,0.1,0.3,0.1c0.1,0,0.1,0,0.2,0c0.1,0,0.2,0,0.3,0
			c0,0,0.1,0,0.1,0l12.9,0L-4.2,239.2z M8.8,229.9c-0.7,0.8-1.2,1.8-1.4,2.9l-0.1,0.4h-6l-0.1-0.4c-0.8-4.5-3.1-8.5-6.7-11.3
			l-0.3-0.3l6.1-11L9,229.7L8.8,229.9z M16,228l-0.4-0.1c-0.5-0.1-1-0.2-1.4-0.3l-0.3,0l-8-17.7H26L16,228z M46.3,249.1
			c-7.3,0-13.1-5.9-13.1-13.1c0-3.6,1.5-7,4.1-9.6l0.5-0.5l6.2,11.3c0.5,0.8,1.3,1.4,2.3,1.4c0.5,0,0.9-0.1,1.3-0.3
			c0.6-0.3,1.1-0.9,1.3-1.6c0.2-0.7,0.1-1.4-0.2-2l-6.2-11.3l0.6-0.2c1.1-0.3,2.2-0.4,3.3-0.4c7.3,0,13.1,5.9,13.1,13.1
			C59.4,243.2,53.5,249.1,46.3,249.1z"/>
	</g>
</g>
</svg>
