<?xml version="1.0" encoding="utf-8"?>
<!-- Generator: Adobe Illustrator 18.1.1, SVG Export Plug-In . SVG Version: 6.00 Build 0)  -->
<svg version="1.1" id="Capa_1" xmlns="http://www.w3.org/2000/svg" xmlns:xlink="http://www.w3.org/1999/xlink" x="0px" y="0px"
	 viewBox="-310.5 380.7 106 87.5" enable-background="new -310.5 380.7 106 87.5" xml:space="preserve">
<g>
	<g>
		<path d="M-208,407.9c-0.5-0.6-1.2-0.9-2-0.9h-9.7c-2.4-6.3-5.5-12.5-9.1-14.9c-12.3-8.1-44.9-8.1-57.2,0
			c-3.6,2.3-6.7,8.6-9.1,14.9h-9.7c-0.8,0-1.5,0.3-2,0.9c-0.5,0.6-0.7,1.4-0.5,2.1l1.4,7c0.2,1.2,1.3,2,2.5,2h2.9
			c-2.8,3.2-4.1,7.3-4.2,11.3c0,5,1.9,9.5,5.3,12.7c0,0,0.1,0.1,0.1,0.1v9.8c0,2.1,1.7,3.8,3.8,3.8h9c2.1,0,3.8-1.7,3.8-3.8V449
			h50.3v3.9c0,2.1,1.7,3.8,3.8,3.8h9c2.1,0,3.8-1.7,3.8-3.8v-9.6c3.7-3.4,5.4-8,5.5-12.6c0-4.2-1.4-8.4-4.3-11.7h3.1
			c1.2,0,2.3-0.9,2.5-2l1.4-7C-207.4,409.3-207.6,408.5-208,407.9z M-281.9,398.5c9.8-6.5,39-6.5,48.8,0c1.9,1.2,4.4,6.3,6.6,12.5
			h-62C-286.2,404.8-283.8,399.7-281.9,398.5z M-293.4,431.3c0-4.2,3.4-7.6,7.6-7.6c4.2,0,7.6,3.4,7.6,7.6c0,4.2-3.4,7.6-7.6,7.6
			C-290,438.9-293.4,435.5-293.4,431.3z M-229,438.9c-4.2,0-7.6-3.4-7.6-7.6c0-4.2,3.4-7.6,7.6-7.6c4.2,0,7.6,3.4,7.6,7.6
			C-221.5,435.5-224.9,438.9-229,438.9z"/>
	</g>
</g>
</svg>
