<svg xmlns="http://www.w3.org/2000/svg" width="15.529" height="15.529" viewBox="0 0 15.529 15.529"><path d="M14.42,2.25H1.106A1.114,1.114,0,0,0,0,3.37V16.66a1.114,1.114,0,0,0,1.106,1.12H14.42a1.117,1.117,0,0,0,1.109-1.12V3.37A1.117,1.117,0,0,0,14.42,2.25ZM4.693,15.561h-2.3V8.15H4.7v7.411ZM3.543,7.138A1.335,1.335,0,1,1,4.877,5.8,1.335,1.335,0,0,1,3.543,7.138Zm9.779,8.423h-2.3V11.956c0-.86-.017-1.965-1.2-1.965-1.2,0-1.383.936-1.383,1.9v3.667h-2.3V8.15H8.347V9.162h.031a2.424,2.424,0,0,1,2.18-1.2c2.329,0,2.763,1.536,2.763,3.532Z" transform="translate(0 -2.25)" fill="#268cbd"/></svg>