<svg xmlns="http://www.w3.org/2000/svg" width="15.529" height="15.529" viewBox="0 0 15.529 15.529"><path d="M13.866,2.25H1.664A1.664,1.664,0,0,0,0,3.914v12.2a1.664,1.664,0,0,0,1.664,1.664h12.2a1.664,1.664,0,0,0,1.664-1.664V3.914A1.664,1.664,0,0,0,13.866,2.25Zm-1.7,5.5c.007.1.007.2.007.295a6.424,6.424,0,0,1-6.468,6.468A6.438,6.438,0,0,1,2.218,13.5a4.79,4.79,0,0,0,.548.028,4.558,4.558,0,0,0,2.822-.971,2.276,2.276,0,0,1-2.125-1.577,2.45,2.45,0,0,0,1.026-.042A2.274,2.274,0,0,1,2.669,8.7V8.677A2.272,2.272,0,0,0,3.7,8.964,2.269,2.269,0,0,1,2.683,7.072a2.245,2.245,0,0,1,.309-1.147A6.455,6.455,0,0,0,7.678,8.3a2.278,2.278,0,0,1,3.879-2.076A4.455,4.455,0,0,0,13,5.678,2.268,2.268,0,0,1,12,6.93a4.524,4.524,0,0,0,1.31-.354A4.785,4.785,0,0,1,12.17,7.755Z" transform="translate(0 -2.25)" fill="#00aaf0"/></svg>