<svg xmlns="http://www.w3.org/2000/svg" width="47.934" height="47.936" viewBox="0 0 47.934 47.936">
  <path id="Icon_ionic-ios-person" data-name="Icon ionic-ios-person" d="M52.411,51.225c-.9-3.97-6.029-5.9-7.8-6.529-1.947-.687-4.719-.849-6.5-1.248A6.608,6.608,0,0,1,35.1,42.062c-.5-.6-.2-6.154-.2-6.154A18.516,18.516,0,0,0,36.32,33.2a34.941,34.941,0,0,0,1.049-4.731s1.024,0,1.386-1.8c.387-1.96,1-2.721.924-4.182-.075-1.436-.861-1.4-.861-1.4a21.887,21.887,0,0,0,.849-6.4C39.778,9.556,35.758,4.5,28.48,4.5c-7.378,0-11.31,5.056-11.2,10.186a22.83,22.83,0,0,0,.836,6.4s-.786-.037-.861,1.4c-.075,1.461.537,2.222.924,4.182.35,1.8,1.386,1.8,1.386,1.8A34.941,34.941,0,0,0,20.616,33.2a18.516,18.516,0,0,0,1.423,2.709s.3,5.555-.2,6.154a6.608,6.608,0,0,1-3.008,1.386c-1.785.4-4.556.562-6.5,1.248-1.773.624-6.9,2.559-7.8,6.529a1,1,0,0,0,.986,1.211H51.437A1,1,0,0,0,52.411,51.225Z" transform="translate(-4.501 -4.5)"/>
</svg>
