<svg xmlns="http://www.w3.org/2000/svg" width="22.435" height="30.856" viewBox="0 0 22.435 30.856">
  <path id="Icon_metro-steps" data-name="Icon metro-steps" d="M12.811,3.856c-2.461,0-4.456,3.286-4.456,7.339,0,2.255.558,4.647,1.114,8.34.436,2.893,1.5,5.29,3.342,5.29s3.082-1.6,3.082-4.52c0-1-.818-2.58-.854-3.933-.066-2.44,1.636-3.413,1.636-5.668,0-4.053-1.4-6.848-3.864-6.848Zm12.023,8.388c-2.461,0-3.864,2.794-3.864,6.848,0,2.255,1.7,3.229,1.636,5.668-.036,1.352-.854,2.938-.854,3.933,0,2.922,1.237,4.52,3.082,4.52s2.906-2.4,3.342-5.29c.556-3.692,1.114-6.085,1.114-8.34C29.29,15.529,27.295,12.244,24.834,12.244Z" transform="translate(-7.605 -3.106)" fill="none" stroke="#618226" stroke-width="1.5"/>
</svg>
