<svg xmlns="http://www.w3.org/2000/svg" width="22.882" height="26.646" viewBox="0 0 22.882 26.646"><g transform="translate(684 -659.177)"><g transform="translate(-684 661)"><path d="M8.559,13.279A2.779,2.779,0,1,1,5.779,10.5a2.779,2.779,0,0,1,2.779,2.779Z" transform="translate(-3 -6.053)" fill="#618226"/><path d="M15.309,7.279A2.779,2.779,0,1,1,12.529,4.5,2.779,2.779,0,0,1,15.309,7.279Z" transform="translate(-4.747 -4.5)" fill="#618226"/><path d="M24.309,7.279A2.779,2.779,0,1,1,21.529,4.5a2.779,2.779,0,0,1,2.779,2.779Z" transform="translate(-7.077 -4.5)" fill="#618226"/><path d="M31.059,13.279A2.779,2.779,0,1,1,28.279,10.5,2.779,2.779,0,0,1,31.059,13.279Z" transform="translate(-8.824 -6.053)" fill="#618226"/><path d="M20.828,20.6c-.967-1.134-1.779-2.1-2.757-3.235a4.716,4.716,0,0,0-1.946-1.467,2.251,2.251,0,0,0-.367-.1,5.6,5.6,0,0,0-.867-.044,4.664,4.664,0,0,0-.878.056,2.251,2.251,0,0,0-.367.1A4.789,4.789,0,0,0,11.7,17.373c-.967,1.134-1.779,2.1-2.757,3.235C7.487,22.065,5.7,23.677,6.031,25.933a3.49,3.49,0,0,0,2.59,2.579c.812.167,3.4-.489,6.159-.489h.2c2.757,0,5.347.645,6.159.489a3.507,3.507,0,0,0,2.59-2.579c.345-2.268-1.445-3.88-2.9-5.336Z" transform="translate(-3.774 -7.412)" fill="#618226"/></g><line x2="22" y2="26" transform="translate(-683.5 659.5)" fill="none" stroke="#618226" stroke-width="1"/></g></svg>