<svg xmlns="http://www.w3.org/2000/svg" width="20.565" height="15.995" viewBox="0 0 20.565 15.995"><path d="M14.852,7.962c0-3.156-3.324-5.712-7.426-5.712S0,4.806,0,7.962a4.844,4.844,0,0,0,1.357,3.285A8.036,8.036,0,0,1,.079,13.193a.284.284,0,0,0-.054.311.28.28,0,0,0,.261.171,6.286,6.286,0,0,0,3.167-.893,9.085,9.085,0,0,0,3.974.893C11.529,13.675,14.852,11.119,14.852,7.962Zm4.356,7.855a4.837,4.837,0,0,0,1.357-3.285c0-2.389-1.91-4.434-4.616-5.288a5.306,5.306,0,0,1,.046.718c0,3.781-3.845,6.855-8.569,6.855a10.7,10.7,0,0,1-1.132-.068c1.125,2.053,3.767,3.5,6.844,3.5a9.035,9.035,0,0,0,3.974-.893,6.286,6.286,0,0,0,3.167.893.281.281,0,0,0,.261-.171.286.286,0,0,0-.054-.311A7.951,7.951,0,0,1,19.208,15.817Z" transform="translate(0 -2.25)" fill="#618226"/></svg>