<svg xmlns="http://www.w3.org/2000/svg" width="20.565" height="21.593" viewBox="0 0 20.565 21.593"><path d="M3,7.113l7.187,7.2H3V17.4H13.272l7.2,7.2,1.3-1.285L4.285,5.828Zm19.023,7.2h1.542V17.4H22.023Zm-2.571,0h1.542V17.4H19.452Zm.874-8.349a3.417,3.417,0,0,0,1.028-2.447H19.812a1.9,1.9,0,0,1-1.9,1.9V6.959a4.134,4.134,0,0,1,4.113,4.185v2.139h1.542V11.144a5.714,5.714,0,0,0-3.239-5.182ZM15.853,9.889h1.573A1.982,1.982,0,0,1,19.452,12v1.285h1.542V11.648A3.413,3.413,0,0,0,17.426,8.4H15.853a2.043,2.043,0,0,1-1.9-2.056,1.819,1.819,0,0,1,1.9-1.8V3a3.445,3.445,0,1,0,0,6.889Zm2.571,7.434V14.311H15.411Z" transform="translate(-3 -3)" fill="#618226"/></svg>