<svg xmlns="http://www.w3.org/2000/svg" width="25.069" height="16.292" viewBox="0 0 25.069 16.292"><g transform="translate(-2.215 -7.748)"><path d="M21.178,20.283c-.625-.223-1.647-.235-2.1-.408a2.966,2.966,0,0,1-.972-.452,6,6,0,0,1-.162-1.591,2.571,2.571,0,0,0,.553-.782,8.687,8.687,0,0,0,.268-1.535s.369.156.514-.581c.123-.637.357-.972.3-1.441s-.324-.357-.324-.357a4.181,4.181,0,0,0,.324-2.088,3.341,3.341,0,0,0-3.607-3.3,3.353,3.353,0,0,0-3.612,3.3,4.243,4.243,0,0,0,.318,2.088s-.262-.112-.324.357.168.8.3,1.441c.145.743.514.581.514.581a8.771,8.771,0,0,0,.268,1.535,2.571,2.571,0,0,0,.553.782,6,6,0,0,1-.162,1.591,2.854,2.854,0,0,1-.972.447c-.447.173-1.468.2-2.1.419a3.94,3.94,0,0,0-2.557,3.752H23.73A3.933,3.933,0,0,0,21.178,20.283Z" transform="translate(-1.231 0)" fill="#618226"/><path d="M8.273,18.276a3.791,3.791,0,0,0,1.865-.519c-.865-1.312-.4-2.842-.575-4.271a2.356,2.356,0,0,0-2.607-2.278H6.933a2.363,2.363,0,0,0-2.585,2.278c-.179,1.424.318,3.127-.57,4.271a3.508,3.508,0,0,0,1.87.463h0a2.828,2.828,0,0,1-.056.938,1.41,1.41,0,0,1-.67.307,12.955,12.955,0,0,0-1.446.4,2.351,2.351,0,0,0-1.262,2.077H6.7a4.011,4.011,0,0,1,1.787-1.664,3.749,3.749,0,0,1,1.379-.29s.212-.335-.486-.463a4.76,4.76,0,0,1-1.072-.374C8.2,19.03,8.273,18.276,8.273,18.276Z" transform="translate(0 -0.712)" fill="#618226"/><path d="M25.673,18.276a3.791,3.791,0,0,1-1.865-.519c.865-1.312.4-2.842.575-4.271a2.356,2.356,0,0,1,2.607-2.278h.022A2.363,2.363,0,0,1,29.6,13.486c.179,1.424-.318,3.127.57,4.271a3.508,3.508,0,0,1-1.87.463h0a2.828,2.828,0,0,0,.056.938,1.41,1.41,0,0,0,.67.307,12.955,12.955,0,0,1,1.446.4,2.351,2.351,0,0,1,1.262,2.077H27.247a4.011,4.011,0,0,0-1.787-1.664,3.749,3.749,0,0,0-1.379-.29s-.212-.335.486-.463a4.76,4.76,0,0,0,1.072-.374C25.745,19.03,25.673,18.276,25.673,18.276Z" transform="translate(-4.446 -0.712)" fill="#618226"/></g></svg>