<svg xmlns="http://www.w3.org/2000/svg" width="16.292" height="16.292" viewBox="0 0 16.292 16.292"><path d="M13.238,10.183H10.183a1.018,1.018,0,0,1,0-2.037h3.055s3.055-3.4,3.055-5.091a3.055,3.055,0,0,0-6.11,0A6.713,6.713,0,0,0,11.624,6.11H10.183a3.055,3.055,0,0,0,0,6.11h3.055a1.018,1.018,0,0,1,0,2.037H5.9A21.969,21.969,0,0,1,4.4,16.292h8.84a3.055,3.055,0,0,0,0-6.11Zm0-8.146a1.018,1.018,0,1,1-1.018,1.018A1.017,1.017,0,0,1,13.238,2.037ZM3.055,8.146A3.056,3.056,0,0,0,0,11.2c0,1.687,3.055,5.091,3.055,5.091S6.11,12.887,6.11,11.2A3.056,3.056,0,0,0,3.055,8.146Zm0,4.073A1.018,1.018,0,1,1,4.073,11.2,1.017,1.017,0,0,1,3.055,12.219Z" fill="#618226"/></svg>