<svg xmlns="http://www.w3.org/2000/svg" width="20.234" height="16.188" viewBox="0 0 20.234 16.188"><path d="M18.492,10.753l-.474-1.185-.84-2.1A4.7,4.7,0,0,0,12.794,4.5H7.44A4.7,4.7,0,0,0,3.057,7.468l-.84,2.1-.474,1.185A2.692,2.692,0,0,0,0,13.268v2.023a2.676,2.676,0,0,0,.674,1.768v2.279a1.349,1.349,0,0,0,1.349,1.349H3.372a1.349,1.349,0,0,0,1.349-1.349V17.99H15.513v1.349a1.349,1.349,0,0,0,1.349,1.349h1.349a1.349,1.349,0,0,0,1.349-1.349V17.059a2.674,2.674,0,0,0,.674-1.768V13.268A2.692,2.692,0,0,0,18.492,10.753ZM5.562,8.47A2.024,2.024,0,0,1,7.44,7.2h5.354A2.024,2.024,0,0,1,14.673,8.47l.84,2.1H4.721l.84-2.1ZM3.372,15.283a1.272,1.272,0,0,1-1.349-1.345,1.272,1.272,0,0,1,1.349-1.345A2.6,2.6,0,0,1,5.4,14.611C5.4,15.418,4.182,15.283,3.372,15.283Zm13.49,0c-.809,0-2.023.134-2.023-.672a2.6,2.6,0,0,1,2.023-2.017,1.272,1.272,0,0,1,1.349,1.345,1.272,1.272,0,0,1-1.349,1.345Z" transform="translate(0 -4.5)" fill="#618226"/></svg>