<svg xmlns="http://www.w3.org/2000/svg" width="37.574" height="25.647" viewBox="0 0 37.574 25.647">
  <path id="Icon_ionic-ios-cloud-outline" data-name="Icon ionic-ios-cloud-outline" d="M21.131,8.994a8.53,8.53,0,0,1,6,2.525,10.072,10.072,0,0,1,2.9,6.2l.088.89a1.014,1.014,0,0,0,.785.922l.807.16A4.53,4.53,0,0,1,34.4,21.457a5.659,5.659,0,0,1,1.115,3.374,5.816,5.816,0,0,1-1.387,3.751A4.337,4.337,0,0,1,30.9,30.153H6.67a4.267,4.267,0,0,1-3.221-1.579,5.8,5.8,0,0,1-1.387-3.751,6.083,6.083,0,0,1,.961-3.278A4.808,4.808,0,0,1,5.5,19.533l.756-.264a1.043,1.043,0,0,0,.668-.978l.015-.866a4.1,4.1,0,0,1,.991-2.6,2.918,2.918,0,0,1,2.194-1.074,2.953,2.953,0,0,1,1.2.256l.814.361A.912.912,0,0,0,13.28,14l.5-.785a8.737,8.737,0,0,1,7.352-4.216m0-2.244a10.76,10.76,0,0,0-9.054,5.186,4.821,4.821,0,0,0-1.974-.425c-2.869,0-5.195,2.757-5.239,5.883A7.809,7.809,0,0,0,0,24.823C0,28.847,2.986,32.4,6.67,32.4H30.9c3.683,0,6.67-3.551,6.67-7.574,0-3.583-2.37-6.74-5.5-7.35C31.477,11.447,26.81,6.75,21.131,6.75Z" transform="translate(0 -6.75)" fill="#618226"/>
</svg>
