<svg xmlns="http://www.w3.org/2000/svg" width="41.665" height="26.514" viewBox="0 0 41.665 26.514">
  <path id="Icon_material-people-outline" data-name="Icon material-people-outline" d="M30.855,22.651a22.7,22.7,0,0,0-8.522,1.894,22.34,22.34,0,0,0-8.522-1.894C9.7,22.651,1.5,24.7,1.5,28.806v5.208H43.165V28.806C43.165,24.7,34.965,22.651,30.855,22.651Zm-7.575,8.522H4.341V28.806c0-1.023,4.848-3.314,9.469-3.314s9.469,2.292,9.469,3.314Zm17.045,0H26.12V28.806a3.446,3.446,0,0,0-.985-2.311,18.271,18.271,0,0,1,5.719-1c4.621,0,9.469,2.292,9.469,3.314ZM13.81,20.757a6.629,6.629,0,1,0-6.629-6.629A6.636,6.636,0,0,0,13.81,20.757Zm0-10.416a3.788,3.788,0,1,1-3.788,3.788A3.8,3.8,0,0,1,13.81,10.341ZM30.855,20.757a6.629,6.629,0,1,0-6.629-6.629A6.636,6.636,0,0,0,30.855,20.757Zm0-10.416a3.788,3.788,0,1,1-3.788,3.788A3.8,3.8,0,0,1,30.855,10.341Z" transform="translate(-1.5 -7.5)" fill="#618226"/>
</svg>
