<svg xmlns="http://www.w3.org/2000/svg" xmlns:xlink="http://www.w3.org/1999/xlink" width="327" height="289" viewBox="0 0 327 289">
  <defs>
    <clipPath id="clip-path">
      <rect id="Rectangle_1484" data-name="Rectangle 1484" width="327" height="289" transform="translate(24 97)" fill="#fff"/>
    </clipPath>
    <linearGradient id="linear-gradient" x1="0.531" y1="1.017" x2="0.531" y2="-0.007" gradientUnits="objectBoundingBox">
      <stop offset="0" stop-color="gray" stop-opacity="0.251"/>
      <stop offset="0.54" stop-color="gray" stop-opacity="0.122"/>
      <stop offset="1" stop-color="gray" stop-opacity="0.102"/>
    </linearGradient>
    <linearGradient id="linear-gradient-2" x1="0.5" y1="1" x2="0.5" y2="0.001" xlink:href="#linear-gradient"/>
  </defs>
  <g id="img_economie_ville-région_screen_8" data-name="img economie ville-région screen 8" transform="translate(-24 -97)" clip-path="url(#clip-path)">
    <g id="undraw_co-working_825n" transform="translate(24.002 115.658)">
      <path id="Path_1165" data-name="Path 1165" d="M317.979,147.945c-12.049,18.124-9,43.315-2.933,63.269,2.043,6.679,4.351,13.738,2.979,21.121-1.678,9.028-8.518,15.982-15.53,19.875-12.778,7.1-27.611,6.516-38.614-1.514-9.51-6.942-15.973-18.786-25.679-25.387-16.221-11.007-37.882-5.118-56.587,4.342-13.233,6.685-27.762,15.212-40.3,9.863-8.824-3.764-14.544-13.9-17.386-24.847-1.371-5.285-2.27-11.042-5.194-15.118a19.389,19.389,0,0,0-6.5-5.436c-22.092-12.472-51.241-3.254-72.615-17.278-14.424-9.454-23.006-28.463-26.21-48.641s-1.625-41.64.516-62.761c1.52-15.007,3.7-31.063,12.072-43.094A38.531,38.531,0,0,1,61.883,5.719C74.553,7.245,85.694,14.8,95.391,23.928c12.119,11.38,23.16,25.813,38.547,29.764,10.479,2.7,21.771.166,32.784-1.167,18.413-2.2,36.659-.978,54.783.479,17.354,1.395,34.818,3.032,51.115,8.979,11.532,4.208,20.526,12.588,31.337,18.162,7.047,3.633,14.9,4.269,21.5,9.046,8.135,5.88,15.326,16.542,12.5,29.717C335.268,131.452,324.372,138.315,317.979,147.945Z" transform="translate(-11.585 -5.468)" fill="#618226" opacity="0.1"/>
      <rect id="Rectangle_1508" data-name="Rectangle 1508" width="11.932" height="18.063" transform="translate(257.021 74.824)" fill="#618226" opacity="0.1"/>
      <rect id="Rectangle_1509" data-name="Rectangle 1509" width="9.612" height="14.549" transform="translate(258.179 76.581)" fill="#618226" opacity="0.1"/>
      <rect id="Rectangle_1510" data-name="Rectangle 1510" width="18.325" height="18.063" transform="translate(232.801 62.277)" fill="#618226" opacity="0.1"/>
      <rect id="Rectangle_1511" data-name="Rectangle 1511" width="14.762" height="14.549" transform="translate(234.581 64.033)" fill="#618226" opacity="0.1"/>
      <rect id="Rectangle_1512" data-name="Rectangle 1512" width="56.012" height="1.491" transform="translate(18.856 35.402)" fill="#618226" opacity="0.1"/>
      <rect id="Rectangle_1513" data-name="Rectangle 1513" width="56.012" height="1.491" transform="translate(18.856 42.694)" fill="#618226" opacity="0.1"/>
      <rect id="Rectangle_1514" data-name="Rectangle 1514" width="5.722" height="63.946" transform="translate(113.345 132.079)" fill="#d6d6e3"/>
      <path id="Path_1166" data-name="Path 1166" d="M297.8,144.262V85.277a6.2,6.2,0,0,1,6.2-6.2h0a6.2,6.2,0,0,1,6.189,6.2v71.387a6.2,6.2,0,0,1-6.2,6.2h-38.4a6.2,6.2,0,0,1-6.2-6.2h0a6.2,6.2,0,0,1,6.2-6.2H291.6a6.2,6.2,0,0,0,6.2-6.2Z" transform="translate(-11.585 -5.468)" fill="#aebee1"/>
      <path id="Path_1167" data-name="Path 1167" d="M297.8,144.262V85.277a6.2,6.2,0,0,1,6.2-6.2h0a6.2,6.2,0,0,1,6.189,6.2v71.387a6.2,6.2,0,0,1-6.2,6.2h-38.4a6.2,6.2,0,0,1-6.2-6.2h0a6.2,6.2,0,0,1,6.2-6.2H291.6a6.2,6.2,0,0,0,6.2-6.2Z" transform="translate(-11.585 -5.468)" fill="#535461"/>
      <path id="Path_1168" data-name="Path 1168" d="M259.39,156.331a6.2,6.2,0,0,1,6.192-5.868H291.6a6.2,6.2,0,0,0,6.2-6.2V85.277a6.2,6.2,0,0,1,5.9-6.2v77.252Z" transform="translate(-11.585 -5.468)" fill="#d6d6e3"/>
      <path id="Path_1169" data-name="Path 1169" d="M67.757,146.252V87.267a6.2,6.2,0,0,0-6.186-6.2h0a6.2,6.2,0,0,0-6.2,6.2v71.387a6.2,6.2,0,0,0,6.2,6.215h38.4a6.2,6.2,0,0,0,6.2-6.2h0a6.2,6.2,0,0,0-6.2-6.2H73.961a6.2,6.2,0,0,1-6.2-6.215Z" transform="translate(-11.585 -5.468)" fill="#aebee1"/>
      <path id="Path_1170" data-name="Path 1170" d="M67.757,146.252V87.267a6.2,6.2,0,0,0-6.186-6.2h0a6.2,6.2,0,0,0-6.2,6.2v71.387a6.2,6.2,0,0,0,6.2,6.215h38.4a6.2,6.2,0,0,0,6.2-6.2h0a6.2,6.2,0,0,0-6.2-6.2H73.961a6.2,6.2,0,0,1-6.2-6.215Z" transform="translate(-11.585 -5.468)" fill="#535461"/>
      <path id="Path_1171" data-name="Path 1171" d="M106.164,158.321a6.2,6.2,0,0,0-6.192-5.868H73.961a6.2,6.2,0,0,1-6.2-6.2V87.267a6.2,6.2,0,0,0-5.893-6.192v77.246Z" transform="translate(-11.585 -5.468)" fill="#d6d6e3"/>
      <rect id="Rectangle_1515" data-name="Rectangle 1515" width="5.722" height="65.437" transform="translate(226.557 132.079)" fill="#d6d6e3"/>
      <rect id="Rectangle_1516" data-name="Rectangle 1516" width="5.722" height="4.727" transform="translate(113.345 132.079)" opacity="0.1"/>
      <rect id="Rectangle_1517" data-name="Rectangle 1517" width="5.722" height="4.727" transform="translate(226.557 132.079)" opacity="0.1"/>
      <path id="Path_1172" data-name="Path 1172" d="M145.368,98.606q-.137,1.512-.347,3.064h-.808V98.606Z" transform="translate(-11.585 -5.468)" opacity="0.1"/>
      <path id="Path_1173" data-name="Path 1173" d="M168.814,130.436a1.765,1.765,0,0,1-1.655,1.885H149.7V130.5h14.532a.913.913,0,0,0,.7-1.366l-13.178-26.8a1.167,1.167,0,0,0-1.021-.659h-6.519V98.609h8.232a.817.817,0,0,1,.715.461l15.107,29.18a4.96,4.96,0,0,1,.549,2.186Z" transform="translate(-11.585 -5.468)" fill="#535461"/>
      <path id="Path_1174" data-name="Path 1174" d="M136.739,125.575l-.239.4-2.238-1.494,6.925-53.245h1.783s.073.245.193.712C144.355,76.552,150.218,102.613,136.739,125.575Z" transform="translate(-11.585 -5.468)" fill="#535461"/>
      <path id="Path_1175" data-name="Path 1175" d="M143.159,71.95l-6.42,53.625-.239.4-2.238-1.494,6.925-53.245h1.783S143.039,71.492,143.159,71.95Z" transform="translate(-11.585 -5.468)" opacity="0.1"/>
      <rect id="Rectangle_1518" data-name="Rectangle 1518" width="55.235" height="4.231" transform="matrix(0.119, -0.993, 0.993, 0.119, 120.652, 120.062)" fill="#d6d6e3"/>
      <path id="Path_1176" data-name="Path 1176" d="M117.839,130.457a.5.5,0,0,1-.5.5h-.747a.5.5,0,0,1-.5-.5.242.242,0,0,1,0-.058.5.5,0,0,1,.493-.438h.747a.5.5,0,0,1,.481.379A.461.461,0,0,1,117.839,130.457Z" transform="translate(-11.585 -5.468)" fill="#e3edf9"/>
      <path id="Path_1177" data-name="Path 1177" d="M120.077,130.457a.5.5,0,0,1-.5.5h-.747a.5.5,0,0,1-.5-.5.49.49,0,0,1,.02-.137.47.47,0,0,1,.125-.213.487.487,0,0,1,.35-.146h.747a.5.5,0,0,1,.458.292A.514.514,0,0,1,120.077,130.457Z" transform="translate(-11.585 -5.468)" fill="#e3edf9"/>
      <path id="Path_1178" data-name="Path 1178" d="M122.067,130.457a.5.5,0,0,1-.5.5h-.747a.5.5,0,0,1-.5-.5.473.473,0,0,1,.044-.207.508.508,0,0,1,.452-.292h.747a.5.5,0,0,1,.5.5Z" transform="translate(-11.585 -5.468)" fill="#e3edf9"/>
      <path id="Path_1179" data-name="Path 1179" d="M124.309,130.457a.5.5,0,0,1-.5.5h-.747a.5.5,0,0,1-.409-.785l.058-.064a.487.487,0,0,1,.35-.146h.747a.5.5,0,0,1,.362.16A.481.481,0,0,1,124.309,130.457Z" transform="translate(-11.585 -5.468)" fill="#e3edf9"/>
      <path id="Path_1180" data-name="Path 1180" d="M117.825,130.337a.461.461,0,0,1,.015.12.5.5,0,0,1-.5.5h-.747a.5.5,0,0,1-.5-.5.242.242,0,0,1,0-.058Z" transform="translate(-11.585 -5.468)" opacity="0.1"/>
      <path id="Path_1181" data-name="Path 1181" d="M120.037,130.258a.514.514,0,0,1,.041.2.5.5,0,0,1-.5.5h-.747a.5.5,0,0,1-.5-.5.49.49,0,0,1,.02-.137Z" transform="translate(-11.585 -5.468)" opacity="0.1"/>
      <path id="Path_1182" data-name="Path 1182" d="M121.995,130.191a.5.5,0,0,1-.423.762h-.747a.5.5,0,0,1-.5-.5.473.473,0,0,1,.044-.207Z" transform="translate(-11.585 -5.468)" opacity="0.1"/>
      <path id="Path_1183" data-name="Path 1183" d="M124.309,130.457a.5.5,0,0,1-.5.5h-.747a.5.5,0,0,1-.409-.785l1.517-.053a.481.481,0,0,1,.137.338Z" transform="translate(-11.585 -5.468)" opacity="0.1"/>
      <path id="Path_1184" data-name="Path 1184" d="M128.785,132.447h-14.43v-.657a1.123,1.123,0,0,1,1.086-1.123l11.573-.4a1.716,1.716,0,0,1,1.774,1.713Z" transform="translate(-11.585 -5.468)" fill="#d6d6e3"/>
      <path id="Path_1185" data-name="Path 1185" d="M199.976,130.436a1.765,1.765,0,0,0,1.655,1.885H219.1V130.5H204.555a.913.913,0,0,1-.7-1.366l13.178-26.8a1.167,1.167,0,0,1,1.021-.659h6.522V98.609h-8.226a.817.817,0,0,0-.7.458l-15.107,29.18a4.96,4.96,0,0,0-.56,2.189Z" transform="translate(-11.585 -5.468)" fill="#535461"/>
      <path id="Path_1186" data-name="Path 1186" d="M232.054,125.575l.239.4,2.238-1.494-6.924-53.245h-1.783s-.073.245-.193.712C224.435,76.552,218.561,102.613,232.054,125.575Z" transform="translate(-11.585 -5.468)" fill="#535461"/>
      <path id="Path_1187" data-name="Path 1187" d="M225.632,71.95l6.42,53.625.239.4,2.238-1.494-6.922-53.245h-1.783S225.751,71.492,225.632,71.95Z" transform="translate(-11.585 -5.468)" opacity="0.1"/>
      <rect id="Rectangle_1519" data-name="Rectangle 1519" width="4.231" height="55.235" transform="matrix(0.993, -0.119, 0.119, 0.993, 214.204, 65.717)" fill="#d6d6e3"/>
      <path id="Path_1188" data-name="Path 1188" d="M250.951,130.457a.5.5,0,0,0,.5.5h.747a.5.5,0,0,0,.5-.5.241.241,0,0,0,0-.058.5.5,0,0,0-.493-.438h-.747a.5.5,0,0,0-.481.379.46.46,0,0,0-.023.117Z" transform="translate(-11.585 -5.468)" fill="#e3edf9"/>
      <path id="Path_1189" data-name="Path 1189" d="M248.713,130.457a.5.5,0,0,0,.5.5h.747a.5.5,0,0,0,.5-.5.491.491,0,0,0-.02-.137.47.47,0,0,0-.125-.213.487.487,0,0,0-.35-.146H249.2a.5.5,0,0,0-.458.292A.513.513,0,0,0,248.713,130.457Z" transform="translate(-11.585 -5.468)" fill="#e3edf9"/>
      <path id="Path_1190" data-name="Path 1190" d="M246.723,130.457a.5.5,0,0,0,.5.5h.747a.5.5,0,0,0,.5-.5.473.473,0,0,0-.044-.207.508.508,0,0,0-.452-.292h-.747a.5.5,0,0,0-.5.5Z" transform="translate(-11.585 -5.468)" fill="#e3edf9"/>
      <path id="Path_1191" data-name="Path 1191" d="M244.482,130.457a.5.5,0,0,0,.5.5h.747a.5.5,0,0,0,.409-.785l-.058-.064a.487.487,0,0,0-.35-.146h-.747a.5.5,0,0,0-.362.16A.481.481,0,0,0,244.482,130.457Z" transform="translate(-11.585 -5.468)" fill="#e3edf9"/>
      <path id="Path_1192" data-name="Path 1192" d="M250.966,130.337a.461.461,0,0,0-.015.12.5.5,0,0,0,.5.5h.747a.5.5,0,0,0,.5-.5.241.241,0,0,0,0-.058Z" transform="translate(-11.585 -5.468)" opacity="0.1"/>
      <path id="Path_1193" data-name="Path 1193" d="M248.754,130.258a.514.514,0,0,0-.041.2.5.5,0,0,0,.5.5h.747a.5.5,0,0,0,.5-.5.491.491,0,0,0-.02-.137Z" transform="translate(-11.585 -5.468)" opacity="0.1"/>
      <path id="Path_1194" data-name="Path 1194" d="M246.8,130.191a.5.5,0,0,0,.423.762h.747a.5.5,0,0,0,.5-.5.472.472,0,0,0-.044-.207Z" transform="translate(-11.585 -5.468)" opacity="0.1"/>
      <path id="Path_1195" data-name="Path 1195" d="M244.482,130.457a.5.5,0,0,0,.5.5h.747a.5.5,0,0,0,.409-.785l-1.517-.053a.482.482,0,0,0-.137.339Z" transform="translate(-11.585 -5.468)" opacity="0.1"/>
      <path id="Path_1196" data-name="Path 1196" d="M240.006,132.447h14.43v-.657a1.123,1.123,0,0,0-1.086-1.123l-11.573-.4A1.716,1.716,0,0,0,240,131.98Z" transform="translate(-11.585 -5.468)" fill="#d6d6e3"/>
      <path id="Path_1197" data-name="Path 1197" d="M300.4,140.358c6.732-11.418,4.292-34.45,4.564-34.891.242-.388-.686-11.234-6.872-13.884-1.118-2.215-2.218-4.71-2.218-4.71a1.964,1.964,0,0,1-.356.266q-.073-.2-.143-.4c-.079-.231-.152-.467-.225-.7a4.534,4.534,0,0,0,.528.134,2.2,2.2,0,0,0,1.412-.125,1.573,1.573,0,0,0,.406-.312,3.075,3.075,0,0,0,.983-1.459l1.8-4.313a33.566,33.566,0,0,0,2.06-5.967,16.8,16.8,0,0,0-.718-9.3,5.931,5.931,0,0,0-2.016-2.941c-2-1.36-4.794-.42-7.085-1.217-.753-.263-1.433-.706-2.186-.975a6.721,6.721,0,0,0-5.025.455,23.91,23.91,0,0,0-4.2,2.918c-.674.516-1.751,1.05-2.545,1.751a2.563,2.563,0,0,0-1.249,2.285c.128,1.094,1.281,1.751,2.355,2.008.178.041.362.073.543.105a10.5,10.5,0,0,0,4.485,17.45,24.607,24.607,0,0,1,1.418,3.189q.079.225.155.452a18.214,18.214,0,0,0-3.429,1.15c-.837.694.916,6.776.916,6.776-.446.566-.9,1.211-1.363,1.9a41.013,41.013,0,0,0-6.466,17.675c-.292,2.308-.671,4.669-1.153,6.913L253.87,120.4l-.044.516-.5-.123h0l-1.57-.388-.061.353-.239-.114c-3.89-1.824-10.444-4.152-14.882-1.751-4.683,2.521,5.425,5.871,11.911,7.654a10.538,10.538,0,0,0-5.836,1.83c-4.7,3.525,8.6,5.36,14.882,6.011l.254.026v.134l2.177.2.511.047.05.776s3.116.511,7.28,1.129a126.993,126.993,0,0,1-14.707,2.492,10.761,10.761,0,0,0-9.168,7.718,6.863,6.863,0,0,0-.105,3.712c1.214,4.24-.268,35.431-.6,42.148L235.53,197.2s-11.964,1.459-3.995,4.263a16.388,16.388,0,0,0,2.2.584c-1.05.677-.96,1.561,2.136,2.647,7.975,2.8,26.513-.123,26.513-.123s-.406-3.286-1.065-6.017l.2.018s-1.914-7.123.989-10.715-.487-30.931-.487-30.931,5.083-2.1,20.277-2.241c12.256,3.146,18.229-8.115,18.144-13.937A3.1,3.1,0,0,1,300.4,140.358Z" transform="translate(-11.585 -5.468)" fill="url(#linear-gradient)"/>
      <path id="Path_1198" data-name="Path 1198" d="M255.11,122.663l-1.3,5.252s-1.167-.263-2.918-.712c-5.929-1.535-18.436-5.22-13.423-7.925,4.322-2.334,10.686-.064,14.465,1.707,1.383.651,2.422,1.234,2.886,1.509C255.016,122.6,255.11,122.663,255.11,122.663Z" transform="translate(-11.585 -5.468)" fill="#f8b9bf"/>
      <path id="Path_1199" data-name="Path 1199" d="M254.745,124.145l-.934,3.793s-1.167-.263-2.918-.712l1.053-6.218c1.383.651,2.422,1.234,2.886,1.509Z" transform="translate(-11.585 -5.468)" opacity="0.1"/>
      <path id="Path_1200" data-name="Path 1200" d="M243.163,122.829l-3.624-.9,1.126-6.641,2.9.715Z" fill="#d9dfe8"/>
      <path id="Path_1201" data-name="Path 1201" d="M243.163,122.829l-1.564-.385.589-6.776,1.374.338Z" opacity="0.1"/>
      <path id="Path_1202" data-name="Path 1202" d="M289.718,100.789s-6.96-4.021-10.053,7.514-3.385,16.849-3.385,16.849L254.3,120.757l-.7,8.028s23.5,7.587,26.455,7.035,12.548-16.633,12.548-16.633S301.326,106.724,289.718,100.789Z" transform="translate(-11.585 -5.468)" fill="#618226"/>
      <g id="Group_543" data-name="Group 543" opacity="0.1">
        <path id="Path_1203" data-name="Path 1203" d="M255.11,122.663l-1.3,5.252s-1.167-.263-2.918-.712c-5.929-1.535-18.436-5.22-13.423-7.925,4.322-2.334,10.686-.064,14.465,1.707,1.383.651,2.422,1.234,2.886,1.509C255.016,122.6,255.11,122.663,255.11,122.663Z" transform="translate(-11.585 -5.468)"/>
        <path id="Path_1204" data-name="Path 1204" d="M254.745,124.145l-.934,3.793s-1.167-.263-2.918-.712l1.053-6.218c1.383.651,2.422,1.234,2.886,1.509Z" transform="translate(-11.585 -5.468)" opacity="0.1"/>
        <path id="Path_1205" data-name="Path 1205" d="M243.163,122.829l-3.624-.9,1.126-6.641,2.9.715Z"/>
        <path id="Path_1206" data-name="Path 1206" d="M243.163,122.829l-1.564-.385.589-6.776,1.374.338Z" opacity="0.1"/>
        <path id="Path_1207" data-name="Path 1207" d="M289.718,101.081s-6.96-4.021-10.053,7.514-3.385,16.849-3.385,16.849L254.3,121.049l-.7,8.028s23.5,7.587,26.455,7.035,12.548-16.633,12.548-16.633S301.326,107.016,289.718,101.081Z" transform="translate(-11.585 -5.468)"/>
      </g>
      <path id="Path_1208" data-name="Path 1208" d="M245.451,190.169l-8.973,5.168s-11.625,1.424-3.881,4.138,25.749-.12,25.749-.12-1-8.089-2.4-9.218S245.451,190.169,245.451,190.169Z" transform="translate(-11.585 -5.468)" fill="#68739d"/>
      <path id="Path_1209" data-name="Path 1209" d="M280.424,132.187a62.453,62.453,0,0,1-12.4,4.351,124.234,124.234,0,0,1-14.488,2.469,10.45,10.45,0,0,0-8.906,7.479,6.665,6.665,0,0,0-.1,3.618c1.322,4.619-.651,42.169-.651,42.169l13.627,1.261s-1.859-6.919.963-10.406S258,153.1,258,153.1s4.937-2.043,19.691-2.177c13.668,3.5,19.3-11.459,17.19-15.652S280.424,132.187,280.424,132.187Z" transform="translate(-11.585 -5.468)" fill="#6394e2"/>
      <g id="Group_544" data-name="Group 544" opacity="0.1">
        <path id="Path_1210" data-name="Path 1210" d="M245.451,190.169l-8.973,5.168s-11.625,1.424-3.881,4.138,25.749-.12,25.749-.12-1-8.089-2.4-9.218S245.451,190.169,245.451,190.169Z" transform="translate(-11.585 -5.468)"/>
        <path id="Path_1211" data-name="Path 1211" d="M280.424,132.187a62.453,62.453,0,0,1-12.4,4.351,124.234,124.234,0,0,1-14.488,2.469,10.45,10.45,0,0,0-8.906,7.479,6.665,6.665,0,0,0-.1,3.618c1.322,4.619-.651,42.169-.651,42.169l13.627,1.261s-1.859-6.919.963-10.406S258,153.1,258,153.1s4.937-2.043,19.691-2.177c13.668,3.5,19.3-11.459,17.19-15.652S280.424,132.187,280.424,132.187Z" transform="translate(-11.585 -5.468)"/>
      </g>
      <path id="Path_1212" data-name="Path 1212" d="M249.659,193.306l-8.973,5.168s-11.62,1.412-3.881,4.138,25.749-.12,25.749-.12-1-8.089-2.4-9.218S249.659,193.306,249.659,193.306Z" transform="translate(-11.585 -5.468)" fill="#68739d"/>
      <path id="Path_1213" data-name="Path 1213" d="M281.883,154.058c-14.754.134-19.691,2.177-19.691,2.177s3.294,26.554.473,30.03-.963,10.406-.963,10.406l-13.627-1.261s.023-.444.061-1.237c.327-6.525,1.765-36.814.584-40.931a6.665,6.665,0,0,1,.1-3.607,10.452,10.452,0,0,1,8.9-7.5,120.7,120.7,0,0,0,14.485-2.469l.228-.058a61.924,61.924,0,0,0,12.168-4.292s12.346-1.109,14.456,3.084a4.96,4.96,0,0,1,.432,2.116C299.6,146.176,293.791,157.113,281.883,154.058Z" transform="translate(-11.585 -5.468)" fill="#6394e2"/>
      <path id="Path_1214" data-name="Path 1214" d="M261.331,129.208l-.5,5.4s-1.2-.085-2.982-.271c-6.09-.633-19.008-2.413-14.441-5.836,3.928-2.941,10.557-1.657,14.558-.467,1.459.438,2.58.861,3.079,1.062C261.229,129.164,261.331,129.208,261.331,129.208Z" transform="translate(-11.585 -5.468)" fill="#f8b9bf"/>
      <path id="Path_1215" data-name="Path 1215" d="M297.576,93.914s-1.827,1.43-4.059,3c-2.448.554-5.29,1.013-7.339,1.31a11.65,11.65,0,0,0-.534-7.263,27.339,27.339,0,0,0-3.662-6.735l12.349-3.855c-.969,2.454-.531,5.252.292,7.686A25.343,25.343,0,0,0,297.576,93.914Z" transform="translate(-11.585 -5.468)" fill="#f8b9bf"/>
      <path id="Path_1216" data-name="Path 1216" d="M261.191,130.728l-.359,3.878s-1.2-.085-2.982-.271l.117-6.306c1.459.438,2.58.861,3.079,1.062Z" transform="translate(-11.585 -5.468)" opacity="0.1"/>
      <path id="Path_1217" data-name="Path 1217" d="M250.228,129.365l-3.718-.344.123-6.735,2.973.274Z" fill="#d9dfe8"/>
      <path id="Path_1218" data-name="Path 1218" d="M297.576,93.914s-1.827,1.43-4.059,3c-2.448.554-5.29,1.013-7.339,1.31a11.65,11.65,0,0,0-.534-7.263c3.017-.875,7.333-2.008,8.982-2.918A25.344,25.344,0,0,0,297.576,93.914Z" transform="translate(-11.585 -5.468)" opacity="0.1"/>
      <path id="Path_1219" data-name="Path 1219" d="M295.107,88.189s2.066,4.689,3.367,6.808-15.121,4.085-15.121,4.085-1.7-5.9-.89-6.58S293.733,89.561,295.107,88.189Z" transform="translate(-11.585 -5.468)" fill="#d9dfe8"/>
      <path id="Path_1220" data-name="Path 1220" d="M299.516,140.521a14.774,14.774,0,0,1-2.556,3.309c-7.254,6.892-19.145-.292-24.512-4.219a61.925,61.925,0,0,0,12.168-4.292s12.346-1.109,14.456,3.084a4.961,4.961,0,0,1,.444,2.118Z" transform="translate(-11.585 -5.468)" opacity="0.1"/>
      <path id="Path_1221" data-name="Path 1221" d="M297.007,143.337c-8.246,7.832-22.469-2.539-26.3-5.594-.622-.5-.969-.8-.969-.8,1.514-1.418,2.845-4.424,3.9-8.1a71.087,71.087,0,0,0,2.121-10.733,39.831,39.831,0,0,1,6.28-17.167c.446-.671.875-1.3,1.322-1.847a27.107,27.107,0,0,1,8.346-6.475c11.042-3.227,12.527,13.152,12.232,13.624S306.593,134.23,297.007,143.337Z" transform="translate(-11.585 -5.468)" fill="#618226"/>
      <path id="Path_1222" data-name="Path 1222" d="M298.075,120.947s-7.1,17.333-9.939,18.322c-1.625.563-10.307-.5-17.432-1.523-.622-.5-.969-.8-.969-.8,1.514-1.418,2.845-4.424,3.9-8.1l9.177.438s-.511-5.293.837-17.164,8.821-8.929,8.821-8.929C304.833,107.328,298.075,120.947,298.075,120.947Z" transform="translate(-11.585 -5.468)" opacity="0.1"/>
      <path id="Path_1223" data-name="Path 1223" d="M250.228,129.365l-1.6-.149-.426-6.784,1.409.128Z" opacity="0.1"/>
      <path id="Path_1224" data-name="Path 1224" d="M292.291,102.423s-7.473-2.938-8.821,8.929-.837,17.164-.837,17.164l-22.39-1.071.5,8.042s24.369,4,27.208,3.014,9.939-18.322,9.939-18.322S304.643,106.561,292.291,102.423Z" transform="translate(-11.585 -5.468)" fill="#618226"/>
      <path id="Path_1225" data-name="Path 1225" d="M292.793,84.851c-.327-1.774,1.526-1.751,2.191-3.42l-12.349,3.855a27.25,27.25,0,0,1,2.288,3.639,10.246,10.246,0,0,0,1.964.379C289.831,89.584,290.751,86.686,292.793,84.851Z" transform="translate(-11.585 -5.468)" opacity="0.1"/>
      <circle id="Ellipse_323" data-name="Ellipse 323" cx="10.201" cy="10.201" r="10.201" transform="translate(264.481 81.831) rotate(-84.72)" fill="#f8b9bf"/>
      <path id="Path_1226" data-name="Path 1226" d="M277.1,68.866c.125,1.062,1.246,1.71,2.288,1.949a10.024,10.024,0,0,1,3.084.808c1.459.9,1.853,2.895,1.669,4.611-.1.969-.248,2.156.546,2.72a2.115,2.115,0,0,0,.817.292,7.662,7.662,0,0,0,2.515.088,3.577,3.577,0,0,1,1.459-.038,2.22,2.22,0,0,1,1.366,1.806c.149.779.067,1.59.187,2.375a4.931,4.931,0,0,0,3.887,4.009,2.139,2.139,0,0,0,1.371-.123,2.741,2.741,0,0,0,1.077-1.494l1.751-4.19a32.643,32.643,0,0,0,2-5.8,16.317,16.317,0,0,0-.7-9.028A5.786,5.786,0,0,0,298.46,64c-1.946-1.322-4.669-.409-6.881-1.167-.732-.254-1.392-.686-2.121-.945a6.533,6.533,0,0,0-4.882.444,23.088,23.088,0,0,0-4.085,2.845C279.332,66.076,276.878,67.03,277.1,68.866Z" transform="translate(-11.585 -5.468)" opacity="0.1"/>
      <path id="Path_1227" data-name="Path 1227" d="M277.366,68.641c.125,1.062,1.246,1.71,2.288,1.949a10.023,10.023,0,0,1,3.084.808c1.459.9,1.853,2.895,1.669,4.61-.1.969-.248,2.156.546,2.72a2.116,2.116,0,0,0,.817.292,7.663,7.663,0,0,0,2.515.088,3.576,3.576,0,0,1,1.459-.038,2.22,2.22,0,0,1,1.366,1.806c.149.779.067,1.59.187,2.375a4.931,4.931,0,0,0,3.887,4.009,2.139,2.139,0,0,0,1.371-.123,2.741,2.741,0,0,0,1.077-1.494l1.751-4.19a32.648,32.648,0,0,0,2-5.8,16.317,16.317,0,0,0-.7-9.028,5.786,5.786,0,0,0-1.958-2.857c-1.946-1.322-4.669-.409-6.881-1.167-.732-.254-1.392-.686-2.121-.945a6.534,6.534,0,0,0-4.882.444,23.086,23.086,0,0,0-4.085,2.845C279.6,65.851,277.15,66.806,277.366,68.641Z" transform="translate(-11.585 -5.468)" fill="#b96b6b"/>
      <path id="Path_1228" data-name="Path 1228" d="M285.816,108.942s-3.9,15.133-7.774,16.534-2.165,1.8-2.165,1.8" transform="translate(-11.585 -5.468)" opacity="0.1"/>
      <rect id="Rectangle_1520" data-name="Rectangle 1520" width="4.234" height="27.829" transform="translate(270.181 158.911)" fill="#d6d6e3"/>
      <rect id="Rectangle_1521" data-name="Rectangle 1521" width="4.234" height="2.063" transform="translate(270.181 158.911)" opacity="0.1"/>
      <path id="Path_1229" data-name="Path 1229" d="M273.295,164.233v.584a1.369,1.369,0,0,0,1.369,1.369H293.1a1.369,1.369,0,0,0,1.369-1.369v-.584a1.369,1.369,0,0,0-1.369-1.369H274.663A1.369,1.369,0,0,0,273.295,164.233Z" transform="translate(-11.585 -5.468)" fill="#d6d6e3"/>
      <path id="Path_1230" data-name="Path 1230" d="M273.61,163.364h20.546a1.363,1.363,0,0,0-1.056-.5H274.663A1.363,1.363,0,0,0,273.61,163.364Z" transform="translate(-11.585 -5.468)" opacity="0.1"/>
      <rect id="Rectangle_1522" data-name="Rectangle 1522" width="34.786" height="3.327" rx="1.605" transform="translate(254.908 185.226)" fill="#d6d6e3"/>
      <circle id="Ellipse_324" data-name="Ellipse 324" cx="2.118" cy="2.118" r="2.118" transform="translate(285.609 188.552)" fill="#535461"/>
      <circle id="Ellipse_325" data-name="Ellipse 325" cx="2.118" cy="2.118" r="2.118" transform="translate(254.754 188.552)" fill="#535461"/>
      <circle id="Ellipse_326" data-name="Ellipse 326" cx="2.118" cy="2.118" r="2.118" transform="translate(270.181 188.552)" fill="#535461"/>
      <rect id="Rectangle_1523" data-name="Rectangle 1523" width="33.274" height="5.142" rx="2.48" transform="translate(267.8 124.729)" fill="#d6d6e3"/>
      <path id="Path_1231" data-name="Path 1231" d="M286,190.694s-1.663,1.643-4.234,0" transform="translate(-11.585 -5.468)" opacity="0.1"/>
      <path id="Path_1232" data-name="Path 1232" d="M312.659,132.82v.406a2.116,2.116,0,0,1-2.116,2.116H281.5a2.116,2.116,0,0,1-2.116-2.116v-.406Z" transform="translate(-11.585 -5.468)" opacity="0.1"/>
      <rect id="Rectangle_1524" data-name="Rectangle 1524" width="5.722" height="72.91" transform="translate(239.991 132.079)" fill="#d6d6e3"/>
      <rect id="Rectangle_1525" data-name="Rectangle 1525" width="5.722" height="4.727" transform="translate(239.991 132.079)" opacity="0.1"/>
      <rect id="Rectangle_1526" data-name="Rectangle 1526" width="4.234" height="27.829" transform="translate(67.973 160.901)" fill="#d6d6e3"/>
      <rect id="Rectangle_1527" data-name="Rectangle 1527" width="4.234" height="2.063" transform="translate(67.973 160.901)" opacity="0.1"/>
      <path id="Path_1233" data-name="Path 1233" d="M92.26,166.226v.584a1.369,1.369,0,0,1-1.369,1.369H72.455a1.369,1.369,0,0,1-1.369-1.369v-.584a1.369,1.369,0,0,1,1.369-1.357H90.891a1.369,1.369,0,0,1,1.369,1.369Z" transform="translate(-11.585 -5.468)" fill="#d6d6e3"/>
      <path id="Path_1234" data-name="Path 1234" d="M91.947,165.354H71.4a1.363,1.363,0,0,1,1.056-.484H90.891a1.363,1.363,0,0,1,1.056.484Z" transform="translate(-11.585 -5.468)" opacity="0.1"/>
      <rect id="Rectangle_1528" data-name="Rectangle 1528" width="34.786" height="3.327" rx="1.605" transform="translate(52.697 187.216)" fill="#d6d6e3"/>
      <circle id="Ellipse_327" data-name="Ellipse 327" cx="2.118" cy="2.118" r="2.118" transform="translate(52.545 190.542)" fill="#535461"/>
      <circle id="Ellipse_328" data-name="Ellipse 328" cx="2.118" cy="2.118" r="2.118" transform="translate(83.398 190.542)" fill="#535461"/>
      <circle id="Ellipse_329" data-name="Ellipse 329" cx="2.118" cy="2.118" r="2.118" transform="translate(67.97 190.542)" fill="#535461"/>
      <path id="Path_1235" data-name="Path 1235" d="M79.557,192.684s1.663,1.643,4.234,0" transform="translate(-11.585 -5.468)" opacity="0.1"/>
      <path id="Path_1236" data-name="Path 1236" d="M187.575,108.907s-4.751-8.634-3.014-16.14a14.931,14.931,0,0,0-.832-9.408A25.112,25.112,0,0,0,181.5,79.35" transform="translate(-11.585 -5.468)" fill="none" stroke="#535461" stroke-miterlimit="10" stroke-width="0.584"/>
      <path id="Path_1237" data-name="Path 1237" d="M182.556,74.611c.248,1.132-1.08,4.864-1.08,4.864s-2.769-2.831-3.02-3.963a2.1,2.1,0,1,1,4.085-.9Z" transform="translate(-11.585 -5.468)" fill="#618226"/>
      <path id="Path_1238" data-name="Path 1238" d="M187.321,80.135c-.406,1.086-3.548,3.5-3.548,3.5s-.788-3.881-.379-4.961a2.1,2.1,0,1,1,3.931,1.459Z" transform="translate(-11.585 -5.468)" fill="#618226"/>
      <path id="Path_1239" data-name="Path 1239" d="M189.527,90.879c-.9.732-4.829,1.226-4.829,1.226s1.281-3.747,2.18-4.479a2.1,2.1,0,1,1,2.65,3.254Z" transform="translate(-11.585 -5.468)" fill="#618226"/>
      <path id="Path_1240" data-name="Path 1240" d="M189.366,99.383c-.762.875-4.552,2.025-4.552,2.025s.627-3.91,1.389-4.783a2.1,2.1,0,1,1,3.16,2.758Z" transform="translate(-11.585 -5.468)" fill="#618226"/>
      <path id="Path_1241" data-name="Path 1241" d="M179.518,84.8c.986.61,4.946.584,4.946.584s-1.751-3.551-2.737-4.161a2.1,2.1,0,1,0-2.209,3.566Z" transform="translate(-11.585 -5.468)" fill="#618226"/>
      <path id="Path_1242" data-name="Path 1242" d="M179.459,94.746c1.123.292,4.9-.91,4.9-.91s-2.734-2.866-3.858-3.151a2.1,2.1,0,0,0-1.039,4.062Z" transform="translate(-11.585 -5.468)" fill="#618226"/>
      <path id="Path_1243" data-name="Path 1243" d="M180.723,104.422c1.056.473,4.981-.07,4.981-.07s-2.212-3.286-3.268-3.758a2.1,2.1,0,1,0-1.713,3.831Z" transform="translate(-11.585 -5.468)" fill="#618226"/>
      <path id="Path_1244" data-name="Path 1244" d="M182.556,74.611c.248,1.132-1.08,4.864-1.08,4.864s-2.769-2.831-3.02-3.963a2.1,2.1,0,1,1,4.085-.9Z" transform="translate(-11.585 -5.468)" fill="#618226"/>
      <path id="Path_1245" data-name="Path 1245" d="M187.321,80.135c-.406,1.086-3.548,3.5-3.548,3.5s-.788-3.881-.379-4.961a2.1,2.1,0,1,1,3.931,1.459Z" transform="translate(-11.585 -5.468)" fill="#618226"/>
      <path id="Path_1246" data-name="Path 1246" d="M189.527,90.879c-.9.732-4.829,1.226-4.829,1.226s1.281-3.747,2.18-4.479a2.1,2.1,0,1,1,2.65,3.254Z" transform="translate(-11.585 -5.468)" fill="#618226"/>
      <path id="Path_1247" data-name="Path 1247" d="M189.366,99.383c-.762.875-4.552,2.025-4.552,2.025s.627-3.91,1.389-4.783a2.1,2.1,0,1,1,3.16,2.758Z" transform="translate(-11.585 -5.468)" fill="#618226"/>
      <path id="Path_1248" data-name="Path 1248" d="M179.518,84.8c.986.61,4.946.584,4.946.584s-1.751-3.551-2.737-4.161a2.1,2.1,0,1,0-2.209,3.566Z" transform="translate(-11.585 -5.468)" fill="#618226"/>
      <path id="Path_1249" data-name="Path 1249" d="M179.459,94.746c1.123.292,4.9-.91,4.9-.91s-2.734-2.866-3.858-3.151a2.1,2.1,0,0,0-1.039,4.062Z" transform="translate(-11.585 -5.468)" fill="#618226"/>
      <path id="Path_1250" data-name="Path 1250" d="M180.723,104.422c1.056.473,4.981-.07,4.981-.07s-2.212-3.286-3.268-3.758a2.1,2.1,0,1,0-1.713,3.831Z" transform="translate(-11.585 -5.468)" fill="#618226"/>
      <path id="Path_1251" data-name="Path 1251" d="M185.643,132.855h0a5,5,0,0,1-4.993-5.317l1.4-22.148h7.19l1.4,22.148a5,5,0,0,1-4.993,5.317Z" transform="translate(-11.585 -5.468)" fill="#618226"/>
      <rect id="Rectangle_1529" data-name="Rectangle 1529" width="4.085" height="16.925" transform="translate(24.395 18.506)" fill="#618226" opacity="0.1"/>
      <rect id="Rectangle_1530" data-name="Rectangle 1530" width="4.085" height="16.925" transform="translate(29.647 18.506)" fill="#618226" opacity="0.1"/>
      <rect id="Rectangle_1531" data-name="Rectangle 1531" width="4.085" height="16.925" transform="translate(34.9 18.506)" fill="#618226" opacity="0.1"/>
      <rect id="Rectangle_1532" data-name="Rectangle 1532" width="4.085" height="16.925" transform="translate(40.152 18.506)" fill="#618226" opacity="0.1"/>
      <rect id="Rectangle_1533" data-name="Rectangle 1533" width="4.085" height="16.925" transform="translate(50.657 18.506)" fill="#618226" opacity="0.1"/>
      <rect id="Rectangle_1534" data-name="Rectangle 1534" width="4.085" height="16.925" transform="translate(55.91 18.506)" fill="#618226" opacity="0.1"/>
      <rect id="Rectangle_1535" data-name="Rectangle 1535" width="4.085" height="0.875" transform="translate(24.395 21.716)" fill="#618226" opacity="0.1"/>
      <rect id="Rectangle_1536" data-name="Rectangle 1536" width="4.085" height="0.875" transform="translate(24.395 32.221)" fill="#618226" opacity="0.1"/>
      <rect id="Rectangle_1537" data-name="Rectangle 1537" width="4.085" height="0.875" transform="translate(29.647 21.716)" fill="#618226" opacity="0.1"/>
      <rect id="Rectangle_1538" data-name="Rectangle 1538" width="4.085" height="0.875" transform="translate(29.647 32.221)" fill="#618226" opacity="0.1"/>
      <rect id="Rectangle_1539" data-name="Rectangle 1539" width="4.085" height="0.875" transform="translate(34.9 21.716)" fill="#618226" opacity="0.1"/>
      <rect id="Rectangle_1540" data-name="Rectangle 1540" width="4.085" height="0.875" transform="translate(34.9 32.221)" fill="#618226" opacity="0.1"/>
      <rect id="Rectangle_1541" data-name="Rectangle 1541" width="4.085" height="0.875" transform="translate(40.152 21.716)" fill="#618226" opacity="0.1"/>
      <rect id="Rectangle_1542" data-name="Rectangle 1542" width="4.085" height="0.875" transform="translate(40.152 32.221)" fill="#618226" opacity="0.1"/>
      <rect id="Rectangle_1543" data-name="Rectangle 1543" width="4.085" height="0.875" transform="translate(45.405 21.716)" fill="#618226" opacity="0.1"/>
      <rect id="Rectangle_1544" data-name="Rectangle 1544" width="4.085" height="0.875" transform="translate(45.405 32.221)" fill="#618226" opacity="0.1"/>
      <rect id="Rectangle_1545" data-name="Rectangle 1545" width="4.085" height="0.875" transform="translate(50.657 21.716)" fill="#618226" opacity="0.1"/>
      <rect id="Rectangle_1546" data-name="Rectangle 1546" width="4.085" height="0.875" transform="translate(50.657 32.221)" fill="#618226" opacity="0.1"/>
      <rect id="Rectangle_1547" data-name="Rectangle 1547" width="4.085" height="0.875" transform="translate(55.91 21.716)" fill="#618226" opacity="0.1"/>
      <rect id="Rectangle_1548" data-name="Rectangle 1548" width="4.085" height="0.875" transform="translate(55.91 32.221)" fill="#618226" opacity="0.1"/>
      <rect id="Rectangle_1549" data-name="Rectangle 1549" width="4.085" height="16.925" transform="translate(45.405 18.506)" fill="#618226" opacity="0.1"/>
      <rect id="Rectangle_1550" data-name="Rectangle 1550" width="4.085" height="16.925" transform="matrix(0.907, -0.42, 0.42, 0.907, 60.129, 20.144)" fill="#618226" opacity="0.1"/>
      <rect id="Rectangle_1551" data-name="Rectangle 1551" width="4.085" height="0.875" transform="matrix(0.907, -0.42, 0.42, 0.907, 61.479, 23.06)" fill="#618226" opacity="0.1"/>
      <rect id="Rectangle_1552" data-name="Rectangle 1552" width="4.085" height="0.875" transform="matrix(0.907, -0.42, 0.42, 0.907, 65.889, 32.592)" fill="#618226" opacity="0.1"/>
      <path id="Path_1252" data-name="Path 1252" d="M125.137,198.488l-7.415-4.73c-.038-6.662-.143-37.59,1.243-41.728a6.8,6.8,0,0,0,.058-3.68,10.652,10.652,0,0,0-8.734-8.036,125.505,125.505,0,0,1-14.444-3.108c4.147-.429,7.254-.8,7.254-.8l.082-.767,2.67-.128V135.4l.254-.015c6.236-.371,19.478-1.6,14.978-5.3a10.377,10.377,0,0,0-5.681-2.066c6.5-1.482,16.647-4.354,12.122-7.053-4.3-2.562-10.887-.549-14.818,1.088l-.242.1-.044-.353-1.57.315h0l-.5.1-.023-.514-22.028,3.4a75.183,75.183,0,0,0-.9-7.531c.493-3.286,2.787-8.077,1.978-10.648-.94-2.985-4.8-3.963-6.42-6.659-.426-.7-.849-1.363-1.264-1.94a20.427,20.427,0,0,0-3.108-3.359,14.182,14.182,0,0,1,1.144-5.034,24.387,24.387,0,0,1,1.541-3.093,10.388,10.388,0,0,0,7.715-11.964c1.395.6,3.09.659,3.963-.508l-.414-.16a1.315,1.315,0,0,0,.117-.137,7.832,7.832,0,0,1-2.416-1.281,2.83,2.83,0,0,1-.423-.627c-.4-.817-.356-1.8-.741-2.626a3.038,3.038,0,0,0-.756-.986,5.2,5.2,0,0,0-2.469-1.412,31.211,31.211,0,0,1-3.172-.875,10.724,10.724,0,0,0-11.412-3.21l-.365.125a4.759,4.759,0,1,0-9.283-2.1,4.748,4.748,0,0,1,1.273-2.842c-.076.064-.155.125-.228.193a4.762,4.762,0,0,0-.207,6.732l.085.082a4.783,4.783,0,0,0,1.193,1.045,4.762,4.762,0,0,1-3.14-3.9c0,.1,0,.2,0,.292a4.762,4.762,0,0,0,5.063,4.476l.131-.015-.07.1A10.712,10.712,0,0,0,66.68,80.5a4.961,4.961,0,0,0,.765,1.226,3.969,3.969,0,0,0,.353.356,4.526,4.526,0,0,0,3.052,1.406q.292.347.622.668a17.368,17.368,0,0,1-.753,2.4,25.486,25.486,0,0,1-2.311,4.456c-6.3,1.792-6.857,12.5-6.63,12.9.271.484-.94,17.292,3.729,37.6-.193,5.8,3.192,15.4,15.209,12.871,15.028.8,19.956,3.1,19.956,3.1s-1.427,26.137.61,29.942c1.275,2.384.371,5.886-.584,8.357a9.183,9.183,0,0,0-.84,1.938c-.292.616-.5.989-.5.989h.2c-.77,2.676-1.316,5.906-1.316,5.906s18.217,3.7,26.23,1.278c3.111-.94,3.239-1.809,2.229-2.527a16.225,16.225,0,0,0,2.2-.481C136.92,200.469,125.137,198.488,125.137,198.488Z" transform="translate(-11.585 -5.468)" fill="url(#linear-gradient-2)"/>
      <path id="Path_1253" data-name="Path 1253" d="M85.5,74.41a10.5,10.5,0,1,1-10.5-10.5A10.5,10.5,0,0,1,85.5,74.41Z" transform="translate(-11.585 -5.468)" fill="#fa595f"/>
      <path id="Path_1254" data-name="Path 1254" d="M109.161,123.763l1.065,5.317s1.185-.213,2.938-.584c5.991-1.269,18.649-4.4,13.747-7.327-4.217-2.512-10.674-.537-14.526,1.068-1.412.584-2.475,1.126-2.95,1.38C109.257,123.707,109.161,123.763,109.161,123.763Z" transform="translate(-11.585 -5.468)" fill="#f8b9bf"/>
      <path id="Path_1255" data-name="Path 1255" d="M109.462,125.263l.765,3.817s1.185-.213,2.938-.584l-.779-6.259c-1.412.584-2.475,1.126-2.95,1.38Z" transform="translate(-11.585 -5.468)" opacity="0.1"/>
      <path id="Path_1256" data-name="Path 1256" d="M97.693,123.941l3.659-.732-.829-6.685-2.93.587Z" fill="#d9dfe8"/>
      <path id="Path_1257" data-name="Path 1257" d="M97.693,123.941l1.579-.318-.289-6.79-1.389.277Z" opacity="0.1"/>
      <path id="Path_1258" data-name="Path 1258" d="M75.551,100.381s7.123-3.712,9.711,7.952,2.626,16.98,2.626,16.98l22.154-3.423.344,8.051s-23.811,6.545-26.738,5.862S71.836,118.63,71.836,118.63,63.695,105.805,75.551,100.381Z" transform="translate(-11.585 -5.468)" fill="#618226"/>
      <g id="Group_545" data-name="Group 545" opacity="0.1">
        <path id="Path_1259" data-name="Path 1259" d="M109.161,123.763l1.065,5.317s1.185-.213,2.938-.584c5.991-1.269,18.649-4.4,13.747-7.327-4.217-2.512-10.674-.537-14.526,1.068-1.412.584-2.475,1.126-2.95,1.38C109.257,123.707,109.161,123.763,109.161,123.763Z" transform="translate(-11.585 -5.468)"/>
        <path id="Path_1260" data-name="Path 1260" d="M109.462,125.263l.765,3.817s1.185-.213,2.938-.584l-.779-6.259c-1.412.584-2.475,1.126-2.95,1.38Z" transform="translate(-11.585 -5.468)" opacity="0.1"/>
        <path id="Path_1261" data-name="Path 1261" d="M97.693,123.941l3.659-.732-.829-6.685-2.93.587Z"/>
        <path id="Path_1262" data-name="Path 1262" d="M97.693,123.941l1.579-.318-.289-6.79-1.389.277Z" opacity="0.1"/>
        <path id="Path_1263" data-name="Path 1263" d="M76.135,100.964s7.123-3.712,9.711,7.952,2.626,16.98,2.626,16.98l22.154-3.423.344,8.051s-23.811,6.545-26.738,5.862S72.42,119.214,72.42,119.214,64.279,106.389,76.135,100.964Z" transform="translate(-11.585 -5.468)"/>
      </g>
      <path id="Path_1264" data-name="Path 1264" d="M115.846,191.631l8.737,5.544s11.553,1.935,3.694,4.307-25.717-1.255-25.717-1.255,1.357-8.036,2.8-9.1S115.846,191.631,115.846,191.631Z" transform="translate(-11.585 -5.468)" fill="#f37291"/>
      <path id="Path_1265" data-name="Path 1265" d="M83.456,132.158a62.373,62.373,0,0,0,12.192,4.894,121.612,121.612,0,0,0,14.363,3.108,10.45,10.45,0,0,1,8.564,7.879,6.665,6.665,0,0,1-.055,3.607C117,156.2,117.305,193.8,117.305,193.8l-13.668.657s2.162-6.831-.5-10.438,1.8-29.977,1.8-29.977-4.841-2.259-19.577-3.044c-13.811,2.918-18.775-12.3-16.481-16.4S83.456,132.158,83.456,132.158Z" transform="translate(-11.585 -5.468)" fill="#96a2d0"/>
      <g id="Group_546" data-name="Group 546" opacity="0.1">
        <path id="Path_1266" data-name="Path 1266" d="M115.846,191.631l8.737,5.544s11.553,1.935,3.694,4.307-25.717-1.255-25.717-1.255,1.357-8.036,2.8-9.1S115.846,191.631,115.846,191.631Z" transform="translate(-11.585 -5.468)"/>
        <path id="Path_1267" data-name="Path 1267" d="M83.456,132.158a62.373,62.373,0,0,0,12.192,4.894,121.612,121.612,0,0,0,14.363,3.108,10.45,10.45,0,0,1,8.564,7.879,6.665,6.665,0,0,1-.055,3.607C117,156.2,117.305,193.8,117.305,193.8l-13.668.657s2.162-6.831-.5-10.438,1.8-29.977,1.8-29.977-4.841-2.259-19.577-3.044c-13.811,2.918-18.775-12.3-16.481-16.4S83.456,132.158,83.456,132.158Z" transform="translate(-11.585 -5.468)"/>
      </g>
      <path id="Path_1268" data-name="Path 1268" d="M111.492,194.581l8.737,5.544s11.553,1.935,3.694,4.307-25.717-1.255-25.717-1.255,1.357-8.036,2.8-9.1S111.492,194.581,111.492,194.581Z" transform="translate(-11.585 -5.468)" fill="#f37291"/>
      <path id="Path_1269" data-name="Path 1269" d="M81.016,153.947c14.736.785,19.577,3.044,19.577,3.044s-1.4,25.626.584,29.355c2.116,3.957-1.891,11.059-1.891,11.059l13.668-.657v-1.237c-.041-6.531-.14-36.855,1.217-40.92a6.665,6.665,0,0,0,.055-3.607,10.452,10.452,0,0,0-8.564-7.879A120.87,120.87,0,0,1,91.3,140l-.225-.07a61.2,61.2,0,0,1-11.964-4.824s-9.1-.63-11.38,3.467c-.292.531-1.549,1.576-1.6,2.419C65.787,146.637,69,156.477,81.016,153.947Z" transform="translate(-11.585 -5.468)" fill="#96a2d0"/>
      <path id="Path_1270" data-name="Path 1270" d="M102.66,130.028l.26,5.416s1.2-.032,2.994-.14c6.113-.365,19.1-1.573,14.687-5.194-3.793-3.114-10.476-2.121-14.523-1.109-1.485.374-2.626.747-3.122.925C102.762,129.99,102.66,130.028,102.66,130.028Z" transform="translate(-11.585 -5.468)" fill="#f8b9bf"/>
      <path id="Path_1271" data-name="Path 1271" d="M67.99,93.17s1.751,1.509,3.922,3.178c2.422.659,5.252,1.246,7.275,1.634a11.672,11.672,0,0,1,.855-7.234A27.339,27.339,0,0,1,84,84.18l-12.168-4.4c.861,2.495.292,5.282-.633,7.666A25.343,25.343,0,0,1,67.99,93.17Z" transform="translate(-11.585 -5.468)" fill="#f8b9bf"/>
      <path id="Path_1272" data-name="Path 1272" d="M102.733,131.554l.187,3.89s1.2-.032,2.994-.14l.163-6.306c-1.485.374-2.626.747-3.122.925Z" transform="translate(-11.585 -5.468)" opacity="0.1"/>
      <path id="Path_1273" data-name="Path 1273" d="M90.348,130.159l3.726-.178.175-6.735-2.982.143Z" fill="#d9dfe8"/>
      <path id="Path_1274" data-name="Path 1274" d="M66.394,142.57c7.879,8.191,22.571-1.544,26.522-4.427.642-.47,1-.759,1-.759-1.459-1.485-3.793-2.86-4.689-6.58a80.831,80.831,0,0,1-1.733-11.532c-.242-3.079,2.938-8.941,2.019-11.865s-4.7-3.884-6.294-6.531c-.417-.689-.832-1.336-1.24-1.9a27.246,27.246,0,0,0-8.051-6.837c-10.9-3.721-11.754,11.844-11.482,12.329S61.471,122.108,66.394,142.57Z" transform="translate(-11.585 -5.468)" fill="#618226"/>
      <path id="Path_1275" data-name="Path 1275" d="M66.312,120.153s6.329,17.631,9.122,18.743c1.6.636,10.321-.05,17.482-.753.642-.47,1-.759,1-.759-1.459-1.485-2.647-4.546-3.54-8.264l-9.189.032s.744-5.252-.079-17.184-8.419-9.309-8.419-9.309C60.164,106.252,66.312,120.153,66.312,120.153Z" transform="translate(-11.585 -5.468)" opacity="0.1"/>
      <path id="Path_1276" data-name="Path 1276" d="M90.348,130.159l1.608-.076.727-6.761-1.415.067Z" opacity="0.1"/>
      <path id="Path_1277" data-name="Path 1277" d="M72.907,101.9s7.587-2.606,8.419,9.309.088,17.184.088,17.184l22.416-.082-.861,8.013s-24.512,2.918-27.313,1.812-9.125-18.74-9.125-18.74S60.377,105.493,72.907,101.9Z" transform="translate(-11.585 -5.468)" fill="#618226"/>
      <path id="Path_1278" data-name="Path 1278" d="M73.184,84.331c.406-1.751-1.459-1.806-2.043-3.5l12.174,4.377a27.256,27.256,0,0,0-2.445,3.534,10.247,10.247,0,0,1-1.978.292C75.933,89.178,75.142,86.251,73.184,84.331Z" transform="translate(-11.585 -5.468)" opacity="0.1"/>
      <circle id="Ellipse_330" data-name="Ellipse 330" cx="10.201" cy="10.201" r="10.201" transform="translate(56.833 62.652) rotate(-2.75)" fill="#f8b9bf"/>
      <path id="Path_1279" data-name="Path 1279" d="M73.826,109.467s3.227,15.288,7.038,16.849,2.083,1.894,2.083,1.894" transform="translate(-11.585 -5.468)" opacity="0.1"/>
      <path id="Path_1280" data-name="Path 1280" d="M87.127,118.1s-2.7.843-5.836-3.187" transform="translate(-11.585 -5.468)" opacity="0.1"/>
      <circle id="Ellipse_331" data-name="Ellipse 331" cx="4.669" cy="4.669" r="4.669" transform="translate(50.57 53.476)" fill="#fa595f"/>
      <path id="Path_1281" data-name="Path 1281" d="M63.543,66.079a4.669,4.669,0,0,1,0-6.388c-.076.061-.152.123-.222.19a4.67,4.67,0,0,0,6.4,6.8c.073-.067.137-.14.2-.21a4.669,4.669,0,0,1-6.376-.4Z" transform="translate(-11.585 -5.468)" fill="#fa595f"/>
      <path id="Path_1282" data-name="Path 1282" d="M66.21,67.842A4.669,4.669,0,0,1,61.3,63.756v.292a4.669,4.669,0,1,0,9.32-.584,2.478,2.478,0,0,0-.032-.292A4.669,4.669,0,0,1,66.21,67.842Z" transform="translate(-11.585 -5.468)" fill="#fa595f"/>
      <path id="Path_1283" data-name="Path 1283" d="M82.858,67.672a20.913,20.913,0,0,0,3.5,1.024,4.34,4.34,0,0,1,2.871,2.06c.376.811.333,1.771.727,2.574.566,1.167,1.873,1.7,3.076,2.162-1.033,1.386-3.251,1.01-4.7.067s-2.693-2.334-4.377-2.7a4.109,4.109,0,0,0-4.322,1.923,10.378,10.378,0,0,0-.852,2.65,9.933,9.933,0,0,1-3.793,6.072C72.948,84.851,69.9,84.842,68.3,83a8.27,8.27,0,0,1-1.523-3.931,7.986,7.986,0,0,1-.225-1.987,7.484,7.484,0,0,1,2.334-4.345c1.328-1.459,2.74-2.86,4.152-4.252,1.22-1.2,2.626-3.239,4.465-3.382C79.625,64.935,81.122,66.823,82.858,67.672Z" transform="translate(-11.585 -5.468)" opacity="0.1"/>
      <path id="Path_1284" data-name="Path 1284" d="M82.566,67.38a20.912,20.912,0,0,0,3.5,1.024,4.34,4.34,0,0,1,2.871,2.06c.376.811.333,1.771.727,2.574.566,1.167,1.873,1.7,3.076,2.162-1.033,1.386-3.251,1.01-4.7.067s-2.693-2.334-4.377-2.7a4.109,4.109,0,0,0-4.322,1.923,10.378,10.378,0,0,0-.852,2.65A9.933,9.933,0,0,1,74.7,83.214c-2.043,1.345-5.086,1.336-6.688-.5a8.27,8.27,0,0,1-1.523-3.931,7.986,7.986,0,0,1-.225-1.987A7.484,7.484,0,0,1,68.6,72.446c1.328-1.459,2.74-2.86,4.152-4.252,1.22-1.2,2.626-3.239,4.465-3.382C79.333,64.643,80.83,66.531,82.566,67.38Z" transform="translate(-11.585 -5.468)" fill="#fa595f"/>
      <rect id="Rectangle_1553" data-name="Rectangle 1553" width="33.274" height="5.142" rx="2.48" transform="translate(41.314 126.719)" fill="#d6d6e3"/>
      <path id="Path_1285" data-name="Path 1285" d="M52.9,134.813v.406a2.116,2.116,0,0,0,2.116,2.116H84.057a2.116,2.116,0,0,0,2.116-2.116v-.406Z" transform="translate(-11.585 -5.468)" opacity="0.1"/>
      <rect id="Rectangle_1554" data-name="Rectangle 1554" width="5.722" height="72.901" transform="translate(99.911 132.079)" fill="#d6d6e3"/>
      <rect id="Rectangle_1555" data-name="Rectangle 1555" width="5.722" height="4.727" transform="translate(99.911 132.079)" opacity="0.1"/>
      <rect id="Rectangle_1556" data-name="Rectangle 1556" width="151.277" height="9.454" transform="translate(97.174 126.853)" fill="#d6d6e3"/>
    </g>
  </g>
</svg>
