<svg xmlns="http://www.w3.org/2000/svg" xmlns:xlink="http://www.w3.org/1999/xlink" width="327" height="289" viewBox="0 0 327 289">
  <defs>
    <clipPath id="clip-path">
      <rect id="Rectangle_1484" data-name="Rectangle 1484" width="327" height="289" transform="translate(24 97)" fill="#fff"/>
    </clipPath>
  </defs>
  <g id="img_ville_economie_verte_screen_9" data-name="img ville economie verte screen 9" transform="translate(-24 -97)" clip-path="url(#clip-path)">
    <g id="undraw_Project_completed_re_pqqq" transform="translate(24 119.687)">
      <circle id="Ellipse_44" data-name="Ellipse 44" cx="7.721" cy="7.721" r="7.721" transform="translate(170.195 9.406)" fill="#618226"/>
      <path id="Path_395" data-name="Path 395" d="M258.313,81.756a.8.8,0,0,1-.482-.16l-.009-.006L256.009,80.2a.806.806,0,0,1,.981-1.28l1.175.9,2.777-3.623a.806.806,0,0,1,1.13-.149h0l-.017.024.018-.024a.807.807,0,0,1,.149,1.13l-3.267,4.26a.806.806,0,0,1-.641.314Z" transform="translate(-81.162 -61.684)" fill="#fff"/>
      <circle id="Ellipse_44-2" data-name="Ellipse 44" cx="7.721" cy="7.721" r="7.721" transform="translate(170.195 61.6)" fill="#618226"/>
      <path id="Path_395-2" data-name="Path 395" d="M258.313,133.95a.8.8,0,0,1-.482-.16l-.009-.006-1.814-1.388a.806.806,0,1,1,.981-1.28l1.175.9,2.777-3.623a.806.806,0,0,1,1.13-.149h0l-.017.024.018-.024a.807.807,0,0,1,.149,1.13l-3.267,4.26a.806.806,0,0,1-.641.314Z" transform="translate(-81.162 -61.684)" fill="#fff"/>
      <path id="Path_1286" data-name="Path 1286" d="M278.468,212.135a4.382,4.382,0,0,1,4.979-4.512l7.071-13.873,4,7.036-7.327,12.1a4.406,4.406,0,0,1-8.718-.747Z" transform="translate(-81.162 -61.684)" fill="#ffb7b7"/>
      <path id="Path_1287" data-name="Path 1287" d="M230.272,237.809h-5.549l-2.64-21.4h8.19Z" fill="#ffb7b7"/>
      <path id="Path_1288" data-name="Path 1288" d="M312.85,304.873H294.956v-.226a6.965,6.965,0,0,1,6.964-6.964H312.85Z" transform="translate(-81.162 -61.684)" fill="#2f2e41"/>
      <path id="Path_1289" data-name="Path 1289" d="M260.355,237.809h-5.549l-2.64-21.4h8.19Z" fill="#ffb7b7"/>
      <path id="Path_1290" data-name="Path 1290" d="M342.932,304.873H325.039v-.226A6.965,6.965,0,0,1,332,297.681h10.93Z" transform="translate(-81.162 -61.684)" fill="#2f2e41"/>
      <path id="Path_1291" data-name="Path 1291" d="M286.992,200.06l-2.423,4.038s4.038,0,4.845,6.056l3.23-4.038Z" transform="translate(-81.162 -61.684)" fill="#e5e5e5"/>
      <path id="Path_1292" data-name="Path 1292" d="M329.386,191.582s6.46,16.958,7.671,27.455,3.23,38.357,3.23,38.357l4.038,35.934-11.305,1.615L328.174,258.6l-10.9-35.934L314.851,258.6l-2.019,32.7-10.5.4-.808-33.915-4.441-43.2L299.508,194Z" transform="translate(-81.162 -61.684)" fill="#2f2e41"/>
      <circle id="Ellipse_332" data-name="Ellipse 332" cx="10.094" cy="10.094" r="10.094" transform="translate(219.96 58.479)" fill="#ffb7b7"/>
      <path id="Path_1293" data-name="Path 1293" d="M240.35,78.419l4.038,2.826,5.249,52.892-32.7.807L221.374,98.2l4.037-10.5,2.914-3.853Z" fill="#e5e5e5"/>
      <path id="Path_1294" data-name="Path 1294" d="M322.32,178.056l1.236-36.523s2.4.185,3.206,1.4,14.131,3.634,14.131,3.634l-2.423,37.549s10.094,29.878,6.46,31.493-10.094,1.211-10.094,1.211Z" transform="translate(-81.162 -61.684)" fill="#2f2e41"/>
      <path id="Path_1295" data-name="Path 1295" d="M302.738,173.413l4.283-24.615-9.532,6.446,2.423,17.765-2.019,12.113s-7.671,33.512-5.249,34.723a6.96,6.96,0,0,0,5.249,0l4.845-33.915Z" transform="translate(-81.162 -61.684)" fill="#2f2e41"/>
      <path id="Path_1296" data-name="Path 1296" d="M300.315,154.436l-2.826.808-1.211,16.15-2.019,14.131-9.69,17.361s4.845-3.23,6.864,6.056l10.672-18.58Z" transform="translate(-81.162 -61.684)" fill="#2f2e41"/>
      <path id="Path_1297" data-name="Path 1297" d="M319.667,120.639l1.9-.762s-3.98-4.382-9.517-4l1.557-1.715s-3.807-1.524-7.268,2.477a33.777,33.777,0,0,0-5.236,7.36h-2.038l.851,1.873-2.978,1.873,3.056-.336a10.469,10.469,0,0,0-.083,3.107,4.02,4.02,0,0,0,1.472,2.63h0s2.361-4.886,2.361-5.648V129.4s1.9-1.715,1.9-2.858l1.038,1.334.519-2.1,6.4,2.1-1.038-1.715,3.98.572-1.557-2.1,6.162,8.653S324.685,123.5,319.667,120.639Z" transform="translate(-81.162 -61.684)" fill="#2f2e41"/>
      <path id="Path_1298" data-name="Path 1298" d="M322.277,208.824a4.382,4.382,0,0,1,5.76-3.46l9.63-12.237,2.554,7.678-9.536,10.443a4.406,4.406,0,0,1-8.407-2.425Z" transform="translate(-81.162 -61.684)" fill="#ffb7b7"/>
      <path id="Path_1299" data-name="Path 1299" d="M257.51,142.818l-3.634,4.441-4.845-8.479,2.018-3.634Z" fill="#e5e5e5"/>
      <path id="Path_1300" data-name="Path 1300" d="M337.865,147.976l3.23-1.615s2.423,3.23,2.826,6.056,2.423,6.46,2.423,8.479,5.653,21,5.653,21l-12.92,26.244s-2.826-9.69-8.883-10.5l10.094-14.131-5.653-10.094Z" transform="translate(-81.162 -61.684)" fill="#2f2e41"/>
      <path id="Path_1301" data-name="Path 1301" d="M407.755,305.122H252.394a.408.408,0,1,1,0-.816H407.755a.408.408,0,0,1,0,.816Z" transform="translate(-81.162 -61.684)" fill="#cbcbcb"/>
      <path id="Path_1302" data-name="Path 1302" d="M230,148.131H81.162V113.879H230Z" transform="translate(-81.162 -61.684)" fill="#fff"/>
      <path id="Path_1303" data-name="Path 1303" d="M102.643,125.2a1.45,1.45,0,1,0,0,2.9H208.524a1.45,1.45,0,0,0,0-2.9Z" transform="translate(-81.162 -61.684)" fill="#618226"/>
      <path id="Path_1304" data-name="Path 1304" d="M102.643,133.905a1.45,1.45,0,1,0-.006,2.9h66.939a1.45,1.45,0,0,0,0-2.9Z" transform="translate(-81.162 -61.684)" fill="#618226"/>
      <path id="Path_1305" data-name="Path 1305" d="M230,148.131H81.162V113.879H230Zm-146.39-2.447H227.552V116.325H83.609Z" transform="translate(-81.162 -61.684)" fill="#e5e5e5"/>
      <path id="Path_1306" data-name="Path 1306" d="M230,200.326H81.162V166.073H230Z" transform="translate(-81.162 -61.684)" fill="#fff"/>
      <path id="Path_1307" data-name="Path 1307" d="M102.643,177.4a1.45,1.45,0,1,0,0,2.9H208.524a1.45,1.45,0,0,0,0-2.9Z" transform="translate(-81.162 -61.684)" fill="#e6e6e6"/>
      <path id="Path_1308" data-name="Path 1308" d="M102.643,186.1a1.45,1.45,0,0,0-.006,2.9h66.939a1.45,1.45,0,0,0,0-2.9Z" transform="translate(-81.162 -61.684)" fill="#e6e6e6"/>
      <path id="Path_1309" data-name="Path 1309" d="M230,200.326H81.162V166.073H230Zm-146.39-2.447H227.552V168.52H83.609Z" transform="translate(-81.162 -61.684)" fill="#e5e5e5"/>
      <path id="Path_1310" data-name="Path 1310" d="M231.222,95.937H82.386V61.684H231.222Z" transform="translate(-81.162 -61.684)" fill="#fff"/>
      <path id="Path_1311" data-name="Path 1311" d="M103.866,73.01a1.45,1.45,0,1,0,0,2.9H209.748a1.45,1.45,0,0,0,0-2.9Z" transform="translate(-81.162 -61.684)" fill="#618226"/>
      <path id="Path_1312" data-name="Path 1312" d="M103.866,81.711a1.45,1.45,0,1,0-.006,2.9H170.8a1.45,1.45,0,0,0,0-2.9Z" transform="translate(-81.162 -61.684)" fill="#618226"/>
      <path id="Path_1313" data-name="Path 1313" d="M231.222,95.937H82.386V61.684H231.222ZM84.832,93.49H228.775V64.131H84.832Z" transform="translate(-81.162 -61.684)" fill="#e5e5e5"/>
      <path id="Path_1314" data-name="Path 1314" d="M382.606,305.31v-29.5S394.1,296.724,382.606,305.31Z" transform="translate(-81.162 -61.684)" fill="#f1f1f1"/>
      <path id="Path_1315" data-name="Path 1315" d="M383.316,305.3l-21.73-19.949S384.766,291.03,383.316,305.3Z" transform="translate(-81.162 -61.684)" fill="#f1f1f1"/>
      <circle id="Ellipse_44-3" data-name="Ellipse 44" cx="7.721" cy="7.721" r="7.721" transform="translate(189.768 134.12)" fill="#618226"/>
      <path id="Path_395-3" data-name="Path 395" d="M277.886,206.47a.8.8,0,0,1-.482-.16l-.009-.006-1.814-1.388a.806.806,0,1,1,.981-1.28l1.175.9,2.777-3.623a.806.806,0,0,1,1.13-.149h0l-.017.024.018-.024a.807.807,0,0,1,.149,1.13l-3.267,4.26a.807.807,0,0,1-.641.314Z" transform="translate(-81.162 -61.684)" fill="#fff"/>
    </g>
  </g>
</svg>
