<svg xmlns="http://www.w3.org/2000/svg" xmlns:xlink="http://www.w3.org/1999/xlink" width="327" height="289" viewBox="0 0 327 289">
  <defs>
    <clipPath id="clip-path">
      <rect id="Rectangle_1484" data-name="Rectangle 1484" width="327" height="289" transform="translate(24 97)" fill="#fff"/>
    </clipPath>
  </defs>
  <g id="img_economie_ville_screen_10" data-name="img economie ville screen 10" transform="translate(-24 -97)" clip-path="url(#clip-path)">
    <g id="undraw_Location_search_re_ttoj" transform="translate(24 114.523)">
      <circle id="Ellipse_476" data-name="Ellipse 476" cx="13.323" cy="13.323" r="13.323" transform="translate(172.872 97.529)" fill="#e6e6e6"/>
      <path id="Path_1604" data-name="Path 1604" d="M255.045,150.77l-13.923-13.923a14.746,14.746,0,1,0-4.429,4.429L250.616,155.2a3.132,3.132,0,1,0,4.429-4.429Zm-18.872-14.443a10.545,10.545,0,1,1,3.089-7.457A10.545,10.545,0,0,1,236.173,136.327Z" transform="translate(-36.197 -22.796)" fill="#3f3d56"/>
      <path id="Path_1605" data-name="Path 1605" d="M355.97,171.307c35.606,39.376-67.61,96.124-151.011,96.124s-141.1-43.969-151.011-96.124C29.921,44.849,258.664-35.526,204.959,75.183,126.679,236.554,327.929,140.3,355.97,171.307Z" transform="translate(-36.197 -22.796)" fill="#e6e6e6"/>
      <path id="Path_1606" data-name="Path 1606" d="M339.994,180.626C375.6,220,272.384,276.749,188.983,276.749S47.882,232.78,37.972,180.626C13.945,54.168,242.688-26.207,188.983,84.5,110.7,245.874,311.954,149.616,339.994,180.626Z" transform="translate(-36.197 -22.796)" fill="#edefe6"/>
      <path id="Path_1607" data-name="Path 1607" d="M85.986,88.306c-24.985-1.1-44.357-6.489-44.1-12.27.153-3.465,7.223-6.252,19.4-7.645a.333.333,0,1,1,.076.661c-11.47,1.312-18.677,4-18.81,7.013-.23,5.227,19.675,10.528,43.466,11.575s44.085-2.483,44.315-7.71c.133-3.026-6.855-6.346-18.238-8.663a.333.333,0,1,1,.133-.652c12.082,2.46,18.924,5.866,18.77,9.345C130.742,85.74,110.971,89.406,85.986,88.306Z" transform="translate(-36.197 -22.796)" fill="#618226"/>
      <path id="Path_1608" data-name="Path 1608" d="M63.8,89.274a25.622,25.622,0,0,0,44.278,1.838A403.384,403.384,0,0,1,63.8,89.274Z" transform="translate(-36.197 -22.796)" fill="#618226"/>
      <path id="Path_1609" data-name="Path 1609" d="M110.838,84.11a25.627,25.627,0,1,0-49.175-1.9,190.456,190.456,0,0,0,49.175,1.9Z" transform="translate(-36.197 -22.796)" fill="#618226"/>
      <circle id="Ellipse_477" data-name="Ellipse 477" cx="2.995" cy="2.995" r="2.995" transform="translate(53.197 38.142)" fill="#fff"/>
      <circle id="Ellipse_478" data-name="Ellipse 478" cx="4.992" cy="4.992" r="4.992" transform="translate(35.784 45.794)" fill="#fff"/>
      <circle id="Ellipse_479" data-name="Ellipse 479" cx="3.328" cy="3.328" r="3.328" transform="translate(112.797 44.232)" fill="#618226"/>
      <circle id="Ellipse_480" data-name="Ellipse 480" cx="1.997" cy="1.997" r="1.997" transform="translate(38.909 148.741)" fill="#e6e6e6"/>
      <circle id="Ellipse_481" data-name="Ellipse 481" cx="1.997" cy="1.997" r="1.997" transform="translate(178.697 217.303)" fill="#e6e6e6"/>
      <circle id="Ellipse_482" data-name="Ellipse 482" cx="0.999" cy="0.999" r="0.999" transform="translate(49.56 112.129)" fill="#e6e6e6"/>
      <circle id="Ellipse_483" data-name="Ellipse 483" cx="0.999" cy="0.999" r="0.999" transform="translate(132.101 186.683)" fill="#e6e6e6"/>
      <circle id="Ellipse_484" data-name="Ellipse 484" cx="0.999" cy="0.999" r="0.999" transform="translate(282.207 177.031)" fill="#e6e6e6"/>
      <circle id="Ellipse_485" data-name="Ellipse 485" cx="0.999" cy="0.999" r="0.999" transform="translate(235.278 206.653)" fill="#e6e6e6"/>
      <circle id="Ellipse_486" data-name="Ellipse 486" cx="0.999" cy="0.999" r="0.999" transform="translate(186.352 170.707)" fill="#e6e6e6"/>
      <circle id="Ellipse_487" data-name="Ellipse 487" cx="0.999" cy="0.999" r="0.999" transform="translate(123.115 72.19)" fill="#e6e6e6"/>
      <circle id="Ellipse_488" data-name="Ellipse 488" cx="0.999" cy="0.999" r="0.999" transform="translate(131.103 22.931)" fill="#e6e6e6"/>
      <circle id="Ellipse_489" data-name="Ellipse 489" cx="0.999" cy="0.999" r="0.999" transform="translate(126.443 230.284)" fill="#e6e6e6"/>
      <circle id="Ellipse_490" data-name="Ellipse 490" cx="0.999" cy="0.999" r="0.999" transform="translate(77.185 209.315)" fill="#e6e6e6"/>
      <circle id="Ellipse_491" data-name="Ellipse 491" cx="0.999" cy="0.999" r="0.999" transform="translate(233.281 173.37)" fill="#e6e6e6"/>
      <circle id="Ellipse_492" data-name="Ellipse 492" cx="2.995" cy="2.995" r="2.995" transform="translate(46.388 71.824)" fill="#fff"/>
      <path id="Path_1610" data-name="Path 1610" d="M153.321,143.579c0,8.947-13.832,29.794-17.874,35.695a1.329,1.329,0,0,1-2.194,0c-4.042-5.9-17.874-26.748-17.874-35.695a18.971,18.971,0,0,1,37.942,0Z" transform="translate(-36.197 -22.796)" fill="#fff"/>
      <circle id="Ellipse_493" data-name="Ellipse 493" cx="9.652" cy="9.652" r="9.652" transform="translate(88.501 109.8)" fill="#618226"/>
      <ellipse id="Ellipse_494" data-name="Ellipse 494" cx="11.15" cy="2.163" rx="11.15" ry="2.163" transform="translate(86.837 163.052)" fill="#fff"/>
      <path id="Path_1611" data-name="Path 1611" d="M308.069,128.609a3.5,3.5,0,0,0-.213.509l-15.9,4.419-2.866-2.8-4.8,3.772,4.591,5.458a2.663,2.663,0,0,0,3.113.722l17.179-7.583a3.494,3.494,0,1,0-1.1-4.492Z" transform="translate(-36.197 -22.796)" fill="#ffb8b8"/>
      <path id="Path_1612" data-name="Path 1612" d="M291.392,133.8l-5.969,4.646A1.5,1.5,0,0,1,283.2,138l-3.71-6.566a4.159,4.159,0,1,1,6.58-5.09l5.438,5.19a1.5,1.5,0,0,1-.114,2.265Z" transform="translate(-36.197 -22.796)" fill="#618226"/>
      <path id="Path_1613" data-name="Path 1613" d="M309.594,126.412l6.053,2.724a1.048,1.048,0,0,1,.526,1.386l-.717,1.593a.35.35,0,0,1,.175.462l-.287.637a.35.35,0,0,1-.462.175l-.287.637a.35.35,0,0,1,.175.462l-.287.637a.35.35,0,0,1-.462.175l-3.87,8.6a1.048,1.048,0,0,1-1.386.526l-6.053-2.723a1.048,1.048,0,0,1-.526-1.386l6.02-13.381a1.048,1.048,0,0,1,1.386-.526Z" transform="translate(-36.197 -22.796)" fill="#3f3d56"/>
      <path id="Path_1614" data-name="Path 1614" d="M303.813,140.857l4.856,2.187a1.01,1.01,0,0,0,1.331-.5l2.243-4.989.779-1.729,2.03-4.514a1.007,1.007,0,0,0-.5-1.328l-1.527-.688-3.333-1.5a1.006,1.006,0,0,0-1.328.507l-1.963,4.364-2.236,4.968-.852,1.9a1.006,1.006,0,0,0,.5,1.328Z" transform="translate(-36.197 -22.796)" fill="#f2f2f2"/>
      <path id="Path_1615" data-name="Path 1615" d="M257.469,179.875h4.08l1.941-15.739h-6.023Z" fill="#ffb8b8"/>
      <path id="Path_1616" data-name="Path 1616" d="M292.625,201.339h8.036a5.121,5.121,0,0,1,5.121,5.121v.166H292.625Z" transform="translate(-36.197 -22.796)" fill="#2f2e41"/>
      <path id="Path_1617" data-name="Path 1617" d="M268.119,178.876h4.08l1.941-15.739h-6.023Z" fill="#ffb8b8"/>
      <path id="Path_1618" data-name="Path 1618" d="M303.276,200.341h8.036a5.121,5.121,0,0,1,5.121,5.121v.166H303.276Z" transform="translate(-36.197 -22.796)" fill="#2f2e41"/>
      <path id="Path_1619" data-name="Path 1619" d="M275.363,165.739a13.117,13.117,0,0,0,12.281,8.923l.206,0a18.457,18.457,0,0,0,7.006-1.594,59.674,59.674,0,0,0,10.617-5.861l-2.07,19.9-.839,8.068a1.5,1.5,0,0,0,1.491,1.654h5.169a1.5,1.5,0,0,0,1.451-1.118l8.534-32.5a6.334,6.334,0,0,0-6.56-7.931L294.923,156.5l1.238-4.952-15.823-1.052-.046.033c-.379.276-.749.566-1.1.869a13.4,13.4,0,0,0-2.327,2.549,12.81,12.81,0,0,0-1.5,11.8Z" transform="translate(-36.197 -22.796)" fill="#2f2e41"/>
      <path id="Path_1620" data-name="Path 1620" d="M275.363,165.739a13.117,13.117,0,0,0,12.281,8.923,65.283,65.283,0,0,0,7.512-4.457l-.3,2.866-2.609,25.1a1.5,1.5,0,0,0,1.491,1.654h5.169a1.5,1.5,0,0,0,1.451-1.118l3.046-11.6,5.488-20.9a6.334,6.334,0,0,0-6.56-7.931l-17.726,1.215,1.238-4.952-8.98-.6a12.81,12.81,0,0,0-1.5,11.8Z" transform="translate(-36.197 -22.796)" fill="#2f2e41"/>
      <path id="Path_1621" data-name="Path 1621" d="M279.168,152.542l-.119-.014-2.761-13.574c-.024-.118-2.281-11.826,4.639-17.948l.12-.838a1.5,1.5,0,0,1,1.926-1.217l6.518,2.022a1.5,1.5,0,0,1,1,1.811l-.634,2.41c.879,1.032,11.221,13.484,7.619,23.077l-1.613,6.308Z" transform="translate(-36.197 -22.796)" fill="#618226"/>
      <path id="Path_1622" data-name="Path 1622" d="M306.234,141.948a3.5,3.5,0,0,0-.442.33L289.85,138l-1.042-3.872-6.049.809,1.179,7.034a2.663,2.663,0,0,0,2.314,2.2l18.649,2.2a3.494,3.494,0,1,0,1.334-4.428Z" transform="translate(-36.197 -22.796)" fill="#ffb8b8"/>
      <path id="Path_1623" data-name="Path 1623" d="M289.235,137.936l-7.5.966a1.5,1.5,0,0,1-1.689-1.514l.143-7.54a4.159,4.159,0,0,1,8.254-1.039l2.044,7.234a1.5,1.5,0,0,1-1.25,1.892Z" transform="translate(-36.197 -22.796)" fill="#618226"/>
      <circle id="Ellipse_495" data-name="Ellipse 495" cx="8.175" cy="8.175" r="8.175" transform="translate(242.752 77.963)" fill="#ffb8b8"/>
      <path id="Path_1624" data-name="Path 1624" d="M286.694,109.616l-1.023-1.864a22.328,22.328,0,0,0,1.486,14.436L273.865,116l.127-2.2-1.315,1.492-1.89-1.041-.25-1.425-1.426.353,5.207-9.448c5.053-8.991,12.4-5.558,12.4-5.558,11.687-.556,10.26,10.975,10.26,10.975Z" transform="translate(-36.197 -22.796)" fill="#2f2e41"/>
      <ellipse id="Ellipse_496" data-name="Ellipse 496" cx="4.054" cy="15.809" rx="4.054" ry="15.809" transform="matrix(0.842, -0.54, 0.54, 0.842, 136.964, 123.306)" fill="#618226"/>
    </g>
  </g>
</svg>
