<svg xmlns="http://www.w3.org/2000/svg" xmlns:xlink="http://www.w3.org/1999/xlink" width="327" height="289" viewBox="0 0 327 289">
  <defs>
    <clipPath id="clip-path">
      <rect id="Rectangle_1484" data-name="Rectangle 1484" width="327" height="289" transform="translate(24 117)" fill="#fff"/>
    </clipPath>
  </defs>
  <g id="img_forum_screen_4" data-name="img forum screen 4" transform="translate(-24 -117)" clip-path="url(#clip-path)">
    <g id="undraw_online_discussion_5wgl" transform="translate(24 127.503)">
      <path id="Path_1100" data-name="Path 1100" d="M74.967,54.188,76.359,169.03l60.15,29.3L135.117,83.488Z" fill="#f2f2f2"/>
      <path id="Path_1101" data-name="Path 1101" d="M56.688,45.014l-44.946,92.27L72.728,166.99,71.336,52.149Z" fill="#f2f2f2"/>
      <path id="Path_1102" data-name="Path 1102" d="M327,174.637,205.608,115.506,207,230.347l75.054,36.56Z" fill="#f2f2f2"/>
      <path id="Path_1103" data-name="Path 1103" d="M140.554,83.488l1.392,114.841,60.15,29.3L200.7,112.787Z" fill="#f2f2f2"/>
      <rect id="Rectangle_1498" data-name="Rectangle 1498" width="7.559" height="9.719" transform="matrix(0.999, -0.039, 0.039, 0.999, 268.767, 88.672)" fill="#618226"/>
      <path id="Path_1104" data-name="Path 1104" d="M282.656,141.326s-10.46-5-10.293-.682,10.544,7.156,10.544,7.156Z" transform="translate(-40.409 -18.935)" fill="#ffb9b9"/>
      <path id="Path_1105" data-name="Path 1105" d="M288.394,177.847s-4.935,12.079-6.758,20.795-4.6,20.711-1.028,29.218,13.727,33.509,13.832,36.206-.87,5.437,1.288,5.353,13.9-3.781,14.379-5.421-4.007-5.788-4.007-5.788l-11.071-34.693,11.551-22.6,8.332,33.718,1.632,42.083s8.009-2.472,9.172-.356c0,0,3.588-5,4.044-7.181s-1.695-43.7-1.695-43.7,7.352-47.294,1.417-47.064S300.3,164.417,288.394,177.847Z" transform="translate(-40.409 -18.935)" fill="#2f2e41"/>
      <path id="Path_1106" data-name="Path 1106" d="M295.644,267.261s-5.474,12.1-5.993,12.66-4.086,6.1-1.388,6,9.067-3.053,13.756-7.558,10.87-12.309,10.309-12.827a31.831,31.831,0,0,0-4.4-1.991Z" transform="translate(-40.409 -18.935)" fill="#2f2e41"/>
      <path id="Path_1107" data-name="Path 1107" d="M317.518,273.978s-.33,5.416-1.326,7.616-.87,5.437,1.828,5.332,9.67-1.456,9.67-1.456.414-3.258-.146-3.777-2.949-6.37-1.932-8.03S317.518,273.978,317.518,273.978Z" transform="translate(-40.409 -18.935)" fill="#2f2e41"/>
      <path id="Path_1108" data-name="Path 1108" d="M321.509,98.214s5.751,8.963,7.993,11.037-4.065,6.642-4.065,6.642l-11.288,1.518s.142-10.272-.439-11.33S321.509,98.214,321.509,98.214Z" transform="translate(-40.409 -18.935)" fill="#ffb9b9"/>
      <path id="Path_1109" data-name="Path 1109" d="M311.7,109.941s2.325,4.233,4.484,4.149,13.321-4.839,13.8-6.479,3.7,11.744,3.7,11.744l-27.314,48.068-6.663-4.6,3.228-28.223,2.651-15.232Z" transform="translate(-40.409 -18.935)" fill="#618226"/>
      <path id="Path_1110" data-name="Path 1110" d="M330.986,152.96a15.115,15.115,0,0,0-1.676,7.089c0,.108.008.216.018.323.258,4.993,2.1,10.769,2.758,14.968.479,3.013.343,5.212-1.42,5.729-4.274,1.246.623,2.137-15.914,7.641s-19.423.753-19.465-.326,2.342-9.277,1.782-9.8-7.842,6.788-10.042,5.793-.251-6.474-.251-6.474,4.956-11.539,4.851-14.237,7.507-15.421,7.507-15.421l5.177-33.7s1.991-4.4,4.667-5.044a6.631,6.631,0,0,1,4.9.891l-4.479,9.9-4.726,17.474.791,6.453s5.5-11.56,9.1-16.023,11.3-15.027,11.3-15.027,1.8-6.062.44-7.874,5.657-2.089,8.648,5.36c1.585,3.948,4.158,9.835,5.77,15.316,1.436,4.856,2.115,9.4.692,11.99C339.247,141.931,333.775,147.141,330.986,152.96Z" transform="translate(-40.409 -18.935)" fill="#575a89"/>
      <path id="Path_1111" data-name="Path 1111" d="M341.422,137.967c-2.175,3.964-7.647,9.174-10.436,14.994-.729-2.625-1.617-5.341-1.617-5.341s-3.409-18.239,6.675-22.953a6.749,6.749,0,0,1,4.687,1.31C342.167,130.832,342.845,135.372,341.422,137.967Z" transform="translate(-40.409 -18.935)" opacity="0.1"/>
      <path id="Path_1112" data-name="Path 1112" d="M301.392,136.817l-8.549,2.493-11.87.46-1.221,10.314,19.507,1.4S304.132,137.792,301.392,136.817Z" transform="translate(-40.409 -18.935)" fill="#575a89"/>
      <path id="Path_1113" data-name="Path 1113" d="M315.332,171.5s-11.436,1.9-8.826,5.339,12.742-.177,12.742-.177Z" transform="translate(-40.409 -18.935)" fill="#ffb9b9"/>
      <path id="Path_1114" data-name="Path 1114" d="M329.328,160.373c.258,4.993,2.1,10.769,2.758,14.968-3.643,3.448-7.108,6.489-8.413,6.54-2.7.1-7.035-.268-8.632.335s-2.535-9.628-2.535-9.628a8.847,8.847,0,0,1,5.207-5.065A59.244,59.244,0,0,0,329.328,160.373Z" transform="translate(-40.409 -18.935)" opacity="0.1"/>
      <path id="Path_1115" data-name="Path 1115" d="M335.918,121.43s9.13-1.435,8.637,13.714.962,24.818-2.71,27.662-15.6,15.734-18.3,15.839-7.035-.268-8.632.335-2.535-9.628-2.535-9.628a8.847,8.847,0,0,1,5.207-5.065c4.253-1.786,14.274-8.118,14.191-10.276s-2.535-9.628-2.535-9.628S325.834,126.143,335.918,121.43Z" transform="translate(-40.409 -18.935)" fill="#575a89"/>
      <circle id="Ellipse_278" data-name="Ellipse 278" cx="11.878" cy="11.878" r="11.878" transform="translate(261.17 68.793)" fill="#ffb9b9"/>
      <path id="Path_1116" data-name="Path 1116" d="M305.46,82.581a2.294,2.294,0,0,1-1,.5.713.713,0,0,1-.826-.572,2.961,2.961,0,0,1-1.133,1.453c-.555.289-1.413.047-1.493-.574a2.619,2.619,0,0,1-.6,1.272.9.9,0,0,1-1.269.042,32.622,32.622,0,0,1,.169,4.041,5.146,5.146,0,0,0,1.454,3.663c1.485,1.293,3.718.974,5.672.729a1.721,1.721,0,0,1,.889.049c.731.312.7,1.33.708,2.125a5.9,5.9,0,0,0,5.17,5.607,2.96,2.96,0,0,0,2.2-.537c.555-.47.838-1.236,1.474-1.59,1.034-.574,2.288.263,3.044,1.173s1.5,2.029,2.672,2.2c1.549.22,2.728-1.358,3.307-2.811a16.388,16.388,0,0,0-.326-12.734C322.335,79.566,311.289,78.451,305.46,82.581Z" transform="translate(-40.409 -18.935)" fill="#2f2e41"/>
      <circle id="Ellipse_279" data-name="Ellipse 279" cx="24.469" cy="24.469" r="24.469" transform="translate(177.722 24.493)" fill="#618226"/>
      <path id="Path_1117" data-name="Path 1117" d="M215.98,42.081c5.638,5.783,14.3,6.483,14.3,6.483s-.48-8.675-6.118-14.458-14.3-6.483-14.3-6.483S210.342,36.3,215.98,42.081Z" transform="translate(-40.409 -18.935)" fill="#3f3d56"/>
      <path id="Path_1118" data-name="Path 1118" d="M217.871,39.108c7.8,2.1,12.631,9.323,12.631,9.323s-7.809,3.81-15.606,1.707-12.631-9.323-12.631-9.323S210.073,37.005,217.871,39.108Z" transform="translate(-40.409 -18.935)" fill="#618226"/>
      <path id="Path_1119" data-name="Path 1119" d="M225.525,33.595c.052,8.076,5.806,14.586,5.806,14.586s5.67-6.584,5.619-14.66-5.806-14.586-5.806-14.586S225.474,25.519,225.525,33.595Z" transform="translate(-40.409 -18.935)" fill="#3f3d56"/>
      <path id="Path_1120" data-name="Path 1120" d="M228.949,32.765c4.16,6.923,2.635,15.477,2.635,15.477s-8.268-2.67-12.428-9.593-2.635-15.477-2.635-15.477S224.789,25.842,228.949,32.765Z" transform="translate(-40.409 -18.935)" fill="#618226"/>
      <circle id="Ellipse_280" data-name="Ellipse 280" cx="12.574" cy="12.574" r="12.574" transform="translate(187.403 34.509)" fill="#f2f2f2"/>
      <circle id="Ellipse_281" data-name="Ellipse 281" cx="4.078" cy="4.078" r="4.078" transform="translate(190.014 46.896)" fill="#3f3d56"/>
      <circle id="Ellipse_282" data-name="Ellipse 282" cx="24.469" cy="24.469" r="24.469" transform="translate(46.219 217.133)" fill="#618226"/>
      <path id="Path_1121" data-name="Path 1121" d="M100.414,225.027c2.109,7.8,9.333,12.624,9.333,12.624s3.8-7.812,1.7-15.608-9.333-12.624-9.333-12.624S98.305,217.231,100.414,225.027Z" transform="translate(-40.409 -18.935)" fill="#3f3d56"/>
      <path id="Path_1122" data-name="Path 1122" d="M103.513,223.352c5.787,5.633,6.494,14.293,6.494,14.293s-8.676-.474-14.463-6.107-6.494-14.293-6.494-14.293S97.726,217.718,103.513,223.352Z" transform="translate(-40.409 -18.935)" fill="#618226"/>
      <path id="Path_1123" data-name="Path 1123" d="M112.883,222.262c-3.887,7.079-2.03,15.568-2.03,15.568s8.158-2.99,12.045-10.069,2.03-15.568,2.03-15.568S116.77,215.183,112.883,222.262Z" transform="translate(-40.409 -18.935)" fill="#3f3d56"/>
      <path id="Path_1124" data-name="Path 1124" d="M116.278,223.2c.263,8.072-5.233,14.8-5.233,14.8s-5.922-6.358-6.185-14.43,5.233-14.8,5.233-14.8S116.015,215.132,116.278,223.2Z" transform="translate(-40.409 -18.935)" fill="#618226"/>
      <circle id="Ellipse_283" data-name="Ellipse 283" cx="12.574" cy="12.574" r="12.574" transform="translate(57.095 226.309)" fill="#f2f2f2"/>
      <circle id="Ellipse_284" data-name="Ellipse 284" cx="4.078" cy="4.078" r="4.078" transform="translate(69.669 228.688)" fill="#3f3d56"/>
      <rect id="Rectangle_1499" data-name="Rectangle 1499" width="127.443" height="0.68" transform="translate(3.398 265.732)" fill="#2f2e41"/>
      <rect id="Rectangle_1500" data-name="Rectangle 1500" width="127.443" height="0.68" transform="translate(191.335 267.091)" fill="#2f2e41"/>
      <path id="Path_1125" data-name="Path 1125" d="M73,285.163l-.6-.312c7.844-15.165,3.65-34.86-1.25-48.711A149.293,149.293,0,0,0,58.474,209.4l.574-.363a150.054,150.054,0,0,1,12.735,26.874C76.728,249.89,80.952,269.781,73,285.163Z" transform="translate(-40.409 -18.935)" fill="#2f2e41"/>
      <rect id="Rectangle_1501" data-name="Rectangle 1501" width="24.53" height="0.679" transform="translate(33.995 214.356) rotate(-79.645)" fill="#2f2e41"/>
      <rect id="Rectangle_1502" data-name="Rectangle 1502" width="0.68" height="33.425" transform="matrix(0.732, -0.681, 0.681, 0.732, 8.588, 211.247)" fill="#2f2e41"/>
      <rect id="Rectangle_1503" data-name="Rectangle 1503" width="19.714" height="0.68" transform="translate(38.47 253.641) rotate(-54.137)" fill="#2f2e41"/>
      <circle id="Ellipse_285" data-name="Ellipse 285" cx="3.398" cy="3.398" r="3.398" transform="translate(37.044 177.031)" fill="#618226"/>
      <circle id="Ellipse_286" data-name="Ellipse 286" cx="3.398" cy="3.398" r="3.398" transform="translate(0 203.2)" fill="#3f3d56"/>
      <circle id="Ellipse_287" data-name="Ellipse 287" cx="3.398" cy="3.398" r="3.398" transform="translate(14.953 206.598)" fill="#3f3d56"/>
      <circle id="Ellipse_288" data-name="Ellipse 288" cx="3.398" cy="3.398" r="3.398" transform="translate(8.156 219.852)" fill="#618226"/>
      <circle id="Ellipse_289" data-name="Ellipse 289" cx="3.398" cy="3.398" r="3.398" transform="translate(50.637 228.348)" fill="#3f3d56"/>
      <circle id="Ellipse_290" data-name="Ellipse 290" cx="3.398" cy="3.398" r="3.398" transform="translate(39.422 232.087)" fill="#3f3d56"/>
      <circle id="Ellipse_291" data-name="Ellipse 291" cx="3.398" cy="3.398" r="3.398" transform="translate(47.239 242.962)" fill="#3f3d56"/>
      <circle id="Ellipse_292" data-name="Ellipse 292" cx="3.398" cy="3.398" r="3.398" transform="translate(11.555 181.109)" fill="#3f3d56"/>
      <rect id="Rectangle_1504" data-name="Rectangle 1504" width="163.807" height="98.216" transform="translate(69.532 60.914)" fill="#3f3d56"/>
      <circle id="Ellipse_293" data-name="Ellipse 293" cx="1.699" cy="1.699" r="1.699" transform="translate(74.29 62.953)" fill="#618226"/>
      <circle id="Ellipse_294" data-name="Ellipse 294" cx="1.699" cy="1.699" r="1.699" transform="translate(80.407 62.953)" fill="#618226"/>
      <circle id="Ellipse_295" data-name="Ellipse 295" cx="1.699" cy="1.699" r="1.699" transform="translate(86.524 62.953)" fill="#618226"/>
      <rect id="Rectangle_1505" data-name="Rectangle 1505" width="163.67" height="0.68" transform="translate(69.669 68.453)" fill="#2f2e41"/>
      <path id="Path_1126" data-name="Path 1126" d="M165.029,88.442v30.586H120.567l-8.214,9.856.938-9.856h-4V88.442Z" fill="#618226"/>
      <rect id="Rectangle_1506" data-name="Rectangle 1506" width="20.051" height="20.051" transform="translate(144.978 98.977)" opacity="0.1"/>
      <path id="Path_1127" data-name="Path 1127" d="M149.4,103.4h55.735v30.586h-4l.939,9.856-8.213-9.856H149.4Z" fill="#618226"/>
      <ellipse id="Ellipse_296" data-name="Ellipse 296" cx="12.235" cy="1.194" rx="12.235" ry="1.194" transform="translate(100.458 131.429)" opacity="0.1"/>
      <ellipse id="Ellipse_297" data-name="Ellipse 297" cx="13.934" cy="1.359" rx="13.934" ry="1.359" transform="translate(188.139 147.236)" opacity="0.1"/>
    </g>
  </g>
</svg>
