<svg xmlns="http://www.w3.org/2000/svg" xmlns:xlink="http://www.w3.org/1999/xlink" width="327" height="289" viewBox="0 0 327 289">
  <defs>
    <clipPath id="clip-path">
      <rect id="Rectangle_1484" data-name="Rectangle 1484" width="327" height="289" transform="translate(24 97)" fill="#fff"/>
    </clipPath>
  </defs>
  <g id="img_référencement_-_individus_screen_7" data-name="img référencement - individus screen 7" transform="translate(-24 -97)" clip-path="url(#clip-path)">
    <g id="undraw_Traveling_re_weve" transform="translate(27.916 97)">
      <path id="Path_1551" data-name="Path 1551" d="M461.853,243.193c-16.991-12.7-43.6-24.715-73.013-32.958-26.778-7.506-52.9-11.129-73.549-10.2l-.107-2.4c20.9-.936,47.288,2.718,74.305,10.291,29.684,8.32,56.585,20.475,73.8,33.348Z" transform="translate(-202.311 -126.921)" fill="#3f3d56"/>
      <path id="Path_1552" data-name="Path 1552" d="M460.089,252.977a80.006,80.006,0,0,1-6.924,32.665q-.573,1.291-1.195,2.558a80.31,80.31,0,0,1-152.477-35.223q0-2.788.19-5.532.09-1.4.233-2.774a80.3,80.3,0,0,1,160.173,8.306Z" transform="translate(-202.311 -126.921)" fill="#f2f2f2"/>
      <path id="Path_1553" data-name="Path 1553" d="M453.165,285.642q-.573,1.291-1.195,2.558-3.52.382-7.41.555c-2.147.1-4.356.144-6.614.144-19.719,0-43.45-3.64-67.693-10.434-27.018-7.573-51.46-18.166-68.828-29.828q-.887-.6-1.743-1.192.09-1.4.233-2.774,1.381.985,2.849,1.971c17.163,11.523,41.361,22,68.138,29.508,24.032,6.736,47.539,10.345,67.032,10.345q3.343,0,6.518-.142Q449.076,286.144,453.165,285.642Z" transform="translate(-202.311 -126.921)" opacity="0.1" style="isolation: isolate"/>
      <path id="Path_1554" data-name="Path 1554" d="M437.947,286.977c-19.718,0-43.451-3.64-67.693-10.434-27.017-7.573-51.461-18.166-68.829-29.828-17.73-11.905-26.044-23.637-23.411-33.033s15.833-15.1,37.168-16.053l.107,2.4c-9.963.446-18.083,1.927-24.133,4.4s-9.679,5.8-10.828,9.9.232,8.839,4.106,14.084,10.05,10.743,18.33,16.3c17.161,11.524,41.36,22,68.138,29.509,24.032,6.736,47.538,10.345,67.032,10.346q3.341,0,6.516-.142c9.963-.447,18.083-1.927,24.133-4.4s9.679-5.8,10.828-9.9c2.064-7.363-4.173-16.929-17.56-26.938l1.44-1.925c6.889,5.15,11.989,10.227,15.157,15.089,3.4,5.212,4.5,10.065,3.278,14.423-2.634,9.4-15.834,15.1-37.168,16.053C442.413,286.929,440.2,286.977,437.947,286.977Z" transform="translate(-202.311 -126.921)" fill="#3f3d56"/>
      <circle id="Ellipse_375" data-name="Ellipse 375" cx="0.92" cy="0.92" r="0.92" transform="translate(178.684 29.435)" fill="#f2f2f2"/>
      <circle id="Ellipse_376" data-name="Ellipse 376" cx="1.583" cy="1.583" r="1.583" transform="translate(55.949 68.037)" fill="#ccc"/>
      <circle id="Ellipse_377" data-name="Ellipse 377" cx="3.127" cy="3.127" r="3.127" transform="translate(51.032 128.449)" fill="#ccc"/>
      <circle id="Ellipse_378" data-name="Ellipse 378" cx="2.084" cy="2.084" r="2.084" transform="translate(239.782 33.792)" fill="#ccc"/>
      <circle id="Ellipse_379" data-name="Ellipse 379" cx="3.384" cy="3.384" r="3.384" transform="translate(312.4 118.991)" fill="#ccc"/>
      <circle id="Ellipse_380" data-name="Ellipse 380" cx="1.452" cy="1.452" r="1.452" transform="translate(287.872 66.878)" fill="#ccc"/>
      <circle id="Ellipse_381" data-name="Ellipse 381" cx="2.265" cy="2.265" r="2.265" transform="translate(110.782 47.413)" fill="#ccc"/>
      <circle id="Ellipse_382" data-name="Ellipse 382" cx="1.452" cy="1.452" r="1.452" transform="translate(282.791 114.062)" fill="#ccc"/>
      <circle id="Ellipse_383" data-name="Ellipse 383" cx="1.807" cy="1.807" r="1.807" transform="translate(0 119.048)" fill="#ccc"/>
      <circle id="Ellipse_384" data-name="Ellipse 384" cx="1.957" cy="1.957" r="1.957" transform="translate(27.301 89.161)" fill="#ccc"/>
      <path id="Path_1555" data-name="Path 1555" d="M154.9,3.861h-3.861V0h-2.072V3.861h-3.863V5.935h3.863V9.8h2.072V5.935H154.9Z" fill="#ccc"/>
      <path id="Path_1556" data-name="Path 1556" d="M244.481,212.812h-2.425v-2.424h-1.3v2.424h-2.425v1.3h2.425v2.425h1.3v-2.425h2.425Z" fill="#ccc"/>
      <path id="Path_1557" data-name="Path 1557" d="M300.447,200.4h-1.812v-1.812h-.974V200.4h-1.812v.973h1.813v1.812h.974v-1.812h1.812Z" fill="#ccc"/>
      <circle id="Ellipse_385" data-name="Ellipse 385" cx="6.748" cy="6.748" r="6.748" transform="translate(120.102 105.812)" opacity="0.1" style="isolation: isolate"/>
      <circle id="Ellipse_386" data-name="Ellipse 386" cx="6.748" cy="6.748" r="6.748" transform="translate(194.633 173.596)" opacity="0.1" style="isolation: isolate"/>
      <circle id="Ellipse_387" data-name="Ellipse 387" cx="6.748" cy="6.748" r="6.748" transform="translate(171.936 116.241)" opacity="0.1" style="isolation: isolate"/>
      <circle id="Ellipse_388" data-name="Ellipse 388" cx="6.748" cy="6.748" r="6.748" transform="translate(123.476 153.353)" opacity="0.1" style="isolation: isolate"/>
      <circle id="Ellipse_389" data-name="Ellipse 389" cx="6.748" cy="6.748" r="6.748" transform="translate(208.128 80.049)" opacity="0.1" style="isolation: isolate"/>
      <circle id="Ellipse_390" data-name="Ellipse 390" cx="6.748" cy="6.748" r="6.748" transform="translate(230.518 125.749)" opacity="0.1" style="isolation: isolate"/>
      <circle id="Ellipse_391" data-name="Ellipse 391" cx="8.895" cy="8.895" r="8.895" transform="translate(205.981 49.684)" fill="#fff"/>
      <path id="Path_1558" data-name="Path 1558" d="M417.187,172.618a12.575,12.575,0,0,0-12.575,12.575c0,6.945,12.575,29.751,12.575,29.751s12.575-22.806,12.575-29.751a12.575,12.575,0,0,0-12.575-12.575Zm0,18.709a5.828,5.828,0,1,1,5.828-5.828,5.828,5.828,0,0,1-5.828,5.828Z" transform="translate(-202.311 -126.921)" fill="#618226"/>
      <circle id="Ellipse_392" data-name="Ellipse 392" cx="8.895" cy="8.895" r="8.895" transform="translate(117.92 73.81)" fill="#fff"/>
      <path id="Path_1559" data-name="Path 1559" d="M329.126,196.745a12.575,12.575,0,0,0-12.575,12.575c0,6.945,12.575,29.751,12.575,29.751S341.7,216.265,341.7,209.32a12.575,12.575,0,0,0-12.575-12.575Zm0,18.709a5.828,5.828,0,1,1,5.828-5.828,5.828,5.828,0,0,1-5.828,5.828Z" transform="translate(-202.311 -126.921)" fill="#3f3d56"/>
      <circle id="Ellipse_393" data-name="Ellipse 393" cx="8.895" cy="8.895" r="8.895" transform="translate(229.504 94.318)" fill="#fff"/>
      <path id="Path_1560" data-name="Path 1560" d="M440.71,217.252a12.575,12.575,0,0,0-12.575,12.575c0,6.945,12.575,29.751,12.575,29.751s12.575-22.806,12.575-29.751a12.575,12.575,0,0,0-12.575-12.575Zm0,18.709a5.828,5.828,0,1,1,5.828-5.828,5.828,5.828,0,0,1-5.828,5.828Z" transform="translate(-202.311 -126.921)" fill="#ccc" style="isolation: isolate"/>
      <circle id="Ellipse_394" data-name="Ellipse 394" cx="8.895" cy="8.895" r="8.895" transform="translate(78.715 138.952)" fill="#fff"/>
      <path id="Path_1561" data-name="Path 1561" d="M289.921,261.886a12.575,12.575,0,0,0-12.575,12.575c0,6.945,12.575,29.751,12.575,29.751S302.5,281.406,302.5,274.461a12.575,12.575,0,0,0-12.575-12.575Zm0,18.709a5.828,5.828,0,1,1,5.828-5.828,5.828,5.828,0,0,1-5.828,5.828Z" transform="translate(-202.311 -126.921)" fill="#618226"/>
      <ellipse id="Ellipse_395" data-name="Ellipse 395" cx="4.077" cy="12.988" rx="4.077" ry="12.988" transform="translate(272.544 201.97) rotate(-39.938)" fill="#2f2e41"/>
      <circle id="Ellipse_396" data-name="Ellipse 396" cx="25.976" cy="25.976" r="25.976" transform="translate(230.402 178.821)" fill="#2f2e41"/>
      <rect id="Rectangle_1567" data-name="Rectangle 1567" width="7.892" height="14.139" transform="translate(259.482 225.184)" fill="#2f2e41"/>
      <rect id="Rectangle_1568" data-name="Rectangle 1568" width="7.892" height="14.139" transform="translate(243.698 225.184)" fill="#2f2e41"/>
      <ellipse id="Ellipse_397" data-name="Ellipse 397" cx="6.576" cy="2.466" rx="6.576" ry="2.466" transform="translate(254.22 237.021)" fill="#2f2e41"/>
      <ellipse id="Ellipse_398" data-name="Ellipse 398" cx="6.576" cy="2.466" rx="6.576" ry="2.466" transform="translate(238.437 236.693)" fill="#2f2e41"/>
      <path id="Path_1562" data-name="Path 1562" d="M450.533,299.066c2.319-9.341,12.558-14.838,22.869-12.278S490.19,299,487.871,308.337s-10.015,9.371-20.325,6.811S448.214,308.407,450.533,299.066Z" transform="translate(-202.311 -126.921)" fill="#618226"/>
      <ellipse id="Ellipse_399" data-name="Ellipse 399" cx="4.077" cy="12.988" rx="4.077" ry="12.988" transform="matrix(0.429, -0.904, 0.904, 0.429, 213.639, 190.862)" fill="#2f2e41"/>
      <circle id="Ellipse_400" data-name="Ellipse 400" cx="8.661" cy="8.661" r="8.661" transform="translate(243.834 190.656)" fill="#fff"/>
      <circle id="Ellipse_401" data-name="Ellipse 401" cx="2.887" cy="2.887" r="2.887" transform="translate(246.048 193.325)" fill="#3f3d56"/>
      <path id="Path_1563" data-name="Path 1563" d="M460.239,344.281a5.774,5.774,0,0,1-11.361,2.068h0l0-.011c-.568-3.138,1.858-4.248,5-4.816S459.671,341.144,460.239,344.281Z" transform="translate(-202.311 -126.921)" fill="#fff"/>
      <path id="Path_1564" data-name="Path 1564" d="M405.192,276.534a18.033,18.033,0,1,0,1.022,26.632l22.12,18.665a1.662,1.662,0,1,0,2.146-2.538l0,0-22.12-18.665a18.034,18.034,0,0,0-3.166-24.092Zm-1.426,22.295a13.511,13.511,0,1,1-1.613-19.039h0a13.511,13.511,0,0,1,1.613,19.039Z" transform="translate(-202.311 -126.921)" fill="#3f3d56"/>
      <path id="Path_1565" data-name="Path 1565" d="M384.728,300.442a13.511,13.511,0,0,1-2.293-18.163q-.387.39-.749.817a13.511,13.511,0,0,0,20.652,17.426q.361-.428.68-.876A13.511,13.511,0,0,1,384.728,300.442Z" transform="translate(-202.311 -126.921)" opacity="0.3" style="isolation: isolate"/>
      <ellipse id="Ellipse_402" data-name="Ellipse 402" cx="12.988" cy="4.077" rx="12.988" ry="4.077" transform="translate(77.002 195.859) rotate(-69.082)" fill="#2f2e41"/>
      <circle id="Ellipse_403" data-name="Ellipse 403" cx="25.976" cy="25.976" r="25.976" transform="translate(35.462 178.821)" fill="#2f2e41"/>
      <rect id="Rectangle_1569" data-name="Rectangle 1569" width="7.892" height="14.139" transform="translate(49.602 225.184)" fill="#2f2e41"/>
      <rect id="Rectangle_1570" data-name="Rectangle 1570" width="7.892" height="14.139" transform="translate(65.385 225.184)" fill="#2f2e41"/>
      <ellipse id="Ellipse_404" data-name="Ellipse 404" cx="6.576" cy="2.466" rx="6.576" ry="2.466" transform="translate(49.602 237.021)" fill="#2f2e41"/>
      <ellipse id="Ellipse_405" data-name="Ellipse 405" cx="6.576" cy="2.466" rx="6.576" ry="2.466" transform="translate(65.385 236.693)" fill="#2f2e41"/>
      <circle id="Ellipse_406" data-name="Ellipse 406" cx="8.878" cy="8.878" r="8.878" transform="translate(53.219 189.343)" fill="#fff"/>
      <circle id="Ellipse_407" data-name="Ellipse 407" cx="2.959" cy="2.959" r="2.959" transform="translate(59.137 195.262)" fill="#3f3d56"/>
      <path id="Path_1566" data-name="Path 1566" d="M238.552,307.562c-2.1-9.393,4.607-18.885,14.976-21.2S274,289.784,276.1,299.178s-4.774,12.858-15.142,15.173S240.65,316.955,238.552,307.562Z" transform="translate(-202.311 -126.921)" fill="#618226"/>
      <ellipse id="Ellipse_408" data-name="Ellipse 408" cx="4.077" cy="12.988" rx="4.077" ry="12.988" transform="matrix(0.429, -0.904, 0.904, 0.429, 18.699, 190.862)" fill="#2f2e41"/>
      <path id="Path_1567" data-name="Path 1567" d="M250.991,341.09c0,2.542,6.546,7.563,13.81,7.563s14.075-7.158,14.075-9.7-6.811.493-14.075.493S250.991,338.548,250.991,341.09Z" transform="translate(-202.311 -126.921)" fill="#fff"/>
      <circle id="Ellipse_409" data-name="Ellipse 409" cx="25.976" cy="25.976" r="25.976" transform="translate(119.735 225.867)" fill="#2f2e41"/>
      <rect id="Rectangle_1571" data-name="Rectangle 1571" width="7.892" height="14.139" transform="translate(133.874 272.23)" fill="#2f2e41"/>
      <rect id="Rectangle_1572" data-name="Rectangle 1572" width="7.892" height="14.139" transform="translate(149.658 272.23)" fill="#2f2e41"/>
      <ellipse id="Ellipse_410" data-name="Ellipse 410" cx="6.576" cy="2.466" rx="6.576" ry="2.466" transform="translate(133.874 284.068)" fill="#2f2e41"/>
      <ellipse id="Ellipse_411" data-name="Ellipse 411" cx="6.576" cy="2.466" rx="6.576" ry="2.466" transform="translate(149.658 283.739)" fill="#2f2e41"/>
      <path id="Path_1568" data-name="Path 1568" d="M322.825,354.608c-2.1-9.393,4.607-18.885,14.976-21.2s20.474,3.423,22.571,12.816S355.6,359.082,345.23,361.4,324.923,364,322.825,354.608Z" transform="translate(-202.311 -126.921)" fill="#3f3d56"/>
      <path id="Path_1569" data-name="Path 1569" d="M348.128,374.264s1.884-8.291-1.7-7.914-8.48.565-9.8.565-8.856-.942-9.987,3.957-2.638,10.929.565,14.7c0,0,1.131,16.582,5.465,17.713s15.828,2.45,19.974-3.015a14.054,14.054,0,0,0,2.45-11.494h-1.884Z" transform="translate(-202.311 -126.921)" fill="#618226"/>
      <path id="Path_1570" data-name="Path 1570" d="M329.1,386.889s3.2,1.507,9.8.565v2.827l-9.8-.754Z" transform="translate(-202.311 -126.921)" opacity="0.1" style="isolation: isolate"/>
      <path id="Path_1571" data-name="Path 1571" d="M353.036,396.337,350.9,395.21l9.488-17.953a4.482,4.482,0,0,0-3.842-6.575l-9.957-.268.065-2.412,9.957.268a6.9,6.9,0,0,1,5.911,10.114Z" transform="translate(-202.311 -126.921)" fill="#618226"/>
      <path id="Path_1572" data-name="Path 1572" d="M330.105,396.337l-9.488-17.953a6.9,6.9,0,0,1,5.91-10.114l9.957-.268.065,2.412-9.957.268a4.482,4.482,0,0,0-3.842,6.575l9.488,17.953Z" transform="translate(-202.311 -126.921)" fill="#618226"/>
      <ellipse id="Ellipse_412" data-name="Ellipse 412" cx="4.524" cy="14.411" rx="4.524" ry="14.411" transform="translate(151.425 249.031) rotate(-62.122)" fill="#2f2e41"/>
    </g>
  </g>
</svg>
