<svg xmlns="http://www.w3.org/2000/svg" xmlns:xlink="http://www.w3.org/1999/xlink" width="327" height="289" viewBox="0 0 327 289">
  <defs>
    <clipPath id="clip-path">
      <rect id="Rectangle_1484" data-name="Rectangle 1484" width="327" height="289" transform="translate(24 97)" fill="#fff"/>
    </clipPath>
  </defs>
  <g id="img_services_screen_5" data-name="img services screen 5" transform="translate(-24 -97)" clip-path="url(#clip-path)">
    <g id="undraw_team_up_ip2x" transform="translate(24 146.937)">
      <circle id="Ellipse_413" data-name="Ellipse 413" cx="2.637" cy="2.637" r="2.637" transform="translate(313.392 6.325)" fill="#f2f2f2"/>
      <circle id="Ellipse_414" data-name="Ellipse 414" cx="2.637" cy="2.637" r="2.637" transform="translate(302.883 6.325)" fill="#f2f2f2"/>
      <circle id="Ellipse_415" data-name="Ellipse 415" cx="2.637" cy="2.637" r="2.637" transform="translate(292.374 6.325)" fill="#f2f2f2"/>
      <circle id="Ellipse_416" data-name="Ellipse 416" cx="2.637" cy="2.637" r="2.637" transform="translate(281.866 6.325)" fill="#f2f2f2"/>
      <circle id="Ellipse_417" data-name="Ellipse 417" cx="2.637" cy="2.637" r="2.637" transform="translate(313.392 17.334)" fill="#f2f2f2"/>
      <circle id="Ellipse_418" data-name="Ellipse 418" cx="2.637" cy="2.637" r="2.637" transform="translate(302.883 17.334)" fill="#f2f2f2"/>
      <circle id="Ellipse_419" data-name="Ellipse 419" cx="2.637" cy="2.637" r="2.637" transform="translate(292.374 17.334)" fill="#f2f2f2"/>
      <circle id="Ellipse_420" data-name="Ellipse 420" cx="2.637" cy="2.637" r="2.637" transform="translate(281.866 17.334)" fill="#f2f2f2"/>
      <circle id="Ellipse_421" data-name="Ellipse 421" cx="2.637" cy="2.637" r="2.637" transform="translate(313.392 28.343)" fill="#f2f2f2"/>
      <circle id="Ellipse_422" data-name="Ellipse 422" cx="2.637" cy="2.637" r="2.637" transform="translate(302.883 28.343)" fill="#f2f2f2"/>
      <circle id="Ellipse_423" data-name="Ellipse 423" cx="2.637" cy="2.637" r="2.637" transform="translate(292.374 28.343)" fill="#f2f2f2"/>
      <circle id="Ellipse_424" data-name="Ellipse 424" cx="2.637" cy="2.637" r="2.637" transform="translate(281.866 28.343)" fill="#f2f2f2"/>
      <circle id="Ellipse_425" data-name="Ellipse 425" cx="2.637" cy="2.637" r="2.637" transform="translate(313.392 39.351)" fill="#f2f2f2"/>
      <circle id="Ellipse_426" data-name="Ellipse 426" cx="2.637" cy="2.637" r="2.637" transform="translate(302.883 39.351)" fill="#f2f2f2"/>
      <circle id="Ellipse_427" data-name="Ellipse 427" cx="2.637" cy="2.637" r="2.637" transform="translate(292.374 39.351)" fill="#f2f2f2"/>
      <circle id="Ellipse_428" data-name="Ellipse 428" cx="2.637" cy="2.637" r="2.637" transform="translate(281.866 39.351)" fill="#f2f2f2"/>
      <circle id="Ellipse_429" data-name="Ellipse 429" cx="2.637" cy="2.637" r="2.637" transform="translate(313.392 50.36)" fill="#f2f2f2"/>
      <circle id="Ellipse_430" data-name="Ellipse 430" cx="2.637" cy="2.637" r="2.637" transform="translate(302.883 50.36)" fill="#f2f2f2"/>
      <circle id="Ellipse_431" data-name="Ellipse 431" cx="2.637" cy="2.637" r="2.637" transform="translate(292.374 50.36)" fill="#f2f2f2"/>
      <circle id="Ellipse_432" data-name="Ellipse 432" cx="2.637" cy="2.637" r="2.637" transform="translate(281.866 50.36)" fill="#f2f2f2"/>
      <circle id="Ellipse_433" data-name="Ellipse 433" cx="2.637" cy="2.637" r="2.637" transform="translate(313.392 61.369)" fill="#f2f2f2"/>
      <circle id="Ellipse_434" data-name="Ellipse 434" cx="2.637" cy="2.637" r="2.637" transform="translate(302.883 61.369)" fill="#f2f2f2"/>
      <circle id="Ellipse_435" data-name="Ellipse 435" cx="2.637" cy="2.637" r="2.637" transform="translate(292.374 61.369)" fill="#f2f2f2"/>
      <circle id="Ellipse_436" data-name="Ellipse 436" cx="2.637" cy="2.637" r="2.637" transform="translate(281.866 61.369)" fill="#f2f2f2"/>
      <path id="Path_1575" data-name="Path 1575" d="M356.176,236.34a58.462,58.462,0,0,1,5.623,12.483,59.167,59.167,0,0,1,2.594,13.442,58.427,58.427,0,0,1,.062,7.68c-.024.417.625.416.649,0a59.2,59.2,0,0,0-.832-13.79,59.908,59.908,0,0,0-3.983-13.227,58.409,58.409,0,0,0-3.552-6.917.325.325,0,0,0-.56.328Z" transform="translate(-81.138 -89.208)" fill="#fff"/>
      <path id="Path_1576" data-name="Path 1576" d="M387.938,240.067a94.611,94.611,0,0,0-6.979,23.477q-.547,3.411-.847,6.855c-.036.416.613.414.649,0a94.271,94.271,0,0,1,5.194-23.659q1.155-3.218,2.544-6.345c.168-.378-.391-.709-.56-.328Z" transform="translate(-81.138 -89.208)" fill="#fff"/>
      <path id="Path_1577" data-name="Path 1577" d="M407.731,270.931H81.546a.408.408,0,1,1,0-.815H407.731a.408.408,0,0,1,0,.815Z" transform="translate(-81.138 -89.208)" fill="#3f3d56"/>
      <path id="Path_1578" data-name="Path 1578" d="M250.046,166.9H193.482a3.07,3.07,0,0,1-3.067-3.067V92.275a3.07,3.07,0,0,1,3.067-3.067h56.564a3.07,3.07,0,0,1,3.067,3.067v71.557a3.07,3.07,0,0,1-3.067,3.067ZM193.482,89.89a2.388,2.388,0,0,0-2.385,2.385v71.557a2.388,2.388,0,0,0,2.385,2.385h56.564a2.388,2.388,0,0,0,2.385-2.385V92.275a2.388,2.388,0,0,0-2.385-2.385Z" transform="translate(-81.138 -89.208)" fill="#3f3d56"/>
      <path id="Path_1579" data-name="Path 1579" d="M217.059,123.6H204.608a1.535,1.535,0,0,1-1.533-1.533V107.378a1.535,1.535,0,0,1,1.533-1.533h12.451a1.535,1.535,0,0,1,1.533,1.533v14.693A1.535,1.535,0,0,1,217.059,123.6Z" transform="translate(-81.138 -89.208)" fill="#618226"/>
      <path id="Path_1580" data-name="Path 1580" d="M241.252,130.419H228.8a1.535,1.535,0,0,1-1.533-1.533V114.193a1.535,1.535,0,0,1,1.533-1.533h12.451a1.535,1.535,0,0,1,1.533,1.533v14.693a1.535,1.535,0,0,1-1.533,1.533Z" transform="translate(-81.138 -89.208)" fill="#ccc"/>
      <path id="Path_1581" data-name="Path 1581" d="M221.829,151.2H209.378a1.535,1.535,0,0,1-1.533-1.533V134.978a1.535,1.535,0,0,1,1.533-1.533h12.451a1.535,1.535,0,0,1,1.533,1.533v14.693a1.535,1.535,0,0,1-1.533,1.533Z" transform="translate(-81.138 -89.208)" fill="#ff6584"/>
      <circle id="Ellipse_437" data-name="Ellipse 437" cx="2.637" cy="2.637" r="2.637" transform="translate(44.632 2.183)" fill="#f2f2f2"/>
      <circle id="Ellipse_438" data-name="Ellipse 438" cx="2.637" cy="2.637" r="2.637" transform="translate(44.632 12.691)" fill="#f2f2f2"/>
      <circle id="Ellipse_439" data-name="Ellipse 439" cx="2.637" cy="2.637" r="2.637" transform="translate(44.632 23.2)" fill="#f2f2f2"/>
      <circle id="Ellipse_440" data-name="Ellipse 440" cx="2.637" cy="2.637" r="2.637" transform="translate(44.632 33.708)" fill="#f2f2f2"/>
      <circle id="Ellipse_441" data-name="Ellipse 441" cx="2.637" cy="2.637" r="2.637" transform="translate(55.64 2.183)" fill="#f2f2f2"/>
      <circle id="Ellipse_442" data-name="Ellipse 442" cx="2.637" cy="2.637" r="2.637" transform="translate(55.64 12.691)" fill="#f2f2f2"/>
      <circle id="Ellipse_443" data-name="Ellipse 443" cx="2.637" cy="2.637" r="2.637" transform="translate(55.64 23.2)" fill="#f2f2f2"/>
      <circle id="Ellipse_444" data-name="Ellipse 444" cx="2.637" cy="2.637" r="2.637" transform="translate(55.64 33.708)" fill="#f2f2f2"/>
      <circle id="Ellipse_445" data-name="Ellipse 445" cx="2.637" cy="2.637" r="2.637" transform="translate(66.649 2.183)" fill="#f2f2f2"/>
      <circle id="Ellipse_446" data-name="Ellipse 446" cx="2.637" cy="2.637" r="2.637" transform="translate(66.649 12.691)" fill="#f2f2f2"/>
      <circle id="Ellipse_447" data-name="Ellipse 447" cx="2.637" cy="2.637" r="2.637" transform="translate(66.649 23.2)" fill="#f2f2f2"/>
      <circle id="Ellipse_448" data-name="Ellipse 448" cx="2.637" cy="2.637" r="2.637" transform="translate(66.649 33.708)" fill="#f2f2f2"/>
      <circle id="Ellipse_449" data-name="Ellipse 449" cx="2.637" cy="2.637" r="2.637" transform="translate(77.658 2.183)" fill="#f2f2f2"/>
      <circle id="Ellipse_450" data-name="Ellipse 450" cx="2.637" cy="2.637" r="2.637" transform="translate(77.658 12.691)" fill="#f2f2f2"/>
      <circle id="Ellipse_451" data-name="Ellipse 451" cx="2.637" cy="2.637" r="2.637" transform="translate(77.658 23.2)" fill="#f2f2f2"/>
      <circle id="Ellipse_452" data-name="Ellipse 452" cx="2.637" cy="2.637" r="2.637" transform="translate(77.658 33.708)" fill="#f2f2f2"/>
      <circle id="Ellipse_453" data-name="Ellipse 453" cx="2.637" cy="2.637" r="2.637" transform="translate(88.667 2.183)" fill="#f2f2f2"/>
      <circle id="Ellipse_454" data-name="Ellipse 454" cx="2.637" cy="2.637" r="2.637" transform="translate(88.667 12.691)" fill="#f2f2f2"/>
      <circle id="Ellipse_455" data-name="Ellipse 455" cx="2.637" cy="2.637" r="2.637" transform="translate(88.667 23.2)" fill="#f2f2f2"/>
      <circle id="Ellipse_456" data-name="Ellipse 456" cx="2.637" cy="2.637" r="2.637" transform="translate(88.667 33.708)" fill="#f2f2f2"/>
      <circle id="Ellipse_457" data-name="Ellipse 457" cx="2.637" cy="2.637" r="2.637" transform="translate(99.675 2.183)" fill="#f2f2f2"/>
      <circle id="Ellipse_458" data-name="Ellipse 458" cx="2.637" cy="2.637" r="2.637" transform="translate(99.675 12.691)" fill="#f2f2f2"/>
      <circle id="Ellipse_459" data-name="Ellipse 459" cx="2.637" cy="2.637" r="2.637" transform="translate(99.675 23.2)" fill="#f2f2f2"/>
      <circle id="Ellipse_460" data-name="Ellipse 460" cx="2.637" cy="2.637" r="2.637" transform="translate(99.675 33.708)" fill="#f2f2f2"/>
      <circle id="Ellipse_461" data-name="Ellipse 461" cx="17.13" cy="17.13" r="17.13" transform="translate(56.688 151.027)" fill="#2f2e41"/>
      <rect id="Rectangle_1573" data-name="Rectangle 1573" width="9.324" height="5.204" transform="translate(58.966 183.588) rotate(-26.601)" fill="#2f2e41"/>
      <ellipse id="Ellipse_462" data-name="Ellipse 462" cx="1.626" cy="4.337" rx="1.626" ry="4.337" transform="matrix(0.55, -0.835, 0.835, 0.55, 54.26, 184.349)" fill="#2f2e41"/>
      <rect id="Rectangle_1574" data-name="Rectangle 1574" width="5.204" height="9.324" transform="translate(78.001 184.062) rotate(-63.399)" fill="#2f2e41"/>
      <ellipse id="Ellipse_463" data-name="Ellipse 463" cx="4.337" cy="1.626" rx="4.337" ry="1.626" transform="matrix(0.835, -0.55, 0.55, 0.835, 84.343, 186.41)" fill="#2f2e41"/>
      <circle id="Ellipse_464" data-name="Ellipse 464" cx="5.854" cy="5.854" r="5.854" transform="translate(66.764 158.112)" fill="#fff"/>
      <path id="Path_1582" data-name="Path 1582" d="M150.329,253.317a2.023,2.023,0,0,1,2.859,2.859A2.023,2.023,0,0,1,150.329,253.317Z" transform="translate(-81.138 -89.208)" fill="#3f3d56"/>
      <path id="Path_1583" data-name="Path 1583" d="M168.469,238.73c.258-6.342-5.208-11.713-12.208-12s-12.883,4.626-13.141,10.968,4.608,7.783,11.608,8.067S168.211,245.072,168.469,238.73Z" transform="translate(-81.138 -89.208)" fill="#ccc"/>
      <ellipse id="Ellipse_465" data-name="Ellipse 465" cx="2.689" cy="8.565" rx="2.689" ry="8.565" transform="translate(84.006 165.881) rotate(-40.645)" fill="#2f2e41"/>
      <ellipse id="Ellipse_466" data-name="Ellipse 466" cx="8.565" cy="2.689" rx="8.565" ry="2.689" transform="translate(48.439 175.374) rotate(-49.355)" fill="#2f2e41"/>
      <path id="Path_1584" data-name="Path 1584" d="M159.661,264.116a3.9,3.9,0,1,1-7.68,1.4v-.008c-.384-2.121,1.256-2.872,3.377-3.256S159.277,261.995,159.661,264.116Z" transform="translate(-81.138 -89.208)" fill="#fff"/>
      <ellipse id="Ellipse_469" data-name="Ellipse 469" cx="8.78" cy="2.756" rx="8.78" ry="2.756" transform="translate(84.088 112.391) rotate(-69.082)" fill="#2f2e41"/>
      <circle id="Ellipse_470" data-name="Ellipse 470" cx="17.56" cy="17.56" r="17.56" transform="matrix(0.16, -0.987, 0.987, 0.16, 53.422, 132.953)" fill="#2f2e41"/>
      <rect id="Rectangle_1579" data-name="Rectangle 1579" width="5.335" height="9.558" transform="translate(65.566 132.214)" fill="#2f2e41"/>
      <rect id="Rectangle_1580" data-name="Rectangle 1580" width="5.335" height="9.558" transform="translate(76.235 132.214)" fill="#2f2e41"/>
      <ellipse id="Ellipse_471" data-name="Ellipse 471" cx="4.446" cy="1.667" rx="4.446" ry="1.667" transform="translate(65.566 140.216)" fill="#2f2e41"/>
      <ellipse id="Ellipse_472" data-name="Ellipse 472" cx="4.446" cy="1.667" rx="4.446" ry="1.667" transform="translate(76.235 139.994)" fill="#2f2e41"/>
      <circle id="Ellipse_473" data-name="Ellipse 473" cx="6.001" cy="6.001" r="6.001" transform="translate(67.837 108.166) rotate(-1.683)" fill="#fff"/>
      <circle id="Ellipse_474" data-name="Ellipse 474" cx="2.001" cy="2.001" r="2.001" transform="translate(72.012 111.987)" fill="#3f3d56"/>
      <path id="Path_1598" data-name="Path 1598" d="M137.672,191.311c-1.418-6.35,3.115-12.766,10.123-14.331s13.84,2.314,15.258,8.664-3.227,8.692-10.236,10.257S139.09,197.661,137.672,191.311Z" transform="translate(-81.138 -89.208)" fill="#618226"/>
      <ellipse id="Ellipse_475" data-name="Ellipse 475" cx="2.756" cy="8.78" rx="2.756" ry="8.78" transform="matrix(0.429, -0.904, 0.904, 0.429, 44.676, 109.013)" fill="#2f2e41"/>
      <path id="Path_1599" data-name="Path 1599" d="M146.081,213.976c0,1.719,4.425,5.112,9.336,5.112s9.514-4.839,9.514-6.557-4.6.333-9.514.333S146.081,212.258,146.081,213.976Z" transform="translate(-81.138 -89.208)" fill="#fff"/>
      <path id="Path_1600" data-name="Path 1600" d="M188.593,203.878,175.667,206.4a1.4,1.4,0,0,1-1.191-.315,1.426,1.426,0,0,1-.5-1.15,33.8,33.8,0,0,0-3.007-15.406,1.427,1.427,0,0,1,.027-1.252,1.4,1.4,0,0,1,.985-.74l12.926-2.523a1.421,1.421,0,0,1,1.6.9,55.326,55.326,0,0,1,3.226,16.525,1.421,1.421,0,0,1-1.145,1.437Z" transform="translate(-81.138 -89.208)" fill="#ff6584"/>
      <path id="Path_1601" data-name="Path 1601" d="M131.919,215.7l-12.926,2.523a1.4,1.4,0,0,1-1.191-.315,1.426,1.426,0,0,1-.5-1.15,33.8,33.8,0,0,0-3.007-15.406,1.427,1.427,0,0,1,.027-1.252,1.4,1.4,0,0,1,.985-.739l12.926-2.523a1.421,1.421,0,0,1,1.6.9,55.325,55.325,0,0,1,3.226,16.525,1.421,1.421,0,0,1-1.145,1.437Z" transform="translate(-81.138 -89.208)" fill="#ccc"/>
      <path id="Path_1603" data-name="Path 1603" d="M149.1,275.2l-12.926,2.523a1.4,1.4,0,0,1-1.191-.315,1.426,1.426,0,0,1-.5-1.15,33.8,33.8,0,0,0-3.007-15.406,1.426,1.426,0,0,1,.027-1.252,1.4,1.4,0,0,1,.985-.74l12.926-2.523a1.421,1.421,0,0,1,1.6.9,55.327,55.327,0,0,1,3.226,16.525A1.421,1.421,0,0,1,149.1,275.2Z" transform="translate(-81.138 -89.208)" fill="#618226"/>
    </g>
    <g id="undraw_voice_interface_eckp" transform="translate(-112 -86)">
      <path id="Path_1630" data-name="Path 1630" d="M615.276,373.811c-3.374,1.14-6.432,3.805-7.123,7.3-.32,1.62-.124,3.3-.393,4.932-.625,3.778-3.59,6.663-6.326,9.343s-5.56,5.794-5.759,9.617c-.219,4.187,2.818,8.11,2.293,12.27-.61,4.833-5.715,7.965-6.977,12.67-.843,3.142.19,6.526,1.889,9.3,3.237,5.286,8.77,8.875,14.663,10.8s12.168,2.329,18.366,2.394c7.547.079,15.741-.569,21.411-5.55a17.153,17.153,0,0,0,5.695-11.167c.539-5.77-1.869-11.731-.208-17.283,1.045-3.494,3.667-6.685,3.276-10.311-.382-3.545-3.479-6.058-5.6-8.922a36.269,36.269,0,0,1-4.366-8.945L642.077,379.6c-.793-2.094-1.664-4.3-3.432-5.671-3.31-2.573-8.632-2.067-12.5-1.537C622.552,372.888,618.729,372.645,615.276,373.811Z" transform="translate(-252.483 -87.413)" fill="#2f2e41"/>
      <path id="Path_1631" data-name="Path 1631" d="M633.961,470.521s1.789,5.814-11.628,12.523,1.342,13.865,1.342,13.865l15.654,3.578s16.1-2.236,17.89-4.92,4.92-11.628,4.025-12.97a20.912,20.912,0,0,0-2.236-2.683s-10.734-1.789-10.287-6.709S633.961,470.521,633.961,470.521Z" transform="translate(-269.905 -153.092)" fill="#ffb9b9"/>
      <path id="Path_1632" data-name="Path 1632" d="M633.961,470.521s1.789,5.814-11.628,12.523,1.342,13.865,1.342,13.865l15.654,3.578s16.1-2.236,17.89-4.92,4.92-11.628,4.025-12.97a20.912,20.912,0,0,0-2.236-2.683s-10.734-1.789-10.287-6.709S633.961,470.521,633.961,470.521Z" transform="translate(-269.905 -153.092)" opacity="0.1"/>
      <circle id="Ellipse_499" data-name="Ellipse 499" cx="14.312" cy="14.312" r="14.312" transform="translate(358.466 297.973)" fill="#ffb9b9"/>
      <path id="Path_1633" data-name="Path 1633" d="M623.509,514.565s-17.236-1.26-17.563-13.153c0,0-6.141-.712-7.93,1.078s-7.6,3.131-7.6,7.6,9.839,17.89,9.839,17.89,5.367,17.89,3.131,21.021-2.683,11.181-2.683,11.181,22.362-1.789,25.94,0,17.89,1.789,18.784,0-.895-24.151-.895-24.151,4.025-5.367,3.131-11.628l10.734-12.523s-4.025-12.076-10.287-12.076c0,0-8.5-2.236-8.721-1.118S643.635,512.328,623.509,514.565Z" transform="translate(-252.296 -172.09)" fill="#618226"/>
      <path id="Path_1634" data-name="Path 1634" d="M568.737,655.747s4.025,6.261,14.312,7.6,12.076-2.236,11.181-3.131S582.6,655.3,582.6,655.3l-6.261-4.92Z" transform="translate(-237.776 -273.914)" fill="#ffb9b9"/>
      <path id="Path_1635" data-name="Path 1635" d="M745.577,650.38l-11.628,6.709s-15.206-.895-9.392,3.578S741.1,663.35,741.1,663.35l10.287-4.92Z" transform="translate(-341.268 -273.914)" fill="#ffb9b9"/>
      <path id="Path_1636" data-name="Path 1636" d="M606.335,685.6s-10.734,26.388,2.236,30.413,48.75,3.131,56.8-2.236,10.287-12.523,8.945-14.759-10.287-8.5-16.548-8.945S606.335,685.6,606.335,685.6Z" transform="translate(-260.168 -297.51)" fill="#2f2e41"/>
      <path id="Path_1637" data-name="Path 1637" d="M606.335,685.6s-10.734,26.388,2.236,30.413,48.75,3.131,56.8-2.236,10.287-12.523,8.945-14.759-10.287-8.5-16.548-8.945S606.335,685.6,606.335,685.6Z" transform="translate(-260.168 -297.51)" opacity="0.05"/>
      <path id="Path_1638" data-name="Path 1638" d="M697.23,679.743s37.888-13.715,37.441,2.833S710.519,703.6,710.519,703.6l-7.156.894L664,705.833s1.342-7.156-1.789-8.05c0,0,10.287-2.684,10.734-3.131s25.94-9.392,27.729-9.839,7.156-4.025,11.181-3.578c0,0,4.473-3.578,9.392-2.683l-13.865.895Z" transform="translate(-300.395 -290.01)" fill="#2f2e41"/>
      <path id="Path_1639" data-name="Path 1639" d="M697.23,679.743s37.888-13.715,37.441,2.833S710.519,703.6,710.519,703.6l-7.156.894L664,705.833s1.342-7.156-1.789-8.05c0,0,10.287-2.684,10.734-3.131s25.94-9.392,27.729-9.839,7.156-4.025,11.181-3.578c0,0,4.473-3.578,9.392-2.683l-13.865.895Z" transform="translate(-300.395 -290.01)" opacity="0.1"/>
      <path id="Path_1640" data-name="Path 1640" d="M558,596.606l4.777,10.9,29.071-10.287,2.236-5.814-7.6-1.342L571.2,592.745l-6.63,1.789Z" transform="translate(-167.86 -204.652)" fill="#2f2e41"/>
      <path id="Path_1641" data-name="Path 1641" d="M558,596.606l4.777,10.9,29.071-10.287,2.236-5.814-7.6-1.342L571.2,592.745l-6.63,1.789Z" transform="translate(-167.86 -204.652)" opacity="0.1"/>
      <path id="Path_1642" data-name="Path 1642" d="M544.273,691.81s8.5,10.734,18.337,13.417,15.206-.894,15.206-.894l-3.131-12.523-1.342-8.05-5.814-4.025L555.9,674.367l-13.865-4.472s-5.814-.894-5.814,0,5.367,14.312,5.367,14.312Z" transform="translate(-215.996 -286.721)" fill="#2f2e41"/>
      <path id="Path_1643" data-name="Path 1643" d="M591.768,754.555s1.789,12.97,4.025,13.865,8.945-.894,10.734-1.789,7.87-5.021,7.87-5.021S593.109,753.66,591.768,754.555Z" transform="translate(-253.204 -343.651)" fill="#f2f2f2"/>
      <path id="Path_1644" data-name="Path 1644" d="M516.429,671.348l8.5,1.342-.895,10.287L512.18,680.1Z" transform="translate(-137.166 -259.103)" fill="#ffb9b9"/>
      <path id="Path_1645" data-name="Path 1645" d="M727.614,758.15s-3.982,4.74.043,7.424l2.684,2.236s8.945,1.789,9.839,2.683,4.473-1.342,4.473-1.342.447-13.417,0-14.312-5.814-1.789-6.262-.895-5.814,2.236-8.945,1.342Z" transform="translate(-343.026 -343.042)" fill="#f2f2f2"/>
      <path id="Path_1646" data-name="Path 1646" d="M538.851,668.5s-31.307-18.337-36.227-11.628-10.287,16.1,4.025,23.257,59.037,21.915,59.037,21.915,6.709-10.287,6.709-12.97c0,0-23.7-10.734-27.729-11.628S524.539,666.26,522.3,665.366a25.959,25.959,0,0,1-5.367-3.578Z" transform="translate(-190 -277.272)" fill="#2f2e41"/>
      <path id="Path_1647" data-name="Path 1647" d="M572.183,527.1l-1.789,1.342s-4.025,10.287-4.472,16.1-5.814,23.7-5.367,25.94a9.183,9.183,0,0,0,3.578,6.261s3.578-8.05,9.839-6.709l7.6-27.729Z" transform="translate(-232.277 -191.33)" fill="#618226"/>
      <path id="Path_1648" data-name="Path 1648" d="M768.257,527.1l3.578,4.025s2.236,5.367,2.236,6.709,4.472,21.021,4.92,21.915,2.236,12.076,0,14.759a20.112,20.112,0,0,1-6.261,4.472s2.683-9.392-5.814-9.839l.895-3.578-8.051-26.835Z" transform="translate(-365.737 -191.33)" fill="#618226"/>
      <path id="Path_1649" data-name="Path 1649" d="M598.542,608.877v23.558a5.664,5.664,0,0,0,5.58,5.663l49.268.73a5.664,5.664,0,0,0,5.744-5.446l.906-23.561a5.664,5.664,0,0,0-5.578-5.881l-50.174-.727a5.664,5.664,0,0,0-5.746,5.663Z" transform="translate(-257.742 -242.319)" fill="#3f3d56"/>
      <ellipse id="Ellipse_500" data-name="Ellipse 500" cx="15.405" cy="8.295" rx="15.405" ry="8.295" transform="translate(358.212 295.236)" fill="#2f2e41"/>
      <circle id="Ellipse_501" data-name="Ellipse 501" cx="3.578" cy="3.578" r="3.578" transform="translate(367.411 375.347)" fill="#f2f2f2"/>
    </g>
  </g>
</svg>
