<svg xmlns="http://www.w3.org/2000/svg" xmlns:xlink="http://www.w3.org/1999/xlink" width="327" height="289" viewBox="0 0 327 289">
  <defs>
    <clipPath id="clip-path">
      <rect id="Rectangle_1484" data-name="Rectangle 1484" width="327" height="289" transform="translate(24 117)" fill="#fff"/>
    </clipPath>
  </defs>
  <g id="img_shop_screen_2" data-name="img shop screen 2" transform="translate(-24 -117)" clip-path="url(#clip-path)">
    <g id="undraw_Online_shopping_re_k1sv" transform="translate(24 134.973)">
      <path id="Path_986" data-name="Path 986" d="M82.454,292.9c10.193,7.343,23.4,7.711,36.169,6.809,1.783-.126,3.553-.273,5.307-.433.011,0,.025,0,.035,0,.084-.008.169-.016.249-.021l1.083-.1-.085.162-.266.5c.1-.168.191-.332.287-.5.028-.05.06-.1.088-.151,3.308-5.756,6.588-11.723,7.425-18.3.865-6.822-1.566-14.546-7.57-17.9a12.116,12.116,0,0,0-2.486-1.041c-.359-.109-.723-.2-1.091-.276a12.986,12.986,0,0,0-15.1,16.881c-5.09-5.22-4.141-13.687-2.385-20.764s3.889-14.951.311-21.307a14.051,14.051,0,0,0-9.413-6.617c-.12-.026-.241-.052-.361-.074a18.952,18.952,0,0,0-13.616,2.386c-7.506,4.73-11.361,13.7-12.612,22.483C66.4,268.771,70.865,284.548,82.454,292.9Z" transform="translate(-67.952 -47.062)" fill="#f2f2f2"/>
      <path id="Path_987" data-name="Path 987" d="M85.744,270.236a32.218,32.218,0,0,0,2.224,9.079,27.974,27.974,0,0,0,4.343,7.095,35.842,35.842,0,0,0,13.768,9.927,51.586,51.586,0,0,0,12.543,3.37c1.783-.126,3.553-.273,5.307-.433.011,0,.025,0,.035,0,.084-.008.169-.016.249-.021l1.083-.1-.085.162-.266.5c.1-.168.191-.332.287-.5.028-.05.06-.1.088-.151a28.264,28.264,0,0,1-2.631-37.236c-.359-.109-.723-.2-1.091-.276a29.817,29.817,0,0,0-2.72,4.505,29.218,29.218,0,0,0-2.521,18.177,29.872,29.872,0,0,0,7.568,14.9c-.341-.024-.684-.052-1.021-.082a52.377,52.377,0,0,1-18.514-4.717A33.344,33.344,0,0,1,91.9,284.18a30.137,30.137,0,0,1-5.309-16.539,69.8,69.8,0,0,1,1.981-18.9,79.311,79.311,0,0,1,6.664-18.153.57.57,0,0,0-.226-.753.485.485,0,0,0-.361-.074.422.422,0,0,0-.279.239c-.364.711-.722,1.423-1.066,2.142a80.21,80.21,0,0,0-6.279,18.833A64.575,64.575,0,0,0,85.744,270.236Z" transform="translate(-67.952 -47.062)" fill="#fff"/>
      <path id="Path_988" data-name="Path 988" d="M388.394,264.626H219.82a6.565,6.565,0,0,1-6.558-6.558V53.62a6.565,6.565,0,0,1,6.558-6.558H388.394a6.565,6.565,0,0,1,6.558,6.558V258.069a6.565,6.565,0,0,1-6.558,6.558ZM219.82,47.833a5.793,5.793,0,0,0-5.786,5.786V258.069a5.793,5.793,0,0,0,5.786,5.786H388.394a5.793,5.793,0,0,0,5.786-5.786V53.62a5.793,5.793,0,0,0-5.786-5.786Z" transform="translate(-67.952 -47.062)" fill="#3f3d56"/>
      <rect id="Rectangle_1485" data-name="Rectangle 1485" width="180.918" height="0.772" transform="translate(145.696 16.044)" fill="#3f3d56"/>
      <circle id="Ellipse_263" data-name="Ellipse 263" cx="3.086" cy="3.086" r="3.086" transform="translate(151.482 5.401)" fill="#3f3d56"/>
      <circle id="Ellipse_264" data-name="Ellipse 264" cx="3.086" cy="3.086" r="3.086" transform="translate(161.126 5.401)" fill="#3f3d56"/>
      <circle id="Ellipse_265" data-name="Ellipse 265" cx="3.086" cy="3.086" r="3.086" transform="translate(170.77 5.401)" fill="#3f3d56"/>
      <path id="Path_989" data-name="Path 989" d="M362.263,93.738H241.908a5.015,5.015,0,1,1,0-10.03H362.263a5.015,5.015,0,1,1,0,10.03ZM241.908,84.48a4.243,4.243,0,0,0,0,8.487H362.263a4.243,4.243,0,1,0,0-8.487Z" transform="translate(-67.952 -47.062)" fill="#3f3d56"/>
      <path id="Path_990" data-name="Path 990" d="M286.941,164.331H239.493a6.565,6.565,0,0,1-6.558-6.558V118.812a6.565,6.565,0,0,1,6.558-6.558h47.448a6.565,6.565,0,0,1,6.558,6.558v38.961a6.565,6.565,0,0,1-6.558,6.558Zm-47.448-51.305a5.793,5.793,0,0,0-5.786,5.786v38.961a5.793,5.793,0,0,0,5.786,5.786h47.448a5.793,5.793,0,0,0,5.786-5.786V118.812a5.793,5.793,0,0,0-5.786-5.786Z" transform="translate(-67.952 -47.062)" fill="#3f3d56"/>
      <rect id="Rectangle_1486" data-name="Rectangle 1486" width="59.792" height="51.305" rx="6.172" transform="translate(247.149 67.121)" fill="#f2f2f2"/>
      <path id="Path_991" data-name="Path 991" d="M286.941,236.852H239.493a6.565,6.565,0,0,1-6.558-6.558V191.333a6.565,6.565,0,0,1,6.558-6.558h47.448a6.565,6.565,0,0,1,6.558,6.558v38.961a6.565,6.565,0,0,1-6.558,6.558Zm-47.448-51.305a5.793,5.793,0,0,0-5.786,5.786v38.961a5.793,5.793,0,0,0,5.786,5.786h47.448a5.793,5.793,0,0,0,5.786-5.786V191.333a5.793,5.793,0,0,0-5.786-5.786Z" transform="translate(-67.952 -47.062)" fill="#3f3d56"/>
      <rect id="Rectangle_1487" data-name="Rectangle 1487" width="59.792" height="51.305" rx="6.172" transform="translate(247.149 139.643)" fill="#f2f2f2"/>
      <path id="Path_992" data-name="Path 992" d="M251.41,154.908h-.026l-5.4-.2a.7.7,0,0,1-.672-.622c-.371-3.314-1.9-20.2,4.5-27.222a9.16,9.16,0,0,1,7.247-3.044.3.3,0,0,0,.278-.145l1.306-2.053a.708.708,0,0,1,.676-.321c1.047.127,6.387.724,8.632.074a.7.7,0,0,1,.742.228l1.716,2.1a.3.3,0,0,0,.25.116,8.8,8.8,0,0,1,6.61,3.146c2.9,3.243,5.892,10.56,3.681,27a.707.707,0,0,1-.7.611h-4.25a.707.707,0,0,1-.7-.6l-1.388-9.581a.317.317,0,0,0-.631.039l-.1,4.5a.7.7,0,0,1-.418.628,23.6,23.6,0,0,1-18.37-.123.709.709,0,0,1-.418-.615l-.174-4.087a.317.317,0,0,0-.632-.022l-1.079,9.573A.706.706,0,0,1,251.41,154.908Z" transform="translate(-67.952 -47.062)" fill="#618226"/>
      <path id="Path_993" data-name="Path 993" d="M273.735,225.488h0l-21.148-.134a.632.632,0,0,1-.622-.557l-2.127-18.082a.487.487,0,0,0-.47-.433c-1.679-.055-5.673-.437-6.5-2.8-.737-2.106,1.279-5.211,5.993-9.231a.631.631,0,0,1,1.017.3l2.447,8.442a.494.494,0,0,0,.468.354l20.051.135a.488.488,0,0,0,.471-.344l2.723-8.663a.63.63,0,0,1,.984-.312c1.858,1.419,7.843,6.291,6.858,9.406-.516,1.632-2.843,2.541-6.917,2.7a.488.488,0,0,0-.468.433l-2.128,18.224a.63.63,0,0,1-.626.558Z" transform="translate(-67.952 -47.062)" fill="#618226"/>
      <path id="Path_994" data-name="Path 994" d="M366.406,149.346a44.58,44.58,0,0,0-18.325,8.116,3.4,3.4,0,0,0-1.461-1.735,5.131,5.131,0,0,0-1.483-.623,1.494,1.494,0,0,0-1.355.586,7.672,7.672,0,0,0-1.206,1.785c-7.262-4.985-18.279-8.166-18.279-8.166v-1a5.505,5.505,0,0,1,.072-.7c.037-.268.084-.5.143-.794.935-4.754,4.63-15.618,4.63-15.618h4.178l8.1,1.682,9.113-.558,9.178-1.91,1.19-.249c1.985,1.558,4.237,12.462,5.122,17.1.112.589.2,1.075.265,1.433C366.366,149.106,366.406,149.346,366.406,149.346Z" transform="translate(-67.952 -47.062)" fill="#fff"/>
      <path id="Path_995" data-name="Path 995" d="M341.477,197.2h0s-1.941.485-4.95,8.637-4.076,18.683-4.076,18.683-1.692,2.866,5.531,3.058c0,0-.581,1.893,3.495,1.6s3.489-.288,3.489-.288,2.62-1.65,3.785-1.36a6.133,6.133,0,0,1,3.153,1.455c1.261,1.066,5.291.632,5.339-.192a7.616,7.616,0,0,0,0-1.216s6.163.389,5-4.076-2.135-11.793-2.135-11.793-3.153-14.314-6.747-14.509S341.477,197.2,341.477,197.2Z" transform="translate(-67.952 -47.062)" fill="#fff"/>
      <circle id="Ellipse_266" data-name="Ellipse 266" cx="11.573" cy="11.573" r="11.573" transform="translate(62.739 113.256)" fill="#2f2e41"/>
      <circle id="Ellipse_267" data-name="Ellipse 267" cx="9.474" cy="9.474" r="9.474" transform="translate(65.809 117.474)" fill="#ffb8b8"/>
      <path id="Path_996" data-name="Path 996" d="M179.318,202.828a4.056,4.056,0,0,0-.414.488l-19.119-.676-2.187-4.1-6.62,2.491,3.166,7.636a3.086,3.086,0,0,0,3.188,1.886l21.635-2.376a4.049,4.049,0,1,0,.352-5.349Z" transform="translate(-67.952 -47.062)" fill="#ffb8b8"/>
      <path id="Path_997" data-name="Path 997" d="M148.432,204.717a1.856,1.856,0,0,1-1.019-1.164l-2.663-8.938a5.16,5.16,0,1,1,9.338-4.394l5.158,7.806a1.858,1.858,0,0,1-.764,2.708l-8.5,3.971a1.856,1.856,0,0,1-1.547.011Z" transform="translate(-67.952 -47.062)" fill="#ccc"/>
      <path id="Path_998" data-name="Path 998" d="M99.311,248.4l4.154-2.261-6.745-17.1-6.13,3.337Z" fill="#ffb8b8"/>
      <path id="Path_999" data-name="Path 999" d="M165.465,294.679l8.18-4.453h0A5.935,5.935,0,0,1,181.7,292.6l.092.169-13.393,7.291Z" transform="translate(-67.952 -47.062)" fill="#2f2e41"/>
      <path id="Path_1000" data-name="Path 1000" d="M53.6,248.415h4.729l2.25-18.241H53.6Z" fill="#ffb8b8"/>
      <path id="Path_1001" data-name="Path 1001" d="M120.349,293.933h9.314a5.935,5.935,0,0,1,5.935,5.935v.193H120.349Z" transform="translate(-67.952 -47.062)" fill="#2f2e41"/>
      <path id="Path_1002" data-name="Path 1002" d="M150.943,214.516l1.543,18.516L169.7,284.667a1.543,1.543,0,0,1-1.106,1.989l-5.275,1.256a1.543,1.543,0,0,1-1.735-.806l-22-43.649a.771.771,0,0,0-1.442.182l-9.684,44.115a1.543,1.543,0,0,1-1.507,1.212h-4.907a1.54,1.54,0,0,1-1.542-1.564c.45-30.589-1.034-65.444,10.776-70.958l1.929-5.015Z" transform="translate(-67.952 -47.062)" fill="#2f2e41"/>
      <path id="Path_1003" data-name="Path 1003" d="M132.643,212.743l-1.989-12.027a11.911,11.911,0,0,1,3.768-10.8,11.712,11.712,0,0,1,10.929-2.671l.339.093a11.875,11.875,0,0,1,8.574,10.549c.38,5.223.04,12.8-3.733,19.238l-.073.125Z" transform="translate(-67.952 -47.062)" fill="#ccc"/>
      <path id="Path_1004" data-name="Path 1004" d="M152.66,168.975a12.886,12.886,0,0,1-7.364,2.276,7.9,7.9,0,0,0,3.13,1.288,25.984,25.984,0,0,1-10.614.06,6.869,6.869,0,0,1-2.222-.763A2.812,2.812,0,0,1,134.219,170c-.233-1.33.8-2.539,1.881-3.353a13.875,13.875,0,0,1,11.659-2.33,6.385,6.385,0,0,1,3.453,1.951A3.145,3.145,0,0,1,151.5,170Z" transform="translate(-67.952 -47.062)" fill="#2f2e41"/>
      <path id="Path_1005" data-name="Path 1005" d="M142.111,160.26c1.1-4.434-2.838-9.361-7.406-9.269-4.634.094-8.044,4.281-10.389,8.28s-4.674,8.531-8.978,10.253a9.269,9.269,0,0,1-12.709-8.831c-.578,4.858.223,10.114,3.356,13.871s8.962,5.451,13.152,2.926c2.393-1.442,3.923-3.949,5.184-6.442s2.383-5.122,4.294-7.161,4.865-3.392,7.524-2.534a25.93,25.93,0,0,0,3.093,1.206c1.091.2,2.464-.316,2.612-1.415Z" transform="translate(-67.952 -47.062)" fill="#2f2e41"/>
      <path id="Path_1006" data-name="Path 1006" d="M119.276,240.668a4.144,4.144,0,0,1,1.058-6.266l8.219-36.838,8.337,3.422-10.7,35.135a4.166,4.166,0,0,1-6.913,4.547Z" transform="translate(-67.952 -47.062)" fill="#ffb8b8"/>
      <path id="Path_1007" data-name="Path 1007" d="M125.3,202.848a1.856,1.856,0,0,1-.13-1.542l3.16-8.774a5.16,5.16,0,0,1,10.124,2l-.48,9.344a1.858,1.858,0,0,1-2.222,1.726l-9.2-1.85a1.856,1.856,0,0,1-1.252-.909Z" transform="translate(-67.952 -47.062)" fill="#ccc"/>
      <path id="Path_22" data-name="Path 22" d="M192.633,198.717l-.137-.019.516-3.751a2.191,2.191,0,0,0-1.872-2.469l-7.946-1.092a2.191,2.191,0,0,0-2.469,1.872L177.9,213.835a2.191,2.191,0,0,0,1.872,2.469l7.946,1.092a2.191,2.191,0,0,0,2.469-1.872l1.946-14.156.137.019Z" transform="translate(-67.952 -47.062)" fill="#3f3d56"/>
      <path id="Path_23" data-name="Path 23" d="M190.889,193.579l-.989-.136a.742.742,0,0,1-.819.919l-4.342-.6a.742.742,0,0,1-.541-1.106l-.924-.127a1.561,1.561,0,0,0-1.759,1.334l-2.694,19.6a1.561,1.561,0,0,0,1.334,1.759l7.616,1.047a1.561,1.561,0,0,0,1.759-1.334h0l2.694-19.6a1.561,1.561,0,0,0-1.334-1.759Z" transform="translate(-67.952 -47.062)" fill="#fff"/>
      <circle id="Ellipse_268" data-name="Ellipse 268" cx="4.243" cy="4.243" r="4.243" transform="translate(113.293 154.301)" fill="#618226"/>
      <path id="Path_1008" data-name="Path 1008" d="M185.067,207.225a.44.44,0,0,1-.265-.088l0,0-1-.764a.443.443,0,1,1,.539-.7l.646.5,1.526-1.991a.443.443,0,0,1,.621-.082l-.009.013.01-.013a.444.444,0,0,1,.082.621l-1.8,2.341A.443.443,0,0,1,185.067,207.225Z" transform="translate(-67.952 -47.062)" fill="#fff"/>
      <path id="Path_1009" data-name="Path 1009" d="M224.6,300.116H77.624a.386.386,0,0,1,0-.772H224.6a.386.386,0,0,1,0,.772Z" transform="translate(-67.952 -47.062)" fill="#3f3d56"/>
    </g>
  </g>
</svg>
