<svg xmlns="http://www.w3.org/2000/svg" xmlns:xlink="http://www.w3.org/1999/xlink" width="327" height="289" viewBox="0 0 327 289">
  <defs>
    <clipPath id="clip-path">
      <rect id="Rectangle_1484" data-name="Rectangle 1484" width="327" height="289" transform="translate(24 117)" fill="#fff"/>
    </clipPath>
    <linearGradient id="linear-gradient" x1="0.5" y1="1" x2="0.5" gradientUnits="objectBoundingBox">
      <stop offset="0" stop-color="gray" stop-opacity="0.251"/>
      <stop offset="0.54" stop-color="gray" stop-opacity="0.122"/>
      <stop offset="1" stop-color="gray" stop-opacity="0.102"/>
    </linearGradient>
    <linearGradient id="linear-gradient-2" x1="0.5" x2="0.5" xlink:href="#linear-gradient"/>
  </defs>
  <g id="img_screen_1_-_welcome" data-name="img screen 1 - welcome" transform="translate(-24 -117)" clip-path="url(#clip-path)">
    <g id="undraw_add_to_cart_vkjp" transform="translate(24.003 135.959)">
      <path id="Path_1010" data-name="Path 1010" d="M331.351,177c-.293.214-.562.422-.85.624a28.649,28.649,0,0,1-3.319,2.024c-6.029,3.179-13.461,4.731-20.7,5.786-16.236,2.367-32.811,2.827-49.316,3.278-44.6,1.225-89.3,2.446-133.79-.375-17.577-1.113-35.541-2.976-51.469-8.689q-3.425-1.225-6.715-2.7a55.146,55.146,0,0,1-12.246-7.324,26.664,26.664,0,0,1-7.646-9.392c-3.366-7.394-1.585-15.7,2.259-22.947a71.311,71.311,0,0,1,5.387-8.428c2.968-4.081,6.24-8.045,9.225-12.123,10.623-14.5,17.554-32.835,7.749-47.7-2.818-4.271-6.89-8.021-9.187-12.48-2.93-5.7-2.7-12.038-1.772-18.19q.182-1.172.384-2.32C60.935,26.923,63.929,17.094,73.16,11.4c9.588-5.918,23.205-5.619,35.1-3.515,18.506,3.3,35.577,10.183,52.829,16.394s35.3,11.885,54.261,12.495c16.742.539,36.271-3.495,47.383-13.98,10.793-10.183,31.08-10.959,45.7-4.807,10.037,4.221,17.525,11.827,20.683,20.381a26.6,26.6,0,0,1,1.374,5.308,24.48,24.48,0,0,1,.246,5.007c-.044.826-.129,1.643-.246,2.452-2.443,16.88-20.029,30.195-30.719,45.273-5.223,7.365-8.912,16.212-5.32,24.154,5.478,12.1,24.529,16.406,36.034,25.411a27.069,27.069,0,0,1,5.654,5.8C341.724,159.787,339.665,170.612,331.351,177Z" transform="translate(-12.275 -6.287)" fill="#618226" opacity="0.1"/>
      <g id="flowers">
        <path id="Path_1011" data-name="Path 1011" d="M87.855,101.457S74.379,77.575,54.071,70.7A41.537,41.537,0,0,1,33.025,54.953a69.724,69.724,0,0,1-6.211-11.167" transform="translate(-12.275 -6.287)" fill="none" stroke="#535461" stroke-miterlimit="10" stroke-width="0.586"/>
        <path id="Path_1012" data-name="Path 1012" d="M14.044,39.364c2.314,2.235,13.089,4.579,13.089,4.579S24.5,33.245,22.177,31a5.838,5.838,0,1,0-8.133,8.379Z" transform="translate(-12.275 -6.287)" fill="#618226"/>
        <path id="Path_1013" data-name="Path 1013" d="M20.141,58.726c3.161.627,13.476-3.278,13.476-3.278S25.575,47.9,22.411,47.274A5.838,5.838,0,1,0,20.14,58.727Z" transform="translate(-12.275 -6.287)" fill="#618226"/>
        <path id="Path_1014" data-name="Path 1014" d="M42.332,79.684c3.047-1.055,9.96-9.629,9.96-9.629S41.547,67.6,38.5,68.651a5.839,5.839,0,1,0,3.808,11.033Z" transform="translate(-12.275 -6.287)" fill="#618226"/>
        <path id="Path_1015" data-name="Path 1015" d="M62.693,91.751c3.181-.527,11.455-7.807,11.455-7.807S63.973,79.7,60.791,80.229a5.839,5.839,0,1,0,1.9,11.522Z" transform="translate(-12.275 -6.287)" fill="#618226"/>
        <path id="Path_1016" data-name="Path 1016" d="M42.593,47.087c0,3.223-5.83,12.577-5.83,12.577s-5.842-9.348-5.844-12.571a5.839,5.839,0,1,1,11.674,0Z" transform="translate(-12.275 -6.287)" fill="#618226"/>
        <path id="Path_1017" data-name="Path 1017" d="M66.229,61.521C65.265,64.6,56.9,71.774,56.9,71.774S54.124,61.1,55.076,58.005a5.839,5.839,0,0,1,11.132,3.489Z" transform="translate(-12.275 -6.287)" fill="#618226"/>
        <path id="Path_1018" data-name="Path 1018" d="M87.275,78.673c-.428,3.2-7.459,11.683-7.459,11.683s-4.541-10.043-4.1-13.239a5.838,5.838,0,1,1,11.572,1.556Z" transform="translate(-12.275 -6.287)" fill="#618226"/>
        <path id="Path_1019" data-name="Path 1019" d="M14.044,39.364c2.314,2.235,13.089,4.579,13.089,4.579S24.5,33.245,22.177,31a5.838,5.838,0,1,0-8.133,8.379Z" transform="translate(-12.275 -6.287)" opacity="0.25"/>
        <path id="Path_1020" data-name="Path 1020" d="M20.141,58.726c3.161.627,13.476-3.278,13.476-3.278S25.575,47.9,22.411,47.274A5.838,5.838,0,1,0,20.14,58.727Z" transform="translate(-12.275 -6.287)" opacity="0.25"/>
        <path id="Path_1021" data-name="Path 1021" d="M42.332,79.684c3.047-1.055,9.96-9.629,9.96-9.629S41.547,67.6,38.5,68.651a5.839,5.839,0,1,0,3.808,11.033Z" transform="translate(-12.275 -6.287)" opacity="0.25"/>
        <path id="Path_1022" data-name="Path 1022" d="M62.693,91.751c3.181-.527,11.455-7.807,11.455-7.807S63.973,79.7,60.791,80.229a5.839,5.839,0,1,0,1.9,11.522Z" transform="translate(-12.275 -6.287)" opacity="0.25"/>
        <path id="Path_1023" data-name="Path 1023" d="M42.593,47.087c0,3.223-5.83,12.577-5.83,12.577s-5.842-9.348-5.844-12.571a5.839,5.839,0,1,1,11.674,0Z" transform="translate(-12.275 -6.287)" opacity="0.25"/>
        <path id="Path_1024" data-name="Path 1024" d="M66.229,61.521C65.265,64.6,56.9,71.774,56.9,71.774S54.124,61.1,55.076,58.005a5.839,5.839,0,0,1,11.132,3.489Z" transform="translate(-12.275 -6.287)" opacity="0.25"/>
        <path id="Path_1025" data-name="Path 1025" d="M87.275,78.673c-.428,3.2-7.459,11.683-7.459,11.683s-4.541-10.043-4.1-13.239a5.838,5.838,0,1,1,11.572,1.556Z" transform="translate(-12.275 -6.287)" opacity="0.25"/>
        <path id="Path_1026" data-name="Path 1026" d="M87.078,100.982s-2.637-27.3-18.421-41.817A41.524,41.524,0,0,1,55.8,36.245a69.767,69.767,0,0,1-1.148-12.729" transform="translate(-12.275 -6.287)" fill="none" stroke="#535461" stroke-miterlimit="10" stroke-width="0.586"/>
        <path id="Path_1027" data-name="Path 1027" d="M44.761,14.308c1.207,2.991,10.116,9.48,10.116,9.48s1.919-10.854.715-13.845a5.843,5.843,0,0,0-10.839,4.365Z" transform="translate(-12.275 -6.287)" fill="#618226"/>
        <path id="Path_1028" data-name="Path 1028" d="M42.479,34.478c2.637,1.854,13.643,2.461,13.643,2.461s-4.268-10.154-6.9-12.008a5.843,5.843,0,0,0-6.738,9.547Z" transform="translate(-12.275 -6.287)" fill="#618226"/>
        <path id="Path_1029" data-name="Path 1029" d="M54.288,62.625c3.223.272,13.019-4.763,13.019-4.763s-8.827-6.6-12.04-6.87a5.839,5.839,0,1,0-.978,11.633Z" transform="translate(-12.275 -6.287)" fill="#618226"/>
        <path id="Path_1030" data-name="Path 1030" d="M68.01,81.913c3.123.809,13.637-2.5,13.637-2.5s-7.585-8-10.7-8.806a5.838,5.838,0,1,0-2.93,11.3Z" transform="translate(-12.275 -6.287)" fill="#618226"/>
        <path id="Path_1031" data-name="Path 1031" d="M67.731,32.937c-1.3,2.947-10.426,9.131-10.426,9.131s-1.553-10.91-.249-13.86a5.838,5.838,0,1,1,10.676,4.729Z" transform="translate(-12.275 -6.287)" fill="#618226"/>
        <path id="Path_1032" data-name="Path 1032" d="M83.492,55.694c-2.127,2.423-12.682,5.6-12.682,5.6s1.781-10.875,3.911-13.3a5.836,5.836,0,0,1,8.771,7.7Z" transform="translate(-12.275 -6.287)" fill="#618226"/>
        <path id="Path_1033" data-name="Path 1033" d="M95.8,79.918c-1.687,2.748-11.554,7.658-11.554,7.658s-.082-11.021,1.605-13.769a5.843,5.843,0,0,1,9.961,6.111Z" transform="translate(-12.275 -6.287)" fill="#618226"/>
      </g>
      <ellipse id="Ellipse_269" data-name="Ellipse 269" cx="32.673" cy="4.254" rx="32.673" ry="4.254" transform="translate(86.9 241.003)" fill="#618226" opacity="0.1"/>
      <g id="floor_flowers" data-name="floor flowers">
        <ellipse id="Ellipse_270" data-name="Ellipse 270" cx="9.925" cy="1.699" rx="9.925" ry="1.699" transform="translate(43.65 243.23)" fill="#618226" opacity="0.1"/>
        <path id="Path_1034" data-name="Path 1034" d="M68.007,232.3s1.608,2.106-.744,5.273-4.292,5.859-3.515,7.842c0,0,3.548-5.9,6.445-5.985S71.188,235.847,68.007,232.3Z" transform="translate(-12.275 -6.287)" fill="#618226"/>
        <path id="Path_1035" data-name="Path 1035" d="M68.007,232.3a2.587,2.587,0,0,1,.328.662c2.818,3.31,4.321,6.4,1.611,6.477-2.522.073-5.552,4.585-6.275,5.724a2.708,2.708,0,0,0,.085.261s3.548-5.9,6.445-5.985S71.188,235.847,68.007,232.3Z" transform="translate(-12.275 -6.287)" opacity="0.1"/>
        <path id="Path_1036" data-name="Path 1036" d="M71,234.98c0,.741-.082,1.342-.185,1.342s-.187-.586-.187-1.342.105-.393.208-.393S71,234.239,71,234.98Z" transform="translate(-12.275 -6.287)" fill="#ffd037"/>
        <path id="Path_1037" data-name="Path 1037" d="M72.026,235.865c-.65.354-1.219.568-1.269.478s.439-.451,1.09-.806.393-.1.442,0S72.677,235.51,72.026,235.865Z" transform="translate(-12.275 -6.287)" fill="#ffd037"/>
        <path id="Path_1038" data-name="Path 1038" d="M59.505,232.3s-1.608,2.106.744,5.273,4.292,5.859,3.515,7.842c0,0-3.548-5.9-6.445-5.985S56.33,235.847,59.505,232.3Z" transform="translate(-12.275 -6.287)" fill="#618226"/>
        <path id="Path_1039" data-name="Path 1039" d="M59.505,232.3a2.587,2.587,0,0,0-.328.662c-2.818,3.31-4.321,6.4-1.611,6.477,2.525.073,5.552,4.585,6.275,5.724a2.081,2.081,0,0,1-.085.261s-3.548-5.9-6.445-5.985S56.33,235.847,59.505,232.3Z" transform="translate(-12.275 -6.287)" opacity="0.1"/>
        <path id="Path_1040" data-name="Path 1040" d="M56.514,234.98c0,.741.082,1.342.185,1.342s.187-.586.187-1.342-.105-.393-.208-.393S56.514,234.239,56.514,234.98Z" transform="translate(-12.275 -6.287)" fill="#ffd037"/>
        <path id="Path_1041" data-name="Path 1041" d="M55.489,235.865c.65.354,1.216.568,1.266.478s-.439-.451-1.09-.806-.393-.1-.442,0S54.838,235.51,55.489,235.865Z" transform="translate(-12.275 -6.287)" fill="#ffd037"/>
        <path id="Path_1042" data-name="Path 1042" d="M57.027,245.146s4.5-.141,5.859-1.1,6.92-2.121,7.257-.571,6.761,7.7,1.682,7.743-11.8-.791-13.157-1.614S57.027,245.146,57.027,245.146Z" transform="translate(-12.275 -6.287)" fill="#a8a8a8"/>
        <path id="Path_1043" data-name="Path 1043" d="M71.912,250.674c-5.08.041-11.8-.791-13.157-1.614-1.031-.63-1.441-2.883-1.579-3.92h-.149s.293,3.627,1.638,4.453,8.077,1.655,13.157,1.614c1.465,0,1.975-.533,1.945-1.307C73.564,250.375,73,250.665,71.912,250.674Z" transform="translate(-12.275 -6.287)" opacity="0.2"/>
        <path id="Path_1044" data-name="Path 1044" d="M207.3,244.973s-12.386-.747-10.924,7.933a2.112,2.112,0,0,0,1.1,2.229s.023-.642,1.271-.425a5.671,5.671,0,0,0,1.345.064,2.783,2.783,0,0,0,1.646-.68h0s3.48-1.435,4.834-7.128c0,0,1-1.242.964-1.561l-2.092.879a3.749,3.749,0,0,1,.152,2.763s-.067-2.707-.469-2.637c-.082,0-1.087.521-1.087.521s1.23,2.637.293,4.535c0,0,.352-3.223-.686-4.345l-1.465.858s1.436,2.713.463,4.928c0,0,.249-3.4-.77-4.72l-1.333,1.04s1.348,2.675.524,4.512c0,0-.105-3.952-.814-4.251a7.67,7.67,0,0,0-1.345,1.465s.923,1.939.352,2.965c0,0-.352-2.637-.642-2.637a8.7,8.7,0,0,0-1.283,2.93,6.379,6.379,0,0,1,1-3.108,3.5,3.5,0,0,0-1.778.923s.182-1.233,2.051-1.342a8.023,8.023,0,0,1,1.219-1.4,7.628,7.628,0,0,0-3.012.346s1-1.172,3.354-.636l1.315-1.072a10.81,10.81,0,0,0-3.515.035s1.207-1.031,3.87-.293l1.436-.855a13.073,13.073,0,0,0-3.36-.293,5.146,5.146,0,0,1,3.779.059l1.025-.46s-1.544-.293-2-.349-.475-.173-.475-.173a5.349,5.349,0,0,1,2.9.322A13.039,13.039,0,0,0,207.3,244.973Z" transform="translate(-12.275 -6.287)" fill="#618226"/>
        <ellipse id="Ellipse_271" data-name="Ellipse 271" cx="8.765" cy="1.482" rx="8.765" ry="1.482" transform="translate(177.725 248.122)" fill="#618226" opacity="0.1"/>
        <path id="Path_1045" data-name="Path 1045" d="M185.6,245.436s-6.984-.422-6.152,4.473a1.2,1.2,0,0,0,.621,1.257s0-.363.718-.24a3.418,3.418,0,0,0,.756.038,1.6,1.6,0,0,0,.929-.384h0s1.963-.811,2.727-4.019c0,0,.562-.7.542-.879l-1.172.5a2.124,2.124,0,0,1,.085,1.559s-.038-1.526-.264-1.491c-.047,0-.612.293-.612.293a3.476,3.476,0,0,1,.17,2.558s.2-1.825-.387-2.452l-.829.486a3.667,3.667,0,0,1,.261,2.777,5.2,5.2,0,0,0-.436-2.66l-.75.586a3.58,3.58,0,0,1,.293,2.543s-.062-2.229-.46-2.4a4.583,4.583,0,0,0-.759.817s.521,1.1.2,1.673c0,0-.2-1.485-.36-1.491a4.922,4.922,0,0,0-.724,1.658,3.56,3.56,0,0,1,.562-1.758,1.968,1.968,0,0,0-1,.519s.1-.7,1.172-.756a4.436,4.436,0,0,1,.686-.791,4.292,4.292,0,0,0-1.7.193,1.908,1.908,0,0,1,1.893-.357l.741-.606a6.106,6.106,0,0,0-1.98.021,2.392,2.392,0,0,1,2.183-.158l.806-.48a7.239,7.239,0,0,0-1.893-.164,2.913,2.913,0,0,1,2.13.032l.586-.258s-.879-.173-1.122-.2-.27-.1-.27-.1a3.023,3.023,0,0,1,1.635.182A6.9,6.9,0,0,0,185.6,245.436Z" transform="translate(-12.275 -6.287)" fill="#618226"/>
        <ellipse id="Ellipse_272" data-name="Ellipse 272" cx="4.942" cy="0.835" rx="4.942" ry="0.835" transform="translate(163.569 244.472)" fill="#618226" opacity="0.1"/>
        <path id="Path_1046" data-name="Path 1046" d="M198.888,235.062s-8.428-.51-7.435,5.4a1.441,1.441,0,0,0,.75,1.518s0-.436.864-.293a4.157,4.157,0,0,0,.914.044,1.931,1.931,0,0,0,1.122-.463h0s2.37-.978,3.29-4.854c0,0,.683-.844.656-1.061l-1.424.606a2.561,2.561,0,0,1,.105,1.881s-.047-1.843-.322-1.8c-.053,0-.738.354-.738.354a4.2,4.2,0,0,1,.205,3.088s.24-2.2-.466-2.959l-1,.586a4.423,4.423,0,0,1,.316,3.354s.17-2.311-.527-3.223l-.908.706s.92,1.819.36,3.07c0,0-.073-2.689-.557-2.894a5.515,5.515,0,0,0-.914.987s.63,1.321.237,2.018c0,0-.237-1.79-.434-1.8a5.881,5.881,0,0,0-.879,2,4.31,4.31,0,0,1,.68-2.115,2.382,2.382,0,0,0-1.21.627s.123-.841,1.406-.914a5.509,5.509,0,0,1,.829-.955,5.217,5.217,0,0,0-2.051.237,2.3,2.3,0,0,1,2.285-.434l.9-.729a7.369,7.369,0,0,0-2.393.023,2.917,2.917,0,0,1,2.637-.19l.976-.586a9.611,9.611,0,0,0-2.285-.2,3.506,3.506,0,0,1,2.572.038l.7-.311s-1.052-.208-1.359-.24-.322-.117-.322-.117a3.641,3.641,0,0,1,1.972.22A8.592,8.592,0,0,0,198.888,235.062Z" transform="translate(-12.275 -6.287)" fill="#618226"/>
        <ellipse id="Ellipse_273" data-name="Ellipse 273" cx="5.968" cy="1.008" rx="5.968" ry="1.008" transform="translate(174.842 235.2)" fill="#618226" opacity="0.1"/>
      </g>
      <g id="browser">
        <path id="Path_1047" data-name="Path 1047" d="M331.04,177.569V34.276H52.337V169.349a55.487,55.487,0,0,0,12.3,7.523q3.3,1.52,6.738,2.78H327.715Z" transform="translate(-12.275 -6.287)" fill="url(#linear-gradient)"/>
        <path id="Path_1048" data-name="Path 1048" d="M330.5,177.628V38.377H52.946V169.651a56.049,56.049,0,0,0,12.246,7.324q3.287,1.465,6.715,2.7H327.182Z" transform="translate(-12.275 -6.287)" fill="#fff"/>
        <rect id="Rectangle_1488" data-name="Rectangle 1488" width="277.552" height="7.365" transform="translate(40.674 28.396)" fill="#5a5773"/>
      </g>
      <g id="buttons">
        <circle id="Ellipse_274" data-name="Ellipse 274" cx="1.904" cy="1.904" r="1.904" transform="translate(44.313 30.174)" fill="#fff"/>
        <circle id="Ellipse_275" data-name="Ellipse 275" cx="1.904" cy="1.904" r="1.904" transform="translate(49.439 30.174)" fill="#fff"/>
        <circle id="Ellipse_276" data-name="Ellipse 276" cx="1.904" cy="1.904" r="1.904" transform="translate(54.566 30.174)" fill="#fff"/>
      </g>
      <g id="boxes">
        <rect id="Rectangle_1489" data-name="Rectangle 1489" width="45.848" height="28.809" transform="translate(111.602 51.947)" fill="#618226"/>
        <rect id="Rectangle_1490" data-name="Rectangle 1490" width="45.848" height="28.809" transform="translate(48.121 51.947)" fill="#5a5773" opacity="0.2"/>
        <rect id="Rectangle_1491" data-name="Rectangle 1491" width="45.848" height="28.809" transform="translate(175.082 51.947)" fill="#5a5773" opacity="0.2"/>
        <rect id="Rectangle_1492" data-name="Rectangle 1492" width="45.848" height="28.809" transform="translate(48.121 93.134)" fill="#5a5773" opacity="0.2"/>
        <rect id="Rectangle_1493" data-name="Rectangle 1493" width="45.848" height="28.809" transform="translate(111.602 93.134)" fill="#5a5773" opacity="0.2"/>
        <rect id="Rectangle_1494" data-name="Rectangle 1494" width="45.848" height="28.809" transform="translate(175.082 93.134)" fill="#5a5773" opacity="0.2"/>
        <rect id="Rectangle_1495" data-name="Rectangle 1495" width="45.848" height="28.809" transform="translate(48.121 134.317)" fill="#5a5773" opacity="0.2"/>
        <rect id="Rectangle_1496" data-name="Rectangle 1496" width="45.848" height="28.809" transform="translate(111.602 134.317)" fill="#5a5773" opacity="0.2"/>
        <rect id="Rectangle_1497" data-name="Rectangle 1497" width="45.848" height="28.809" transform="translate(175.082 134.317)" fill="#5a5773" opacity="0.2"/>
      </g>
      <g id="woman">
        <path id="Path_1049" data-name="Path 1049" d="M161.527,130.424s-8.235-15.052-6.846-17.5a33.357,33.357,0,0,0,2.411-5.994s3.041-2.08,3.041-2.93,2.408-2.815,3.677-3.671.633-4.9,0-5.385a11.159,11.159,0,0,1-1.638-2.2s.879-2.446,0-3.182.129-1.465,0-2.2a29.56,29.56,0,0,1,0-3.425,5.521,5.521,0,0,0-3.24-2.344l-.094-.387-.542-2.282s2.637-5.053-1.641-7.7a7.15,7.15,0,0,0-.946-.5,3.284,3.284,0,0,0-.023-.331,20.706,20.706,0,0,0-.621-3.87c-.223-.709-.513-1.186-.879-1.078a.586.586,0,0,0-.24.138,2.673,2.673,0,0,0-.454.536h0a.12.12,0,0,1-.021.032,9.187,9.187,0,0,0-1.008,2.8,16.154,16.154,0,0,0-.293,1.758h0a9.665,9.665,0,0,0-.489,1.087c-.519,1.345-1.125,3.674-.021,5.4.937,1.465,2.2,3.477,3.117,4.942l.029.047.056.091-.1.062v.226l.085,1.233.709,10.658a4.528,4.528,0,0,0-.65-.138,5.909,5.909,0,0,0-.946-.062c-.618-2.429-2.314-4.687-2.637-7.224a6.7,6.7,0,0,1-.05-.765c.026-1.6.425-3.2.393-4.793,0-.293,0-.586-.029-.879h0a2.346,2.346,0,0,0-.023-.243,7.2,7.2,0,0,0-3.917-5.458c-.735-.366-1.532-.609-2.247-1.011-1.652-.926-2.71-2.6-4.21-3.741a4.66,4.66,0,0,0-4.028-.879,18.6,18.6,0,0,0-1.96.4h0a17.68,17.68,0,0,0-4.485,1.863c-.19.114-.381.231-.562.366a2.479,2.479,0,0,0-.905,1.058,2.772,2.772,0,0,0-.141,1.14c0,.278,0,.562.018.841-.082,4.687-5.133,8.314-5.549,12.89,0,.108-.018.217-.023.325v.5h0v.366c.073,2.007,1.116,3.876,1.307,5.874.018.179.026.354.029.533a8.859,8.859,0,0,1-.519,2.689,7.871,7.871,0,0,0-1.819.738c-1.535.987-4.306,2.692-5.317,5.953a8.719,8.719,0,0,0-.384,2.613,54.566,54.566,0,0,1-.855,9.331,17.441,17.441,0,0,1-.539,2.294.539.539,0,0,0-.018.226l-.609,7.91-.108,1.392-.152,1.98s.044.12.108.322a9.315,9.315,0,0,1,.24.914,4.916,4.916,0,0,1,.079,2.051,1.412,1.412,0,0,1-.428.753.316.316,0,0,0-.05.056,6.084,6.084,0,0,0-.463,2.016c-.053.41-.1.879-.152,1.365-.293,3.12-.475,7.79-.586,11.651-.105,3.808-.144,6.817-.144,6.817a7.775,7.775,0,0,0,1.573.779c-.041.1-.085.208-.126.319a15.389,15.389,0,0,0-.955,4.025c-.246,2.88.56,6.079,4.576,7.725a6.462,6.462,0,0,0,.788.269,2.5,2.5,0,0,0,2-.123c0,.173.021.34.029.507.041.715.076,1.368.094,1.916.126,3.428.976,9.421.976,9.421a12.475,12.475,0,0,1,.038,3.182,17.278,17.278,0,0,0,0,3.671s.879,1.465,0,2.2-1.14,4.394-.879,4.9a.165.165,0,0,1,.015.056c.193,1.216-.9,19.279-.9,19.279s-1.034,2.766-1.857,5.636c-.8,2.795-1.406,5.689-.662,6.231a6.218,6.218,0,0,0,2.317.627c0,.12-.018.24-.029.363a10.438,10.438,0,0,1-.513,3.035c-.349.5-.715,4.359-.894,6.445l-.018.231a21.589,21.589,0,0,0-.943,2.736s-2.8,7.031-1.854,8.856a1.5,1.5,0,0,0,.349.431h0a.792.792,0,0,0,.091.082c1.351,1.081,4.734,1.307,5.962,1.356l-.047,1.74v.064h1.6V252.4c0-.22.035-1.227.088-2.575,0-.24.018-.492.029-.75,0-.2.021-.407.029-.618a10.839,10.839,0,0,0,.694-3.911,17.161,17.161,0,0,1,.615-4.535,12.6,12.6,0,0,1,.811-2.212,10.1,10.1,0,0,0-.2-4.5,3.252,3.252,0,0,0-.586-1.014c0-.062,0-.123,0-.187v-.4a16.9,16.9,0,0,1,.375-3.756.417.417,0,0,1,0-.059c.023-.1.05-.2.076-.293l.018-.064.519.018c1.591.044,2.76.044,2.76.044s1.269-6.486,1.143-9.3v-.381a36.216,36.216,0,0,1,.768-6.594l1.022-9.917a5.215,5.215,0,0,1,0-2.93c.313-.756.961-2.159,1.412-3.126.211-.448.378-.8.448-.952l.041-.082a1.9,1.9,0,0,1-.451-.226h0c-.413-.275-.782-.814.454-1.608,1.9-1.225,1.268-4.283,1.268-4.283a2.2,2.2,0,0,1,.1-2.08c.659-.978,0-4.649,0-4.649a15.373,15.373,0,0,0,1.3-3.061c.472-1.465,1.664-8.628,2.226-12.081.185-1.134.293-1.866.293-1.866l.018.179.018.193h0l.158,1.632.021.217.293,3.085s.586,8.109.22,11.288v.059a3.756,3.756,0,0,1-.214.964c-.674,1.523-.551,7.576-.516,8.915v.27a5.39,5.39,0,0,0-.357,2.068h0a1.327,1.327,0,0,0,.231.615,1.558,1.558,0,0,1,.226.952v.029a3.459,3.459,0,0,1-.035.422,8.044,8.044,0,0,1-.445,1.658,6.069,6.069,0,0,0-.422,2.722h0a.861.861,0,0,0,.167.331.782.782,0,0,1,.1.352.126.126,0,0,0,0,.032c.237,1.972-.375,10.675-.738,15.439-.146,1.881-.252,3.146-.252,3.146l-1,10.4.1.07c.114.082.328.223.615.393v.023l-.044.313c-.144,1-.337,2.168-.548,3.058-.018.067-.032.132-.05.193a2.8,2.8,0,0,0-1.075.431c-2.133,3.788-1.189,6.791,0,7.664a3.078,3.078,0,0,1,.718,1.79l.293,3.776v.434a1.126,1.126,0,0,0,.056.346l.091,1.145.123,1.594h.973V248.72h.053c1.535.053,4.011.117,5.089.032h.029a1.9,1.9,0,0,0,.293-.032.735.735,0,0,0,.17-.047c.571-.275,2-4.312.712-5.229s-1.567-3.515-1.567-3.515c-.111-.34-.223-.662-.337-.97v-.2a16.113,16.113,0,0,1,.152-3.357,25.537,25.537,0,0,0,.334-4.011v-.372a5,5,0,0,0,.653-.214l.047-.021a4.6,4.6,0,0,0,1.093-.647l3.586-15.89.378-1.849,2.153-10.514s-.759-3.671,0-4.28c.278-.223.354-1.172.337-2.27-.029-1.922-.337-4.339-.337-4.339s1.014-1.591,1.523-2.569,0-3.548,0-3.548l1-5.883a55.593,55.593,0,0,1,3.929-12.849c2.051-4.321.744-15.99-.586-22.2-.035-.161-.07-.319-.105-.472v-.023c.627-.311,1.394-.686,2.215-1.078l.311-.146c1.04-.489,2.142-.993,3.129-1.412l.064-.026a21.855,21.855,0,0,1,2.177-.814,3.652,3.652,0,0,1,.668-.138C166.85,139.722,161.527,130.424,161.527,130.424Zm-39.64,19.906h.527c-.062.114-.12.231-.179.349-.035.07-.07.138-.1.208-.193.4-.372.811-.519,1.213.059-.434.132-.905.214-1.409C121.849,150.579,121.87,150.448,121.887,150.33Zm-1.424,7.637a.216.216,0,0,0,0-.041l-.044-.138c-.032-.094-.062-.187-.091-.293q.272-.082.554-.185h.038v.1c-.015.138-.032.275-.05.41h0a.294.294,0,0,1,0,.053,2.849,2.849,0,0,1-.038.322c-.026.211-.053.416-.076.612-.056-.185-.111-.366-.17-.545a1.388,1.388,0,0,1-.123-.293Z" transform="translate(-12.275 -6.287)" fill="url(#linear-gradient-2)"/>
        <path id="Path_1050" data-name="Path 1050" d="M158.489,83.469l-3.164,1.119-1.148-1.9c-.879-1.465-2.1-3.469-3-4.925-1.588-2.56.489-6.463.489-6.463s.375-3.917,1.711-5.124,1.708,5.124,1.708,5.124c5.364,2.437,2.49,8.171,2.49,8.171l.521,2.273Z" transform="translate(-12.275 -6.287)" fill="#efb7b9"/>
        <path id="Path_1051" data-name="Path 1051" d="M158.489,83.469l-3.164,1.119-1.148-1.9v-.167a5.51,5.51,0,0,1,3.929-.776Z" transform="translate(-12.275 -6.287)" opacity="0.1"/>
        <path id="Path_1052" data-name="Path 1052" d="M153.38,96.3l1.585-1.342-.794-12.076a5.017,5.017,0,0,1,7.136,1.585,30.82,30.82,0,0,0,0,3.416c.123.732-.852,1.465,0,2.194s0,3.173,0,3.173a11.014,11.014,0,0,0,1.573,2.194c.609.486,1.222,4.514,0,5.367s-3.513,2.807-3.513,3.659-2.93,2.93-2.93,2.93l-2.572-3.4Z" transform="translate(-12.275 -6.287)" fill="#ff6484"/>
        <path id="Path_1053" data-name="Path 1053" d="M119.1,169.6c-5.912-2.508-4.6-8.633-3.486-11.718a15.956,15.956,0,0,1,.782-1.828l3.316-2.013s.677,1.726,1.4,4.04C122.8,163.469,124.726,171.992,119.1,169.6Z" transform="translate(-12.275 -6.287)" fill="#efb7b9"/>
        <path id="Path_1054" data-name="Path 1054" d="M127.231,225.5a9.96,9.96,0,0,0-.879,2.467,17.814,17.814,0,0,0-.381,4.2c.023.976.105,1.614.105,1.614l-6.586,4.529s.038-.53.1-1.31c.17-2.074.524-5.924.858-6.422a10.69,10.69,0,0,0,.5-3.023c.1-1.289.144-2.42.144-2.42S129.015,222.16,127.231,225.5Z" transform="translate(-12.275 -6.287)" fill="#efb7b9"/>
        <path id="Path_1055" data-name="Path 1055" d="M142.784,228.746s0,1.26-.047,2.724a27.9,27.9,0,0,1-.319,4,16.463,16.463,0,0,0-.149,3.346c.044,1.465.149,2.783.149,2.783s-6.723-6.357-6.038-6.861a3.115,3.115,0,0,0,.533-1.4c.205-.879.39-2.051.527-3.047.164-1.186.267-2.141.267-2.141Z" transform="translate(-12.275 -6.287)" fill="#efb7b9"/>
        <path id="Path_1056" data-name="Path 1056" d="M127.231,225.5a9.96,9.96,0,0,0-.879,2.467,53.824,53.824,0,0,1-5.39-.413c.1-1.26.144-2.42.144-2.42S129.015,222.16,127.231,225.5Z" transform="translate(-12.275 -6.287)" opacity="0.1"/>
        <path id="Path_1057" data-name="Path 1057" d="M142.784,228.746s0,1.26-.047,2.724c-2.1.536-4.254-.536-5.3-1.172.164-1.186.267-2.142.267-2.142Z" transform="translate(-12.275 -6.287)" opacity="0.1"/>
        <path id="Path_1058" data-name="Path 1058" d="M156.55,166.434a56.9,56.9,0,0,0-3.782,12.808l-.976,5.859s.489,2.56,0,3.536-1.465,2.563-1.465,2.563.732,5.976,0,6.586,0,4.268,0,4.268l-2.44,12.3-3.416,15.855c-3.293,2.686-7.675-.729-7.675-.729l.967-10.368s1.465-18.163.855-18.907.243-3.05.243-3.05.855-2.2.246-3.05.12-2.683.12-2.683-.243-7.441.489-9.149,0-12.272,0-12.272l-.293-3.29-.17-1.822-.015-.179s-.111.729-.293,1.86c-.539,3.442-1.687,10.576-2.141,12.043a15.683,15.683,0,0,1-1.251,3.05s.633,3.659,0,4.635a2.269,2.269,0,0,0-.1,2.074s.609,3.05-1.222,4.268,0,1.831,0,1.831-1.342,2.93-1.828,4.145a5.423,5.423,0,0,0,0,2.93l-.976,9.878a35.733,35.733,0,0,0-.732,6.952c.123,2.807-1.1,9.269-1.1,9.269s-9.392,0-10.839-1.1,2.417-11.815,2.417-11.815,1.1-18.784.853-19.271,0-4.148.855-4.878,0-2.2,0-2.2a17.992,17.992,0,0,1,0-3.659,12.98,12.98,0,0,0-.038-3.173s-.817-5.976-.937-9.392-.732-11.1-.732-11.1.639-4.752.735-7.013a7.965,7.965,0,0,1,.879-2.85,25.428,25.428,0,0,1,1.816-3.187s28.9-8.543,30.113-7.693c.322.226.791,1.758,1.254,3.975C157.265,150.5,158.524,162.128,156.55,166.434Z" transform="translate(-12.275 -6.287)" fill="#444053"/>
        <circle id="Ellipse_277" data-name="Ellipse 277" cx="8.417" cy="8.417" r="8.417" transform="translate(118.052 68.766)" fill="#a1616a"/>
        <path id="Path_1059" data-name="Path 1059" d="M155.976,144.307c-.97.5-1.62.841-1.62.841s-13.661,6.466-17.545,6.1c-3.006-.293-10.678-.126-14.021-.044a25.431,25.431,0,0,1,1.816-3.187s28.9-8.54,30.116-7.69C155.044,140.557,155.513,142.084,155.976,144.307Z" transform="translate(-12.275 -6.287)" opacity="0.1"/>
        <path id="Path_1060" data-name="Path 1060" d="M132.888,96.91s-7.8,1.23-9.635,2.437-5.484,3.539-5.484,8.54a48.45,48.45,0,0,1-1.342,11.586c-.489,1.462,7.684,13.294,7.684,13.294l-2.93,17.932s11.718-.366,15.62,0,17.557-6.1,17.557-6.1,8.05-4.268,9.758-4.394-3.416-9.392-3.416-9.392-7.93-15-6.589-17.44a33.705,33.705,0,0,0,2.326-5.976l-1.465-12.439a4.785,4.785,0,0,0-4.025.609c-1.831,1.342-8.05.609-8.05.609Z" transform="translate(-12.275 -6.287)" fill="#ff6484"/>
        <path id="Path_1061" data-name="Path 1061" d="M119.655,118.621l-3.058.853-.847,11.478s1.1,3.05,0,4.025-1.342,21.834-1.342,21.834a7.976,7.976,0,0,0,7.684.609s-.609-2.317,1.222-10.734A67.068,67.068,0,0,0,125.142,134s0-10.491.855-12.2,0-5.976,0-5.976-1.708-2.317-1.588-3.17S119.655,118.621,119.655,118.621Z" transform="translate(-12.275 -6.287)" opacity="0.1"/>
        <path id="Path_1062" data-name="Path 1062" d="M121.117,158.094a7.79,7.79,0,0,1-5.5-.2,15.956,15.956,0,0,1,.782-1.828l3.316-2.013S120.4,155.779,121.117,158.094Z" transform="translate(-12.275 -6.287)" opacity="0.1"/>
        <path id="Path_1063" data-name="Path 1063" d="M119.47,118.621l-3.05.853-.853,11.478s1.1,3.05,0,4.025-1.342,21.834-1.342,21.834a7.967,7.967,0,0,0,7.684.6s-.609-2.317,1.219-10.734a67.607,67.607,0,0,0,1.831-12.685s0-10.491.853-12.2,0-5.976,0-5.976-1.708-2.317-1.585-3.17S119.47,118.621,119.47,118.621Z" transform="translate(-12.275 -6.287)" fill="#ff6484"/>
        <path id="Path_1064" data-name="Path 1064" d="M150.7,120.449s-1.585,13.661-6.222,16.224C144.474,136.673,154.842,133.746,150.7,120.449Z" transform="translate(-12.275 -6.287)" opacity="0.1"/>
        <path id="Path_1065" data-name="Path 1065" d="M127.4,121.67s5.73,2.8,4.394,4.755S127.4,121.67,127.4,121.67Z" transform="translate(-12.275 -6.287)" opacity="0.1"/>
        <path id="Path_1066" data-name="Path 1066" d="M127.4,127.281s3.659,3.782,2.93,5.124S127.4,127.281,127.4,127.281Z" transform="translate(-12.275 -6.287)" opacity="0.1"/>
        <path id="Path_1067" data-name="Path 1067" d="M156.916,95.934a12.965,12.965,0,0,1,1.573,4.025C158.627,101.547,156.916,95.934,156.916,95.934Z" transform="translate(-12.275 -6.287)" opacity="0.1"/>
        <path id="Path_1068" data-name="Path 1068" d="M156.916,92.641s.721-.612,2.56,0S156.916,92.641,156.916,92.641Z" transform="translate(-12.275 -6.287)" opacity="0.1"/>
        <path id="Path_1069" data-name="Path 1069" d="M149.873,163.932a16.962,16.962,0,0,1-8.921-1.143l-1.538,3.937-.17-1.822c.252-1.529.741-3.167,1.708-3.58A14.8,14.8,0,0,0,149.873,163.932Z" transform="translate(-12.275 -6.287)" opacity="0.1"/>
        <path id="Path_1070" data-name="Path 1070" d="M124.852,169.056s7.5,1.556,9.606,1.28Z" transform="translate(-12.275 -6.287)" opacity="0.1"/>
        <path id="Path_1071" data-name="Path 1071" d="M125.631,171.022a15.5,15.5,0,0,1,4.8.5Z" transform="translate(-12.275 -6.287)" opacity="0.1"/>
        <path id="Path_1072" data-name="Path 1072" d="M126,172.349a28.708,28.708,0,0,0,4.435.586Z" transform="translate(-12.275 -6.287)" opacity="0.1"/>
        <path id="Path_1073" data-name="Path 1073" d="M125.813,189.135c.138-.091,6.4-1.556,7.183-.5Z" transform="translate(-12.275 -6.287)" opacity="0.1"/>
        <path id="Path_1074" data-name="Path 1074" d="M125.813,191.057s5.443-.642,5.581,0S125.813,191.057,125.813,191.057Z" transform="translate(-12.275 -6.287)" opacity="0.1"/>
        <path id="Path_1075" data-name="Path 1075" d="M125.813,192.794s5.809-1.2,6.495-.908S125.813,192.794,125.813,192.794Z" transform="translate(-12.275 -6.287)" opacity="0.1"/>
        <path id="Path_1076" data-name="Path 1076" d="M126.088,233.779l-6.586,4.529s.038-.53.1-1.309a17.754,17.754,0,0,1,3.372-5.5,2.7,2.7,0,0,1,3.006.671C126.006,233.137,126.088,233.779,126.088,233.779Z" transform="translate(-12.275 -6.287)" opacity="0.1"/>
        <path id="Path_1077" data-name="Path 1077" d="M126.73,237.848a16.344,16.344,0,0,0-1.374,6.738,10.45,10.45,0,0,1-1.394,5.423,5.343,5.343,0,0,1-.463.662s-4.576-.038-6.178-1.365a1.585,1.585,0,0,1-.431-.527c-.917-1.828,1.784-8.827,1.784-8.827a19.437,19.437,0,0,1,4.3-8.279C128.1,230.345,126.73,237.848,126.73,237.848Z" transform="translate(-12.275 -6.287)" fill="#444053"/>
        <path id="Path_1078" data-name="Path 1078" d="M123.961,249.994a5.342,5.342,0,0,1-.463.662s-4.576-.038-6.178-1.365c.788-2.607,3.3-10.5,4.479-9.155C122.907,241.4,123.677,247.457,123.961,249.994Z" transform="translate(-12.275 -6.287)" opacity="0.1"/>
        <path id="Path_1079" data-name="Path 1079" d="M123.334,240.625l-.319,11.818h1.535s.249-10.368.935-11.818S123.334,240.625,123.334,240.625Z" transform="translate(-12.275 -6.287)" fill="#444053"/>
        <path id="Path_1080" data-name="Path 1080" d="M142.418,241.6s-6.723-6.357-6.038-6.861a3.115,3.115,0,0,0,.533-1.4c1.292-.226,3.515.313,5.355,5.475C142.312,240.28,142.418,241.6,142.418,241.6Z" transform="translate(-12.275 -6.287)" opacity="0.1"/>
        <path id="Path_1081" data-name="Path 1081" d="M143.422,248.687a.682.682,0,0,1-.161.047,47.748,47.748,0,0,1-5.338,0,1.154,1.154,0,0,1-1.116-1.151c0-.439,0-.976-.035-1.547-.076-1.8-.293-3.952-.94-4.435-1.145-.879-2.051-3.861,0-7.637,0,0,3.931-3,6.767,6.023,0,0,.275,2.575,1.509,3.489S143.973,248.427,143.422,248.687Z" transform="translate(-12.275 -6.287)" fill="#444053"/>
        <path id="Path_1082" data-name="Path 1082" d="M143.255,248.734a47.748,47.748,0,0,1-5.338,0,1.154,1.154,0,0,1-1.116-1.151c0-.439,0-.976-.035-1.547.5-2.185,1.207-4.435,2.124-4.948C138.9,241.085,141.671,240.772,143.255,248.734Z" transform="translate(-12.275 -6.287)" opacity="0.1"/>
        <path id="Path_1083" data-name="Path 1083" d="M124.055,234.535l.738,9.835h.937V233.7Z" fill="#444053"/>
        <path id="Path_1084" data-name="Path 1084" d="M138.621,70.057a16.822,16.822,0,0,0-7.506,2.411,3.119,3.119,0,0,0-1.415,1.421,4.71,4.71,0,0,0-.114,1.758c.079,5.045-5.546,8.862-5.37,13.9.07,2,1.075,3.864,1.26,5.859.308,3.328-1.661,6.389-3.548,9.146a7.576,7.576,0,0,0,5.346-1.772,40.542,40.542,0,0,1,.747,20.434h2.7a2.051,2.051,0,0,1,.788.1,1.98,1.98,0,0,1,.624.466c2.522,2.511,4.213,6.222,3.249,9.65l5.742-2.153a17.056,17.056,0,0,0,3.964-1.89,5.724,5.724,0,0,0,2.449-3.53c.155-.879.105-1.928.829-2.437A4.511,4.511,0,0,1,149.5,123c1.576-.557,2.273-2.379,2.6-4.019a23.144,23.144,0,0,0,.366-6.114c-.255-3.428-1.268-6.908-.434-10.253.472-1.878,1.52-3.627,1.605-5.566.138-3.2-2.361-5.95-2.733-9.129-.261-2.215.539-4.456.278-6.671a7.166,7.166,0,0,0-3.77-5.44c-.706-.363-1.465-.606-2.162-1.008-1.591-.923-2.607-2.584-4.052-3.726s-3.849-1.573-4.936-.088Z" transform="translate(-12.275 -6.287)" opacity="0.1"/>
        <path id="Path_1085" data-name="Path 1085" d="M138.621,69.691a16.822,16.822,0,0,0-7.506,2.411,3.119,3.119,0,0,0-1.415,1.421,4.71,4.71,0,0,0-.114,1.758c.079,5.045-5.546,8.862-5.37,13.907.07,2,1.075,3.861,1.26,5.859.308,3.328-1.661,6.389-3.548,9.149a7.617,7.617,0,0,0,5.346-1.772,40.528,40.528,0,0,1,.747,20.428h2.7a2.051,2.051,0,0,1,.788.1,1.928,1.928,0,0,1,.624.463c2.522,2.514,4.213,6.222,3.249,9.65l5.742-2.153a17.056,17.056,0,0,0,3.964-1.89,5.724,5.724,0,0,0,2.449-3.53c.155-.879.105-1.928.829-2.437a4.511,4.511,0,0,1,1.131-.419c1.576-.557,2.273-2.379,2.6-4.019a23.144,23.144,0,0,0,.375-6.12c-.255-3.428-1.269-6.908-.434-10.253.472-1.878,1.52-3.627,1.605-5.566.138-3.2-2.361-5.95-2.733-9.129-.261-2.215.539-4.453.278-6.671a7.172,7.172,0,0,0-3.77-5.44c-.706-.363-1.465-.606-2.162-1-1.591-.926-2.607-2.587-4.052-3.729s-3.849-1.573-4.936-.088Z" transform="translate(-12.275 -6.287)" fill="#925978"/>
        <g id="Group_538" data-name="Group 538" opacity="0.1">
          <path id="Path_1086" data-name="Path 1086" d="M129.58,74.062a3.258,3.258,0,0,0-.018.34C129.571,74.291,129.577,74.176,129.58,74.062Z" transform="translate(-12.275 -6.287)"/>
          <path id="Path_1087" data-name="Path 1087" d="M150.872,85.789a31.177,31.177,0,0,0,.322-4.658A33.707,33.707,0,0,0,150.872,85.789Z" transform="translate(-12.275 -6.287)"/>
          <path id="Path_1088" data-name="Path 1088" d="M125.476,93.509c-.17-1.816-1.017-3.515-1.216-5.329a6.679,6.679,0,0,0-.044,1c.07,1.977,1.052,3.826,1.251,5.795A7.908,7.908,0,0,0,125.476,93.509Z" transform="translate(-12.275 -6.287)"/>
          <path id="Path_1089" data-name="Path 1089" d="M152.044,100.724a12.562,12.562,0,0,0-.293,3.639,11.033,11.033,0,0,1,.293-2.112c.472-1.878,1.52-3.627,1.605-5.566a6.037,6.037,0,0,0-.047-1.031C153.374,97.4,152.463,99.019,152.044,100.724Z" transform="translate(-12.275 -6.287)"/>
          <path id="Path_1090" data-name="Path 1090" d="M127.275,100.882a7.617,7.617,0,0,1-4.324,1.758c-.334.521-.68,1.031-1.022,1.535a7.617,7.617,0,0,0,5.346-1.772,40.428,40.428,0,0,1,1.7,10.971A40.519,40.519,0,0,0,127.275,100.882Z" transform="translate(-12.275 -6.287)"/>
          <path id="Path_1091" data-name="Path 1091" d="M152.1,117.08c-.322,1.641-1.019,3.463-2.6,4.016a4.394,4.394,0,0,0-1.131.422c-.724.51-.674,1.564-.829,2.437a5.651,5.651,0,0,1-2.449,3.515,17.613,17.613,0,0,1-3.964,1.892l-5.478,2.051a7.56,7.56,0,0,1-.264,1.626l5.742-2.153A17.057,17.057,0,0,0,145.1,129a5.724,5.724,0,0,0,2.449-3.53c.155-.879.105-1.928.829-2.437a4.511,4.511,0,0,1,1.131-.419c1.576-.557,2.273-2.379,2.6-4.019a22.973,22.973,0,0,0,.413-5.185A22.938,22.938,0,0,1,152.1,117.08Z" transform="translate(-12.275 -6.287)"/>
          <path id="Path_1092" data-name="Path 1092" d="M132.141,121.87a1.937,1.937,0,0,0-.624-.466,2.1,2.1,0,0,0-.788-.1h-2.393c-.094.51-.193,1.019-.293,1.526h2.7a2.051,2.051,0,0,1,.788.1,1.928,1.928,0,0,1,.624.463,11.606,11.606,0,0,1,3.483,6.861C135.932,127.213,134.355,124.084,132.141,121.87Z" transform="translate(-12.275 -6.287)"/>
        </g>
        <path id="Path_1093" data-name="Path 1093" d="M118.756,131.854s2.18-.914,2.666,0S118.756,131.854,118.756,131.854Z" transform="translate(-12.275 -6.287)" opacity="0.1"/>
        <path id="Path_1094" data-name="Path 1094" d="M119.526,133.421s2.18-.914,2.669,0S119.526,133.421,119.526,133.421Z" transform="translate(-12.275 -6.287)" opacity="0.1"/>
      </g>
      <g id="leaves">
        <path id="Path_1095" data-name="Path 1095" d="M254.611,15.14s-11.147-.671-9.832,7.139a1.905,1.905,0,0,0,.99,2.007s.021-.586,1.143-.384a5.13,5.13,0,0,0,1.21.059,2.511,2.511,0,0,0,1.476-.612h0s3.132-1.292,4.35-6.413c0,0,.9-1.119.879-1.406l-1.881.806a3.37,3.37,0,0,1,.135,2.484s-.059-2.437-.422-2.379c-.073,0-.976.469-.976.469s1.1,2.364.27,4.084c0,0,.316-2.912-.615-3.911l-1.33.788s1.292,2.44.416,4.432c0,0,.226-3.056-.694-4.245l-1.2.935s1.216,2.393.483,4.046c0,0-.1-3.559-.735-3.826a7.246,7.246,0,0,0-1.207,1.307s.829,1.758.313,2.666c0,0-.316-2.367-.586-2.379a7.886,7.886,0,0,0-1.154,2.637,5.715,5.715,0,0,1,.9-2.8,3.126,3.126,0,0,0-1.6.832s.161-1.11,1.857-1.21A7.308,7.308,0,0,1,247.9,19a6.869,6.869,0,0,0-2.71.313s.9-1.049,3.02-.586l1.172-.967a10.108,10.108,0,0,0-3.164.032s1.084-.926,3.483-.252l1.289-.77a11.573,11.573,0,0,0-3.02-.261,4.634,4.634,0,0,1,3.4.053l.923-.413s-1.389-.272-1.793-.316-.428-.155-.428-.155a4.793,4.793,0,0,1,2.6.293A11.841,11.841,0,0,0,254.611,15.14Z" transform="translate(-12.275 -6.287)" fill="#618226" opacity="0.1"/>
        <path id="Path_1096" data-name="Path 1096" d="M238.724,8.806s-9.375,6.067-3.688,11.578a1.906,1.906,0,0,0,1.986,1.031s-.328-.48.694-.987a5.086,5.086,0,0,0,1.011-.671,2.522,2.522,0,0,0,.829-1.368h0s1.758-2.9-.293-7.746c0,0,.064-1.435-.135-1.646l-1.037,1.758a3.372,3.372,0,0,1,1.582,1.919s-1.491-1.925-1.758-1.664c-.053.053-.51.958-.51.958s2.294,1.248,2.637,3.126c0,0-1.465-2.534-2.815-2.783l-.609,1.406s2.49,1.2,2.965,3.325c0,0-1.632-2.6-3.076-3.009L236.1,15.5s2.4,1.219,2.786,2.988c0,0-2.185-2.807-2.859-2.637a7.424,7.424,0,0,0-.2,1.758s1.705.914,1.834,1.963c0,0-1.658-1.72-1.872-1.576a7.9,7.9,0,0,0,.636,2.815,5.721,5.721,0,0,1-.932-2.786,3.135,3.135,0,0,0-.8,1.617s-.527-.99.782-2.074a8.019,8.019,0,0,1,.132-1.667,6.781,6.781,0,0,0-2,1.857s.105-1.377,2.095-2.25l.381-1.479a9.777,9.777,0,0,0-2.528,1.9s.325-1.389,2.654-2.267l.586-1.386a11.921,11.921,0,0,0-2.59,1.582,4.66,4.66,0,0,1,2.771-1.972l.5-.879s-1.28.6-1.632.809-.437.129-.437.129a4.8,4.8,0,0,1,2.27-1.31A11.648,11.648,0,0,0,238.724,8.806Z" transform="translate(-12.275 -6.287)" fill="#618226" opacity="0.1"/>
        <path id="Path_1097" data-name="Path 1097" d="M224.457,15.875s-5.6,9.668,1.963,11.991a1.889,1.889,0,0,0,2.238,0s-.507-.275.173-1.192a5.129,5.129,0,0,0,.586-1.055,2.531,2.531,0,0,0,.12-1.6h0s.249-3.381-3.779-6.77c0,0-.586-1.307-.879-1.4l-.126,2.051a3.377,3.377,0,0,1,2.282.993s-2.2-1.04-2.314-.691c-.023.07-.021,1.084-.021,1.084s2.634.079,3.806,1.6c0,0-2.461-1.591-3.77-1.2l.094,1.529s2.763-.059,4.148,1.62c0,0-2.637-1.573-4.1-1.286l.293,1.491s2.7,0,3.838,1.4c0,0-3.223-1.512-3.747-1.063a7.24,7.24,0,0,0,.624,1.667s1.934.041,2.525.917c0,0-2.259-.782-2.385-.554a7.9,7.9,0,0,0,1.846,2.218,5.722,5.722,0,0,1-2.095-2.051,3.138,3.138,0,0,0,.023,1.8s-.92-.642-.246-2.2a7.362,7.362,0,0,1-.636-1.544,6.961,6.961,0,0,0-.937,2.56s-.533-1.274.844-2.953l-.331-1.494a9.781,9.781,0,0,0-1.392,2.842s-.34-1.386,1.339-3.223l-.111-1.5a11.7,11.7,0,0,0-1.588,2.584,4.623,4.623,0,0,1,1.573-3.015l.044-1.011s-.879,1.116-1.087,1.465-.331.3-.331.3a4.822,4.822,0,0,1,1.43-2.2A11.933,11.933,0,0,0,224.457,15.875Z" transform="translate(-12.275 -6.287)" fill="#618226" opacity="0.1"/>
      </g>
      <path id="Path_1098" data-name="Path 1098" d="M272.575,126.079a4.192,4.192,0,1,0,4.192,4.192,4.192,4.192,0,0,0-4.192-4.192Zm-12.257-32.9v4.192h4.192l7.547,15.286L268.9,117.8a4.031,4.031,0,0,0-.524,1.992c0,2.807,1.919,4.192,4.52,4.192h24.512v-4.031h-24a.5.5,0,0,1-.524-.524,2.635,2.635,0,0,1,.223-.521L275.2,115.6H290.82a4.1,4.1,0,0,0,3.668-2.2l7.549-12.981a2.434,2.434,0,0,0,.211-1.049,2.016,2.016,0,0,0-2.1-1.992H269.124l-1.992-4.192Zm32.9,32.9a4.192,4.192,0,1,0,4.2,4.193,4.192,4.192,0,0,0-4.2-4.193Z" transform="translate(-12.275 -6.287)" fill="#618226"/>
      <path id="Path_1099" data-name="Path 1099" d="M275.575,98.495h-3.515V94.979h-2.637v3.515h-3.515v2.637h3.515v3.515h2.637v-3.515h3.515Z" fill="#fff"/>
    </g>
  </g>
</svg>
