<svg xmlns="http://www.w3.org/2000/svg" xmlns:xlink="http://www.w3.org/1999/xlink" width="55" height="56" viewBox="0 0 55 56"><defs><filter id="a" x="0" y="0" width="55" height="56" filterUnits="userSpaceOnUse"><feOffset dy="3" input="SourceAlpha"/><feGaussianBlur stdDeviation="3" result="b"/><feFlood flood-opacity="0.161"/><feComposite operator="in" in2="b"/><feComposite in="SourceGraphic"/></filter></defs><g transform="translate(69 -674)"><g transform="translate(161 -371)"><g transform="matrix(1, 0, 0, 1, -230, 1045)" filter="url(#a)"><rect width="37" height="38" rx="4" transform="translate(9 6)" fill="#fff"/></g><g transform="translate(-215 1058)"><g transform="translate(0 0)"><path d="M2312.141,1295.848v-1.853a.347.347,0,0,1,.35-.347c.234,0,.47,0,.706-.007a2,2,0,0,0,.588-.1c3.168-1.158,6.333-2.328,9.5-3.48a1.292,1.292,0,0,1,.758,0c3.138,1.141,6.27,2.3,9.407,3.444a2.953,2.953,0,0,0,.783.139c.162.012.325.013.491.011a.458.458,0,0,1,.464.458v1.739a.184.184,0,0,1-.184.184h-22.683A.184.184,0,0,1,2312.141,1295.848Z" transform="translate(-2311.096 -1290)" fill="#618226"/><path d="M2331.411,1409.463h-25.147c0-.71,0-1.4.008-2.094,0-.053.1-.13.17-.148a1.153,1.153,0,0,1,.3-.009h24.188c.48,0,.48,0,.48.5C2331.411,1408.28,2331.411,1408.851,2331.411,1409.463Z" transform="translate(-2306.263 -1386.366)" fill="#618226"/></g><rect width="3.167" height="13.411" rx="1.584" transform="translate(8.339 6.732)" fill="#618226"/><rect width="3.167" height="13.411" rx="1.584" transform="translate(13.641 6.732)" fill="#618226"/><rect width="3.167" height="13.411" rx="1.584" transform="translate(18.942 6.732)" fill="#618226"/><rect width="3.167" height="13.411" rx="1.584" transform="translate(3.038 6.732)" fill="#618226"/></g></g></g></svg>