<svg xmlns="http://www.w3.org/2000/svg" xmlns:xlink="http://www.w3.org/1999/xlink" width="55" height="56" viewBox="0 0 55 56"><defs><filter id="a" x="0" y="0" width="55" height="56" filterUnits="userSpaceOnUse"><feOffset dy="3" input="SourceAlpha"/><feGaussianBlur stdDeviation="3" result="b"/><feFlood flood-opacity="0.161"/><feComposite operator="in" in2="b"/><feComposite in="SourceGraphic"/></filter></defs><g transform="translate(16 -724)"><g transform="translate(160 -371)"><g transform="matrix(1, 0, 0, 1, -176, 1095)" filter="url(#a)"><rect width="37" height="38" rx="4" transform="translate(9 6)" fill="#fff"/></g><g transform="translate(-162 1107)"><path d="M1158.005,166.283a6.728,6.728,0,0,1-.342.94c-1.178,2.686-2.782,5.645-5.433,7.236a1.915,1.915,0,0,1-1.56.266.726.726,0,0,0-.851.29l-1.5,1.573-1.094,1.149-2.663,2.793-1.036,1.086-5.23,5.48c-.953,1-1.9,2.007-2.869,2.992-.7.716-1.571.97-2.212.256-.1-.111-.22-.2-.322-.313a1.267,1.267,0,0,1-.049-1.513,12.99,12.99,0,0,1,1.939-2.26q3.231-3.392,6.465-6.778l1.066-1.115q1.378-1.442,2.758-2.882.487-.511.976-1.022.753-.789,1.51-1.58a.666.666,0,0,0,.223-.729,2.211,2.211,0,0,1,.17-1.553,7.155,7.155,0,0,1,1.64-2.269c.092-.088.187-.175.282-.26a20.141,20.141,0,0,1,4.111-2.885,11.525,11.525,0,0,1,2.169-.964c.073.22-.45.661-.6.821l-2.395,2.489-1.179,1.227a5.166,5.166,0,0,0-.94,1.138.44.44,0,0,0-.051.417c.094.14.327.1.5,0a2.93,2.93,0,0,0,.654-.561l4.1-4.287a1.261,1.261,0,0,1,.469-.357c.475-.156.7.363.361.719-1.464,1.556-2.95,3.092-4.41,4.65a1.975,1.975,0,0,0-.427.8c-.073.268.159.375.421.234a1.1,1.1,0,0,0,.268-.211q1.457-1.521,2.906-3.048.587-.617,1.172-1.233c.19-.2.383-.4.569-.6.092-.1.244-.329.386-.334a.061.061,0,0,1,.06.043A.249.249,0,0,1,1158.005,166.283Z" transform="translate(-1132.622 -164.22)" fill="#618226"/><path d="M1147,175.832l-2.774,2.867q-1.18-1.192-2.344-2.4-2.21-2.292-4.382-4.622a8.826,8.826,0,0,1-2.316-4.155,3.042,3.042,0,0,1,.307-2.437c.389-.549.763-.506,1.321.076q2.192,2.284,4.374,4.578Q1144.089,172.785,1147,175.832Z" transform="translate(-1134.741 -164.636)" fill="#618226"/><path d="M1236.406,277.555a1.547,1.547,0,0,1-1.291,1.253,1.945,1.945,0,0,1-1.564-.793q-4.023-4.2-8.029-8.411a1.191,1.191,0,0,0-.865-.457,2.269,2.269,0,0,1-1.166-.414l2.672-2.762q4.576,4.792,9.145,9.593a9.04,9.04,0,0,1,1.015,1.378A.855.855,0,0,1,1236.406,277.555Z" transform="translate(-1211.354 -252.381)" fill="#618226"/></g></g></g></svg>