<svg xmlns="http://www.w3.org/2000/svg" xmlns:xlink="http://www.w3.org/1999/xlink" width="55" height="56" viewBox="0 0 55 56"><defs><filter id="a" x="0" y="0" width="55" height="56" filterUnits="userSpaceOnUse"><feOffset dy="3" input="SourceAlpha"/><feGaussianBlur stdDeviation="3" result="b"/><feFlood flood-opacity="0.161"/><feComposite operator="in" in2="b"/><feComposite in="SourceGraphic"/></filter></defs><g transform="translate(-40 -724)"><g transform="matrix(1, 0, 0, 1, 40, 724)" filter="url(#a)"><rect width="37" height="38" rx="4" transform="translate(9 6)" fill="#fff"/></g><g transform="translate(52 735)"><path d="M559.1,133.6a7.37,7.37,0,0,1-.55,1.334,2.264,2.264,0,0,1-.881.731,1.365,1.365,0,0,1-1.717-.546,2.836,2.836,0,0,1,.574-3.541,1.47,1.47,0,0,1,2.36.627c.085.2.143.42.213.63Z" transform="translate(-528.987 -126.768)" fill="#618226"/><path d="M519.868,150.792a3.051,3.051,0,0,1-1.651-.517.338.338,0,0,0-.421.006,3.377,3.377,0,1,1-3.35-5.858.645.645,0,0,0,.284-.361,3.367,3.367,0,0,1,4.954-2.135,3.155,3.155,0,0,1,1.563,2.006.8.8,0,0,0,.435.564,3.373,3.373,0,0,1,1.581,3.828A3.408,3.408,0,0,1,519.868,150.792Z" transform="translate(-495.991 -134.655)" fill="#618226"/><path d="M457.882,192.729a3.358,3.358,0,0,1,3.257,2.555.6.6,0,0,0,.346.427A3.371,3.371,0,0,1,460.457,202a3.252,3.252,0,0,1-2.362-.467.359.359,0,0,0-.443.006,3.228,3.228,0,0,1-3.381.1,3.192,3.192,0,0,1-1.761-2.892,3.248,3.248,0,0,1,1.77-3.034.618.618,0,0,0,.333-.435A3.374,3.374,0,0,1,457.882,192.729Z" transform="translate(-449.782 -174.042)" fill="#618226"/><path d="M519.352,115a3.668,3.668,0,0,1-.552,1.951,1.838,1.838,0,0,1-3.162.212,3.673,3.673,0,0,1,.082-4.421,1.82,1.82,0,0,1,3.05.256A3.666,3.666,0,0,1,519.352,115Z" transform="translate(-497.76 -112.027)" fill="#618226"/><path d="M537.735,114.823a3.034,3.034,0,0,1,1.091-2.394,1.757,1.757,0,0,1,2.629.391,3.69,3.69,0,0,1-.082,4.4,1.821,1.821,0,0,1-3.052-.233A3.753,3.753,0,0,1,537.735,114.823Z" transform="translate(-515.28 -112)" fill="#618226"/><path d="M477.549,166.138a3.1,3.1,0,0,1,1.095-2.445,1.768,1.768,0,0,1,2.648.41,3.684,3.684,0,0,1-.1,4.376,1.825,1.825,0,0,1-3.053-.231A3.752,3.752,0,0,1,477.549,166.138Z" transform="translate(-469.026 -151.398)" fill="#618226"/><path d="M459.169,166.453a3.034,3.034,0,0,1-1.168,2.42,1.719,1.719,0,0,1-2.322-.2,3.6,3.6,0,0,1,0-4.812,1.825,1.825,0,0,1,2.9.378A3.755,3.755,0,0,1,459.169,166.453Z" transform="translate(-451.509 -151.429)" fill="#618226"/><path d="M498.93,184.3a3.048,3.048,0,0,1-.807,2.218,1.478,1.478,0,0,1-2.458-.341,2.885,2.885,0,0,1,.679-3.346,1.47,1.47,0,0,1,2.376.638A5.464,5.464,0,0,1,498.93,184.3Z" transform="translate(-482.738 -166.151)" fill="#618226"/><path d="M504.435,133.774a2.291,2.291,0,0,1-.455,1.427,1.447,1.447,0,0,1-2.239.1,2.8,2.8,0,0,1-.7-2.925,1.492,1.492,0,0,1,1.214-1.142,1.611,1.611,0,0,1,1.592.731A2.99,2.99,0,0,1,504.435,133.774Z" transform="translate(-486.969 -126.763)" fill="#618226"/><path d="M444.261,184.954a2.278,2.278,0,0,1-.445,1.483,1.445,1.445,0,0,1-2.238.106,2.79,2.79,0,0,1-.713-2.9,1.509,1.509,0,0,1,1.278-1.186,1.636,1.636,0,0,1,1.572.784A2.876,2.876,0,0,1,444.261,184.954Z" transform="translate(-440.729 -166.14)" fill="#618226"/></g></g></svg>