<svg xmlns="http://www.w3.org/2000/svg" xmlns:xlink="http://www.w3.org/1999/xlink" width="55" height="56" viewBox="0 0 55 56"><defs><filter id="a" x="0" y="0" width="55" height="56" filterUnits="userSpaceOnUse"><feOffset dy="3" input="SourceAlpha"/><feGaussianBlur stdDeviation="3" result="b"/><feFlood flood-opacity="0.161"/><feComposite operator="in" in2="b"/><feComposite in="SourceGraphic"/></filter></defs><g transform="translate(-84 -724)"><g transform="matrix(1, 0, 0, 1, 84, 724)" filter="url(#a)"><rect width="37" height="38" rx="4" transform="translate(9 6)" fill="#fff"/></g><g transform="translate(98 735)"><g transform="translate(0.469 2.296)"><path d="M876.51,181.388a10.95,10.95,0,0,0-2.488-5.53,11.333,11.333,0,0,0-14.358-2.592c.258.243.519.484.779.723a.861.861,0,0,1,.092.1c.144.162.258.359.392.533a.626.626,0,0,0,.135.121,2.458,2.458,0,0,1,.474.364q1.579,1.95,3.135,3.926c.17.213.3.462.462.72.025-.008.1-.02.17-.037a2.3,2.3,0,0,1,2.844,1.538c.338,1.059.638,2.144.885,3.227.083.359.208.851-.092,1.145a1.4,1.4,0,0,1-1.269.159c-.753-.173-1.507-.335-2.26-.519a3.265,3.265,0,0,1-1.715-.843,2.618,2.618,0,0,1-.611-2.524,5.3,5.3,0,0,1-.666-.386q-1.875-1.488-3.738-3c-.261-.212-.6-.372-.661-.762-.006-.031-.057-.058-.092-.081a4.863,4.863,0,0,1-.652-.505l-.034-.037c-.271-.294-.541-.589-.81-.883a4.374,4.374,0,0,0-.229.5c-.165.431-.252.889-.375,1.334v1.011a1.886,1.886,0,0,1,.056.2,4.869,4.869,0,0,0,4.712,4.147,1.486,1.486,0,0,1,1.563,1.392,1.785,1.785,0,0,1-.653,1.4,4.633,4.633,0,0,0-1.07,5.079,4.538,4.538,0,0,0,4.2,3.116,11.032,11.032,0,0,0,6.825-1.805,11.318,11.318,0,0,0,5.043-11.217Zm-4.48,2.863a1.929,1.929,0,1,1,1.917-1.942A1.941,1.941,0,0,1,872.03,184.251Zm-6.245-6.185a1.93,1.93,0,1,1,1.928-1.933A1.952,1.952,0,0,1,865.785,178.067Zm2.939-.578a1.929,1.929,0,1,1,1.913,1.944A1.939,1.939,0,0,1,868.724,177.488Zm1.914,7.912a1.926,1.926,0,1,1,.025,3.852,1.926,1.926,0,1,1-.025-3.852Zm-5.5,2.2a1.927,1.927,0,1,1,.025,3.853,1.927,1.927,0,0,1-.025-3.853Z" transform="translate(-849.344 -167.847)" fill="#618226"/><path d="M836.371,161.951q-1.938-2.106-3.87-4.219a.927.927,0,0,1-.09-.115Q834.386,159.786,836.371,161.951Z" transform="translate(-832.41 -157.617)" fill="#618226"/><path d="M865.051,193.06c-.022-.019-.042-.037-.062-.056l.055.042A.051.051,0,0,0,865.051,193.06Z" transform="translate(-855.968 -183.205)" fill="#618226"/><path d="M836.371,161.951q-1.938-2.106-3.87-4.219a.927.927,0,0,1-.09-.115Q834.386,159.786,836.371,161.951Z" transform="translate(-832.41 -157.617)" fill="#618226"/></g><path d="M850.628,168.826a.5.5,0,0,1-.434.393.9.9,0,0,1-.331-.016c-.782-.173-1.566-.336-2.345-.527a3.4,3.4,0,0,1-1.381-.588v0a1.741,1.741,0,0,1-.194-.181,2.384,2.384,0,0,1-.569-2.275c0-.011,0-.022.008-.033-.064-.036-.126-.068-.187-.1a2.42,2.42,0,0,1-.424-.252q-1.724-1.36-3.434-2.743c-.089-.072-.184-.135-.274-.205a.845.845,0,0,1-.309-.39.624.624,0,0,1-.025-.1c-.151-.114-.317-.213-.457-.334a.056.056,0,0,1-.008-.014l-.055-.042a1.356,1.356,0,0,1-.163-.149q-.24-.259-.477-.518a1.382,1.382,0,0,1-.148-.14c-.039-.043-.08-.085-.12-.129-.261-.286-.524-.571-.787-.858l-.011-.012c-.288-.311-.572-.622-.858-.933q-1.25-1.362-2.5-2.725-1.985-2.164-3.961-4.334a2.217,2.217,0,0,1-.272-.6,7.927,7.927,0,0,1-.183-.961.579.579,0,0,1,.707-.719,8.457,8.457,0,0,1,.991.187,2.013,2.013,0,0,1,.591.274.845.845,0,0,1,.1.081q3.968,3.629,7.917,7.276.436.4.869.8l.77.711a4.542,4.542,0,0,1,.445.575.566.566,0,0,0,.124.11,3.067,3.067,0,0,1,.4.294l0,0,.033.037q1.451,1.784,2.88,3.591a4.92,4.92,0,0,1,.34.523c.028.045.055.09.084.135l.047-.011c.031-.006.07-.014.109-.023a2.324,2.324,0,0,1,1.445.1,1.989,1.989,0,0,1,.594.384,2.174,2.174,0,0,1,.574.925c.335,1.044.6,2.11.862,3.174a.765.765,0,0,1,.016.078A.686.686,0,0,1,850.628,168.826Z" transform="translate(-830.718 -149.324)" fill="#618226"/></g></g></svg>