<svg xmlns="http://www.w3.org/2000/svg" xmlns:xlink="http://www.w3.org/1999/xlink" width="55.494" height="56.825" viewBox="0 0 55.494 56.825"><defs><filter id="a" x="0" y="0" width="55.494" height="56.825" filterUnits="userSpaceOnUse"><feOffset dy="3" input="SourceAlpha"/><feGaussianBlur stdDeviation="3" result="b"/><feFlood flood-opacity="0.161"/><feComposite operator="in" in2="b"/><feComposite in="SourceGraphic"/></filter></defs><g transform="translate(9 6)"><g transform="matrix(1, 0, 0, 1, -9, -6)" filter="url(#a)"><rect width="37.494" height="38.825" rx="3" transform="translate(9 6)" fill="#fff"/></g><g transform="translate(3.515 5.607)"><path d="M977.995,173.124l1.536,1.531-1.668,1.668-.714-.688c-1.589-1.526-3.223-3.095-4.813-4.624l-.964-.919a.014.014,0,0,0-.018,0q-.8.8-1.54,1.644a60.663,60.663,0,0,0-6.352,9.128c-.061.1-.12.2-.18.3a.132.132,0,0,1-.085.077,4.388,4.388,0,0,1,.137-1.2q.083-.766.211-1.527a25.237,25.237,0,0,1,.7-3,21.812,21.812,0,0,1,4.045-7.7c.1-.12.2-.24.3-.357a.013.013,0,0,0,0-.018l-.609-.581,1.863-1.819.531.522a.011.011,0,0,0,.017,0q.358-.341.731-.673c.972-.863,2.04-1.621,3.072-2.414a.564.564,0,0,1,.409-.106c1.74.377,3.474.769,5.21,1.159a.729.729,0,0,1,.105.062c-.438.238-.85.449-1.251.68a31.542,31.542,0,0,0-5.482,4.039.012.012,0,0,0,0,.018l.832.819.01-.011q.468.469.926.932l.063.063,2.957,2.973Z" transform="translate(-963.177 -162.364)" fill="#618226"/><path d="M1032.985,224.669a1.143,1.143,0,0,1-1.637-.015q-4.685-4.886-9.375-9.776l-1.255-1.212,1.636-1.636.667.665.843.841,9.121,9.169A1.392,1.392,0,0,1,1032.985,224.669Z" transform="translate(-1003.763 -197.395)" fill="#618226"/><path d="M1002.428,171.858a.051.051,0,0,0-.01.01l-2.653,2.646a.848.848,0,0,1-.877.116c-.667-.664-1.348-1.345-2.031-2.028l-.808-.81h0l-.042.038-.894.842q-1.684,1.6-3.358,3.209l-4.2,4.109c-3.124,3.11-6.185,6.3-9.116,9.616a1.2,1.2,0,0,1-1.764.045,1.338,1.338,0,0,1,.007-1.884q4.783-4.8,9.573-9.611l0,0L990.408,174l-.012-.011,3.01-3.022.878-.859.042-.042-1.094-1.1-.043-.043L990.82,166.6a.85.85,0,0,1,.135-1.019l1.77-1.77,1.071-.991a.851.851,0,0,1,.942.169l7.678,7.679A.851.851,0,0,1,1002.428,171.858Z" transform="translate(-972.422 -162.636)" fill="#618226"/></g></g></svg>