<svg xmlns="http://www.w3.org/2000/svg" xmlns:xlink="http://www.w3.org/1999/xlink" width="55" height="56" viewBox="0 0 55 56"><defs><filter id="a" x="0" y="0" width="55" height="56" filterUnits="userSpaceOnUse"><feOffset dy="3" input="SourceAlpha"/><feGaussianBlur stdDeviation="3" result="b"/><feFlood flood-opacity="0.161"/><feComposite operator="in" in2="b"/><feComposite in="SourceGraphic"/></filter></defs><g transform="translate(-130 -778.408)"><g transform="matrix(1, 0, 0, 1, 130, 778.41)" filter="url(#a)"><rect width="37" height="38" rx="4" transform="translate(9 6)" fill="#fff"/></g><g transform="translate(142 792.408)"><g transform="translate(18.364 0.293)"><path d="M1244.161,222.225a1.238,1.238,0,0,1-1.172,1.4q-2.787,0-5.573,0h-1.692l-.025-.025s.705-4.7-2.82-5.992a4.047,4.047,0,0,0-.641-4.121,4.337,4.337,0,0,1,1.134-.783l0,0c.013.039.026.072.028.08a4.426,4.426,0,0,0,.966,1.571,4.273,4.273,0,0,0,1.244.907,4.348,4.348,0,0,0,3.554.061,4.805,4.805,0,0,0,2.369-2.581,4.569,4.569,0,0,1,1.6,1.35,5.584,5.584,0,0,1,.989,2.629,4.849,4.849,0,0,1,.032.653Q1244.162,219.8,1244.161,222.225Z" transform="translate(-1232.238 -207.09)" fill="#618226"/><path d="M1243.378,202.492a4.632,4.632,0,0,1-1.759,3.28,3.369,3.369,0,0,1-.913.558,4.224,4.224,0,0,1-3.354-.143,4.173,4.173,0,0,1-1.258-.961,4.386,4.386,0,0,1-1.136-2.754,4.187,4.187,0,0,1,.106-.953,4.265,4.265,0,0,1,1.2-2.1,4.176,4.176,0,0,1,5.676-.154,4.348,4.348,0,0,1,1.195,1.71A3.745,3.745,0,0,1,1243.378,202.492Z" transform="translate(-1233.904 -198.224)" fill="#618226"/></g><g transform="translate(0)"><path d="M1192.677,223.017H1191.6q-2.777,0-5.555,0c-.7,0-1.174-.558-1.175-1.393-.005-1.7-.025-3.4.007-5.095a5.15,5.15,0,0,1,1.026-3.047q.127-.175.271-.341a4.255,4.255,0,0,1,1.382-1.044l0,0c.013.039.026.071.028.08a4.429,4.429,0,0,0,.966,1.571,4.269,4.269,0,0,0,1.244.907,4.348,4.348,0,0,0,3.554.061,4.808,4.808,0,0,0,2.369-2.581,4.811,4.811,0,0,1,.912.61c-2.114,2.41-1.067,4.345-1.067,4.345A5.868,5.868,0,0,0,1192.677,223.017Z" transform="translate(-1184.858 -206.425)" fill="#618226"/><path d="M1199.878,201.735a4.631,4.631,0,0,1-1.759,3.28,3.375,3.375,0,0,1-.913.558,4.225,4.225,0,0,1-3.355-.143,4.165,4.165,0,0,1-1.258-.961,4.387,4.387,0,0,1-1.136-2.754,4.19,4.19,0,0,1,.106-.953,4.27,4.27,0,0,1,1.2-2.1,4.177,4.177,0,0,1,5.676-.154,4.344,4.344,0,0,1,1.195,1.71A3.741,3.741,0,0,1,1199.878,201.735Z" transform="translate(-1188.9 -197.467)" fill="#618226"/></g><g transform="translate(8.149 10.93)"><path d="M1219.37,235.19a1.237,1.237,0,0,1-1.172,1.4q-2.787,0-5.573,0t-5.555,0c-.7,0-1.174-.558-1.175-1.393,0-1.174-.014-2.348-.009-3.522,0-.115,0-.229,0-.344q.005-.615.015-1.228a5.154,5.154,0,0,1,1.026-3.047c.085-.116.175-.23.272-.341a4.244,4.244,0,0,1,1.382-1.045l0,0,0,.006c.012.036.023.066.026.074a4.43,4.43,0,0,0,.966,1.571,4.275,4.275,0,0,0,1.244.907,4,4,0,0,0,.4.163,4.353,4.353,0,0,0,3.157-.1c.054-.024.108-.05.161-.076a4.865,4.865,0,0,0,2.208-2.505c.041.021.081.042.121.065a4.544,4.544,0,0,1,1.48,1.285,5.582,5.582,0,0,1,.989,2.629,4.849,4.849,0,0,1,.032.653v1.227a.614.614,0,0,1,0,.067Q1219.37,233.41,1219.37,235.19Z" transform="translate(-1205.884 -225.666)" fill="#618226"/></g><path d="M1220.9,215.305a4.009,4.009,0,0,1-.289,1.3,5.006,5.006,0,0,1-1.471,1.976,3.726,3.726,0,0,1-.565.392,2.666,2.666,0,0,1-.348.166,4.226,4.226,0,0,1-2.969.021,4.016,4.016,0,0,1-.385-.164,4.153,4.153,0,0,1-1.257-.961,4.755,4.755,0,0,1-.852-1.38,3.781,3.781,0,0,1-.284-1.374,4.177,4.177,0,0,1,.106-.953,4.259,4.259,0,0,1,1.155-2.062c.013-.014.027-.027.042-.041a4.221,4.221,0,0,1,.415-.352h0a4.164,4.164,0,0,1,4.651-.244l.215.14a3.919,3.919,0,0,1,.394.3,4.312,4.312,0,0,1,.525.55,4.256,4.256,0,0,1,.67,1.16A3.746,3.746,0,0,1,1220.9,215.305Z" transform="translate(-1201.776 -205.778)" fill="#618226"/></g></g></svg>