<svg xmlns="http://www.w3.org/2000/svg" xmlns:xlink="http://www.w3.org/1999/xlink" width="55" height="56" viewBox="0 0 55 56"><defs><filter id="a" x="0" y="0" width="55" height="56" filterUnits="userSpaceOnUse"><feOffset dy="3" input="SourceAlpha"/><feGaussianBlur stdDeviation="3" result="b"/><feFlood flood-opacity="0.161"/><feComposite operator="in" in2="b"/><feComposite in="SourceGraphic"/></filter></defs><g transform="translate(-40 -885)"><g transform="matrix(1, 0, 0, 1, 40, 885)" filter="url(#a)"><rect width="37" height="38" rx="4" transform="translate(9 6)" fill="#fff"/></g><g transform="translate(-95.902 -313.774)"><rect width="26.651" height="2.587" transform="translate(149.902 1226.242)" fill="#618226"/><g transform="translate(170.351 1211.774)"><path d="M1290.2,1294.826h-.343v.22c0,1.622,0,3.243-.006,4.865a1.554,1.554,0,0,1-.131.522c-.058.153-.459.224-.665.168a.685.685,0,0,1-.513-.75c.008-2.6,0-5.192,0-7.787v-.281c-.022.017-.045.025-.048.037-.03.117-.01.24-.047.354-.139.423-.19.875-.316,1.3a.54.54,0,0,1-.747.336c-.172-.09-.347-.162-.413-.349a1.027,1.027,0,0,1,.065-.729,4.628,4.628,0,0,0,.17-.514c.109-.423.21-.849.307-1.275.094-.409.165-.824.274-1.229a.944.944,0,0,1,1.357-.664,3.1,3.1,0,0,0,1.843.013c.825-.245,1.161.029,1.354.595.108.315.13.658.211.984.164.663.329,1.326.522,1.981a1.482,1.482,0,0,1,.12.781.721.721,0,0,1-.7.463.6.6,0,0,1-.512-.616,3.77,3.77,0,0,0-.275-1.151,1.447,1.447,0,0,0-.1-.3v.3c0,2.6-.01,5.2.007,7.8a.7.7,0,0,1-.958.673c-.364-.138-.456-.246-.457-.646q0-2.432,0-4.865Z" transform="translate(-1286.936 -1286.154)" fill="#618226"/><path d="M1303.734,1269.089a1.234,1.234,0,1,1-2.468.006,1.224,1.224,0,0,1,1.241-1.252A1.211,1.211,0,0,1,1303.734,1269.089Z" transform="translate(-1299.356 -1267.844)" fill="#618226"/></g><path d="M1204.171,1398.845l3.731-6.59,3.968,6.595" transform="translate(-1044.856 -163.891)" fill="#618226"/><g transform="translate(149.972 1217.68)"><path d="M1135.66,1333.758a1.256,1.256,0,0,0-.37.454,1.146,1.146,0,0,0-.1.542,1.692,1.692,0,0,0,.154.606,2.989,2.989,0,0,0,.4.645,3.3,3.3,0,0,0,.531.544,1.576,1.576,0,0,0,.534.288,1.041,1.041,0,0,0,.539.013,1.406,1.406,0,0,0,.545-.281,2.967,2.967,0,0,0,.463-.46,6.239,6.239,0,0,0,.425-.6l.587.74a3.521,3.521,0,0,1-.194.311,3.321,3.321,0,0,1-.221.282q-.119.136-.256.265t-.3.262a2.653,2.653,0,0,1-.956.508,1.968,1.968,0,0,1-.927.03,2.313,2.313,0,0,1-.875-.4,4.1,4.1,0,0,1-.8-.786,3.565,3.565,0,0,1-.559-.969,2.461,2.461,0,0,1-.162-.977,2.155,2.155,0,0,1,.261-.928,2.664,2.664,0,0,1,.712-.822,3.244,3.244,0,0,1,.684-.415,4.02,4.02,0,0,1,.767-.258l.284.943a6.009,6.009,0,0,0-.623.179A1.792,1.792,0,0,0,1135.66,1333.758Z" transform="translate(-1134.103 -1329.655)" fill="#618226"/><path d="M1165.124,1313.376a4.093,4.093,0,0,1,.583.966,2.366,2.366,0,0,1,.194.95,1.955,1.955,0,0,1-.237.9,2.958,2.958,0,0,1-1.66,1.316,1.936,1.936,0,0,1-.926.025,2.38,2.38,0,0,1-.88-.408,4.464,4.464,0,0,1-1.4-1.76,2.335,2.335,0,0,1-.191-.945,1.956,1.956,0,0,1,.24-.893,2.987,2.987,0,0,1,1.662-1.317,1.933,1.933,0,0,1,.922-.027,2.369,2.369,0,0,1,.877.4A4.1,4.1,0,0,1,1165.124,1313.376Zm-2.825,2.24a3.529,3.529,0,0,0,.523.543,1.671,1.671,0,0,0,.525.3,1.041,1.041,0,0,0,.518.042,1.132,1.132,0,0,0,.5-.242,1.159,1.159,0,0,0,.358-.441,1.008,1.008,0,0,0,.076-.512,1.7,1.7,0,0,0-.179-.577,4,4,0,0,0-.932-1.176,1.721,1.721,0,0,0-.522-.307,1.008,1.008,0,0,0-.516-.045,1.141,1.141,0,0,0-.507.244,1.157,1.157,0,0,0-.353.438,1.027,1.027,0,0,0-.079.517,1.7,1.7,0,0,0,.176.582A3.522,3.522,0,0,0,1162.3,1315.616Z" transform="translate(-1157.076 -1312.137)" fill="#618226"/><path d="M1207.153,1317.807l-1.562,1.238-.272-.342.08-1.025q.015-.194.025-.354a2.243,2.243,0,0,0,0-.3,1.053,1.053,0,0,0-.05-.256.742.742,0,0,0-.124-.226.3.3,0,0,0-.216-.127.344.344,0,0,0-.242.086.647.647,0,0,0-.193.254,1.593,1.593,0,0,0-.1.37l-.519-.1q.02-.122.05-.244a1.3,1.3,0,0,1,.236-.481,1.35,1.35,0,0,1,.231-.229,1.16,1.16,0,0,1,.337-.192.828.828,0,0,1,.331-.048.725.725,0,0,1,.308.092.91.91,0,0,1,.266.233.93.93,0,0,1,.16.3,1.489,1.489,0,0,1,.064.349,2.836,2.836,0,0,1,0,.391q-.015.205-.042.426l-.057.5.018.022.949-.752Z" transform="translate(-1194.658 -1315.334)" fill="#618226"/></g></g></g></svg>