<svg xmlns="http://www.w3.org/2000/svg" xmlns:xlink="http://www.w3.org/1999/xlink" width="55.229" height="56.293" viewBox="0 0 55.229 56.293"><defs><filter id="a" x="0" y="0" width="55.229" height="56.293" filterUnits="userSpaceOnUse"><feOffset dy="3" input="SourceAlpha"/><feGaussianBlur stdDeviation="3" result="b"/><feFlood flood-opacity="0.161"/><feComposite operator="in" in2="b"/><feComposite in="SourceGraphic"/></filter></defs><g transform="translate(69 -829.716)"><g transform="matrix(1, 0, 0, 1, -69, 829.72)" filter="url(#a)"><rect width="37.229" height="38.293" rx="4" transform="translate(9 6)" fill="#fff"/></g><g transform="translate(-52 839.716)"><g transform="translate(0 0.102)"><path d="M1352.3,206.647a.049.049,0,0,1-.015,0s0,0,0-.006A.048.048,0,0,1,1352.3,206.647Z" transform="translate(-1334.676 -195.611)" fill="#618226"/><path d="M1325.673,222.27a2.006,2.006,0,0,1-1.9,2.267q-4.518,0-9.035,0t-9.006,0c-1.132,0-1.9-.9-1.905-2.259-.008-2.753-.04-5.507.012-8.26a8.356,8.356,0,0,1,1.663-4.939c.137-.189.284-.373.44-.552a6.594,6.594,0,0,1,1.524-1.3s-.4,2.109,2.181,2.109c.049.057.1.112.154.167a6.919,6.919,0,0,0,2.017,1.47,7.049,7.049,0,0,0,5.763.1,7.769,7.769,0,0,0,3.781-4.042,1.959,1.959,0,0,0,.465.082,7.31,7.31,0,0,1,2.191,1.964,9.058,9.058,0,0,1,1.6,4.263,7.872,7.872,0,0,1,.052,1.059Q1325.674,218.335,1325.673,222.27Z" transform="translate(-1303.808 -195.862)" fill="#618226"/><path d="M1337.04,206.639s0,0,0,.006a.048.048,0,0,0,.015,0A.048.048,0,0,0,1337.04,206.639Zm-8.688,1.229s-.008.01-.012.013" transform="translate(-1319.429 -195.611)" fill="#618226"/><path d="M1328.228,176.281a11.605,11.605,0,0,0-1.23.232A9,9,0,0,1,1328.228,176.281Z" transform="translate(-1318.574 -176.281)" fill="#618226"/><path d="M1352.3,206.647a.049.049,0,0,1-.015,0s0,0,0-.006A.048.048,0,0,1,1352.3,206.647Z" transform="translate(-1334.676 -195.611)" fill="#618226"/></g><path d="M1329.854,190.232a8.291,8.291,0,0,1-2.134,2.644,5.471,5.471,0,0,1-1.48.9,6.847,6.847,0,0,1-5.439-.232,6.6,6.6,0,0,1-1.389-.92,31.184,31.184,0,0,0,3.129.208,9.092,9.092,0,0,0,1.341-.068,1.192,1.192,0,0,0,.842-.335.9.9,0,0,0-.073-1.028,1.878,1.878,0,0,0-.551-.623,2.275,2.275,0,0,0-1.28-.192,1.92,1.92,0,0,0-.743.166.724.724,0,0,0-.221.173.171.171,0,0,1-.023.031.545.545,0,0,1-.179.162,2.443,2.443,0,0,1-1.074.236h-.3c-.3,0-.592-.009-.888-.025a1.87,1.87,0,0,1-1.17-.343,1,1,0,0,1-.265-.4,1.578,1.578,0,0,1-.074-.282c.886.057.8-1.533.8-1.533.006-.1.006-.21.006-.312q0-1.58-.006-3.16a1.64,1.64,0,0,0-.131-.783,1.1,1.1,0,0,0-.665-.507,6.966,6.966,0,0,1,1.141-1.438,6.771,6.771,0,0,1,9.2-.25,7.108,7.108,0,0,1,1.391,1.657,1.03,1.03,0,0,0-.436.429,1.684,1.684,0,0,0-.128.783q0,1.56-.005,3.122c0,.082,0,.164,0,.246a1.861,1.861,0,0,0,.072.484C1329.227,189.5,1329.433,190.142,1329.854,190.232Z" transform="translate(-1312.774 -178.954)" fill="#618226"/><path d="M1327.429,184.22c0-.135-.009-.272-.019-.409a2.535,2.535,0,0,0-.334-1.154,2.33,2.33,0,0,0-.526-.579,3.38,3.38,0,0,0-.484-.318c-.08-.044-.16-.086-.242-.124a.671.671,0,0,1-.221-.139.452.452,0,0,1-.082-.189.017.017,0,0,0,0-.009.193.193,0,0,0-.01-.032,6.132,6.132,0,0,0-.956-2.027,6.723,6.723,0,0,0-.9-1.015c-.093-.086-.188-.17-.286-.254a7.61,7.61,0,0,0-.692-.514c-.087-.059-.177-.116-.268-.171a8.528,8.528,0,0,0-1.48-.714,9.161,9.161,0,0,0-2.324-.526,11.253,11.253,0,0,0-2.513.057,11.625,11.625,0,0,0-1.23.232,9.186,9.186,0,0,0-3.627,1.716,5.536,5.536,0,0,0-1.044,1.114,4.258,4.258,0,0,0-.785,2.244c0,.019,0,.038,0,.057a.371.371,0,0,1-.006.067.328.328,0,0,1-.053.143.69.69,0,0,1-.308.19l-.029.012a2.071,2.071,0,0,0-.507.307,3.348,3.348,0,0,0-.554,1.768,3.667,3.667,0,0,0,.4,2.011,2.446,2.446,0,0,0,1.747,1.223.641.641,0,0,1,.248.063.2.2,0,0,1,.053.044.526.526,0,0,1,.11.215v0c.171.56.246,1.232.8,1.537a1.7,1.7,0,0,0,.673.171c.068.008.139.013.207.017.154.011.309.023.461.032q1.155.083,2.307.164l.391.029,1.457.1a3.362,3.362,0,0,0,.634,0,.97.97,0,0,0,.632-.28c.013-.015.026-.03.038-.045s.027-.038.038-.057a.179.179,0,0,1,.015-.028c.009-.021.017-.04.025-.061a.359.359,0,0,0,.019-.078.03.03,0,0,0,0-.013.358.358,0,0,0,.005-.065.538.538,0,0,0-.005-.078.444.444,0,0,0-.025-.08c0-.008-.008-.017-.011-.027s-.009-.019-.015-.031a.182.182,0,0,0-.019-.032.112.112,0,0,0-.011-.019c-.017-.025-.036-.05-.057-.074a.323.323,0,0,0-.025-.029c-.023-.025-.045-.048-.07-.07a.669.669,0,0,0-.071-.057c-.011-.009-.025-.019-.036-.027s-.019-.013-.031-.021-.042-.027-.065-.038a2.635,2.635,0,0,0-1.389-.193,2.794,2.794,0,0,0-.619.093,1.472,1.472,0,0,0-.187.073.864.864,0,0,0-.209.139.68.68,0,0,0-.122.137.467.467,0,0,0-.063.133.382.382,0,0,0-.019.16q-.983.054-1.968.027h-.013l-.732-.053c-.059,0-.12-.009-.179-.015a1.682,1.682,0,0,1-.665-.167.057.057,0,0,1-.013-.009,1.35,1.35,0,0,1-.571-.84,2.684,2.684,0,0,1-.036-.274c0-.025-.006-.05-.008-.074s0-.031,0-.046a1.417,1.417,0,0,0,.24-.084.766.766,0,0,0,.07-.036.216.216,0,0,0,.036-.021,1.138,1.138,0,0,0,.211-.15,1,1,0,0,0,.143-.154.875.875,0,0,0,.1-.164.183.183,0,0,0,.011-.028,1.85,1.85,0,0,0,.111-.776v-.169q0-1.495-.008-2.991a1.54,1.54,0,0,0-.141-.785,1.075,1.075,0,0,0-.512-.429,2.2,2.2,0,0,0-1.11-.147,3.178,3.178,0,0,1,.232-1.3,4.471,4.471,0,0,1,.421-.81,4.831,4.831,0,0,1,.907-1.036c2.537-2.211,7.395-2.343,10.349-.689a5.892,5.892,0,0,1,1.227.912,5.249,5.249,0,0,1,.605.693l.086.12a.026.026,0,0,0,.006.008,4.858,4.858,0,0,1,.48.884c.036.088.307,1.07.288,1.069a1.873,1.873,0,0,0-1.109.272.975.975,0,0,0-.33.341,1.582,1.582,0,0,0-.137.783l-.006,2.794v.329a2.044,2.044,0,0,0,.1.76.969.969,0,0,0,.126.23.2.2,0,0,0,.019.023.991.991,0,0,0,.223.2,1.3,1.3,0,0,0,.244.128c.044.019.092.034.139.049a1.96,1.96,0,0,0,.465.082,2.581,2.581,0,0,0,.608-.029,2.856,2.856,0,0,0,2.145-1.551A3.632,3.632,0,0,0,1327.429,184.22Zm-3.383,2.915s0,0,0-.006a.047.047,0,0,1,.013.008A.048.048,0,0,1,1324.047,187.135Z" transform="translate(-1306.437 -175.999)" fill="#618226"/></g></g></svg>