<svg xmlns="http://www.w3.org/2000/svg" xmlns:xlink="http://www.w3.org/1999/xlink" width="55.761" height="56.825" viewBox="0 0 55.761 56.825"><defs><filter id="a" x="0" y="0" width="55.761" height="56.825" filterUnits="userSpaceOnUse"><feOffset dy="3" input="SourceAlpha"/><feGaussianBlur stdDeviation="3" result="b"/><feFlood flood-opacity="0.161"/><feComposite operator="in" in2="b"/><feComposite in="SourceGraphic"/></filter><filter id="c" x="0" y="0" width="55.761" height="56.825" filterUnits="userSpaceOnUse"><feOffset dy="3" input="SourceAlpha"/><feGaussianBlur stdDeviation="3" result="d"/><feFlood flood-opacity="0.161"/><feComposite operator="in" in2="d"/><feComposite in="SourceGraphic"/></filter></defs><g transform="translate(9 6)"><g transform="translate(0 0)"><g transform="matrix(1, 0, 0, 1, -9, -6)" filter="url(#a)"><rect width="37.761" height="38.825" rx="10" transform="translate(9 6)" fill="#4f6aac"/></g><g transform="translate(7.315 6.999)"><path d="M695.767,258.745h-.385l-2.464,7.941h-9.743l-2.682-7.943h-.354l.092-4.523H695.76Z" transform="translate(-676.144 -241.359)" fill="#4f6aac"/><path d="M764.138,182.56c-9.531,2.452-8.671,8.205-8.6,8.25" transform="translate(-743.861 -176.958)" fill="#4f6aac" stroke="#000" stroke-miterlimit="10" stroke-width="2"/><path d="M683.341,158.537s.4-5.1-8.641-8.957" transform="translate(-671.255 -147.319)" fill="#4f6aac" stroke="#000" stroke-miterlimit="10" stroke-width="2"/><path d="M651.361,134.71l-.005.012,0,.009c-9.366,3.7-10.668-6.8-10.668-6.8C655.4,124.684,651.52,134.327,651.361,134.71Z" transform="translate(-640.69 -127.262)" fill="#4f6aac" stroke="#000" stroke-miterlimit="10" stroke-width="2"/><path d="M784.8,161.444s-.763,9.952-9.943,5l-.08-.044v.026S772.69,159.274,784.8,161.444Z" transform="translate(-761.069 -157.613)" fill="#4f6aac"/></g><g transform="matrix(1, 0, 0, 1, -9, -6)" filter="url(#c)"><rect width="37.761" height="38.825" rx="4" transform="translate(9 6)" fill="#fff"/></g></g><g transform="translate(5.117 7.493)"><path d="M299.756,629.876a2.086,2.086,0,0,0-2.242-2.261h-6.346c0-.321,0-.593,0-.866a2.993,2.993,0,0,0-2.964-2.995q-2.22-.032-4.442,0a2.933,2.933,0,0,0-2.893,2.63c-.047.389-.046.782-.07,1.229h-.456c-1.991,0-3.983,0-5.974,0a2.075,2.075,0,0,0-2.135,2.135q-.006,4.737,0,9.473a2.2,2.2,0,0,0,.657,1.587.757.757,0,0,1,.2.465c.015,1.35,0,2.7.012,4.049a1.88,1.88,0,0,0,1.01,1.747,2.842,2.842,0,0,0,1.27.309q10.613.028,21.227.013c.092,0,.183,0,.275-.008a2.062,2.062,0,0,0,2.013-2.131c0-1.324,0-2.648.009-3.97a.675.675,0,0,1,.167-.441,2.254,2.254,0,0,0,.691-1.691C299.75,636.06,299.756,632.968,299.756,629.876Zm-17.089,5.387a2.608,2.608,0,0,1-.371-1.66c.011-.111.033-.223.051-.347a2.043,2.043,0,0,0,.951.389c.367.09.739.17,1.1.287a1.668,1.668,0,0,1,1.02.82,3.813,3.813,0,0,1,.193.532c.023.067-.019.089-.077.1a2.748,2.748,0,0,1-.911-.045,2.83,2.83,0,0,1-.756-.251.053.053,0,0,0-.052,0,1.283,1.283,0,0,0,.089.1,1.747,1.747,0,0,0,.855.41,2.663,2.663,0,0,0,2.163-.444l.094-.066a.319.319,0,0,1-.076.478,3.033,3.033,0,0,1-1.231.434c-.059.007-.118.008-.177.019a.158.158,0,0,0-.084.04,1.277,1.277,0,0,1-1.415.322A2.445,2.445,0,0,1,282.666,635.263Zm1.317-3.989a1.3,1.3,0,0,1,.425-1.327,2.34,2.34,0,0,1,1.291-.609,2.656,2.656,0,0,1,2.192.625c.025.021.047.043.077.073a2.527,2.527,0,0,0-.941.777c-.239.246-.478.494-.737.72a1.655,1.655,0,0,1-.861.4,1.745,1.745,0,0,1-.92-.119,3.38,3.38,0,0,1,1.149-1.419.648.648,0,0,0-.1.013,1.636,1.636,0,0,0-.745.465,2.6,2.6,0,0,0-.764,1.6,5.715,5.715,0,0,0,0,.63c0,.02,0,.039,0,.058a.319.319,0,0,1-.375-.317,3.161,3.161,0,0,1,.288-1.389A.287.287,0,0,0,283.984,631.274Zm3.509,11.29a.464.464,0,0,1-.522.535c-.655,0-1.307.005-1.961,0-.351,0-.52-.184-.519-.542.005-1.071,0-2.143,0-3.214,0-.4.148-.544.543-.548.64-.007,1.281-.005,1.921,0,.389,0,.529.153.532.556,0,.535,0,1.072,0,1.607S287.487,642.029,287.493,642.565Zm2.013-7.669a2.654,2.654,0,0,1-1.644,1.547.442.442,0,0,1-.051.015c-.005,0-.011,0-.02-.007a2.705,2.705,0,0,0-.22-1.233,9.3,9.3,0,0,1-.244-.981,1.666,1.666,0,0,1,.609-1.625c.009-.008.018-.012.045-.03a3.191,3.191,0,0,1,.637,1.7h.024a1.5,1.5,0,0,0,.044-.146,1.884,1.884,0,0,0-.113-1.029,2.648,2.648,0,0,0-1.428-1.543l-.1-.05a.317.317,0,0,1,.455-.169,3.013,3.013,0,0,1,1.041.925.324.324,0,0,0,.194.135,1.206,1.206,0,0,1,.827.759A2.239,2.239,0,0,1,289.506,634.9Zm.8-7.9c-.01.182,0,.366,0,.6h-8.562a2.285,2.285,0,0,1,2.277-2.994c1.3.051,2.6.052,3.892,0A2.225,2.225,0,0,1,290.305,627Z" transform="translate(-272.23 -623.737)" fill="#618226"/></g></g></svg>