<svg xmlns="http://www.w3.org/2000/svg" xmlns:xlink="http://www.w3.org/1999/xlink" width="55" height="56" viewBox="0 0 55 56"><defs><filter id="a" x="0" y="0" width="55" height="56" filterUnits="userSpaceOnUse"><feOffset dy="3" input="SourceAlpha"/><feGaussianBlur stdDeviation="3" result="b"/><feFlood flood-opacity="0.161"/><feComposite operator="in" in2="b"/><feComposite in="SourceGraphic"/></filter></defs><g transform="translate(-130 -674)"><g transform="matrix(1, 0, 0, 1, 130, 674)" filter="url(#a)"><rect width="37" height="38" rx="4" transform="translate(9 6)" fill="#fff"/></g><g transform="translate(142 687)"><g transform="translate(0 12.399)"><path d="M2278.853,1741.637c.206,0,.412.012.617,0a7.308,7.308,0,0,0,2.608-.583c.7-.323,1.359-.7,2.027-1.074.284-.158.577-.3.863-.459a8.675,8.675,0,0,1,1.307-.622,4.687,4.687,0,0,1,.95-.3,2.732,2.732,0,0,1,1.343.1,1.232,1.232,0,0,1,.736.68.777.777,0,0,1-.17.9c-.261.252-.542.483-.816.721-.113.1-.231.191-.347.287-.621.52-1.294.967-1.953,1.436-.54.384-1.111.711-1.677,1.046-.515.3-1.047.582-1.585.844a13.735,13.735,0,0,1-2.205.855,2.97,2.97,0,0,1-.8.144,8.972,8.972,0,0,0-.919.1c-.018,0-.036,0-.053,0-.524.018-1.048.034-1.573.055a11.253,11.253,0,0,0-1.169.062c-.588.085-1.177,0-1.761.048-.748.061-1.5.046-2.244.052a.782.782,0,0,0-.179.039,5.172,5.172,0,0,0-1.649.861c-.341.234-.656.505-.982.759a13.811,13.811,0,0,0-1.3,1.138c-.146.146-.161.143-.321-.016-.431-.43-.857-.864-1.291-1.29-.567-.555-1.14-1.1-1.711-1.656q-.74-.716-1.481-1.431c-.167-.162-.173-.171-.045-.366.318-.484.639-.966.971-1.441.257-.368.529-.725.8-1.083q.271-.358.559-.7a14.851,14.851,0,0,1,1.3-1.408,4.622,4.622,0,0,1,1.106-.808,3.976,3.976,0,0,1,1.083-.312c.389-.067.783-.11,1.175-.163l.027,0,.982-.053c.39-.019.784-.012,1.169-.065.24-.033.477-.026.715-.045.289-.023.577-.07.865-.1.22-.024.441-.033.66-.06.288-.036.575-.081.862-.126s.554-.094.831-.139c.364-.06.728-.116,1.092-.177q.571-.1,1.141-.2c.267-.048.532-.118.8-.147a5.9,5.9,0,0,1,1.3-.061.842.842,0,0,1,.692.77,1.88,1.88,0,0,1-.157,1.063,3.238,3.238,0,0,1-.414.638,4.109,4.109,0,0,1-1.953,1.161c-.579.173-1.165.322-1.745.491-.294.086-.583.192-.874.291a.387.387,0,0,0-.085.059.541.541,0,0,0,.088.029c.4.063.8.125,1.2.172A11.275,11.275,0,0,0,2278.853,1741.637Z" transform="translate(-2262.977 -1736.849)" fill="#618226"/></g><path d="M2366.216,1688.447a2.256,2.256,0,0,1-.008-.7,8.436,8.436,0,0,1,.261-1.751,8.193,8.193,0,0,1,1.957-3.5,8.868,8.868,0,0,1,3.44-2.14,16.351,16.351,0,0,1,3.5-.762c.694-.092.906,8.262-7.754,9.833,0,0-.676.14-.288-.582s3.643-5.185,3.643-5.185a19.434,19.434,0,0,0-4.32,4.895S2366.365,1688.907,2366.216,1688.447Z" transform="translate(-2345.129 -1678.874)" fill="#618226"/><path d="M2347.011,1682.679a1.281,1.281,0,0,0,.149-.368,4.778,4.778,0,0,0,.224-.984,4.67,4.67,0,0,0-.312-2.268,5.06,5.06,0,0,0-1.385-1.85,9.327,9.327,0,0,0-1.7-1.13c-.349-.193-2.195,4.2,2.081,6.833,0,0,.33.214.274-.249s-.861-3.51-.861-3.51a11.082,11.082,0,0,1,1.281,3.5S2346.837,1682.893,2347.011,1682.679Z" transform="translate(-2326.907 -1676.071)" fill="#618226"/><path d="M2322.286,1706.982a1.8,1.8,0,0,0-.183-.524,6.708,6.708,0,0,0-.672-1.241,6.531,6.531,0,0,0-2.421-2.093,7.071,7.071,0,0,0-3.161-.667,13.032,13.032,0,0,0-2.829.382c-.545.12,1.571,6.437,8.488,5.256,0,0,.544-.079.058-.514s-4.142-2.893-4.142-2.893a15.5,15.5,0,0,1,4.57,2.491S2322.3,1707.367,2322.286,1706.982Z" transform="translate(-2302.746 -1697.074)" fill="#618226"/></g></g></svg>