<svg xmlns="http://www.w3.org/2000/svg" xmlns:xlink="http://www.w3.org/1999/xlink" width="55" height="56" viewBox="0 0 55 56"><defs><filter id="a" x="0" y="0" width="55" height="56" filterUnits="userSpaceOnUse"><feOffset dy="3" input="SourceAlpha"/><feGaussianBlur stdDeviation="3" result="b"/><feFlood flood-opacity="0.161"/><feComposite operator="in" in2="b"/><feComposite in="SourceGraphic"/></filter></defs><g transform="translate(-84 -674)"><g transform="matrix(1, 0, 0, 1, 84, 674)" filter="url(#a)"><rect width="37" height="38" rx="4" transform="translate(9 6)" fill="#fff"/></g><g transform="translate(95 689)"><path d="M420.4,430.007a1.677,1.677,0,0,1,.221-.006,2.443,2.443,0,0,1,.453.073,13.715,13.715,0,0,1,1.992.7c.694.281,1.384.568,2.081.841,3.1,1.217,6.2,2.42,9.3,3.643a5.708,5.708,0,0,1,2.125,1.138.34.34,0,0,1,.008.546,3.558,3.558,0,0,1-1.1.686.27.27,0,0,0-.169.285c.006,1.59.014,3.18,0,4.77a.938.938,0,0,0,.338.81c.287.244.539.528.816.8l-2.354,2.447-2.408-2.408c.492-.447,1-.91,1.508-1.368a.314.314,0,0,0,.114-.259q-.006-1.975,0-3.95v-.172c-.078.03-.14.052-.2.077l-10.875,4.524a4.77,4.77,0,0,1-2.581.375,8.5,8.5,0,0,1-1.712-.5c-3.468-1.3-6.941-2.584-10.341-4.056-.929-.4-1.841-.849-2.742-1.311a3.156,3.156,0,0,1-.8-.641.541.541,0,0,1,.029-.821,1.262,1.262,0,0,1,.279-.237,6.522,6.522,0,0,1,.869-.462c1.385-.539,2.778-1.06,4.169-1.584q4.612-1.737,9.227-3.466a8.42,8.42,0,0,1,1.539-.445C420.246,430.024,420.321,430.014,420.4,430.007Z" transform="translate(-403.884 -430)" fill="#618226"/><path d="M443.87,490.243c-.316-.022-.633-.04-.95-.066a14.178,14.178,0,0,1-8.054-3.294.253.253,0,0,1-.086-.167c0-.982,0-1.964,0-2.945a.364.364,0,0,1,.019-.068c.1.037.2.075.292.109,1.362.477,2.736,1.116,4.1,1.588a26.5,26.5,0,0,0,3.951,1.054,7.467,7.467,0,0,0,3.6-.483,36.084,36.084,0,0,0,6.122-2.768c.053-.029.111-.046.191-.079v.182c0,1.11,0,2.22,0,3.33a.372.372,0,0,1-.134.3,12.235,12.235,0,0,1-3.742,2.328,13.121,13.121,0,0,1-4.49.951c-.072,0-.143.016-.214.025Z" transform="translate(-427.626 -470.826)" fill="#618226"/></g></g></svg>