<svg xmlns="http://www.w3.org/2000/svg" xmlns:xlink="http://www.w3.org/1999/xlink" width="55" height="56" viewBox="0 0 55 56"><defs><filter id="a" x="0" y="0" width="55" height="56" filterUnits="userSpaceOnUse"><feOffset dy="3" input="SourceAlpha"/><feGaussianBlur stdDeviation="3" result="b"/><feFlood flood-opacity="0.161"/><feComposite operator="in" in2="b"/><feComposite in="SourceGraphic"/></filter></defs><g transform="translate(16 -885)"><g transform="matrix(1, 0, 0, 1, -16, 885)" filter="url(#a)"><rect width="37" height="38" rx="4" transform="translate(9 6)" fill="#fff"/></g><g transform="translate(-1 894)"><path d="M827.153,566.7a2.05,2.05,0,0,0-.225-.866c-.417-.716-1.4-.8-2.229-.8l-4.63-.008a1.613,1.613,0,0,0-.679-1.671,3.172,3.172,0,0,0-1.739-.338L811.707,563a4.132,4.132,0,0,0-1.977.324,1.418,1.418,0,0,0-.758,1.681c-.118-.274-4.4.055-4.889.061-1.447.018-2.138.47-2.246,2.015a4.086,4.086,0,0,0,.262,2.128,1.564,1.564,0,0,0,1.778.891l.011,21.184a2.462,2.462,0,0,0,2.93,3.106l15.549,0a2.351,2.351,0,0,0,2.763-3q.01-10.656.02-21.313a1.581,1.581,0,0,0,1.813-.974,4.608,4.608,0,0,0,.206-2.227C827.163,566.819,827.158,566.758,827.153,566.7Zm-17.169-2.385a.289.289,0,0,1,.31-.246c.724-.014,1.449-.039,2.173-.04,1.9,0,3.793,0,5.691.01.191,0,.383.017.574.031a.323.323,0,0,1,.319.316c.012.207,0,.415,0,.639H809.94C809.953,564.782,809.951,564.544,809.984,564.311Zm3.967,22.164q-.381.6-.771,1.189c-.093.142-.193.279-.307.442l-.793-.568.458-.717c-.2,0-.376,0-.553,0-.735-.006-1.47-.01-2.2-.021a1.518,1.518,0,0,1-1.557-1.174,1.288,1.288,0,0,1,.095-.962c.428-.8.869-1.593,1.308-2.387.211-.381.428-.758.643-1.137.025-.045.053-.089.086-.143l.852.483c-.16.291-.313.569-.466.847q-.732,1.324-1.464,2.647a2.41,2.41,0,0,0-.147.317.306.306,0,0,0,.234.447,3.726,3.726,0,0,0,.666.067c.811.008,1.622,0,2.432,0,.02,0,.04,0,.072-.008-.134-.208-.26-.409-.39-.606a.108.108,0,0,1,.032-.173q.3-.209.6-.423a.112.112,0,0,1,.185.031q.508.761,1.02,1.521A.275.275,0,0,1,813.951,586.475Zm.836-10.169c-.228-.253-.4-.26-.587.029-.362.568-.7,1.151-1.042,1.732-.21.357-.406.721-.635,1.13h.954v1.032c-.038,0-.074.007-.11.007-.688,0-1.376,0-2.065,0a.23.23,0,0,1-.167-.079c-.335-.5-.661-1.016-.995-1.521-.07-.106-.052-.164.049-.23.187-.122.37-.251.549-.384.095-.07.151-.059.217.04.144.217.3.428.45.64.033.046.072.088.127.154.2-.332.384-.645.568-.959q.556-.947,1.11-1.9a1.389,1.389,0,0,1,1.345-.747,1.322,1.322,0,0,1,1.166.63q.916,1.586,1.835,3.17c.006.009.011.018.016.028.183.372.157.457-.2.652-.143.078-.285.159-.436.243-.3-.529-.586-1.049-.885-1.562-.4-.679-.8-1.352-1.2-2.027A.512.512,0,0,0,814.788,576.306Zm5.263,10.324a1.273,1.273,0,0,1-.753.162c-1.283.017-2.567.021-3.851.028-.009,0-.019-.008-.038-.017v-1h.176q1.584,0,3.169-.009c.235,0,.469-.017.7-.022.411-.01.571-.263.376-.625-.334-.622-.68-1.238-1.027-1.853-.19-.337-.392-.669-.59-1-.031-.053-.07-.1-.124-.18l-.658.922-.791-.56c.145-.227.277-.437.411-.645.21-.326.42-.652.637-.973a.252.252,0,0,1,.167-.108c.715-.007,1.43,0,2.144,0a.608.608,0,0,1,.067.007v1h-.954c.067.128.112.22.161.309.455.822.923,1.636,1.364,2.466A1.561,1.561,0,0,1,820.051,586.63Z" transform="translate(-801.81 -563)" fill="#618226"/></g></g></svg>