<svg xmlns="http://www.w3.org/2000/svg" xmlns:xlink="http://www.w3.org/1999/xlink" width="55" height="56" viewBox="0 0 55 56"><defs><filter id="a" x="0" y="0" width="55" height="56" filterUnits="userSpaceOnUse"><feOffset dy="3" input="SourceAlpha"/><feGaussianBlur stdDeviation="3" result="b"/><feFlood flood-opacity="0.161"/><feComposite operator="in" in2="b"/><feComposite in="SourceGraphic"/></filter></defs><g transform="translate(-40 -778.408)"><g transform="matrix(1, 0, 0, 1, 40, 778.41)" filter="url(#a)"><rect width="37" height="38" rx="4" transform="translate(9 6)" fill="#fff"/></g><g transform="translate(59 786.408)"><path d="M146.62,964.935s-4.063-14.509,0-20.407" transform="translate(-140.751 -931.762)" fill="none" stroke="#618226" stroke-miterlimit="10" stroke-width="0.5"/><path d="M146.082,974.253s-.585-4.6,3.177-5.434C149.259,968.819,150.513,972.665,146.082,974.253Z" transform="translate(-141.501 -946.499)" fill="#618226"/><path d="M138.562,964.145s-.205-4.631-4.055-4.815C134.507,959.33,133.925,963.333,138.562,964.145Z" transform="translate(-134.483 -940.742)" fill="#618226"/><path d="M146.669,912.068A6.935,6.935,0,1,0,153.605,919,6.934,6.934,0,0,0,146.669,912.068Zm4.287,5.162c-.2.146-.4.289-.6.428a.348.348,0,0,1-.529-.044c-.264-.256-.518-.525-.795-.767a2.913,2.913,0,0,0-1.62-.75,1.886,1.886,0,0,0-1.231.32c-.044.028-.087.059-.129.087a.162.162,0,0,0-.014.024l.085.053,1.422.855a.29.29,0,0,1,.117.468c-.085.144-.171.289-.258.43a.28.28,0,0,1-.428.1c-.559-.335-1.115-.672-1.674-1.007-.028-.018-.057-.036-.091-.056-.085.141-.168.276-.252.42.032.02.061.038.089.054l1.638.986c.224.135.256.264.123.487l-.244.408a.286.286,0,0,1-.446.111c-.5-.3-1.006-.607-1.511-.91l-.087-.052a2.464,2.464,0,0,0-.026,1.029,2.072,2.072,0,0,0,.815,1.2,4.287,4.287,0,0,0,1.533.712c.135.04.27.081.4.125a.325.325,0,0,1,.264.4c-.03.276-.067.549-.113.821-.04.244-.2.341-.454.307a5.366,5.366,0,0,1-1.259-.325,4.683,4.683,0,0,1-2.088-1.563,3.62,3.62,0,0,1-.718-2.51,4.4,4.4,0,0,1,.175-.958.118.118,0,0,0-.064-.163c-.214-.119-.422-.25-.63-.378a.287.287,0,0,1-.113-.456c.087-.143.173-.288.26-.429a.28.28,0,0,1,.431-.109c.2.117.4.238.6.359.085-.139.165-.274.252-.42l-.077-.046c-.175-.1-.351-.21-.525-.317a.279.279,0,0,1-.107-.419c.092-.157.185-.313.282-.468a.275.275,0,0,1,.413-.1c.242.141.48.286.718.434a.09.09,0,0,0,.127-.012,4.333,4.333,0,0,1,1.216-.777,3.683,3.683,0,0,1,2.312-.177,4.756,4.756,0,0,1,1.071.407.762.762,0,0,0,.071.028l.446.266c.139.111.28.22.418.335a4.89,4.89,0,0,1,.9.975A.373.373,0,0,1,150.956,917.23Z" transform="translate(-137.67 -912.068)" fill="#618226"/></g></g></svg>