<svg xmlns="http://www.w3.org/2000/svg" xmlns:xlink="http://www.w3.org/1999/xlink" width="55" height="56" viewBox="0 0 55 56"><defs><filter id="a" x="0" y="0" width="55" height="56" filterUnits="userSpaceOnUse"><feOffset dy="3" input="SourceAlpha"/><feGaussianBlur stdDeviation="3" result="b"/><feFlood flood-opacity="0.161"/><feComposite operator="in" in2="b"/><feComposite in="SourceGraphic"/></filter></defs><g transform="translate(-84 -885)"><g transform="matrix(1, 0, 0, 1, 84, 885)" filter="url(#a)"><rect width="37" height="38" rx="4" transform="translate(9 6)" fill="#fff"/></g><g transform="translate(96 892)"><g transform="translate(0)"><path d="M1069.469,592.472c-.153-.009-.307,0-.485,0v-.479q0-16.032.006-32.066a.928.928,0,0,0-.482-.925h-14.014a.925.925,0,0,0-.484.924c.016,2.551.007,5.1.007,7.652v.4h-12.53c-.918,0-1.075.154-1.075,1.058v23.438a5.258,5.258,0,0,0-.552,0,.672.672,0,0,0-.6.669.68.68,0,0,0,.6.675,2.931,2.931,0,0,0,.375.007h28.938c.1,0,.2,0,.306,0a.678.678,0,0,0,0-1.355Zm-18.2-.019h-2.678v-2.678h2.678Zm2.729-.01h-1.343v-.356c0-.975,0-1.949,0-2.924a.691.691,0,0,0-.778-.775q-1.938,0-3.877,0c-.532,0-.784.261-.785.8,0,1.077,0,2.152,0,3.253h-5.42V569.359H1054Zm10.883,0h-2.691v-2.674h2.691Zm2.711,0h-1.333v-.392c0-.951,0-1.9,0-2.856,0-.558-.252-.806-.814-.807q-1.9,0-3.809,0c-.575,0-.816.249-.817.838,0,1.065,0,2.128,0,3.218h-5.425v-3.482h0V560.378h12.2Z" transform="translate(-1039.256 -559)" fill="#618226"/><path d="M1108.977,564.954v28.585h0v3.482h5.426c0-1.09,0-2.153,0-3.218,0-.589.242-.836.817-.838q1.9,0,3.809,0c.562,0,.813.249.814.807,0,.951,0,1.9,0,2.856v.392h1.333V564.954Zm4.062,3.567a1.187,1.187,0,0,1,.387-1.211,2.137,2.137,0,0,1,1.179-.557,2.426,2.426,0,0,1,2,.571l.071.066a2.309,2.309,0,0,0-.861.71c-.219.224-.437.452-.673.657a1.512,1.512,0,0,1-.786.364,1.59,1.59,0,0,1-.841-.109,3.1,3.1,0,0,1,1.049-1.3.625.625,0,0,0-.089.01,1.5,1.5,0,0,0-.681.427,2.365,2.365,0,0,0-.7,1.457,5.419,5.419,0,0,0,0,.576c0,.019,0,.036,0,.054a.292.292,0,0,1-.342-.29,2.893,2.893,0,0,1,.264-1.269A.263.263,0,0,0,1113.039,568.521Zm-1.524,21.38c-1.09,0-1.2-.108-1.2-1.2,0-1.069.112-1.18,1.183-1.18,1.093,0,1.2.1,1.2,1.2C1112.7,589.787,1112.584,589.9,1111.515,589.9Zm-.025-4.082c-1.053,0-1.173-.118-1.173-1.157,0-1.123.1-1.224,1.208-1.224,1.053,0,1.173.118,1.173,1.157C1112.7,585.718,1112.6,585.819,1111.49,585.819Zm.019-4.081c-1.085,0-1.192-.108-1.192-1.206,0-1.064.114-1.174,1.189-1.174s1.192.106,1.192,1.2C1112.7,581.624,1112.584,581.738,1111.509,581.738Zm1.188-4.793a.677.677,0,0,1-.7.708c-.316.01-.632.009-.948,0a.681.681,0,0,1-.727-.72c-.007-.293,0-.587,0-.88a.7.7,0,0,1,.771-.78c.147,0,.294,0,.441,0h.271c.673,0,.9.223.9.89C1112.7,576.424,1112.705,576.685,1112.7,576.945Zm.386-3.759a2.235,2.235,0,0,1-1.247-1.021,2.392,2.392,0,0,1-.339-1.517c.01-.1.031-.2.048-.318a1.864,1.864,0,0,0,.869.355c.335.083.675.156,1,.262a1.529,1.529,0,0,1,.932.749,3.653,3.653,0,0,1,.175.487c.022.06-.016.08-.07.087a2.529,2.529,0,0,1-.832-.041,2.59,2.59,0,0,1-.691-.23c-.01-.006-.023-.007-.048,0a1.026,1.026,0,0,0,.082.093,1.6,1.6,0,0,0,.781.375,2.432,2.432,0,0,0,1.974-.405l.086-.06a.291.291,0,0,1-.069.437,2.764,2.764,0,0,1-1.125.395c-.052.007-.108.007-.16.017a.141.141,0,0,0-.077.037A1.165,1.165,0,0,1,1113.083,573.186Zm1.959,16.715c-.137,0-.272,0-.408,0a.675.675,0,0,1-.74-.708c-.014-.294-.01-.59,0-.884.013-.544.259-.781.8-.787.136,0,.272,0,.408,0,1.055,0,1.171.115,1.171,1.167C1116.27,589.8,1116.17,589.9,1115.042,589.9Zm1.228-5.283c0,1.1-.1,1.2-1.207,1.2-1.059,0-1.176-.115-1.176-1.163,0-1.12.1-1.218,1.223-1.218,1.031,0,1.16.127,1.16,1.147Zm-1.2-2.88c-1.074,0-1.183-.111-1.183-1.19s.1-1.19,1.215-1.19c1.049,0,1.167.118,1.167,1.171C1116.27,581.63,1116.164,581.738,1115.071,581.738Zm0-4.082c-1.069,0-1.179-.111-1.179-1.195s.111-1.186,1.186-1.186,1.2.108,1.2,1.211C1116.27,577.546,1116.158,577.656,1115.067,577.656Zm1.467-4.4s-.01,0-.019,0a2.447,2.447,0,0,0-.2-1.126,8.785,8.785,0,0,1-.222-.9,1.52,1.52,0,0,1,.557-1.485.315.315,0,0,1,.041-.026,2.9,2.9,0,0,1,.581,1.552h.022a1.25,1.25,0,0,0,.041-.134,1.717,1.717,0,0,0-.1-.938,2.41,2.41,0,0,0-1.3-1.409l-.093-.047a.289.289,0,0,1,.415-.154,2.74,2.74,0,0,1,.951.844.29.29,0,0,0,.178.124,1.108,1.108,0,0,1,.755.694,2.05,2.05,0,0,1-.051,1.582,2.419,2.419,0,0,1-1.5,1.412A.3.3,0,0,1,1116.534,573.254Zm2.1,16.647c-1.049,0-1.17-.119-1.17-1.16,0-1.122.1-1.221,1.209-1.221,1.052,0,1.171.116,1.171,1.158C1119.841,589.8,1119.739,589.9,1118.631,589.9Zm.02-4.082c-1.085,0-1.19-.108-1.19-1.206,0-1.062.112-1.174,1.189-1.174s1.192.106,1.192,1.206C1119.841,585.705,1119.725,585.819,1118.651,585.819Zm-.016-4.081c-1.062,0-1.174-.115-1.174-1.19s.1-1.19,1.2-1.19c1.064,0,1.176.114,1.176,1.187S1119.732,581.738,1118.635,581.738Zm0-4.082c-1.061,0-1.173-.114-1.173-1.191s.1-1.19,1.206-1.19c1.062,0,1.174.114,1.174,1.19S1119.732,577.656,1118.634,577.656Z" transform="translate(-1092.835 -563.576)" fill="#618226"/><path d="M1050.22,603.75v23.084h5.42c0-1.1,0-2.177,0-3.253,0-.541.253-.8.785-.8q1.939,0,3.877,0a.691.691,0,0,1,.778.775c0,.975,0,1.95,0,2.924v.356h1.343V603.75Zm4.313,3.036a1.184,1.184,0,0,1,.388-1.211,2.135,2.135,0,0,1,1.179-.556,2.426,2.426,0,0,1,2,.571c.022.019.042.039.07.066a2.3,2.3,0,0,0-.859.71c-.219.224-.437.452-.673.657a1.511,1.511,0,0,1-.787.364,1.585,1.585,0,0,1-.839-.109,3.075,3.075,0,0,1,1.049-1.3.615.615,0,0,0-.089.01,1.5,1.5,0,0,0-.68.427,2.367,2.367,0,0,0-.7,1.457,5.056,5.056,0,0,0,0,.575c0,.019,0,.037,0,.054a.291.291,0,0,1-.342-.29,2.894,2.894,0,0,1,.264-1.269A.273.273,0,0,0,1054.532,606.786Zm-1.793,12.93c-1.066,0-1.18-.114-1.18-1.184,0-1.091.1-1.2,1.2-1.2,1.07,0,1.18.112,1.18,1.183C1053.94,619.609,1053.832,619.716,1052.739,619.716Zm1.2-4.757a.668.668,0,0,1-.667.672c-.34.013-.679.012-1.017,0a.67.67,0,0,1-.689-.686c-.012-.3-.006-.609,0-.914a.7.7,0,0,1,.774-.776c.147,0,.293,0,.44,0,.1,0,.2,0,.3,0,.625,0,.86.236.863.858C1053.94,614.394,1053.948,614.677,1053.935,614.96Zm.641-3.508a2.237,2.237,0,0,1-1.247-1.021,2.392,2.392,0,0,1-.339-1.517c.01-.1.031-.2.047-.318a1.868,1.868,0,0,0,.87.355c.335.083.675.156,1,.262a1.522,1.522,0,0,1,.931.749,3.469,3.469,0,0,1,.176.487c.02.06-.016.08-.07.087a2.527,2.527,0,0,1-.832-.041,2.555,2.555,0,0,1-.691-.23.052.052,0,0,0-.048,0,1.045,1.045,0,0,0,.08.093,1.6,1.6,0,0,0,.782.374,2.434,2.434,0,0,0,1.974-.4l.086-.06a.291.291,0,0,1-.068.437,2.773,2.773,0,0,1-1.125.395c-.054.007-.108.007-.162.018a.141.141,0,0,0-.076.036A1.166,1.166,0,0,1,1054.576,611.451Zm1.731,8.265c-1.068,0-1.177-.111-1.177-1.195s.111-1.186,1.186-1.186,1.2.106,1.2,1.212C1057.512,619.607,1057.4,619.716,1056.307,619.716Zm.009-4.081c-1.074,0-1.186-.112-1.186-1.187s.108-1.193,1.177-1.193c1.1,0,1.2.1,1.2,1.2C1057.512,615.523,1057.4,615.636,1056.316,615.636Zm1.712-4.116s-.01,0-.019,0a2.449,2.449,0,0,0-.2-1.126,8.791,8.791,0,0,1-.222-.9,1.522,1.522,0,0,1,.555-1.485.38.38,0,0,1,.042-.026,2.9,2.9,0,0,1,.581,1.552h.022c.013-.044.031-.088.041-.134a1.718,1.718,0,0,0-.1-.938,2.419,2.419,0,0,0-1.3-1.409l-.093-.047a.288.288,0,0,1,.415-.154,2.75,2.75,0,0,1,.951.844.291.291,0,0,0,.176.124,1.11,1.11,0,0,1,.756.694,2.055,2.055,0,0,1-.051,1.582,2.42,2.42,0,0,1-1.5,1.412A.309.309,0,0,1,1058.028,611.52Zm1.874,8.2c-1.093,0-1.2-.106-1.2-1.2,0-1.072.112-1.183,1.182-1.183,1.094,0,1.2.1,1.2,1.2C1061.083,619.6,1060.969,619.716,1059.9,619.716Zm-.006-4.081c-1.087,0-1.195-.108-1.195-1.2,0-1.066.114-1.177,1.187-1.177s1.195.1,1.195,1.2C1061.083,615.522,1060.969,615.636,1059.9,615.636Z" transform="translate(-1047.682 -593.391)" fill="#618226"/></g></g></g></svg>