<svg xmlns="http://www.w3.org/2000/svg" xmlns:xlink="http://www.w3.org/1999/xlink" width="55" height="56" viewBox="0 0 55 56"><defs><filter id="a" x="0" y="0" width="55" height="56" filterUnits="userSpaceOnUse"><feOffset dy="3" input="SourceAlpha"/><feGaussianBlur stdDeviation="3" result="b"/><feFlood flood-opacity="0.161"/><feComposite operator="in" in2="b"/><feComposite in="SourceGraphic"/></filter></defs><g transform="translate(-130 -885)"><g transform="matrix(1, 0, 0, 1, 130, 885)" filter="url(#a)"><rect width="37" height="38" rx="4" transform="translate(9 6)" fill="#fff"/></g><g transform="translate(146 894)"><g transform="translate(0 10.295)"><path d="M1167.034,2695.552c-.832-.594-1.659-1.2-2.5-1.772a.375.375,0,0,1-.186-.436,9.138,9.138,0,0,0-.129-3.808l2.771-2.22-2.425-3.958-3.235,1.456a9.872,9.872,0,0,0-1.506-1.078l-2.589,4.318a4.356,4.356,0,1,1-4.9.531l-2.628-4.274c-.268.2-.529.411-.781.635a.464.464,0,0,1-.39.077c-.942-.345-1.878-.712-2.813-1.08-.161-.063-.286-.126-.4.086-.686,1.283-1.381,2.56-2.094,3.877.111.085.213.168.318.243.611.439,1.2.917,1.843,1.3a1.131,1.131,0,0,1,.6,1.388,7.565,7.565,0,0,0,.153,3.007.323.323,0,0,1-.138.379c-.429.339-.854.684-1.281,1.026s-.866.69-1.295,1.034c.821,1.345,1.624,2.655,2.418,3.954,1.006-.45,1.986-.882,2.958-1.33a.422.422,0,0,1,.524.08,8.544,8.544,0,0,0,3.1,1.661.37.37,0,0,1,.3.364c.145,1,.3,2.006.435,3.011.024.165.082.229.253.218.274-.016.549-.006.824-.014,1.093-.033,2.186-.086,3.277-.095.284,0,.335-.081.355-.337.079-.962.183-1.922.284-2.882.018-.166.046-.329.256-.4a8.72,8.72,0,0,0,3.124-1.915.369.369,0,0,1,.317-.052q1.453.556,2.9,1.139c.162.065.245.066.335-.114.225-.458.479-.9.723-1.352.433-.795.863-1.59,1.306-2.379C1167.191,2695.7,1167.138,2695.625,1167.034,2695.552Z" transform="translate(-1143.225 -2683.359)" fill="#618226"/></g><path d="M1237.591,2624.246a2.172,2.172,0,0,1,.031-.671,8.114,8.114,0,0,1,.35-1.671,7.9,7.9,0,0,1,2.082-3.264,8.55,8.55,0,0,1,3.433-1.866,15.752,15.752,0,0,1,3.412-.536c.673-.05.407,8.005-8.02,9.03,0,0-.658.1-.245-.576s3.8-4.787,3.8-4.787a18.746,18.746,0,0,0-4.435,4.469S1237.708,2624.7,1237.591,2624.246Z" transform="translate(-1225.119 -2614.802)" fill="#618226"/><path d="M1209.833,2611.9a1.246,1.246,0,0,0,.164-.346,4.622,4.622,0,0,0,.272-.935,4.5,4.5,0,0,0-.173-2.2,4.877,4.877,0,0,0-1.228-1.86,8.979,8.979,0,0,0-1.574-1.184c-.326-.205-2.35,3.922,1.618,6.7,0,0,.306.225.278-.225s-.631-3.428-.631-3.428a10.687,10.687,0,0,1,1.035,3.439S1209.653,2612.092,1209.833,2611.9Z" transform="translate(-1198.138 -2605.361)" fill="#618226"/><path d="M1168.555,2647.564a1.734,1.734,0,0,0-.147-.515,6.489,6.489,0,0,0-.577-1.233,6.3,6.3,0,0,0-2.213-2.152,6.818,6.818,0,0,0-3.005-.82,12.561,12.561,0,0,0-2.746.208c-.531.084,1.15,6.287,7.876,5.54,0,0,.528-.046.084-.492s-3.825-3.019-3.825-3.019a14.939,14.939,0,0,1,4.26,2.656S1168.547,2647.936,1168.555,2647.564Z" transform="translate(-1157.591 -2637.884)" fill="#618226"/></g></g></svg>