<svg xmlns="http://www.w3.org/2000/svg" xmlns:xlink="http://www.w3.org/1999/xlink" width="55" height="56" viewBox="0 0 55 56"><defs><filter id="a" x="0" y="0" width="55" height="56" filterUnits="userSpaceOnUse"><feOffset dy="3" input="SourceAlpha"/><feGaussianBlur stdDeviation="3" result="b"/><feFlood flood-opacity="0.161"/><feComposite operator="in" in2="b"/><feComposite in="SourceGraphic"/></filter></defs><g transform="translate(16 -829.716)"><g transform="matrix(1, 0, 0, 1, -16, 829.72)" filter="url(#a)"><rect width="37" height="38" rx="4" transform="translate(9 6)" fill="#fff"/></g><g transform="translate(2 840.716)"><path d="M254.8,846.272c-.2-.038-.573-.112-.948-.181a1.829,1.829,0,0,0-.972.01,2.238,2.238,0,0,0-.672.445c-.247.211-.483.435-.741.63a1.065,1.065,0,0,1-1.46,0c-.258-.2-.494-.421-.742-.63-.113-.095-.229-.186-.347-.275a1.43,1.43,0,0,0-1.168-.207c-.347.06-.691.142-1.039.194a1.146,1.146,0,0,1-.966-.187,1.431,1.431,0,0,1-.4-.621c-.118-.316-.227-.637-.331-.958a1.527,1.527,0,0,0-1.04-1.04c-.339-.11-.675-.228-1.009-.352a1.362,1.362,0,0,1-.55-.354.949.949,0,0,1-.226-.787c.049-.378.129-.751.193-1.127a1.813,1.813,0,0,0-.012-.95,2.338,2.338,0,0,0-.45-.682c-.238-.284-.492-.558-.708-.859a.977.977,0,0,1,0-1.218c.193-.272.422-.519.637-.777a2.258,2.258,0,0,0,.551-.852,2.025,2.025,0,0,0-.016-.868c-.064-.365-.141-.728-.19-1.094a.939.939,0,0,1,.555-1.059c.356-.168.736-.284,1.107-.421a2.3,2.3,0,0,0,.709-.359,1.751,1.751,0,0,0,.477-.8c.129-.355.249-.712.39-1.062a1.313,1.313,0,0,1,.233-.361.91.91,0,0,1,.835-.288c.382.046.759.128,1.138.193a1.862,1.862,0,0,0,.951-.011,2.255,2.255,0,0,0,.7-.464c.255-.217.5-.445.77-.642a1.034,1.034,0,0,1,1.4.015c.255.194.491.413.735.622a2.336,2.336,0,0,0,.7.467,1.809,1.809,0,0,0,.961.013c.368-.064.735-.143,1.105-.189a.93.93,0,0,1,1.033.527c.154.319.263.66.39.991.059.154.113.311.174.465a1.322,1.322,0,0,0,.808.777c.327.121.659.226.986.347a3.246,3.246,0,0,1,.45.208.949.949,0,0,1,.5,1c-.031.3-.1.6-.149.905-.035.217-.074.433-.1.651a1.288,1.288,0,0,0,.336.985c.224.268.46.527.685.8a2.8,2.8,0,0,1,.254.363.955.955,0,0,1-.03,1.1c-.221.314-.482.6-.73.9a2.342,2.342,0,0,0-.451.681,1.8,1.8,0,0,0-.012.95c.064.368.142.735.191,1.105a.941.941,0,0,1-.56,1.057c-.337.16-.7.267-1.048.4-.155.058-.309.117-.46.184a1.339,1.339,0,0,0-.713.815c-.128.351-.241.708-.374,1.057a2.169,2.169,0,0,1-.232.438C255.68,846.211,255.355,846.307,254.8,846.272Zm2.8-8.533a6.864,6.864,0,1,0-6.86,6.858A6.862,6.862,0,0,0,257.606,837.739Z" transform="translate(-241.001 -828)" fill="#618226"/><path d="M275.435,887.658a5.631,5.631,0,0,0,1.091-.84,6.6,6.6,0,0,1,.59-.455,1.255,1.255,0,0,1,.912-.189c.448.069.891.167,1.339.231a3.027,3.027,0,0,0,.7.019.987.987,0,0,0,.767-.553,6.248,6.248,0,0,0,.458-1.186,2.973,2.973,0,0,1,.4-.848c.051-.069.114-.129.187-.211.038.152.072.282.1.412q.665,2.768,1.329,5.536.481,2,.964,3.993a.424.424,0,0,1-.117.446.413.413,0,0,1-.455.073q-1.283-.5-2.565-1c-.154-.06-.307-.123-.462-.181a.413.413,0,0,0-.484.1c-.286.316-.567.635-.85.953l-1.324,1.488a.412.412,0,0,1-.436.145.426.426,0,0,1-.314-.349q-.609-2.543-1.219-5.086C275.841,889.33,275.639,888.5,275.435,887.658Z" transform="translate(-265.221 -867.125)" fill="#618226"/><path d="M244.8,883.681a1.709,1.709,0,0,1,.468.74c.145.391.267.791.419,1.179a2.136,2.136,0,0,0,.288.5.961.961,0,0,0,.9.376c.364-.034.725-.106,1.087-.162.242-.038.482-.087.725-.113a1.351,1.351,0,0,1,1,.279c.231.178.447.375.67.563a4.038,4.038,0,0,0,.8.6.1.1,0,0,1,.057.128c-.169.7-.334,1.406-.5,2.109q-.516,2.149-1.036,4.3c-.091.377-.185.753-.274,1.131a.4.4,0,0,1-.313.322.4.4,0,0,1-.41-.132l-1.146-1.284c-.341-.383-.68-.766-1.023-1.148a.418.418,0,0,0-.526-.119l-1.992.773c-.338.131-.676.265-1.015.4a.414.414,0,0,1-.455-.072.422.422,0,0,1-.117-.446l.923-3.838.519-2.159q.469-1.945.937-3.889A.187.187,0,0,1,244.8,883.681Z" transform="translate(-241.975 -867.165)" fill="#618226"/></g></g></svg>