<svg xmlns="http://www.w3.org/2000/svg" xmlns:xlink="http://www.w3.org/1999/xlink" width="55.229" height="56.293" viewBox="0 0 55.229 56.293"><defs><filter id="a" x="0" y="0" width="55.229" height="56.293" filterUnits="userSpaceOnUse"><feOffset dy="3" input="SourceAlpha"/><feGaussianBlur stdDeviation="3" result="b"/><feFlood flood-opacity="0.161"/><feComposite operator="in" in2="b"/><feComposite in="SourceGraphic"/></filter></defs><g transform="translate(69 -779.408)"><g transform="translate(156 -385.592)"><g transform="matrix(1, 0, 0, 1, -225, 1165)" filter="url(#a)"><rect width="37.229" height="38.293" rx="4" transform="translate(9 6)" fill="#fff"/></g><g transform="translate(-209.649 1175.811)"><path d="M1137.4,179.333v1.621h-6.476v.374q0,6.132,0,12.265c0,.119-.011.239-.017.359h-1.61l0-12.292v-.694h-6.48V180.9l.014-.008,2.547-1.471a1.163,1.163,0,0,0,.12-.08q1.4,0,2.794,0v-.206h1.832V171.14h-2v.056h0v5.328h.008v.138h-1.285V165.312h1.277q0,2.5,0,5h2.83v8.825h1.5v.2Z" transform="translate(-1113.07 -165.312)" fill="#618226"/><path d="M1092.62,216.6c-.007-.11-.019-.22-.019-.33q0-8.586,0-17.172v-.346h1.623v10.536h8.933v.35q0,3.315,0,6.63c0,.111.006.222.009.332H1101.5a1.051,1.051,0,0,0,.025-.162q0-2.661,0-5.322a1.027,1.027,0,0,0-.031-.179h-7.264V216.6Z" transform="translate(-1092.6 -187.963)" fill="#618226"/><path d="M1099.774,179.193a2.6,2.6,0,1,1-2.614,2.6A2.6,2.6,0,0,1,1099.774,179.193Z" transform="translate(-1095.689 -174.714)" fill="#618226"/><path d="M1111.49,215.122a1.423,1.423,0,0,1-1.062,1.449h-.5a1.606,1.606,0,0,1-1.038-1.73c.022-2.007.007-4.015.007-6.022v-.362h-.351c-2.248,0-4.5,0-6.744,0a1.893,1.893,0,0,1-1.1-.317,1.17,1.17,0,0,1-.58-1.036q.007-3.538,0-7.077a1.122,1.122,0,0,1,.525-.981,2.135,2.135,0,0,1,1.291-.34l.079.005.031-.005a2.13,2.13,0,0,1,.89.23l.123.071,3.738,2.158,2.027-1.171a1.179,1.179,0,0,1,1.3,1.962,1.137,1.137,0,0,1-.12.08l-2.547,1.47-.014.008v-.051a1.17,1.17,0,0,1-.437.193,1.154,1.154,0,0,1-.247.027,1.175,1.175,0,0,1-.589-.158l-2.525-1.458-.111-.064v.064q0,1.31,0,2.618v.348h6.3a1.541,1.541,0,0,1,1.648,1.621Q1111.5,210.891,1111.49,215.122Z" transform="translate(-1097.697 -187.932)" fill="#618226"/><path d="M1121.905,213.46v.051a1.167,1.167,0,0,1-.437.142A1.171,1.171,0,0,0,1121.905,213.46Z" transform="translate(-1112.153 -197.923)" fill="#618226"/></g></g></g></svg>