<svg xmlns="http://www.w3.org/2000/svg" xmlns:xlink="http://www.w3.org/1999/xlink" width="55" height="56" viewBox="0 0 55 56"><defs><filter id="a" x="0" y="0" width="55" height="56" filterUnits="userSpaceOnUse"><feOffset dy="3" input="SourceAlpha"/><feGaussianBlur stdDeviation="3" result="b"/><feFlood flood-opacity="0.161"/><feComposite operator="in" in2="b"/><feComposite in="SourceGraphic"/></filter></defs><g transform="translate(69 -724)"><g transform="translate(151 -364)"><g transform="matrix(1, 0, 0, 1, -220, 1088)" filter="url(#a)"><rect width="37" height="38" rx="4" transform="translate(9 6)" fill="#fff"/></g><g transform="translate(-205 1100)"><path d="M695.943,258.8h-.389l-2.491,8.03H683.21l-2.713-8.032h-.357l.093-4.574h15.7Z" transform="translate(-676.099 -241.215)" fill="#618226"/><path d="M764.235,182.56c-9.638,2.479-8.769,8.3-8.693,8.342" transform="translate(-743.73 -176.895)" fill="none" stroke="#618226" stroke-miterlimit="10" stroke-width="1"/><path d="M683.438,158.637a4.94,4.94,0,0,0-.065-.783c-.106-1.052-1.2-5.083-8.673-8.274" transform="translate(-671.216 -147.294)" fill="none" stroke="#618226" stroke-miterlimit="10" stroke-width="1"/><path d="M651.481,134.794l-.005.012,0,.009c-9.471,3.744-10.788-6.881-10.788-6.881C655.57,124.656,651.642,134.407,651.481,134.794Z" transform="translate(-640.69 -127.262)" fill="#618226"/><path d="M784.914,161.448s-.771,10.063-10.055,5.055l-.081-.044v.027S772.668,159.254,784.914,161.448Z" transform="translate(-760.917 -157.574)" fill="#618226"/></g></g></g></svg>