<svg xmlns="http://www.w3.org/2000/svg" xmlns:xlink="http://www.w3.org/1999/xlink" width="55" height="56" viewBox="0 0 55 56"><defs><filter id="a" x="0" y="0" width="55" height="56" filterUnits="userSpaceOnUse"><feOffset dy="3" input="SourceAlpha"/><feGaussianBlur stdDeviation="3" result="b"/><feFlood flood-opacity="0.161"/><feComposite operator="in" in2="b"/><feComposite in="SourceGraphic"/></filter></defs><g transform="translate(-130 -829.716)"><g transform="matrix(1, 0, 0, 1, 130, 829.72)" filter="url(#a)"><rect width="37" height="38" rx="4" transform="translate(9 6)" fill="#fff"/></g><g transform="translate(142 840.716)"><g transform="translate(12.427 7.784)"><path d="M595.977,1012.252a9.574,9.574,0,0,0-2.8-1.4c.015-.014.03-.026.046-.039a9.526,9.526,0,0,1,2.715,1.341.742.742,0,0,1,.03.071Z" transform="translate(-593.174 -1010.811)" fill="#618226"/></g><path d="M580.934,993.911l-.043.005-.28.951.712-.043C581.186,994.5,581.059,994.207,580.934,993.911Zm0,0-.043.005-.28.951.712-.043C581.186,994.5,581.059,994.207,580.934,993.911Zm0,0-.043.005-.28.951.712-.043C581.186,994.5,581.059,994.207,580.934,993.911Zm0,0-.043.005-.28.951.712-.043C581.186,994.5,581.059,994.207,580.934,993.911Zm0,0-.043.005-.28.951.712-.043C581.186,994.5,581.059,994.207,580.934,993.911Zm0,0-.043.005-.28.951.712-.043C581.186,994.5,581.059,994.207,580.934,993.911Zm0,0-.043.005-.28.951.712-.043C581.186,994.5,581.059,994.207,580.934,993.911Zm0,0-.043.005-.28.951.712-.043C581.186,994.5,581.059,994.207,580.934,993.911Zm0,0-.043.005-.28.951.712-.043C581.186,994.5,581.059,994.207,580.934,993.911Zm0,0-.043.005-.28.951.712-.043C581.186,994.5,581.059,994.207,580.934,993.911Zm0,0-.043.005-.28.951.712-.043C581.186,994.5,581.059,994.207,580.934,993.911Z" transform="translate(-572.47 -991.894)" fill="#618226"/><path d="M600.472,989.9,589.3,988.257l-.9-.133a.448.448,0,0,0-.22.021.455.455,0,0,0-.3.362l-1.583,10.77-.279-.35L587.71,988l-12.086.8a.455.455,0,0,0-.423.484l.432,6.513c.166-.05.334-.1.5-.138l.18-.044a9.757,9.757,0,0,1,2.236-.238,10.02,10.02,0,0,1,2.779.442,9.572,9.572,0,0,1,2.8,1.4,9.717,9.717,0,0,1,2.145,2.145,9.549,9.549,0,0,1,1.82,5.12,10.376,10.376,0,0,1-.178,2.568l.056.009,9.757,1.435a.458.458,0,0,0,.517-.384l2.6-17.7A.458.458,0,0,0,600.472,989.9ZM577.9,993.693a2.253,2.253,0,0,1-.327-.17l.343.555-.659.037c.079-.17.164-.354.249-.539l-.035-.024c-.042.04-.083.081-.128.118a.469.469,0,0,1-.537.041.435.435,0,0,1-.173-.488,1.885,1.885,0,0,1,.791-.952.126.126,0,0,1,.119.01c.25.194.5.384.739.6a.642.642,0,0,1,.152.3A.414.414,0,0,1,577.9,993.693Zm-.14-1.844c-.009-.076-.016-.135-.023-.2l.291-.046a.219.219,0,0,0,0-.048c-.147-.4-.147-.4-.572-.375l-.1,0c-.422.02-.448.045-.494.491h.284c.006.066.012.125.019.2-.133.011-.252.024-.371.029s-.24,0-.372,0c-.008-.056-.015-.11-.024-.182.188-.008.227-.14.271-.284.184-.6.378-1.2.568-1.805.019-.06.044-.118.084-.227.319.707.615,1.371.92,2.029.036.08.125.138.189.205.02-.011.039-.024.059-.036.005.06.01.119.018.2Zm3.62,3.935c.179-.155.362-.305.542-.458a.2.2,0,0,1,.182-.031,5.4,5.4,0,0,1,1.671,1.292,2.37,2.37,0,0,1,.32.538A9.527,9.527,0,0,0,581.379,995.784Zm8.209-2.4a2.355,2.355,0,0,1-.283-.235c.085.238.153.43.218.614l-.652-.1.358-.474-.03-.031c-.05.03-.1.063-.149.089a.469.469,0,0,1-.533-.072.435.435,0,0,1-.067-.515,1.888,1.888,0,0,1,.974-.764.131.131,0,0,1,.114.035c.2.243.411.482.6.739a.632.632,0,0,1,.085.327A.414.414,0,0,1,589.589,993.384Zm.992-1.718-.741-.115c.009-.076.014-.135.021-.2l.294.016a.147.147,0,0,0,.006-.047c-.058-.423-.059-.423-.479-.488l-.1-.015c-.416-.072-.447-.052-.587.374l.279.06c-.009.066-.015.125-.025.2-.131-.017-.25-.029-.368-.049-.085-.015-.169-.035-.258-.054l-.105-.024c0-.055.009-.11.014-.183a.26.26,0,0,0,.137-.007c.089-.033.137-.12.188-.213.307-.552.622-1.1.936-1.645.031-.055.067-.105.13-.2.161.759.31,1.47.47,2.179a.932.932,0,0,0,.143.24l.065-.023C590.6,991.525,590.59,991.583,590.58,991.666Zm3.835,7.487a1.053,1.053,0,0,1-1.171-.279,4.6,4.6,0,0,1-.266-.386,2.6,2.6,0,0,0,.539,1.526,3.584,3.584,0,0,0-1.7-.245,2.716,2.716,0,0,0,.994-1.346c-.109.1-.183.179-.265.244a.985.985,0,0,1-1.61-.507,1.1,1.1,0,0,1,.159-.771,2.594,2.594,0,0,1,.894-.9c.382-.242.788-.447,1.187-.659a.2.2,0,0,1,.184.008,5.385,5.385,0,0,1,1.362,1.615,2.417,2.417,0,0,1,.214.67A.935.935,0,0,1,594.415,999.153Zm3.027,6.211c-.019-.012-.036-.026-.053-.039a1.148,1.148,0,0,0-.233.218c-.341.561-.671,1.13-1,1.7-.031.054-.068.1-.125.189-.091-.447-.175-.851-.258-1.257-.061-.293-.124-.587-.176-.881-.023-.128-.054-.235-.218-.235.009-.069.015-.124.028-.212l.735.118c-.01.071-.018.13-.026.2l-.308-.02a2.943,2.943,0,0,0,.071.364.222.222,0,0,0,.132.121c.18.043.368.054.547.1a.22.22,0,0,0,.3-.145,2.365,2.365,0,0,1,.134-.249l-.287-.062c.008-.07.013-.128.021-.212l.742.114C597.456,1005.246,597.449,1005.305,597.443,1005.364Zm.094-1.535a1.582,1.582,0,0,1-.44.487c-.7.425-.555.449-1.079-.182a1.418,1.418,0,0,1-.237-.475.436.436,0,0,1,.215-.555.476.476,0,0,1,.576.171.1.1,0,0,0,.09.045c-.064-.191-.128-.383-.189-.563l.66.11-.38.466.03.028a1.361,1.361,0,0,1,.247-.11.428.428,0,0,1,.453.133A.362.362,0,0,1,597.536,1003.829Z" transform="translate(-568.906 -988)" fill="#618226"/><path d="M588,1058.521a9.269,9.269,0,0,1-6.818,1.822c.179-.227.357-.438.518-.661.108-.148.189-.314.289-.469a.151.151,0,0,1,.1-.062,12.506,12.506,0,0,0,3.743-.859c.19-.079.375-.17.566-.253a.134.134,0,0,1,.1,0c.246.088.488.188.737.269S587.73,1058.447,588,1058.521Z" transform="translate(-572.845 -1034.133)" fill="#618226"/><path d="M609.594,1033.841c-.056.254-.122.506-.2.752-.105-.217-.2-.427-.311-.634-.038-.07-.078-.14-.118-.21h0c-.054-.094-.109-.186-.161-.281a.19.19,0,0,1-.022-.119,10.346,10.346,0,0,0,.3-2.807c-.014-.5-.064-.994-.1-1.49a.1.1,0,0,1,.055-.112c.074-.044.144-.1.216-.145A9.144,9.144,0,0,1,609.594,1033.841Z" transform="translate(-591.026 -1014.874)" fill="#618226"/><path d="M596.617,1026.045a10.385,10.385,0,0,1-.2,2.112c-.026.14-.061.278-.1.416a.186.186,0,0,1-.065.1c-.129.094-.26.185-.393.273-.1.068-.206.134-.31.2a9.448,9.448,0,0,1-2,.952.148.148,0,0,1-.115-.019c-.3-.242-.6-.487-.9-.733-.786-.652-1.557-1.321-2.307-2.016a.229.229,0,0,1-.079-.224c.09-.691.184-1.381.254-2.073a11.346,11.346,0,0,0,.045-1.809.15.15,0,0,1,.093-.17c.351-.176.7-.367,1.047-.542a16.736,16.736,0,0,1,2.109-.854.158.158,0,0,1,.113.005,8.094,8.094,0,0,1,1.723,1.217,4.7,4.7,0,0,1,.341.367,3.855,3.855,0,0,1,.59.944.812.812,0,0,1,.053.254C596.564,1024.974,596.626,1026.044,596.617,1026.045Z" transform="translate(-578.755 -1010.164)" fill="#618226"/><path d="M585.555,1014.321c-.011.07-.056.079-.1.1-.433.163-.871.317-1.3.493a15.584,15.584,0,0,0-1.923.949.163.163,0,0,1-.182,0,17.04,17.04,0,0,0-2.213-1c-.305-.109-.618-.2-.932-.289-.231-.065-.47-.106-.706-.157-.046-.01-.075-.022-.084-.08-.088-.575-.184-1.15-.266-1.727-.038-.274-.052-.551-.073-.827a.113.113,0,0,1,.034-.082,3.382,3.382,0,0,1,.963-.656,1.552,1.552,0,0,1,.472-.074c.261-.023.525-.035.655-.043a9.776,9.776,0,0,1,2.749.346,9,9,0,0,1,1.61.622c.322.162.628.355.939.537a.2.2,0,0,1,.085.1c.089.292.193.581.257.877,0,.019.009.035.011.053A2.353,2.353,0,0,1,585.555,1014.321Z" transform="translate(-570.602 -1003.106)" fill="#618226"/><path d="M566.135,1016.127q-.115.1-.225.2a13.537,13.537,0,0,0-1.312,1.455q-.514.64-1.02,1.288a.322.322,0,0,1-.223.125q-1.033.177-2.062.371c-.272.051-.539.128-.818.194a4.97,4.97,0,0,1-.411-1.386,1.282,1.282,0,0,1,.149-.8,9.194,9.194,0,0,1,3.385-3.7c.277-.173.57-.318.855-.476a.9.9,0,0,1,.466-.118,6.5,6.5,0,0,1,.793.055c.061.009.123.019.184.03.018.2.025.387.053.577.082.578.17,1.157.256,1.736a.967.967,0,0,0,.031.181C566.279,1015.983,566.222,1016.051,566.135,1016.127Z" transform="translate(-558.926 -1004.656)" fill="#618226"/><path d="M561.14,1049.205a9.142,9.142,0,0,1-2.533-4.3c.118.22.232.443.352.661a12.259,12.259,0,0,0,1.8,2.495.429.429,0,0,1,.1.189c.086.3.18.6.272.893A.213.213,0,0,1,561.14,1049.205Z" transform="translate(-557.975 -1025.49)" fill="#618226"/><path d="M564.666,1034.713a31.772,31.772,0,0,0-.87,3.642c-.019.1-.04.194-.058.292a.1.1,0,0,1-.084.094,5.1,5.1,0,0,1-1.247.2c-.233.011-.467,0-.7,0v-.008c-.248,0-.5,0-.744,0-.125,0-.178-.092-.242-.163a13.458,13.458,0,0,1-2.191-3.4.209.209,0,0,1-.024-.1,10.22,10.22,0,0,1,.317-2.2,4.181,4.181,0,0,1,.6-1.256.2.2,0,0,1,.1-.068,22.448,22.448,0,0,1,2.819-.562.094.094,0,0,1,.11.052c.389.634.77,1.271,1.174,1.894.324.5.676.978,1.014,1.468A.146.146,0,0,1,564.666,1034.713Z" transform="translate(-557.909 -1016.448)" fill="#618226"/><path d="M582.962,1041.445a8.4,8.4,0,0,1-1.026,3.42.271.271,0,0,1-.109.093,10.256,10.256,0,0,1-2.22.781,14.724,14.724,0,0,1-2.086.317.287.287,0,0,1-.066-.024,11.247,11.247,0,0,1-3.029-2.425.149.149,0,0,1-.032-.142,35.7,35.7,0,0,1,.88-3.775c.035-.115.074-.182.211-.2.1-.014.2-.029.305-.048a15.586,15.586,0,0,0,1.646-.384c.7-.2,1.4-.4,2.1-.607a.115.115,0,0,1,.13.031c.714.673,1.454,1.317,2.206,1.944q.5.417,1.007.824A.2.2,0,0,1,582.962,1041.445Z" transform="translate(-568.371 -1021.23)" fill="#618226"/><path d="M623.209,1009.084c.062.339.12.65.188,1.024.188-.334.348-.619.516-.92Zm0,0c.062.339.12.65.188,1.024.188-.334.348-.619.516-.92Zm-6.09-16.174-.043,0c-.155.284-.309.57-.474.87l.7.109C617.24,993.541,617.179,993.225,617.119,992.91Zm6.09,16.174c.062.339.12.65.188,1.024.188-.334.348-.619.516-.92Zm0,0c.062.339.12.65.188,1.024.188-.334.348-.619.516-.92Zm-6.09-16.174-.043,0c-.155.284-.309.57-.474.87l.7.109C617.24,993.541,617.179,993.225,617.119,992.91Zm0,0-.043,0c-.155.284-.309.57-.474.87l.7.109C617.24,993.541,617.179,993.225,617.119,992.91Zm6.09,16.174c.062.339.12.65.188,1.024.188-.334.348-.619.516-.92Zm0,0c.062.339.12.65.188,1.024.188-.334.348-.619.516-.92Zm-6.09-16.174-.043,0c-.155.284-.309.57-.474.87l.7.109C617.24,993.541,617.179,993.225,617.119,992.91Zm0,0-.043,0c-.155.284-.309.57-.474.87l.7.109C617.24,993.541,617.179,993.225,617.119,992.91Zm6.09,16.174c.062.339.12.65.188,1.024.188-.334.348-.619.516-.92Zm0,0c.062.339.12.65.188,1.024.188-.334.348-.619.516-.92Zm-6.09-16.174-.043,0c-.155.284-.309.57-.474.87l.7.109C617.24,993.541,617.179,993.225,617.119,992.91Zm6.09,16.174c.062.339.12.65.188,1.024.188-.334.348-.619.516-.92Zm-6.133-16.178c-.155.284-.309.57-.474.87l.7.109c-.066-.344-.128-.66-.188-.975Zm.043,0-.043,0c-.155.284-.309.57-.474.87l.7.109C617.24,993.541,617.179,993.225,617.119,992.91Zm6.09,16.174c.062.339.12.65.188,1.024.188-.334.348-.619.516-.92Zm0,0c.062.339.12.65.188,1.024.188-.334.348-.619.516-.92Zm-6.09-16.174-.043,0c-.155.284-.309.57-.474.87l.7.109C617.24,993.541,617.179,993.225,617.119,992.91Zm0,0-.043,0c-.155.284-.309.57-.474.87l.7.109C617.24,993.541,617.179,993.225,617.119,992.91Zm6.09,16.174c.062.339.12.65.188,1.024.188-.334.348-.619.516-.92Zm0,0c.062.339.12.65.188,1.024.188-.334.348-.619.516-.92Zm-6.09-16.174-.043,0c-.155.284-.309.57-.474.87l.7.109C617.24,993.541,617.179,993.225,617.119,992.91Zm0,0-.043,0c-.155.284-.309.57-.474.87l.7.109C617.24,993.541,617.179,993.225,617.119,992.91Zm6.09,16.174c.062.339.12.65.188,1.024.188-.334.348-.619.516-.92Zm0,0c.062.339.12.65.188,1.024.188-.334.348-.619.516-.92Zm-6.09-16.174-.043,0c-.155.284-.309.57-.474.87l.7.109C617.24,993.541,617.179,993.225,617.119,992.91Z" transform="translate(-596.18 -991.232)" fill="#618226"/><path d="M576.035,1019.263a9.809,9.809,0,0,1-.206,2.007,9.649,9.649,0,1,1-11.843-11.4c.06-.015.12-.03.18-.044a9.583,9.583,0,0,1,7.777,1.506,9.719,9.719,0,0,1,4.092,7.935Z" transform="translate(-556.754 -1002.203)" fill="none" stroke="#618226" stroke-miterlimit="10" stroke-width="0.5"/><path d="M614.394,997.177l-.046.214-.105-.024c0-.055.009-.11.014-.182A.262.262,0,0,0,614.394,997.177Z" transform="translate(-594.626 -994.046)" fill="#618226"/></g></g></svg>