<svg xmlns="http://www.w3.org/2000/svg" xmlns:xlink="http://www.w3.org/1999/xlink" width="55" height="56" viewBox="0 0 55 56"><defs><filter id="a" x="0" y="0" width="55" height="56" filterUnits="userSpaceOnUse"><feOffset dy="3" input="SourceAlpha"/><feGaussianBlur stdDeviation="3" result="b"/><feFlood flood-opacity="0.161"/><feComposite operator="in" in2="b"/><feComposite in="SourceGraphic"/></filter></defs><g transform="translate(-84 -778.408)"><g transform="matrix(1, 0, 0, 1, 84, 778.41)" filter="url(#a)"><rect width="37" height="38" rx="4" transform="translate(9 6)" fill="#fff"/></g><g transform="translate(95 786.408)"><path d="M374.141,1848.216s0,0,0,0v-.013A.072.072,0,0,1,374.141,1848.216Z" transform="translate(-345.254 -1834.613)" fill="#618226"/><path d="M266.176,1903.627c-.168-.081-.333-.16-.5-.243-.778-.379-1.558-.762-2.336-1.137-.142-.069-.3-.116-.457-.177a.7.7,0,1,1,.416-1.32c.027-.016.1.023.138.056.41.41.814.823,1.221,1.235l1.465,1.489A.171.171,0,0,1,266.176,1903.627Z" transform="translate(-246.665 -1880.589)" fill="#618226"/><path d="M253.964,1888.172c-.064.153-.127.3-.2.463-.07-.094-.139-.183-.205-.274s-.132-.179-.2-.272l.266-.229C253.745,1887.971,253.858,1888.076,253.964,1888.172Z" transform="translate(-238.939 -1869.72)" fill="#618226"/><path d="M260.532,1893.606a.59.59,0,0,1-.68-.125.583.583,0,0,1-.114-.64C260,1893.089,260.258,1893.343,260.532,1893.606Z" transform="translate(-244.276 -1873.92)" fill="#618226"/><path d="M257.107,1867.233c-.008.011-.016.019-.023.03-.033-.028-.067-.052-.1-.08q-.806-.738-1.611-1.481a1.778,1.778,0,0,0-.853-.554c.186-.138.344-.255.512-.377Z" transform="translate(-239.918 -1850.245)" fill="#618226"/><path d="M245.2,1880.325a4.777,4.777,0,0,1-.535.395.6.6,0,0,1-.759-.218.613.613,0,0,1,.049-.767c.1-.108.218-.205.305-.285C244.571,1879.737,244.873,1880.018,245.2,1880.325Z" transform="translate(-230.872 -1862.626)" fill="#618226"/><path d="M185.777,1775.591c-1.112.772-2.231,1.533-3.351,2.294a.993.993,0,0,1-1.372-.263,1,1,0,0,1,.244-1.376c.028-.02.055-.039.089-.066a8.35,8.35,0,0,0-2.046.573,3.689,3.689,0,0,0-.44.2c-.177.078-.349.16-.515.244l.011.009a15.694,15.694,0,0,0,3.787,2.35c.85.41,1.689.841,2.535,1.26.034.017.067.036.125.067-.055.038-.094.067-.135.1q-1.872,1.2-3.74,2.4a1.073,1.073,0,0,0,.28,1.941,1.051,1.051,0,0,0,.885-.133c.006.009.014.019.022.028l-1.01.8c-.1.075-.194.149-.29.224a1.213,1.213,0,0,0,1.467,1.932c.1-.075.2-.15.312-.232a.332.332,0,0,1-.117.395,2.652,2.652,0,0,0-.443.424,1.206,1.206,0,0,0,1.209,1.918c.08-.016.132-.017.185.056.514.7,1.026,1.4,1.542,2.09a.638.638,0,0,1,.138.478.362.362,0,0,1-.224.335.533.533,0,0,0-.122.078.512.512,0,0,1-.773-.1c-.23-.279-.446-.567-.673-.85q-1.534-1.921-3.072-3.836a6.5,6.5,0,0,0-.526-.554c-.168-.161-.28-.168-.409-.055s-.136.255-.025.434q1.179,1.86,2.358,3.717c.111.18.227.355.335.534a.5.5,0,0,1-.15.706.487.487,0,0,1-.684-.178l-3.814-5.937q-1.74-2.708-3.482-5.414a.252.252,0,0,1-.05-.171,5.167,5.167,0,0,0-.249.755c-.089.3-.175.565-.247.835a9.649,9.649,0,0,0-.326,2.485,1,1,0,1,1-1.995.045,11.923,11.923,0,0,1,2.024-6.679,12.146,12.146,0,0,1,3.08-3.194c.111-.078.224-.155.338-.229a12.478,12.478,0,0,1,2.392-1.228,11.876,11.876,0,0,1,2.594-.669c.031,0,.063-.011.136-.027-.168-.08-.3-.144-.426-.205a.995.995,0,1,1,.845-1.8c1.213.578,2.425,1.156,3.634,1.743A.989.989,0,0,1,185.777,1775.591Z" transform="translate(-169.491 -1771.999)" fill="#618226"/><path d="M255.52,1792.65a.953.953,0,0,0-.885.567c-.069.136-.133.274-.2.412a2.2,2.2,0,0,1-.088-.39c-.022-.135-.044-.269-.07-.4a12.344,12.344,0,0,0-.324-1.242,12.22,12.22,0,0,0-6.255-7.271,11.262,11.262,0,0,0-3.413-1.069,16.712,16.712,0,0,0-1.977-.147.958.958,0,0,0-.939,1.008.979.979,0,0,0,.972.964,10.447,10.447,0,0,1,2.882.418c.171.052.337.111.534.172a5.815,5.815,0,0,1,.589.191q-2.076,1.348-4.16,2.691l-7.169,4.636a.5.5,0,1,0,.534.847l3.607-2.3c.232-.146.463-.3.7-.442a.286.286,0,0,1,.387.056c.1.12.11.208-.016.355a3.528,3.528,0,0,1-.435.443q-1.548,1.273-3.109,2.536c-.584.47-1.177.93-1.765,1.4a.638.638,0,1,0,.783,1.007c.559-.413,1.116-.831,1.674-1.246.2-.147.395-.291.586-.434a1.4,1.4,0,0,1-.072-.921,1.211,1.211,0,0,1,2.084-.448c.4.442.8.891,1.2,1.339.182.2.366.406.55.609a.285.285,0,0,0-.058-.133c-.426-.583-.856-1.16-1.279-1.746a1.221,1.221,0,0,1,1.935-1.489c.113.141.224.287.337.431.24.305.481.611.72.917a.146.146,0,0,0-.019-.1,1.1,1.1,0,0,1,.379-1.47,1.083,1.083,0,0,1,1.48.349c.481.756.964,1.511,1.444,2.266.374.584.745,1.168,1.126,1.765.022-.028.036-.038.041-.05.442-.885.889-1.768,1.317-2.662a15.635,15.635,0,0,1,2.212-3.59c.078.169.15.343.218.523a5.16,5.16,0,0,1,.387.916,5.986,5.986,0,0,1,.377,1.536c-.019-.022-.034-.041-.049-.06a1,1,0,1,0-1.622,1.155q1.123,1.637,2.242,3.277a1.008,1.008,0,0,0,1.8-.146c.24-.51.487-1.018.73-1.526.335-.7.675-1.394,1-2.1A.984.984,0,0,0,255.52,1792.65Zm-1.68,2.106a.212.212,0,0,0,0-.03v-.017a.1.1,0,0,1,0,.021Z" transform="translate(-223.169 -1781.369)" fill="#618226"/><path d="M266.871,1852.868a11.874,11.874,0,0,1-.664,4v0h0a11.133,11.133,0,0,1-.6,1.392,12.054,12.054,0,0,1-7.083,6.136,10.912,10.912,0,0,1-2.117.489l-.094.023c.171.086.313.152.451.224a.994.994,0,0,1-.871,1.788q-1.825-.871-3.647-1.749a.99.99,0,0,1-.136-1.74q1.653-1.141,3.315-2.27a.994.994,0,1,1,1.126,1.636l-.033.03a8.374,8.374,0,0,0,2.443-.75,6.092,6.092,0,0,0,.584-.28,15.142,15.142,0,0,0-3.454-2.162c-1.682-.814-3.354-1.65-5.029-2.479a.688.688,0,0,1-.391-.91.651.651,0,0,1,.175-.185c.052-.042.128-.061.172-.108a.469.469,0,0,1,.611-.055c.6.283,1.2.578,1.793.867.568.276,1.132.554,1.7.822a.489.489,0,0,0,.553-.794q-1.548-1.562-3.092-3.12-1.707-1.719-3.413-3.444a.6.6,0,0,1-.136-.689.606.606,0,0,1,.589-.37.636.636,0,0,1,.459.2c.811.748,1.622,1.5,2.442,2.242.65.586,1.315,1.154,1.976,1.727a2.924,2.924,0,0,0,.316.214.252.252,0,0,0,.346-.037.224.224,0,0,0,.027-.318,8.893,8.893,0,0,0-.556-.794q-1.712-2.057-3.44-4.1c-.186-.221-.376-.438-.564-.662a.63.63,0,0,1,.058-.907.645.645,0,0,1,.922.083c1.276,1.4,2.546,2.811,3.828,4.207.327.354.687.675,1.04,1,.092.089.208.155.343.049a.232.232,0,0,0,.078-.355,7.522,7.522,0,0,0-.5-.814c-.891-1.227-1.793-2.447-2.691-3.667-.254-.344-.514-.686-.767-1.029a.642.642,0,0,1,.092-.938.657.657,0,0,1,.936.169q1.806,2.262,3.621,4.515a7.674,7.674,0,0,0,.669.706.247.247,0,0,0,.424-.03.292.292,0,0,0-.016-.345q-.77-1.212-1.542-2.42-.589-.923-1.181-1.849a.5.5,0,1,1,.852-.534q1.379,2.133,2.759,4.26,2.255,3.485,4.509,6.969a.646.646,0,0,1,.041.069c.072-.172.139-.349.2-.532.116-.417.232-.792.321-1.173a9.868,9.868,0,0,0,.249-2.228.994.994,0,1,1,1.987.006Z" transform="translate(-235.248 -1833.7)" fill="#618226"/><path d="M171.4,1889a.2.2,0,0,1-.055.023q.326.125.681.225c.271.082.514.163.761.23a9.389,9.389,0,0,0,2.612.346,1.01,1.01,0,0,1,.954,1.389,1.033,1.033,0,0,1-.925.6,12.3,12.3,0,0,1-2.468-.25,12.165,12.165,0,0,1-8.99-7.838,11.464,11.464,0,0,1-.567-2.306c-.006-.044-.017-.086-.033-.174-.086.174-.153.315-.224.454a.993.993,0,1,1-1.79-.86c.529-1.118,1.066-2.229,1.6-3.344.067-.141.127-.287.207-.42a.992.992,0,0,1,1.669-.042c.684.99,1.359,1.982,2.04,2.975.088.13.177.257.263.385a.994.994,0,0,1-1.622,1.149c-.023-.03-.049-.055-.1-.113a10.054,10.054,0,0,0,.781,2.492,5.614,5.614,0,0,0,.236.557c.294-.385.6-.762.88-1.154a16.3,16.3,0,0,0,1.325-2.359q.641-1.29,1.285-2.582a.741.741,0,0,1,.058-.088c.132.2.254.4.377.59.7,1.08,1.392,2.164,2.093,3.241a1.078,1.078,0,0,0,1.849-1.105.2.2,0,0,1-.033-.114c.132.166.265.329.395.495.183.232.363.463.546.7a1.332,1.332,0,0,0,.835.581,3.387,3.387,0,0,0,0,.578,1.2,1.2,0,0,0,.669.883c.412.208.827.41,1.259.623-.05.039-.086.071-.124.1Q174.627,1886.929,171.4,1889Z" transform="translate(-161.256 -1860.222)" fill="#618226"/><path d="M343.047,1834.406c-.124-.254-.252-.557-.387-.916A5.163,5.163,0,0,1,343.047,1834.406Z" transform="translate(-314.257 -1823.862)" fill="#618226"/><path d="M221.8,1802.36c-.132.063-.279.13-.44.2A3.708,3.708,0,0,1,221.8,1802.36Z" transform="translate(-211.95 -1797.606)" fill="#618226"/></g></g></svg>