<svg xmlns="http://www.w3.org/2000/svg" xmlns:xlink="http://www.w3.org/1999/xlink" width="55" height="56" viewBox="0 0 55 56"><defs><filter id="a" x="0" y="0" width="55" height="56" filterUnits="userSpaceOnUse"><feOffset dy="3" input="SourceAlpha"/><feGaussianBlur stdDeviation="3" result="b"/><feFlood flood-opacity="0.161"/><feComposite operator="in" in2="b"/><feComposite in="SourceGraphic"/></filter></defs><g transform="translate(16 -779.408)"><g transform="matrix(1, 0, 0, 1, -16, 779.41)" filter="url(#a)"><rect width="37" height="38" rx="4" transform="translate(9 6)" fill="#fff"/></g><g transform="translate(-3 795.408)"><g transform="translate(21.736 2.73)"><path d="M756.7,195.235c-.538.027-1.078.028-1.618.033-.524.006-1.049,0-1.573,0v-.036c-1.017,0-2.035.008-3.053,0-.738-.008-.982-.281-.95-1.024.042-.97.212-1.925.339-2.885.094-.7.094-1.411.226-2.109a4.517,4.517,0,0,1,.141-.811c.23-.609-.174-1.091-.382-1.6a1.371,1.371,0,0,1,.371-1.919c.577-.582,1.268-1.039,1.807-1.663.07-.08.2-.145.215-.231.091-.647.571-.5.983-.508.032,0,.062,0,.093,0,.714-.033,1.327-.069,1.8.748a7.5,7.5,0,0,0,1.756,1.656,1.352,1.352,0,0,1,.367,1.879,3.829,3.829,0,0,0-.224,2.718c.149,1.251.314,2.5.459,3.751.036.306.046.612.1.917A.846.846,0,0,1,756.7,195.235Z" transform="translate(-749.506 -179.276)" fill="#618226"/><path d="M769.4,164.831c-.505.134-.71-.073-.629-.583,0-.03-.008-.064,0-.092.057-.195-.417-.359-.005-.591a1.1,1.1,0,0,1,1.127-.1c.223.119.573.229.19.573-.043.039-.041.15-.03.223C770.135,164.79,769.893,164.952,769.4,164.831Z" transform="translate(-765.409 -163.349)" fill="#618226"/><path d="M768.6,174.69c-.042.209-.162.229-.326.229-.583,0-1.166-.008-1.749,0-.24,0-.311-.093-.321-.327-.043-.928-.05-.927.858-.928h.736C768.622,173.658,768.767,173.85,768.6,174.69Z" transform="translate(-763.402 -171.942)" fill="#618226"/></g><g transform="translate(0)"><path d="M626.213,190.74a2.986,2.986,0,0,1-.226,1.075,1.348,1.348,0,0,1-1.279.824c-.648.012-1.3,0-1.945,0-.51,0-1.02-.023-1.528,0-1.251.069-1.707-.589-1.831-1.7a13.923,13.923,0,0,1,.233-2.756c.057-.672.234-1.329.316-2,.1-.806.269-1.6.42-2.4.156-.826.322-1.65.489-2.473.089-.434.188-.868.291-1.3a.817.817,0,0,1,.854-.642c.6-.008,1.2.044,1.793.091a.616.616,0,0,1,.619.517c.078.36.186.714.279,1.071a.784.784,0,0,1-.2.639c-.257.4-.217.6.184.856.451.293.489.492.18.928-.321.453-.26.751.224,1.039a.657.657,0,0,1,.346.468c.167,1.265.487,2.5.587,3.78A17.1,17.1,0,0,1,626.213,190.74Z" transform="translate(-619.368 -173.97)" fill="#618226"/><path d="M625.087,148.857a6.358,6.358,0,0,0-1.148.833c-.079.06-.209.1-.2.233.024.45-.276.431-.585.42-.355-.013-.71-.007-1.064-.016-.247-.007-.506.066-.636-.284-.065-.171-.326-.12-.51-.121a3.96,3.96,0,0,1-1.2-.059c-.169-.055-.4-.048-.395-.3.011-.294-.167-.662.145-.862a7.413,7.413,0,0,0,1.25-1.132,1.647,1.647,0,0,1,1.274-.533c.54.011,1.08,0,1.62,0v0c.617,0,1.235.005,1.852,0,.208,0,.293.055.313.281C625.865,147.967,625.807,148.524,625.087,148.857Z" transform="translate(-619.311 -147.02)" fill="#618226"/><path d="M633.938,169.3c-.008.281-.062.418-.384.408-.629-.02-1.26,0-1.89.007-.248,0-.34-.086-.351-.35-.054-1.265-.062-1.265,1.176-1.305.077,0,.154,0,.231,0C633.982,168.048,633.975,168.048,633.938,169.3Z" transform="translate(-629.294 -164.543)" fill="#618226"/><path d="M660.632,147.792c-.032.15.126.455-.272.507-.315.04-.519-.029-.5-.4.008-.169.006-.339.011-.508.007-.242.071-.394.376-.393s.36.174.384.4C660.642,147.509,660.632,147.618,660.632,147.792Z" transform="translate(-653.089 -147)" fill="#618226"/></g><g transform="translate(8.134 0.364)"><path d="M679.489,180.589a13.278,13.278,0,0,0-2.207-3.782,3.928,3.928,0,0,0-3.205-1.664c-1.186.047-2.375.011-3.563,0-.323,0-.446.1-.4.435a4.086,4.086,0,0,1-.289,1.849c-.476,1.449-1.13,2.832-1.468,4.334a12.271,12.271,0,0,0-.28,3.8,5.208,5.208,0,0,0,.872,2.634,1.814,1.814,0,0,0,1.7.94c1.261-.076,2.529-.02,3.794-.02v0c1.341,0,2.685-.024,4.026.012a1.227,1.227,0,0,0,1.125-.543,4.227,4.227,0,0,0,.82-2.065A12.077,12.077,0,0,0,679.489,180.589Zm-.9,3.805a1.355,1.355,0,0,1-1.393,0,2.926,2.926,0,0,1-1.394-2.384,6.721,6.721,0,0,1,.355-2.563c.168-.335.394-.6.819-.519.4.075.5.383.561.741s-.062.727.025,1.1a3.82,3.82,0,0,0,.9,1.463,2.125,2.125,0,0,1,.518.847A1.108,1.108,0,0,1,678.591,184.394Z" transform="translate(-668.034 -170.805)" fill="#618226"/><path d="M684.651,164.2c-.048.21-.244.2-.417.2-.586,0-1.172,0-1.758,0s-1.173-.006-1.758,0c-.268,0-.4-.092-.387-.377.014-.323.006-.647,0-.972a.408.408,0,0,1,.439-.474c1.188-.008,2.375,0,3.563-.008.115,0,.222.015.264.137A2.7,2.7,0,0,1,684.651,164.2Z" transform="translate(-678.277 -160.331)" fill="#618226"/><path d="M687.484,150.99c.008.208-.144.2-.285.2h-1.153v0c-.4,0-.8-.008-1.2,0-.24.006-.336-.1-.329-.331.015-.4.015-.8.044-1.2a.449.449,0,0,1,.473-.462c.615-.008,1.23-.008,1.845-.018.332-.006.45.225.526.482A5.42,5.42,0,0,1,687.484,150.99Z" transform="translate(-681.765 -149.177)" fill="#618226"/></g></g></g></svg>