<svg xmlns="http://www.w3.org/2000/svg" xmlns:xlink="http://www.w3.org/1999/xlink" width="55" height="56" viewBox="0 0 55 56"><defs><filter id="a" x="0" y="0" width="55" height="56" filterUnits="userSpaceOnUse"><feOffset dy="3" input="SourceAlpha"/><feGaussianBlur stdDeviation="3" result="b"/><feFlood flood-opacity="0.161"/><feComposite operator="in" in2="b"/><feComposite in="SourceGraphic"/></filter></defs><g transform="translate(16 -674)"><g transform="translate(160 -371)"><g transform="matrix(1, 0, 0, 1, -176, 1045)" filter="url(#a)"><rect width="37" height="38" rx="4" transform="translate(9 6)" fill="#fff"/></g><g transform="translate(-155 1054)"><ellipse cx="2.442" cy="2.951" rx="2.442" ry="2.951" transform="translate(3.726 0)" fill="#618226"/><rect width="4.816" height="13.413" rx="2.408" transform="translate(3.792 7.624)" fill="#618226"/><rect width="2.325" height="12.236" rx="1.163" transform="translate(3.792 18.874)" fill="#618226"/><path d="M2219.8,1369.941h0a1.072,1.072,0,0,1-1.57.59l-4.682-2.974a1.56,1.56,0,0,1-.488-1.9h0a1.072,1.072,0,0,1,1.57-.59l4.682,2.974A1.56,1.56,0,0,1,2219.8,1369.941Z" transform="translate(-2207.045 -1346.559)" fill="#618226"/><rect width="2.81" height="7.806" rx="1.405" transform="translate(5.104 24.36) rotate(-90)" fill="#618226"/><path d="M2185.577,1320.421h0a.858.858,0,0,0,1.341-.257l3.313-5.513a1.323,1.323,0,0,0-.213-1.62h0a.857.857,0,0,0-1.34.257l-3.314,5.513A1.322,1.322,0,0,0,2185.577,1320.421Z" transform="translate(-2185.032 -1305.215)" fill="#618226"/><rect width="2.189" height="6.613" rx="1.094" transform="translate(0 15.645) rotate(-90)" fill="#618226"/><path d="M2222.937,1320.421h0a.858.858,0,0,1-1.34-.257l-3.314-5.513a1.324,1.324,0,0,1,.213-1.62h0a.858.858,0,0,1,1.34.257l3.314,5.513A1.323,1.323,0,0,1,2222.937,1320.421Z" transform="translate(-2211.155 -1305.215)" fill="#618226"/><rect width="2.189" height="6.613" rx="1.094" transform="translate(5.714 15.645) rotate(-90)" fill="#618226"/></g></g></g></svg>