<svg xmlns="http://www.w3.org/2000/svg" xmlns:xlink="http://www.w3.org/1999/xlink" width="55" height="56" viewBox="0 0 55 56"><defs><filter id="a" x="0" y="0" width="55" height="56" filterUnits="userSpaceOnUse"><feOffset dy="3" input="SourceAlpha"/><feGaussianBlur stdDeviation="3" result="b"/><feFlood flood-opacity="0.161"/><feComposite operator="in" in2="b"/><feComposite in="SourceGraphic"/></filter></defs><g transform="translate(-130 -724)"><g transform="matrix(1, 0, 0, 1, 130, 724)" filter="url(#a)"><rect width="37" height="38" rx="4" transform="translate(9 6)" fill="#fff"/></g><g transform="translate(142 736)"><path d="M2398.151,1956.606a1.912,1.912,0,0,1,1.906-1q7.6.042,15.194,0a2.345,2.345,0,0,1,1.86.775c1.242,1.309,2.508,2.6,3.805,3.853a1.762,1.762,0,0,0,1.077.463c1.851.046,3.7.042,5.556.013a2.083,2.083,0,0,1,2.264,1.386v.7a2.033,2.033,0,0,1-2.25,1.386,50.276,50.276,0,0,0-5.132.02,4.275,4.275,0,0,1-4.207-1.78,1.391,1.391,0,0,0-1.278-.545c-5.65.017-11.3,0-16.951.019a1.7,1.7,0,0,1-1.845-1.07Z" transform="translate(-2398.151 -1937.405)" fill="#618226"/><path d="M2407.85,1930.682c.761-1.91,1.48-3.731,2.214-5.547.394-.975.836-1.932,1.217-2.912a1.487,1.487,0,0,1,1.494-1.062c1.671.029,3.343.082,4.559,1.517a14.781,14.781,0,0,0,7.492,4.675,1.32,1.32,0,0,1,1.092,1.438,1.238,1.238,0,0,1-1.056,1.229,1.843,1.843,0,0,1-.948-.1,45.753,45.753,0,0,1-4.377-1.7,14.69,14.69,0,0,1-2.348-1.779c.06.907-.559,1.475-1.17,2.09a19.076,19.076,0,0,0-1.366,1.749c-.117.149-.271.383-.41.384C2412.144,1930.689,2410.042,1930.682,2407.85,1930.682Z" transform="translate(-2404.937 -1913.304)" fill="#618226"/><path d="M2472.893,1942.427a3.942,3.942,0,0,1-.021,7.884,3.967,3.967,0,0,1-3.943-4A3.926,3.926,0,0,1,2472.893,1942.427Z" transform="translate(-2447.673 -1928.184)" fill="#618226"/><path d="M2429.822,1902.591a3.8,3.8,0,1,1,3.8-3.784A3.781,3.781,0,0,1,2429.822,1902.591Z" transform="translate(-2417.652 -1895)" fill="#618226"/></g></g></svg>