<svg xmlns="http://www.w3.org/2000/svg" xmlns:xlink="http://www.w3.org/1999/xlink" width="55" height="56" viewBox="0 0 55 56"><defs><filter id="a" x="0" y="0" width="55" height="56" filterUnits="userSpaceOnUse"><feOffset dy="3" input="SourceAlpha"/><feGaussianBlur stdDeviation="3" result="b"/><feFlood flood-opacity="0.161"/><feComposite operator="in" in2="b"/><feComposite in="SourceGraphic"/></filter></defs><g transform="translate(-84 -829.716)"><g transform="matrix(1, 0, 0, 1, 84, 829.72)" filter="url(#a)"><rect width="37" height="38" rx="4" transform="translate(9 6)" fill="#fff"/></g><g transform="translate(97 840.716)"><path d="M665.549,607.888c1.547,0,3-.026,4.46.028.218.008.491.347.622.6,1.56,2.961,3.112,5.927,4.627,8.911a1.1,1.1,0,0,0,1.162.7c2.207-.033,4.416-.039,6.622,0a3.351,3.351,0,0,1,3.261,3.03,3.387,3.387,0,0,1-2.429,3.59,5.074,5.074,0,0,1-1.339.142c-1.968.014-3.938.052-5.9-.016a1.4,1.4,0,0,0-1.5.939c-1.454,2.9-2.984,5.753-4.456,8.64a1.033,1.033,0,0,1-1.092.675c-1.322-.044-2.646-.014-4.037-.014l2-10.209c-1.624,0-3.155-.014-4.685.02-.175,0-.381.257-.508.439-.578.828-1.121,1.681-1.706,2.5a.984.984,0,0,1-.59.437c-1,.045-2.008.02-3.055.02V614.674c1.029,0,2.058-.025,3.084.021.2.009.439.26.578.458.583.825,1.122,1.681,1.708,2.5a.962.962,0,0,0,.6.425c1.484.036,2.97.019,4.575.019C666.872,614.668,666.219,611.325,665.549,607.888Z" transform="translate(-657 -607.882)" fill="#618226"/></g></g></svg>