<svg xmlns="http://www.w3.org/2000/svg" width="15.689" height="22" viewBox="0 0 15.689 22">
  <path id="Icon_metro-steps" data-name="Icon metro-steps" d="M11.694,3.856c-1.844,0-3.339,2.462-3.339,5.5a48.147,48.147,0,0,0,.835,6.25c.327,2.168,1.121,3.964,2.5,3.964S14,18.372,14,16.183c0-.746-.613-1.934-.64-2.947-.05-1.828,1.226-2.558,1.226-4.248,0-3.038-1.052-5.132-2.9-5.132Zm9.01,6.286c-1.844,0-2.9,2.094-2.9,5.132,0,1.69,1.276,2.42,1.226,4.248-.027,1.014-.64,2.2-.64,2.947,0,2.19.927,3.388,2.31,3.388s2.178-1.8,2.5-3.964a48.147,48.147,0,0,0,.835-6.25C24.044,12.6,22.549,10.142,20.7,10.142Z" transform="translate(-8.355 -3.856)" fill="#618226"/>
</svg>
