<svg xmlns="http://www.w3.org/2000/svg" width="20" height="20" viewBox="0 0 20 20">
  <path id="Icon_metro-qrcode" data-name="Icon metro-qrcode" d="M8.821,3.178h-5v5h5Zm1.25-1.25v7.5h-7.5v-7.5Zm-5,2.5h2.5v2.5h-2.5Zm16.25-1.25h-5v5h5Zm1.25-1.25v7.5h-7.5v-7.5h7.5Zm-5,2.5h2.5v2.5h-2.5Zm-8.75,11.25h-5v5h5Zm1.25-1.25v7.5h-7.5v-7.5Zm-5,2.5h2.5v2.5h-2.5Zm6.25-15h1.25v1.25h-1.25Zm1.25,1.25h1.25v1.25h-1.25Zm-1.25,1.25h1.25v1.25h-1.25Zm1.25,1.25h1.25v1.25h-1.25Zm-1.25,1.25h1.25v1.25h-1.25Zm1.25,1.25h1.25v1.25h-1.25Zm-1.25,1.25h1.25v1.25h-1.25Zm0,2.5h1.25v1.25h-1.25Zm1.25,1.25h1.25v1.25h-1.25Zm-1.25,1.25h1.25v1.25h-1.25Zm1.25,1.25h1.25v1.25h-1.25Zm-1.25,1.25h1.25v1.25h-1.25Zm1.25,1.25h1.25v1.25h-1.25Zm-1.25,1.25h1.25v1.25h-1.25Zm1.25,1.25h1.25v1.25h-1.25Zm8.75-8.75h1.25v1.25h-1.25Zm-17.5,0h1.25v1.25H3.821Zm1.25-1.25h1.25v1.25H5.071Zm-2.5,0h1.25v1.25H2.571Zm5,0h1.25v1.25H7.571Zm1.25,1.25h1.25v1.25H8.821Zm1.25-1.25h1.25v1.25h-1.25Zm3.75,1.25h1.25v1.25h-1.25Zm1.25-1.25h1.25v1.25h-1.25Zm1.25,1.25h1.25v1.25h-1.25Zm1.25-1.25h1.25v1.25h-1.25Zm1.25,1.25h1.25v1.25h-1.25Zm1.25-1.25h1.25v1.25h-1.25Zm1.25,3.75h1.25v1.25h-1.25Zm-7.5,0h1.25v1.25h-1.25Zm1.25-1.25h1.25v1.25h-1.25Zm1.25,1.25h1.25v1.25h-1.25Zm2.5,0h1.25v1.25h-1.25Zm1.25-1.25h1.25v1.25h-1.25Zm1.25,3.75h1.25v1.25h-1.25Zm-7.5,0h1.25v1.25h-1.25Zm1.25-1.25h1.25v1.25h-1.25Zm2.5,0h1.25v1.25h-1.25Zm1.25,1.25h1.25v1.25h-1.25Zm1.25-1.25h1.25v1.25h-1.25Zm1.25,3.75h1.25v1.25h-1.25Zm-6.25-1.25h1.25v1.25h-1.25Zm1.25,1.25h1.25v1.25h-1.25Zm1.25-1.25h1.25v1.25h-1.25Zm1.25,1.25h1.25v1.25h-1.25Zm-3.75,1.25h1.25v1.25h-1.25Zm2.5,0h1.25v1.25h-1.25Zm2.5,0h1.25v1.25h-1.25Z" transform="translate(-2.571 -1.928)" fill="#618226"/>
</svg>
